<svg xmlns="http://www.w3.org/2000/svg" xmlns:xlink="http://www.w3.org/1999/xlink" xmlns:jfreesvg="http://www.jfree.org/jfreesvg/svg" width="653px" height="404px" text-rendering="auto" shape-rendering="auto">
<defs><clipPath id="_2194414828092321clip-0"><path d="M 0 0 L 0 102 L 399 102 L 399 0 Z "/></clipPath>
<clipPath id="_2194414828092321clip-1"><path d="M 399 0 L 399 102 L 646 102 L 646 0 Z "/></clipPath>
<clipPath id="_2194414828092321clip-2"><path d="M 0 102 L 0 127 L 399 127 L 399 102 Z "/></clipPath>
<clipPath id="_2194414828092321clip-3"><path d="M 399 102 L 399 127 L 646 127 L 646 102 Z "/></clipPath>
</defs>
<rect x="0" y="0" width="653" height="404" style="fill: rgb(0,0,0); fill-opacity: 1.0" transform="matrix(1,0,0,1,0,0)" /><g style="fill: rgb(255,255,255); fill-opacity: 1.0; stroke: none" transform="matrix(1,0,0,1,6,4)" clip-path="url(#_2194414828092321clip-0)"><path d="M 0 0 L 0 102 L 399 102 L 399 0 Z "/></g><rect x="39" y="9.3" width="274.9" height="29.27" style="fill: rgb(255,255,255); fill-opacity: 1.0" transform="matrix(1,0,0,1,6,4)" clip-path="url(#_2194414828092321clip-0)"/><g style="fill: rgb(0,0,0); fill-opacity: 1.0; stroke: none" transform="matrix(1,0,0,1,6,4)" clip-path="url(#_2194414828092321clip-0)"><path d="M 51.41 25.23 Q 51.41 26.38 50.96 27.26 Q 50.52 28.14 49.69 28.75 Q 48.86 29.36 47.7 29.68 Q 46.53 30 45.11 30 L 40.92 30 L 40.92 14.05 L 45.5 14.05 Q 50.83 14.05 50.83 17.92 Q 50.83 19.22 50.21 20.15 Q 49.59 21.08 48.2 21.53 Q 48.84 21.66 49.43 21.95 Q 50.02 22.23 50.45 22.7 Q 50.89 23.16 51.15 23.8 Q 51.41 24.44 51.41 25.23 Z  M 48.58 18.22 Q 48.58 17.73 48.43 17.3 Q 48.28 16.86 47.91 16.55 Q 47.55 16.25 46.92 16.06 Q 46.3 15.88 45.34 15.88 L 43.11 15.88 L 43.11 20.88 L 45.28 20.88 Q 46.02 20.88 46.62 20.71 Q 47.23 20.55 47.66 20.22 Q 48.09 19.89 48.34 19.4 Q 48.58 18.91 48.58 18.22 Z  M 49.09 25.3 Q 49.09 24.69 48.84 24.2 Q 48.58 23.72 48.09 23.38 Q 47.61 23.05 46.91 22.86 Q 46.2 22.67 45.33 22.67 L 43.11 22.67 L 43.11 28.17 L 45.39 28.17 Q 47.27 28.17 48.18 27.48 Q 49.09 26.78 49.09 25.3 Z  M 58.87 14.5 L 55.25 14.5 L 55.25 12.75 L 61.03 12.75 L 61.03 28.23 L 64.67 28.23 L 64.67 30 L 54.84 30 L 54.84 28.23 L 58.87 28.23 L 58.87 14.5 Z  M 76.32 30 L 76.27 28.36 Q 75.27 29.34 74.24 29.78 Q 73.21 30.22 72.07 30.22 Q 71.02 30.22 70.28 29.95 Q 69.54 29.69 69.05 29.22 Q 68.57 28.75 68.34 28.11 Q 68.12 27.47 68.12 26.73 Q 68.12 24.89 69.49 23.84 Q 70.87 22.8 73.55 22.8 L 76.08 22.8 L 76.08 21.72 Q 76.08 20.64 75.39 19.98 Q 74.69 19.33 73.27 19.33 Q 72.22 19.33 71.22 19.56 Q 70.21 19.8 69.15 20.22 L 69.15 18.31 Q 69.54 18.16 70.04 18.02 Q 70.54 17.88 71.08 17.77 Q 71.63 17.66 72.22 17.59 Q 72.82 17.53 73.44 17.53 Q 74.55 17.53 75.44 17.77 Q 76.33 18.02 76.95 18.52 Q 77.57 19.02 77.9 19.77 Q 78.22 20.53 78.22 21.55 L 78.22 30 L 76.32 30 Z  M 76.08 24.42 L 73.38 24.42 Q 72.6 24.42 72.02 24.58 Q 71.44 24.73 71.08 25.03 Q 70.71 25.33 70.54 25.73 Q 70.37 26.14 70.37 26.66 Q 70.37 27.02 70.47 27.34 Q 70.58 27.66 70.83 27.91 Q 71.07 28.16 71.46 28.3 Q 71.85 28.45 72.41 28.45 Q 73.15 28.45 74.09 28.01 Q 75.04 27.56 76.08 26.59 L 76.08 24.42 Z  M 91.7 29.55 Q 90.88 29.86 90.01 30.02 Q 89.14 30.17 88.2 30.17 Q 85.3 30.17 83.73 28.59 Q 82.16 27.02 82.16 24 Q 82.16 22.55 82.61 21.36 Q 83.06 20.17 83.88 19.33 Q 84.7 18.48 85.84 18.03 Q 86.97 17.58 88.34 17.58 Q 89.3 17.58 90.13 17.71 Q 90.95 17.84 91.7 18.14 L 91.7 20.17 Q 90.92 19.77 90.09 19.57 Q 89.27 19.38 88.39 19.38 Q 87.58 19.38 86.85 19.69 Q 86.13 20 85.57 20.59 Q 85.02 21.17 84.7 22.02 Q 84.39 22.86 84.39 23.92 Q 84.39 26.14 85.47 27.25 Q 86.55 28.36 88.47 28.36 Q 89.33 28.36 90.14 28.16 Q 90.95 27.97 91.7 27.58 L 91.7 29.55 Z  M 106.95 30 L 104.04 30 L 98.32 23.44 L 98.32 30 L 96.2 30 L 96.2 12.75 L 98.32 12.75 L 98.32 23.34 L 103.82 17.75 L 106.64 17.75 L 100.89 23.39 L 106.95 30 Z  M 133.64 25.67 Q 133.64 26.81 133.18 27.66 Q 132.72 28.52 131.88 29.09 Q 131.05 29.66 129.88 29.94 Q 128.72 30.22 127.31 30.22 Q 126.69 30.22 126.06 30.17 Q 125.42 30.12 124.85 30.05 Q 124.27 29.97 123.75 29.88 Q 123.24 29.78 122.83 29.67 L 122.83 27.58 Q 123.74 27.91 124.88 28.1 Q 126.02 28.3 127.47 28.3 Q 128.53 28.3 129.27 28.13 Q 130 27.97 130.47 27.65 Q 130.94 27.33 131.16 26.87 Q 131.38 26.41 131.38 25.8 Q 131.38 25.16 131.02 24.7 Q 130.66 24.23 130.07 23.88 Q 129.49 23.52 128.73 23.22 Q 127.97 22.92 127.19 22.6 Q 126.41 22.28 125.66 21.91 Q 124.91 21.55 124.32 21.04 Q 123.74 20.53 123.38 19.84 Q 123.02 19.16 123.02 18.22 Q 123.02 17.41 123.36 16.61 Q 123.71 15.81 124.42 15.2 Q 125.14 14.58 126.28 14.2 Q 127.41 13.83 128.97 13.83 Q 129.36 13.83 129.84 13.87 Q 130.31 13.91 130.79 13.97 Q 131.27 14.03 131.74 14.12 Q 132.22 14.2 132.61 14.3 L 132.61 16.25 Q 131.67 15.98 130.74 15.84 Q 129.8 15.7 128.92 15.7 Q 127.05 15.7 126.17 16.33 Q 125.3 16.95 125.3 18 Q 125.3 18.64 125.66 19.11 Q 126.02 19.58 126.6 19.95 Q 127.19 20.31 127.94 20.61 Q 128.69 20.91 129.47 21.23 Q 130.25 21.55 131 21.92 Q 131.75 22.3 132.34 22.81 Q 132.92 23.33 133.28 24.02 Q 133.64 24.72 133.64 25.67 Z  M 147.84 23.78 Q 147.84 25.2 147.43 26.39 Q 147.03 27.58 146.27 28.43 Q 145.51 29.28 144.43 29.75 Q 143.34 30.22 141.97 30.22 Q 140.65 30.22 139.61 29.81 Q 138.56 29.41 137.83 28.61 Q 137.11 27.81 136.72 26.64 Q 136.34 25.47 136.34 23.94 Q 136.34 22.52 136.74 21.34 Q 137.14 20.16 137.9 19.31 Q 138.65 18.47 139.74 18 Q 140.83 17.53 142.22 17.53 Q 143.53 17.53 144.58 17.94 Q 145.62 18.34 146.35 19.13 Q 147.08 19.92 147.46 21.09 Q 147.84 22.27 147.84 23.78 Z  M 145.67 23.88 Q 145.67 22.73 145.42 21.89 Q 145.17 21.05 144.7 20.48 Q 144.23 19.91 143.57 19.62 Q 142.9 19.33 142.09 19.33 Q 141.14 19.33 140.46 19.7 Q 139.78 20.08 139.35 20.7 Q 138.92 21.33 138.72 22.15 Q 138.51 22.97 138.51 23.88 Q 138.51 25 138.76 25.86 Q 139.01 26.72 139.47 27.28 Q 139.93 27.84 140.6 28.13 Q 141.26 28.42 142.09 28.42 Q 143.04 28.42 143.72 28.05 Q 144.4 27.69 144.83 27.06 Q 145.26 26.44 145.47 25.61 Q 145.67 24.78 145.67 23.88 Z  M 155.09 14.5 L 151.46 14.5 L 151.46 12.75 L 157.24 12.75 L 157.24 28.23 L 160.88 28.23 L 160.88 30 L 151.05 30 L 151.05 28.23 L 155.09 28.23 L 155.09 14.5 Z  M 189.08 23.78 Q 189.08 25.2 188.67 26.39 Q 188.26 27.58 187.51 28.43 Q 186.75 29.28 185.66 29.75 Q 184.58 30.22 183.2 30.22 Q 181.89 30.22 180.84 29.81 Q 179.79 29.41 179.07 28.61 Q 178.34 27.81 177.96 26.64 Q 177.58 25.47 177.58 23.94 Q 177.58 22.52 177.97 21.34 Q 178.37 20.16 179.13 19.31 Q 179.89 18.47 180.97 18 Q 182.06 17.53 183.45 17.53 Q 184.76 17.53 185.81 17.94 Q 186.86 18.34 187.58 19.13 Q 188.31 19.92 188.69 21.09 Q 189.08 22.27 189.08 23.78 Z  M 186.9 23.88 Q 186.9 22.73 186.65 21.89 Q 186.4 21.05 185.94 20.48 Q 185.47 19.91 184.8 19.62 Q 184.14 19.33 183.33 19.33 Q 182.37 19.33 181.69 19.7 Q 181.01 20.08 180.58 20.7 Q 180.15 21.33 179.95 22.15 Q 179.75 22.97 179.75 23.88 Q 179.75 25 180 25.86 Q 180.25 26.72 180.71 27.28 Q 181.17 27.84 181.83 28.13 Q 182.5 28.42 183.33 28.42 Q 184.28 28.42 184.96 28.05 Q 185.64 27.69 186.07 27.06 Q 186.5 26.44 186.7 25.61 Q 186.9 24.78 186.9 23.88 Z  M 203.02 14.73 Q 201.35 14.38 200.15 14.38 Q 197.27 14.38 197.27 17.38 L 197.27 19.53 L 202.65 19.53 L 202.65 21.3 L 197.27 21.3 L 197.27 30 L 195.12 30 L 195.12 21.3 L 191.18 21.3 L 191.18 19.53 L 195.12 19.53 L 195.12 17.5 Q 195.12 12.61 200.21 12.61 Q 201.49 12.61 203.02 12.89 L 203.02 14.73 Z  M 231.31 30 L 228.94 30 L 227.83 26.52 L 221.19 26.52 L 220.06 30 L 217.81 30 L 223.11 14.05 L 226.09 14.05 L 231.31 30 Z  M 227.2 24.58 L 224.51 16.05 L 221.81 24.58 L 227.2 24.58 Z  M 237.56 14.5 L 233.93 14.5 L 233.93 12.75 L 239.71 12.75 L 239.71 28.23 L 243.35 28.23 L 243.35 30 L 233.53 30 L 233.53 28.23 L 237.56 28.23 L 237.56 14.5 Z  M 256.65 29.55 Q 255.82 29.86 254.95 30.02 Q 254.08 30.17 253.15 30.17 Q 250.24 30.17 248.67 28.59 Q 247.1 27.02 247.1 24 Q 247.1 22.55 247.55 21.36 Q 248 20.17 248.83 19.33 Q 249.65 18.48 250.78 18.03 Q 251.91 17.58 253.29 17.58 Q 254.24 17.58 255.07 17.71 Q 255.9 17.84 256.65 18.14 L 256.65 20.17 Q 255.86 19.77 255.04 19.57 Q 254.21 19.38 253.33 19.38 Q 252.52 19.38 251.79 19.69 Q 251.07 20 250.51 20.59 Q 249.96 21.17 249.65 22.02 Q 249.33 22.86 249.33 23.92 Q 249.33 26.14 250.41 27.25 Q 251.49 28.36 253.41 28.36 Q 254.27 28.36 255.08 28.16 Q 255.9 27.97 256.65 27.58 L 256.65 29.55 Z  M 270.72 30 L 268.61 30 L 268.61 22.17 Q 268.61 20.77 268.08 20.06 Q 267.55 19.36 266.55 19.36 Q 266.12 19.36 265.75 19.48 Q 265.38 19.59 264.98 19.88 Q 264.58 20.16 264.1 20.65 Q 263.62 21.14 263 21.88 L 263 30 L 260.88 30 L 260.88 12.75 L 263 12.75 L 263 17.75 L 262.92 19.67 Q 263.42 19.08 263.91 18.66 Q 264.39 18.25 264.88 18 Q 265.36 17.75 265.86 17.64 Q 266.36 17.53 266.89 17.53 Q 268.72 17.53 269.72 18.65 Q 270.72 19.77 270.72 22 L 270.72 30 Z  M 284.98 23.22 Q 284.98 23.67 284.96 23.98 Q 284.95 24.28 284.92 24.56 L 276.32 24.56 Q 276.32 26.44 277.37 27.45 Q 278.42 28.45 280.4 28.45 Q 280.93 28.45 281.47 28.41 Q 282.01 28.36 282.51 28.29 Q 283.01 28.22 283.46 28.12 Q 283.92 28.03 284.31 27.92 L 284.31 29.67 Q 283.45 29.92 282.35 30.07 Q 281.26 30.22 280.09 30.22 Q 278.51 30.22 277.38 29.79 Q 276.25 29.36 275.52 28.55 Q 274.79 27.73 274.44 26.56 Q 274.09 25.39 274.09 23.89 Q 274.09 22.61 274.46 21.45 Q 274.84 20.3 275.55 19.42 Q 276.26 18.55 277.3 18.04 Q 278.34 17.53 279.67 17.53 Q 280.95 17.53 281.93 17.93 Q 282.92 18.33 283.6 19.07 Q 284.28 19.81 284.63 20.87 Q 284.98 21.92 284.98 23.22 Z  M 282.76 22.92 Q 282.79 22.11 282.6 21.43 Q 282.4 20.75 282 20.26 Q 281.59 19.77 280.98 19.49 Q 280.37 19.22 279.56 19.22 Q 278.87 19.22 278.29 19.49 Q 277.71 19.77 277.3 20.25 Q 276.89 20.73 276.64 21.42 Q 276.39 22.11 276.32 22.92 L 282.76 22.92 Z  M 297.1 30 L 297.1 21.2 Q 297.1 20.62 297.06 20.26 Q 297.02 19.89 296.93 19.68 Q 296.83 19.47 296.69 19.38 Q 296.55 19.3 296.35 19.3 Q 296.1 19.3 295.9 19.45 Q 295.69 19.59 295.45 19.92 Q 295.21 20.25 294.93 20.79 Q 294.65 21.33 294.26 22.12 L 294.26 30 L 292.3 30 L 292.3 21.44 Q 292.3 20.77 292.26 20.34 Q 292.22 19.92 292.13 19.7 Q 292.04 19.47 291.89 19.38 Q 291.74 19.3 291.54 19.3 Q 291.32 19.3 291.12 19.41 Q 290.93 19.53 290.69 19.85 Q 290.46 20.17 290.16 20.72 Q 289.87 21.27 289.46 22.12 L 289.46 30 L 287.51 30 L 287.51 17.75 L 289.13 17.75 L 289.22 20.08 Q 289.55 19.38 289.85 18.89 Q 290.15 18.41 290.47 18.11 Q 290.79 17.81 291.15 17.67 Q 291.51 17.53 291.94 17.53 Q 292.93 17.53 293.44 18.17 Q 293.96 18.81 293.96 20.17 Q 294.26 19.53 294.54 19.04 Q 294.82 18.55 295.14 18.21 Q 295.46 17.88 295.85 17.7 Q 296.24 17.53 296.76 17.53 Q 299.05 17.53 299.05 21.08 L 299.05 30 L 297.1 30 Z  M 313.02 17.75 L 308.83 28.7 Q 308.19 30.38 307.5 31.59 Q 306.81 32.8 305.99 33.57 Q 305.17 34.34 304.2 34.71 Q 303.22 35.08 302.02 35.08 Q 301.69 35.08 301.44 35.06 Q 301.19 35.05 300.88 35.03 L 300.88 33.09 Q 301.14 33.14 301.46 33.17 Q 301.78 33.2 302.14 33.2 Q 302.72 33.2 303.23 33.03 Q 303.74 32.86 304.19 32.48 Q 304.64 32.09 305.06 31.48 Q 305.47 30.86 305.86 30 L 300.97 17.75 L 303.38 17.75 L 306.49 25.84 L 307.11 27.75 L 307.81 25.8 L 310.67 17.75 L 313.02 17.75 Z "/></g><g style="stroke-width: 3.0;stroke: rgb(0,0,0);stroke-opacity: 1.0;stroke-linecap: square;; fill: none" transform="matrix(1,0,0,1,6,4)" clip-path="url(#_2194414828092321clip-0)"><path d="M 0 0 L 0 102 L 399 102 L 399 0 Z "/></g><g style="fill: rgb(255,255,255); fill-opacity: 1.0; stroke: none" transform="matrix(1,0,0,1,6,4)" clip-path="url(#_2194414828092321clip-1)"><path d="M 399 0 L 399 102 L 646 102 L 646 0 Z "/></g><rect x="470" y="9.3" width="151.2" height="29.27" style="fill: rgb(255,255,255); fill-opacity: 1.0" transform="matrix(1,0,0,1,6,4)" clip-path="url(#_2194414828092321clip-1)"/><g style="fill: rgb(0,0,255); fill-opacity: 1.0; stroke: none" transform="matrix(1,0,0,1,6,4)" clip-path="url(#_2194414828092321clip-1)"><path d="M 480.23 35 L 474.22 35 L 474.22 12.33 L 480.23 12.33 L 480.23 14.03 L 476.23 14.03 L 476.23 33.3 L 480.23 33.3 L 480.23 35 Z  M 496.53 30 L 493.79 30 L 487.82 22.17 L 487.82 30 L 485.65 30 L 485.65 14.05 L 487.82 14.05 L 487.82 21.45 L 493.67 14.05 L 496.25 14.05 L 489.95 21.62 L 496.53 30 Z  M 509.8 30 L 506.96 30 L 502.32 20.05 L 500.97 16.86 L 500.97 24.89 L 500.97 30 L 498.94 30 L 498.94 14.05 L 501.74 14.05 L 506.16 23.47 L 507.77 27.12 L 507.77 18.58 L 507.77 14.05 L 509.8 14.05 L 509.8 30 Z  M 524.31 21.92 Q 524.31 24.06 523.81 25.62 Q 523.3 27.19 522.44 28.21 Q 521.58 29.23 520.42 29.73 Q 519.27 30.22 517.99 30.22 Q 516.45 30.22 515.31 29.66 Q 514.17 29.11 513.42 28.06 Q 512.66 27.02 512.3 25.51 Q 511.94 24 511.94 22.11 Q 511.94 19.98 512.44 18.42 Q 512.94 16.86 513.8 15.84 Q 514.66 14.81 515.81 14.32 Q 516.95 13.83 518.24 13.83 Q 519.77 13.83 520.91 14.39 Q 522.05 14.95 522.81 15.99 Q 523.56 17.03 523.94 18.53 Q 524.31 20.03 524.31 21.92 Z  M 522.05 22.08 Q 522.05 20.67 521.84 19.51 Q 521.63 18.34 521.15 17.5 Q 520.67 16.66 519.92 16.2 Q 519.17 15.73 518.11 15.73 Q 517.08 15.73 516.34 16.23 Q 515.61 16.72 515.13 17.57 Q 514.66 18.42 514.42 19.56 Q 514.19 20.7 514.19 21.98 Q 514.19 23.39 514.41 24.56 Q 514.63 25.73 515.09 26.57 Q 515.56 27.41 516.31 27.87 Q 517.06 28.33 518.11 28.33 Q 519.13 28.33 519.88 27.84 Q 520.63 27.34 521.11 26.49 Q 521.59 25.64 521.82 24.51 Q 522.05 23.38 522.05 22.08 Z  M 538.18 14.05 L 537.11 30 L 534.28 30 L 532.31 24.33 L 531.76 22.5 L 531.18 24.47 L 529.36 30 L 526.62 30 L 525.53 14.05 L 527.57 14.05 L 528.2 24.89 L 528.39 27.88 L 529.15 25.34 L 531.09 19.42 L 532.59 19.42 L 534.81 25.78 L 535.56 27.88 L 535.61 25.67 L 536.23 14.05 L 538.18 14.05 Z  M 550.76 30 L 541.57 30 L 541.57 14.05 L 543.77 14.05 L 543.77 28.14 L 550.76 28.14 L 550.76 30 Z  M 564 30 L 554.92 30 L 554.92 14.05 L 564 14.05 L 564 15.88 L 557.1 15.88 L 557.1 20.81 L 563.72 20.81 L 563.72 22.66 L 557.1 22.66 L 557.1 28.14 L 564 28.14 L 564 30 Z  M 579.08 21.84 Q 579.08 23 578.9 24.05 Q 578.72 25.09 578.33 26 Q 577.93 26.91 577.31 27.64 Q 576.68 28.38 575.79 28.9 Q 574.89 29.42 573.69 29.71 Q 572.5 30 570.97 30 L 567.54 30 L 567.54 14.05 L 571.65 14.05 Q 575.4 14.05 577.24 15.97 Q 579.08 17.89 579.08 21.84 Z  M 576.79 22 Q 576.79 20.31 576.47 19.14 Q 576.15 17.97 575.5 17.24 Q 574.86 16.52 573.88 16.2 Q 572.9 15.88 571.59 15.88 L 569.72 15.88 L 569.72 28.12 L 571.34 28.12 Q 576.79 28.12 576.79 22 Z  M 592.24 16.78 Q 591.35 16.3 590.41 16.04 Q 589.48 15.78 588.37 15.78 Q 587.09 15.78 586.1 16.23 Q 585.12 16.69 584.44 17.51 Q 583.76 18.33 583.4 19.49 Q 583.04 20.66 583.04 22.05 Q 583.04 23.52 583.33 24.68 Q 583.62 25.84 584.24 26.65 Q 584.87 27.45 585.84 27.88 Q 586.8 28.3 588.16 28.3 Q 588.4 28.3 588.66 28.27 Q 588.93 28.25 589.2 28.21 Q 589.48 28.17 589.73 28.11 Q 589.98 28.05 590.16 27.97 L 590.16 22.89 L 586.91 22.89 L 586.91 21.09 L 592.32 21.09 L 592.32 29.25 Q 591.82 29.48 591.27 29.67 Q 590.71 29.86 590.12 29.98 Q 589.54 30.09 588.97 30.16 Q 588.4 30.22 587.85 30.22 Q 586.23 30.22 584.91 29.7 Q 583.6 29.19 582.68 28.19 Q 581.76 27.19 581.27 25.68 Q 580.77 24.17 580.77 22.2 Q 580.77 20.23 581.32 18.68 Q 581.87 17.12 582.86 16.04 Q 583.85 14.95 585.25 14.39 Q 586.65 13.83 588.34 13.83 Q 589.41 13.83 590.38 14.02 Q 591.35 14.2 592.24 14.62 L 592.24 16.78 Z  M 605.24 30 L 596.16 30 L 596.16 14.05 L 605.24 14.05 L 605.24 15.88 L 598.33 15.88 L 598.33 20.81 L 604.96 20.81 L 604.96 22.66 L 598.33 22.66 L 598.33 28.14 L 605.24 28.14 L 605.24 30 Z  M 616.98 35 L 610.97 35 L 610.97 33.3 L 614.94 33.3 L 614.94 14.03 L 610.97 14.03 L 610.97 12.33 L 616.98 12.33 L 616.98 35 Z "/></g><rect x="484" y="38.3" width="137.45" height="29.27" style="fill: rgb(255,255,255); fill-opacity: 1.0" transform="matrix(1,0,0,1,6,4)" clip-path="url(#_2194414828092321clip-1)"/><g style="fill: rgb(0,0,255); fill-opacity: 1.0; stroke: none" transform="matrix(1,0,0,1,6,4)" clip-path="url(#_2194414828092321clip-1)"><path d="M 494.23 64 L 488.22 64 L 488.22 41.33 L 494.23 41.33 L 494.23 43.03 L 490.23 43.03 L 490.23 62.3 L 494.23 62.3 L 494.23 64 Z  M 509.28 59 L 500.2 59 L 500.2 43.05 L 509.28 43.05 L 509.28 44.88 L 502.37 44.88 L 502.37 49.81 L 509 49.81 L 509 51.66 L 502.37 51.66 L 502.37 57.14 L 509.28 57.14 L 509.28 59 Z  M 524.94 59 L 522.19 59 L 518.32 52.55 L 514.43 59 L 511.71 59 L 517.02 50.84 L 512.13 43.05 L 514.71 43.05 L 518.37 49.05 L 522.04 43.05 L 524.54 43.05 L 519.65 50.75 L 524.94 59 Z  M 537.38 58.41 Q 535.47 59.2 533.36 59.2 Q 529.99 59.2 528.17 57.18 Q 526.36 55.16 526.36 51.2 Q 526.36 49.28 526.86 47.73 Q 527.36 46.19 528.29 45.1 Q 529.22 44.02 530.53 43.43 Q 531.84 42.84 533.49 42.84 Q 534.59 42.84 535.55 43.04 Q 536.5 43.23 537.38 43.62 L 537.38 45.75 Q 536.52 45.28 535.59 45.03 Q 534.66 44.78 533.56 44.78 Q 532.44 44.78 531.53 45.2 Q 530.63 45.62 529.99 46.42 Q 529.34 47.22 529.01 48.38 Q 528.67 49.53 528.67 51 Q 528.67 54.11 529.92 55.68 Q 531.17 57.25 533.61 57.25 Q 534.64 57.25 535.58 57.02 Q 536.52 56.78 537.38 56.34 L 537.38 58.41 Z  M 551.39 59 L 549.21 59 L 549.21 51.67 L 542.51 51.67 L 542.51 59 L 540.34 59 L 540.34 43.05 L 542.51 43.05 L 542.51 49.8 L 549.21 49.8 L 549.21 43.05 L 551.39 43.05 L 551.39 59 Z  M 566.35 59 L 563.98 59 L 562.87 55.52 L 556.23 55.52 L 555.1 59 L 552.85 59 L 558.15 43.05 L 561.13 43.05 L 566.35 59 Z  M 562.24 53.58 L 559.55 45.05 L 556.85 53.58 L 562.24 53.58 Z  M 578.78 59 L 575.94 59 L 571.3 49.05 L 569.96 45.86 L 569.96 53.89 L 569.96 59 L 567.92 59 L 567.92 43.05 L 570.72 43.05 L 575.14 52.47 L 576.75 56.12 L 576.75 47.58 L 576.75 43.05 L 578.78 43.05 L 578.78 59 Z  M 592.5 45.78 Q 591.61 45.3 590.67 45.04 Q 589.73 44.78 588.62 44.78 Q 587.34 44.78 586.36 45.23 Q 585.37 45.69 584.69 46.51 Q 584.01 47.33 583.65 48.49 Q 583.29 49.66 583.29 51.05 Q 583.29 52.52 583.58 53.68 Q 583.87 54.84 584.5 55.65 Q 585.12 56.45 586.09 56.88 Q 587.06 57.3 588.42 57.3 Q 588.65 57.3 588.92 57.27 Q 589.18 57.25 589.46 57.21 Q 589.73 57.17 589.98 57.11 Q 590.23 57.05 590.42 56.97 L 590.42 51.89 L 587.17 51.89 L 587.17 50.09 L 592.58 50.09 L 592.58 58.25 Q 592.08 58.48 591.52 58.67 Q 590.97 58.86 590.38 58.98 Q 589.79 59.09 589.22 59.16 Q 588.65 59.22 588.11 59.22 Q 586.48 59.22 585.17 58.7 Q 583.86 58.19 582.93 57.19 Q 582.01 56.19 581.52 54.68 Q 581.03 53.17 581.03 51.2 Q 581.03 49.23 581.58 47.68 Q 582.12 46.12 583.11 45.04 Q 584.11 43.95 585.5 43.39 Q 586.9 42.83 588.59 42.83 Q 589.67 42.83 590.64 43.02 Q 591.61 43.2 592.5 43.62 L 592.5 45.78 Z  M 605.49 59 L 596.41 59 L 596.41 43.05 L 605.49 43.05 L 605.49 44.88 L 598.59 44.88 L 598.59 49.81 L 605.21 49.81 L 605.21 51.66 L 598.59 51.66 L 598.59 57.14 L 605.49 57.14 L 605.49 59 Z  M 617.24 64 L 611.22 64 L 611.22 62.3 L 615.19 62.3 L 615.19 43.03 L 611.22 43.03 L 611.22 41.33 L 617.24 41.33 L 617.24 64 Z "/></g><rect x="470" y="68.3" width="151.2" height="29.27" style="fill: rgb(255,255,255); fill-opacity: 1.0" transform="matrix(1,0,0,1,6,4)" clip-path="url(#_2194414828092321clip-1)"/><g style="fill: rgb(0,0,255); fill-opacity: 1.0; stroke: none" transform="matrix(1,0,0,1,6,4)" clip-path="url(#_2194414828092321clip-1)"><path d="M 480.23 94 L 474.22 94 L 474.22 71.33 L 480.23 71.33 L 480.23 73.03 L 476.23 73.03 L 476.23 92.3 L 480.23 92.3 L 480.23 94 Z  M 495.89 88.41 Q 493.98 89.2 491.87 89.2 Q 488.5 89.2 486.68 87.18 Q 484.87 85.16 484.87 81.2 Q 484.87 79.28 485.37 77.73 Q 485.87 76.19 486.8 75.1 Q 487.73 74.02 489.04 73.43 Q 490.35 72.84 492 72.84 Q 493.1 72.84 494.06 73.04 Q 495.01 73.23 495.89 73.62 L 495.89 75.75 Q 495.03 75.28 494.1 75.03 Q 493.17 74.78 492.07 74.78 Q 490.95 74.78 490.04 75.2 Q 489.14 75.62 488.5 76.42 Q 487.85 77.22 487.52 78.38 Q 487.18 79.53 487.18 81 Q 487.18 84.11 488.43 85.68 Q 489.68 87.25 492.12 87.25 Q 493.15 87.25 494.09 87.02 Q 495.03 86.78 495.89 86.34 L 495.89 88.41 Z  M 509.9 89 L 507.72 89 L 507.72 81.67 L 501.02 81.67 L 501.02 89 L 498.85 89 L 498.85 73.05 L 501.02 73.05 L 501.02 79.8 L 507.72 79.8 L 507.72 73.05 L 509.9 73.05 L 509.9 89 Z  M 524.86 89 L 522.49 89 L 521.38 85.52 L 514.74 85.52 L 513.61 89 L 511.36 89 L 516.66 73.05 L 519.64 73.05 L 524.86 89 Z  M 520.75 83.58 L 518.06 75.05 L 515.36 83.58 L 520.75 83.58 Z  M 538.06 80.92 Q 538.06 83.06 537.55 84.62 Q 537.04 86.19 536.18 87.21 Q 535.32 88.23 534.17 88.73 Q 533.01 89.22 531.73 89.22 Q 530.2 89.22 529.06 88.66 Q 527.92 88.11 527.16 87.06 Q 526.4 86.02 526.04 84.51 Q 525.68 83 525.68 81.11 Q 525.68 78.98 526.18 77.42 Q 526.68 75.86 527.54 74.84 Q 528.4 73.81 529.55 73.32 Q 530.7 72.83 531.98 72.83 Q 533.51 72.83 534.65 73.39 Q 535.79 73.95 536.55 74.99 Q 537.31 76.03 537.68 77.53 Q 538.06 79.03 538.06 80.92 Z  M 535.79 81.08 Q 535.79 79.67 535.58 78.51 Q 535.37 77.34 534.89 76.5 Q 534.42 75.66 533.67 75.2 Q 532.92 74.73 531.86 74.73 Q 530.82 74.73 530.09 75.23 Q 529.36 75.72 528.88 76.57 Q 528.4 77.42 528.17 78.56 Q 527.93 79.7 527.93 80.98 Q 527.93 82.39 528.15 83.56 Q 528.37 84.73 528.84 85.57 Q 529.31 86.41 530.06 86.87 Q 530.81 87.33 531.86 87.33 Q 532.87 87.33 533.62 86.84 Q 534.37 86.34 534.86 85.49 Q 535.34 84.64 535.57 83.51 Q 535.79 82.38 535.79 81.08 Z  M 550.9 84.67 Q 550.9 85.81 550.44 86.66 Q 549.98 87.52 549.14 88.09 Q 548.3 88.66 547.14 88.94 Q 545.98 89.22 544.57 89.22 Q 543.94 89.22 543.31 89.17 Q 542.68 89.12 542.1 89.05 Q 541.52 88.97 541.01 88.88 Q 540.49 88.78 540.08 88.67 L 540.08 86.58 Q 540.99 86.91 542.13 87.1 Q 543.27 87.3 544.73 87.3 Q 545.79 87.3 546.52 87.13 Q 547.26 86.97 547.73 86.65 Q 548.19 86.33 548.41 85.87 Q 548.63 85.41 548.63 84.8 Q 548.63 84.16 548.27 83.7 Q 547.91 83.23 547.33 82.88 Q 546.74 82.52 545.98 82.22 Q 545.23 81.92 544.44 81.6 Q 543.66 81.28 542.91 80.91 Q 542.16 80.55 541.58 80.04 Q 540.99 79.53 540.63 78.84 Q 540.27 78.16 540.27 77.22 Q 540.27 76.41 540.62 75.61 Q 540.96 74.81 541.68 74.2 Q 542.4 73.58 543.53 73.2 Q 544.66 72.83 546.23 72.83 Q 546.62 72.83 547.09 72.87 Q 547.57 72.91 548.05 72.97 Q 548.52 73.03 549 73.12 Q 549.48 73.2 549.87 73.3 L 549.87 75.25 Q 548.93 74.98 547.99 74.84 Q 547.05 74.7 546.18 74.7 Q 544.3 74.7 543.43 75.33 Q 542.55 75.95 542.55 77 Q 542.55 77.64 542.91 78.11 Q 543.27 78.58 543.86 78.95 Q 544.44 79.31 545.19 79.61 Q 545.94 79.91 546.73 80.23 Q 547.51 80.55 548.26 80.92 Q 549.01 81.3 549.59 81.81 Q 550.18 82.33 550.54 83.02 Q 550.9 83.72 550.9 84.67 Z  M 562 94 L 555.99 94 L 555.99 92.3 L 559.96 92.3 L 559.96 73.03 L 555.99 73.03 L 555.99 71.33 L 562 71.33 L 562 94 Z  M 568.17 76.75 L 570.06 76.75 L 570.15 78.72 Q 570.68 78.09 571.18 77.67 Q 571.68 77.25 572.17 76.99 Q 572.65 76.73 573.15 76.63 Q 573.65 76.53 574.18 76.53 Q 576.08 76.53 577.04 77.65 Q 578.01 78.77 578.01 81 L 578.01 89 L 575.9 89 L 575.9 81.17 Q 575.9 79.73 575.36 79.05 Q 574.83 78.36 573.76 78.36 Q 573.37 78.36 573 78.48 Q 572.62 78.59 572.22 78.88 Q 571.83 79.16 571.35 79.65 Q 570.87 80.14 570.29 80.88 L 570.29 89 L 568.17 89 L 568.17 76.75 Z  M 591.76 89 L 589.87 89 L 589.79 87.02 Q 589.24 87.66 588.74 88.08 Q 588.24 88.5 587.76 88.76 Q 587.27 89.02 586.78 89.12 Q 586.29 89.22 585.74 89.22 Q 583.84 89.22 582.88 88.11 Q 581.91 87 581.91 84.75 L 581.91 76.75 L 584.04 76.75 L 584.04 84.58 Q 584.04 87.41 586.16 87.41 Q 586.55 87.41 586.93 87.29 Q 587.3 87.17 587.71 86.88 Q 588.12 86.59 588.59 86.11 Q 589.05 85.62 589.65 84.88 L 589.65 76.75 L 591.76 76.75 L 591.76 89 Z  M 599.83 73.5 L 596.21 73.5 L 596.21 71.75 L 601.99 71.75 L 601.99 87.23 L 605.63 87.23 L 605.63 89 L 595.8 89 L 595.8 87.23 L 599.83 87.23 L 599.83 73.5 Z  M 613.58 73.5 L 609.95 73.5 L 609.95 71.75 L 615.73 71.75 L 615.73 87.23 L 619.37 87.23 L 619.37 89 L 609.54 89 L 609.54 87.23 L 613.58 87.23 L 613.58 73.5 Z "/></g><g style="stroke-width: 3.0;stroke: rgb(0,0,0);stroke-opacity: 1.0;stroke-linecap: square;; fill: none" transform="matrix(1,0,0,1,6,4)" clip-path="url(#_2194414828092321clip-1)"><path d="M 399 0 L 399 102 L 646 102 L 646 0 Z "/></g><g style="fill: rgb(255,255,255); fill-opacity: 1.0; stroke: none" transform="matrix(1,0,0,1,6,4)" clip-path="url(#_2194414828092321clip-2)"><path d="M 0 102 L 0 127 L 399 127 L 399 102 Z "/></g><rect x="39" y="102.44" width="142.95" height="23.42" style="fill: rgb(255,255,255); fill-opacity: 1.0" transform="matrix(1,0,0,1,6,4)" clip-path="url(#_2194414828092321clip-2)"/><g style="fill: rgb(0,0,0); fill-opacity: 1.0; stroke: none" transform="matrix(1,0,0,1,6,4)" clip-path="url(#_2194414828092321clip-2)"><path d="M 49.91 119 L 48 119 L 47.11 116.22 L 41.8 116.22 L 40.91 119 L 39.09 119 L 43.34 106.23 L 45.72 106.23 L 49.91 119 Z  M 46.62 114.66 L 44.45 107.84 L 42.3 114.66 L 46.62 114.66 Z  M 51.96 109.19 L 53.51 109.19 L 53.56 111 Q 54.43 109.95 55.28 109.48 Q 56.12 109.02 56.98 109.02 Q 58.5 109.02 59.29 110 Q 60.07 110.98 60.01 112.94 L 58.29 112.94 Q 58.32 111.64 57.92 111.06 Q 57.51 110.48 56.73 110.48 Q 56.39 110.48 56.04 110.61 Q 55.7 110.73 55.33 111 Q 54.96 111.27 54.56 111.69 Q 54.15 112.11 53.68 112.7 L 53.68 119 L 51.96 119 L 51.96 109.19 Z  M 70.46 118.86 Q 69.88 119.02 69.27 119.08 Q 68.65 119.14 68.01 119.14 Q 66.16 119.14 65.26 118.3 Q 64.35 117.47 64.35 115.73 L 64.35 110.62 L 61.6 110.62 L 61.6 109.19 L 64.35 109.19 L 64.35 106.5 L 66.05 106.06 L 66.05 109.19 L 70.46 109.19 L 70.46 110.62 L 66.05 110.62 L 66.05 115.59 Q 66.05 116.66 66.62 117.18 Q 67.18 117.7 68.27 117.7 Q 68.74 117.7 69.3 117.62 Q 69.85 117.55 70.46 117.39 L 70.46 118.86 Z  M 76.89 110.59 L 73.99 110.59 L 73.99 109.19 L 78.61 109.19 L 78.61 117.58 L 81.54 117.58 L 81.54 119 L 73.68 119 L 73.68 117.58 L 76.89 117.58 L 76.89 110.59 Z  M 77.49 105.08 Q 77.77 105.08 78.01 105.18 Q 78.25 105.28 78.43 105.47 Q 78.61 105.66 78.72 105.9 Q 78.83 106.14 78.83 106.42 Q 78.83 106.69 78.72 106.94 Q 78.61 107.19 78.43 107.37 Q 78.25 107.55 78.01 107.66 Q 77.77 107.77 77.49 107.77 Q 77.21 107.77 76.96 107.66 Q 76.72 107.55 76.54 107.37 Q 76.35 107.19 76.25 106.94 Q 76.14 106.69 76.14 106.42 Q 76.14 106.14 76.25 105.9 Q 76.35 105.66 76.54 105.47 Q 76.72 105.28 76.96 105.18 Q 77.21 105.08 77.49 105.08 Z  M 93.25 106.78 Q 91.91 106.5 90.94 106.5 Q 88.66 106.5 88.66 108.91 L 88.66 110.62 L 92.95 110.62 L 92.95 112.03 L 88.66 112.03 L 88.66 119 L 86.92 119 L 86.92 112.03 L 83.77 112.03 L 83.77 110.62 L 86.92 110.62 L 86.92 109 Q 86.92 105.08 91 105.08 Q 92.02 105.08 93.25 105.31 L 93.25 106.78 Z  M 101.84 119 L 101.81 117.69 Q 101 118.47 100.18 118.82 Q 99.36 119.17 98.45 119.17 Q 97.61 119.17 97.01 118.96 Q 96.42 118.75 96.03 118.38 Q 95.64 118 95.46 117.49 Q 95.28 116.98 95.28 116.38 Q 95.28 114.91 96.38 114.07 Q 97.48 113.23 99.62 113.23 L 101.65 113.23 L 101.65 112.38 Q 101.65 111.52 101.1 110.99 Q 100.54 110.47 99.4 110.47 Q 98.57 110.47 97.77 110.65 Q 96.96 110.83 96.11 111.17 L 96.11 109.64 Q 96.42 109.53 96.82 109.41 Q 97.21 109.3 97.65 109.21 Q 98.09 109.12 98.57 109.07 Q 99.04 109.02 99.54 109.02 Q 100.43 109.02 101.14 109.21 Q 101.86 109.41 102.35 109.8 Q 102.84 110.2 103.11 110.81 Q 103.37 111.42 103.37 112.23 L 103.37 119 L 101.84 119 Z  M 101.65 114.53 L 99.5 114.53 Q 98.87 114.53 98.41 114.66 Q 97.95 114.8 97.65 115.03 Q 97.36 115.27 97.21 115.59 Q 97.07 115.91 97.07 116.33 Q 97.07 116.61 97.16 116.87 Q 97.25 117.12 97.44 117.33 Q 97.64 117.53 97.95 117.65 Q 98.26 117.77 98.71 117.77 Q 99.31 117.77 100.07 117.41 Q 100.82 117.05 101.65 116.28 L 101.65 114.53 Z  M 114.16 118.64 Q 113.49 118.89 112.8 119.02 Q 112.1 119.14 111.35 119.14 Q 109.02 119.14 107.77 117.88 Q 106.52 116.61 106.52 114.19 Q 106.52 113.03 106.88 112.09 Q 107.24 111.14 107.9 110.47 Q 108.55 109.8 109.46 109.43 Q 110.37 109.06 111.46 109.06 Q 112.23 109.06 112.89 109.16 Q 113.55 109.27 114.16 109.52 L 114.16 111.14 Q 113.52 110.81 112.87 110.66 Q 112.21 110.5 111.51 110.5 Q 110.85 110.5 110.27 110.75 Q 109.68 111 109.24 111.47 Q 108.8 111.94 108.55 112.61 Q 108.3 113.28 108.3 114.14 Q 108.3 115.91 109.16 116.8 Q 110.02 117.69 111.55 117.69 Q 112.26 117.69 112.91 117.53 Q 113.55 117.38 114.16 117.06 L 114.16 118.64 Z  M 125.44 118.86 Q 124.86 119.02 124.25 119.08 Q 123.63 119.14 122.99 119.14 Q 121.14 119.14 120.24 118.3 Q 119.33 117.47 119.33 115.73 L 119.33 110.62 L 116.58 110.62 L 116.58 109.19 L 119.33 109.19 L 119.33 106.5 L 121.04 106.06 L 121.04 109.19 L 125.44 109.19 L 125.44 110.62 L 121.04 110.62 L 121.04 115.59 Q 121.04 116.66 121.6 117.18 Q 122.16 117.7 123.25 117.7 Q 123.72 117.7 124.28 117.62 Q 124.83 117.55 125.44 117.39 L 125.44 118.86 Z  M 142.59 107.7 L 139.65 107.7 L 139.65 106.23 L 147.28 106.23 L 147.28 107.7 L 144.34 107.7 L 144.34 117.52 L 147.28 117.52 L 147.28 119 L 139.65 119 L 139.65 117.52 L 142.59 117.52 L 142.59 107.7 Z  M 158.43 118.86 Q 157.85 119.02 157.23 119.08 Q 156.62 119.14 155.98 119.14 Q 154.13 119.14 153.23 118.3 Q 152.32 117.47 152.32 115.73 L 152.32 110.62 L 149.57 110.62 L 149.57 109.19 L 152.32 109.19 L 152.32 106.5 L 154.02 106.06 L 154.02 109.19 L 158.43 109.19 L 158.43 110.62 L 154.02 110.62 L 154.02 115.59 Q 154.02 116.66 154.59 117.18 Q 155.15 117.7 156.24 117.7 Q 156.71 117.7 157.27 117.62 Q 157.82 117.55 158.43 117.39 L 158.43 118.86 Z  M 169.8 113.58 Q 169.8 113.94 169.79 114.18 Q 169.79 114.42 169.77 114.64 L 162.88 114.64 Q 162.88 116.14 163.71 116.95 Q 164.55 117.77 166.14 117.77 Q 166.57 117.77 167 117.73 Q 167.43 117.69 167.82 117.63 Q 168.22 117.58 168.59 117.5 Q 168.96 117.42 169.27 117.34 L 169.27 118.73 Q 168.58 118.94 167.71 119.05 Q 166.83 119.17 165.89 119.17 Q 164.63 119.17 163.72 118.83 Q 162.82 118.48 162.24 117.84 Q 161.66 117.19 161.38 116.25 Q 161.1 115.31 161.1 114.11 Q 161.1 113.08 161.39 112.16 Q 161.69 111.23 162.26 110.54 Q 162.83 109.84 163.67 109.43 Q 164.5 109.02 165.55 109.02 Q 166.58 109.02 167.37 109.34 Q 168.16 109.66 168.7 110.25 Q 169.24 110.84 169.52 111.69 Q 169.8 112.53 169.8 113.58 Z  M 168.04 113.33 Q 168.07 112.69 167.91 112.14 Q 167.75 111.59 167.43 111.2 Q 167.1 110.81 166.61 110.59 Q 166.11 110.38 165.47 110.38 Q 164.93 110.38 164.46 110.59 Q 164 110.81 163.67 111.2 Q 163.33 111.59 163.13 112.14 Q 162.93 112.69 162.88 113.33 L 168.04 113.33 Z  M 179.52 119 L 179.52 111.95 Q 179.52 111.5 179.48 111.2 Q 179.44 110.91 179.37 110.74 Q 179.3 110.58 179.18 110.51 Q 179.06 110.44 178.91 110.44 Q 178.7 110.44 178.54 110.55 Q 178.38 110.67 178.19 110.94 Q 178 111.2 177.77 111.63 Q 177.53 112.06 177.22 112.7 L 177.22 119 L 175.67 119 L 175.67 112.14 Q 175.67 111.61 175.64 111.27 Q 175.61 110.94 175.53 110.76 Q 175.45 110.58 175.34 110.51 Q 175.22 110.44 175.06 110.44 Q 174.88 110.44 174.72 110.53 Q 174.56 110.62 174.38 110.88 Q 174.19 111.14 173.95 111.58 Q 173.72 112.02 173.39 112.7 L 173.39 119 L 171.83 119 L 171.83 109.19 L 173.12 109.19 L 173.2 111.06 Q 173.47 110.5 173.7 110.11 Q 173.94 109.72 174.2 109.48 Q 174.45 109.25 174.74 109.13 Q 175.03 109.02 175.38 109.02 Q 176.17 109.02 176.58 109.53 Q 176.98 110.05 176.98 111.14 Q 177.22 110.62 177.45 110.23 Q 177.67 109.84 177.93 109.57 Q 178.19 109.3 178.5 109.16 Q 178.81 109.02 179.22 109.02 Q 181.08 109.02 181.08 111.86 L 181.08 119 L 179.52 119 Z "/></g><g style="stroke-width: 3.0;stroke: rgb(0,0,0);stroke-opacity: 1.0;stroke-linecap: square;; fill: none" transform="matrix(1,0,0,1,6,4)" clip-path="url(#_2194414828092321clip-2)"><path d="M 0 102 L 0 127 L 399 127 L 399 102 Z "/></g><g style="fill: rgb(255,255,255); fill-opacity: 1.0; stroke: none" transform="matrix(1,0,0,1,6,4)" clip-path="url(#_2194414828092321clip-3)"><path d="M 399 102 L 399 127 L 646 127 L 646 102 Z "/></g><rect x="589" y="102.44" width="32.99" height="23.42" style="fill: rgb(255,255,255); fill-opacity: 1.0" transform="matrix(1,0,0,1,6,4)" clip-path="url(#_2194414828092321clip-3)"/><g style="fill: rgb(0,0,0); fill-opacity: 1.0; stroke: none" transform="matrix(1,0,0,1,6,4)" clip-path="url(#_2194414828092321clip-3)"><path d="M 599.27 119 L 597.3 119 L 595.39 114.92 Q 595.19 114.45 594.96 114.14 Q 594.73 113.83 594.48 113.65 Q 594.22 113.47 593.91 113.39 Q 593.59 113.31 593.22 113.31 L 592.41 113.31 L 592.41 119 L 590.66 119 L 590.66 106.23 L 594.08 106.23 Q 595.19 106.23 595.99 106.48 Q 596.8 106.72 597.3 107.16 Q 597.81 107.61 598.05 108.23 Q 598.3 108.84 598.3 109.59 Q 598.3 110.19 598.12 110.72 Q 597.95 111.25 597.6 111.69 Q 597.25 112.12 596.74 112.45 Q 596.23 112.77 595.56 112.92 Q 596.09 113.09 596.48 113.56 Q 596.86 114.03 597.25 114.8 L 599.27 119 Z  M 596.48 109.73 Q 596.48 108.72 595.84 108.21 Q 595.2 107.7 594.05 107.7 L 592.41 107.7 L 592.41 111.92 L 593.81 111.92 Q 594.42 111.92 594.91 111.78 Q 595.41 111.64 595.75 111.36 Q 596.09 111.08 596.29 110.67 Q 596.48 110.27 596.48 109.73 Z  M 609.7 112.69 L 601.29 112.69 L 601.29 111.25 L 609.7 111.25 L 609.7 112.69 Z  M 609.7 116.09 L 601.29 116.09 L 601.29 114.66 L 609.7 114.66 L 609.7 116.09 Z  M 620.84 119 L 612.43 119 L 612.43 117.47 L 615.73 114.19 Q 616.54 113.39 617.05 112.8 Q 617.55 112.22 617.84 111.73 Q 618.12 111.25 618.22 110.82 Q 618.32 110.39 618.32 109.89 Q 618.32 109.42 618.2 109 Q 618.07 108.58 617.8 108.26 Q 617.54 107.94 617.12 107.75 Q 616.7 107.56 616.12 107.56 Q 615.3 107.56 614.64 107.92 Q 613.98 108.28 613.41 108.86 L 612.48 107.73 Q 613.2 106.98 614.14 106.52 Q 615.09 106.06 616.34 106.06 Q 617.18 106.06 617.88 106.31 Q 618.59 106.56 619.09 107.05 Q 619.6 107.53 619.88 108.22 Q 620.15 108.91 620.15 109.78 Q 620.15 110.52 619.95 111.14 Q 619.76 111.77 619.37 112.38 Q 618.98 113 618.38 113.66 Q 617.77 114.33 616.95 115.12 L 614.63 117.38 L 620.84 117.38 L 620.84 119 Z "/></g><g style="stroke-width: 3.0;stroke: rgb(0,0,0);stroke-opacity: 1.0;stroke-linecap: square;; fill: none" transform="matrix(1,0,0,1,6,4)" clip-path="url(#_2194414828092321clip-3)"><path d="M 399 102 L 399 127 L 646 127 L 646 102 Z "/></g></svg>