<svg xmlns="http://www.w3.org/2000/svg" xmlns:xlink="http://www.w3.org/1999/xlink" xmlns:jfreesvg="http://www.jfree.org/jfreesvg/svg" width="1000px" height="1000px" text-rendering="auto" shape-rendering="auto">
<defs><clipPath id="_2039044965508187clip-0"><path d="M 32 0 C 14.33 0 0 14.33 0 32 L 0 368 C 0 385.67 14.33 400 32 400 L 615 400 C 632.67 400 647 385.67 647 368 L 647 32 C 647 14.33 632.67 0 615 0 Z "/></clipPath>
<clipPath id="_2039044965508187clip-1"><path d="M -420 0 C -437.67 0 -452 14.33 -452 32 L -452 368 C -452 385.67 -437.67 400 -420 400 L 163 400 C 180.67 400 195 385.67 195 368 L 195 32 C 195 14.33 180.67 0 163 0 Z "/></clipPath>
</defs>
<g style="fill: rgb(0,0,0); fill-opacity: 1.0; stroke: none" transform="matrix(1,0,0,1,0,0)" ><path d="M 6 36 L 6 372 C 6 389.67 20.33 404 38 404 L 621 404 C 638.67 404 653 389.67 653 372 L 653 36 C 653 18.33 638.67 4 621 4 L 38 4 C 20.33 4 6 18.33 6 36 Z "/></g><g style="fill: rgb(255,255,255); fill-opacity: 1.0; stroke: none" transform="matrix(1,0,0,1,0,0)" ><path d="M 32 0 C 14.33 0 0 14.33 0 32 L 0 204 L 452 204 L 452 0 Z "/></g><g style="stroke-width: 3.0;stroke: rgb(0,0,0);stroke-opacity: 1.0;stroke-linecap: square;; fill: none" transform="matrix(1,0,0,1,0,0)" ><path d="M 32 0 C 14.33 0 0 14.33 0 32 L 0 204 L 452 204 L 452 0 Z "/></g><rect x="22" y="9.88" width="285.9" height="46.84" style="fill: rgb(255,255,255); fill-opacity: 1.0" transform="matrix(1,0,0,1,0,0)" clip-path="url(#_2039044965508187clip-0)"/><g style="fill: rgb(0,0,0); fill-opacity: 1.0; stroke: none" transform="matrix(1,0,0,1,0,0)" clip-path="url(#_2039044965508187clip-0)"><path d="M 41.84 35.36 Q 41.84 37.2 41.13 38.62 Q 40.42 40.03 39.1 41.01 Q 37.78 41.98 35.91 42.49 Q 34.05 43 31.77 43 L 25.09 43 L 25.09 17.47 L 32.39 17.47 Q 40.92 17.47 40.92 23.69 Q 40.92 25.75 39.94 27.23 Q 38.95 28.72 36.73 29.44 Q 37.77 29.64 38.7 30.11 Q 39.62 30.58 40.33 31.32 Q 41.03 32.06 41.44 33.08 Q 41.84 34.09 41.84 35.36 Z  M 37.31 24.16 Q 37.31 23.38 37.08 22.68 Q 36.84 21.98 36.26 21.48 Q 35.67 20.98 34.68 20.7 Q 33.69 20.41 32.16 20.41 L 28.56 20.41 L 28.56 28.39 L 32.05 28.39 Q 33.23 28.39 34.2 28.13 Q 35.17 27.88 35.86 27.35 Q 36.55 26.83 36.93 26.04 Q 37.31 25.25 37.31 24.16 Z  M 38.16 35.48 Q 38.16 34.5 37.74 33.72 Q 37.33 32.94 36.55 32.4 Q 35.77 31.86 34.65 31.57 Q 33.53 31.28 32.12 31.28 L 28.56 31.28 L 28.56 40.06 L 32.23 40.06 Q 35.22 40.06 36.69 38.95 Q 38.16 37.84 38.16 35.48 Z  M 53.8 18.19 L 47.99 18.19 L 47.99 15.41 L 57.24 15.41 L 57.24 40.17 L 63.07 40.17 L 63.07 43 L 47.35 43 L 47.35 40.17 L 53.8 40.17 L 53.8 18.19 Z  M 81.7 43 L 81.62 40.36 Q 80.03 41.94 78.38 42.65 Q 76.73 43.36 74.91 43.36 Q 73.23 43.36 72.04 42.92 Q 70.84 42.48 70.08 41.73 Q 69.31 40.98 68.95 39.97 Q 68.58 38.95 68.58 37.77 Q 68.58 34.81 70.78 33.14 Q 72.98 31.47 77.28 31.47 L 81.34 31.47 L 81.34 29.75 Q 81.34 28.02 80.23 26.97 Q 79.11 25.92 76.83 25.92 Q 75.17 25.92 73.55 26.3 Q 71.94 26.67 70.22 27.36 L 70.22 24.28 Q 70.88 24.05 71.66 23.83 Q 72.45 23.61 73.33 23.43 Q 74.2 23.25 75.16 23.14 Q 76.12 23.03 77.09 23.03 Q 78.88 23.03 80.3 23.42 Q 81.73 23.81 82.72 24.62 Q 83.7 25.42 84.23 26.63 Q 84.75 27.84 84.75 29.48 L 84.75 43 L 81.7 43 Z  M 81.34 34.08 L 77.02 34.08 Q 75.75 34.08 74.84 34.33 Q 73.92 34.58 73.34 35.05 Q 72.75 35.52 72.46 36.17 Q 72.17 36.83 72.17 37.64 Q 72.17 38.22 72.35 38.73 Q 72.53 39.25 72.92 39.65 Q 73.31 40.05 73.94 40.28 Q 74.56 40.52 75.45 40.52 Q 76.62 40.52 78.14 39.8 Q 79.66 39.09 81.34 37.55 L 81.34 34.08 Z  M 106.34 42.28 Q 105.01 42.78 103.61 43.03 Q 102.21 43.28 100.73 43.28 Q 96.09 43.28 93.58 40.76 Q 91.07 38.23 91.07 33.39 Q 91.07 31.06 91.79 29.17 Q 92.51 27.28 93.82 25.93 Q 95.13 24.58 96.95 23.84 Q 98.76 23.11 100.95 23.11 Q 102.48 23.11 103.8 23.33 Q 105.13 23.55 106.34 24.03 L 106.34 27.28 Q 105.07 26.61 103.75 26.3 Q 102.43 26 101.02 26 Q 99.71 26 98.55 26.5 Q 97.4 27 96.52 27.94 Q 95.63 28.88 95.12 30.23 Q 94.62 31.58 94.62 33.27 Q 94.62 36.83 96.34 38.59 Q 98.07 40.36 101.15 40.36 Q 102.52 40.36 103.83 40.05 Q 105.13 39.73 106.34 39.11 L 106.34 42.28 Z  M 130.73 43 L 126.06 43 L 116.92 32.48 L 116.92 43 L 113.53 43 L 113.53 15.41 L 116.92 15.41 L 116.92 32.36 L 125.73 23.39 L 130.22 23.39 L 121.03 32.44 L 130.73 43 Z  M 173.42 36.08 Q 173.42 37.91 172.68 39.27 Q 171.94 40.64 170.61 41.55 Q 169.28 42.45 167.42 42.91 Q 165.56 43.36 163.31 43.36 Q 162.3 43.36 161.29 43.28 Q 160.28 43.2 159.35 43.08 Q 158.42 42.95 157.6 42.8 Q 156.78 42.64 156.12 42.47 L 156.12 39.11 Q 157.59 39.66 159.41 39.97 Q 161.23 40.28 163.56 40.28 Q 165.25 40.28 166.43 40.02 Q 167.61 39.75 168.36 39.23 Q 169.11 38.72 169.45 37.98 Q 169.8 37.23 169.8 36.28 Q 169.8 35.25 169.22 34.52 Q 168.64 33.78 167.7 33.2 Q 166.77 32.62 165.56 32.15 Q 164.36 31.67 163.11 31.16 Q 161.86 30.66 160.66 30.06 Q 159.47 29.47 158.53 28.66 Q 157.59 27.84 157.02 26.75 Q 156.44 25.66 156.44 24.16 Q 156.44 22.84 156.98 21.57 Q 157.53 20.3 158.68 19.31 Q 159.83 18.33 161.64 17.73 Q 163.45 17.12 165.95 17.12 Q 166.59 17.12 167.34 17.18 Q 168.09 17.23 168.87 17.34 Q 169.64 17.45 170.39 17.59 Q 171.14 17.72 171.78 17.88 L 171.78 21 Q 170.28 20.58 168.78 20.35 Q 167.28 20.12 165.88 20.12 Q 162.88 20.12 161.47 21.12 Q 160.06 22.12 160.06 23.8 Q 160.06 24.83 160.64 25.57 Q 161.22 26.31 162.16 26.9 Q 163.09 27.48 164.3 27.97 Q 165.5 28.45 166.75 28.96 Q 168 29.47 169.2 30.07 Q 170.41 30.67 171.34 31.5 Q 172.28 32.33 172.85 33.45 Q 173.42 34.56 173.42 36.08 Z  M 196.15 33.03 Q 196.15 35.33 195.5 37.23 Q 194.85 39.12 193.64 40.48 Q 192.43 41.84 190.7 42.6 Q 188.96 43.36 186.74 43.36 Q 184.63 43.36 182.97 42.7 Q 181.3 42.05 180.14 40.77 Q 178.98 39.5 178.36 37.62 Q 177.74 35.75 177.74 33.31 Q 177.74 31.03 178.39 29.14 Q 179.04 27.25 180.25 25.9 Q 181.46 24.55 183.2 23.79 Q 184.93 23.03 187.13 23.03 Q 189.24 23.03 190.91 23.69 Q 192.59 24.34 193.75 25.6 Q 194.91 26.86 195.53 28.73 Q 196.15 30.61 196.15 33.03 Z  M 192.66 33.19 Q 192.66 31.38 192.27 30.02 Q 191.87 28.66 191.12 27.75 Q 190.38 26.84 189.32 26.38 Q 188.26 25.92 186.95 25.92 Q 185.41 25.92 184.34 26.52 Q 183.26 27.12 182.56 28.12 Q 181.87 29.11 181.55 30.43 Q 181.23 31.75 181.23 33.19 Q 181.23 35.02 181.62 36.38 Q 182.02 37.75 182.77 38.66 Q 183.51 39.56 184.56 40.02 Q 185.62 40.48 186.95 40.48 Q 188.46 40.48 189.55 39.88 Q 190.63 39.28 191.33 38.29 Q 192.02 37.3 192.34 35.98 Q 192.66 34.66 192.66 33.19 Z  M 207.75 18.19 L 201.94 18.19 L 201.94 15.41 L 211.19 15.41 L 211.19 40.17 L 217.02 40.17 L 217.02 43 L 201.3 43 L 201.3 40.17 L 207.75 40.17 L 207.75 18.19 Z  M 262.12 33.03 Q 262.12 35.33 261.48 37.23 Q 260.83 39.12 259.62 40.48 Q 258.41 41.84 256.67 42.6 Q 254.94 43.36 252.72 43.36 Q 250.61 43.36 248.95 42.7 Q 247.28 42.05 246.12 40.77 Q 244.95 39.5 244.34 37.62 Q 243.72 35.75 243.72 33.31 Q 243.72 31.03 244.37 29.14 Q 245.02 27.25 246.23 25.9 Q 247.44 24.55 249.17 23.79 Q 250.91 23.03 253.11 23.03 Q 255.22 23.03 256.89 23.69 Q 258.56 24.34 259.73 25.6 Q 260.89 26.86 261.51 28.73 Q 262.12 30.61 262.12 33.03 Z  M 258.64 33.19 Q 258.64 31.38 258.24 30.02 Q 257.84 28.66 257.1 27.75 Q 256.36 26.84 255.3 26.38 Q 254.23 25.92 252.92 25.92 Q 251.39 25.92 250.31 26.52 Q 249.23 27.12 248.54 28.12 Q 247.84 29.11 247.52 30.43 Q 247.2 31.75 247.2 33.19 Q 247.2 35.02 247.6 36.38 Q 248 37.75 248.74 38.66 Q 249.48 39.56 250.54 40.02 Q 251.59 40.48 252.92 40.48 Q 254.44 40.48 255.52 39.88 Q 256.61 39.28 257.3 38.29 Q 258 37.3 258.32 35.98 Q 258.64 34.66 258.64 33.19 Z  M 284.45 18.56 Q 281.77 18 279.84 18 Q 275.24 18 275.24 22.8 L 275.24 26.23 L 283.84 26.23 L 283.84 29.08 L 275.24 29.08 L 275.24 43 L 271.79 43 L 271.79 29.08 L 265.48 29.08 L 265.48 26.23 L 271.79 26.23 L 271.79 23 Q 271.79 15.17 279.95 15.17 Q 281.98 15.17 284.45 15.64 L 284.45 18.56 Z "/></g><rect x="22" y="55.88" width="329.88" height="46.84" style="fill: rgb(255,255,255); fill-opacity: 1.0" transform="matrix(1,0,0,1,0,0)" clip-path="url(#_2039044965508187clip-0)"/><g style="fill: rgb(0,0,0); fill-opacity: 1.0; stroke: none" transform="matrix(1,0,0,1,0,0)" clip-path="url(#_2039044965508187clip-0)"><path d="M 43.8 89 L 40.02 89 L 38.23 83.44 L 27.61 83.44 L 25.81 89 L 22.2 89 L 30.67 63.47 L 35.44 63.47 L 43.8 89 Z  M 37.23 80.33 L 32.92 66.67 L 28.61 80.33 L 37.23 80.33 Z  M 53.8 64.19 L 47.99 64.19 L 47.99 61.41 L 57.24 61.41 L 57.24 86.17 L 63.07 86.17 L 63.07 89 L 47.35 89 L 47.35 86.17 L 53.8 86.17 L 53.8 64.19 Z  M 84.34 88.28 Q 83.02 88.78 81.62 89.03 Q 80.22 89.28 78.73 89.28 Q 74.09 89.28 71.59 86.76 Q 69.08 84.23 69.08 79.39 Q 69.08 77.06 69.8 75.17 Q 70.52 73.28 71.83 71.93 Q 73.14 70.58 74.95 69.84 Q 76.77 69.11 78.95 69.11 Q 80.48 69.11 81.81 69.33 Q 83.14 69.55 84.34 70.03 L 84.34 73.28 Q 83.08 72.61 81.76 72.3 Q 80.44 72 79.03 72 Q 77.72 72 76.56 72.5 Q 75.41 73 74.52 73.94 Q 73.64 74.88 73.13 76.23 Q 72.62 77.58 72.62 79.27 Q 72.62 82.83 74.35 84.59 Q 76.08 86.36 79.16 86.36 Q 80.53 86.36 81.84 86.05 Q 83.14 85.73 84.34 85.11 L 84.34 88.28 Z  M 106.87 89 L 103.46 89 L 103.46 76.48 Q 103.46 74.22 102.62 73.09 Q 101.77 71.97 100.18 71.97 Q 99.51 71.97 98.91 72.16 Q 98.3 72.34 97.66 72.8 Q 97.02 73.25 96.26 74.03 Q 95.49 74.81 94.51 75.98 L 94.51 89 L 91.1 89 L 91.1 61.41 L 94.51 61.41 L 94.51 69.39 L 94.38 72.47 Q 95.18 71.52 95.95 70.86 Q 96.73 70.2 97.5 69.8 Q 98.27 69.39 99.07 69.21 Q 99.87 69.03 100.73 69.03 Q 103.66 69.03 105.27 70.82 Q 106.87 72.61 106.87 76.2 L 106.87 89 Z  M 129.66 78.16 Q 129.66 78.88 129.64 79.37 Q 129.62 79.86 129.58 80.28 L 115.81 80.28 Q 115.81 83.3 117.49 84.91 Q 119.17 86.52 122.33 86.52 Q 123.19 86.52 124.05 86.45 Q 124.91 86.38 125.71 86.26 Q 126.52 86.14 127.25 86 Q 127.98 85.86 128.61 85.67 L 128.61 88.47 Q 127.22 88.86 125.47 89.11 Q 123.72 89.36 121.84 89.36 Q 119.33 89.36 117.51 88.67 Q 115.69 87.98 114.53 86.69 Q 113.38 85.39 112.81 83.5 Q 112.25 81.61 112.25 79.23 Q 112.25 77.16 112.85 75.31 Q 113.45 73.47 114.59 72.07 Q 115.73 70.67 117.39 69.85 Q 119.05 69.03 121.16 69.03 Q 123.22 69.03 124.8 69.68 Q 126.38 70.33 127.46 71.51 Q 128.55 72.69 129.1 74.38 Q 129.66 76.06 129.66 78.16 Z  M 126.12 77.67 Q 126.19 76.36 125.88 75.27 Q 125.56 74.19 124.91 73.41 Q 124.25 72.62 123.27 72.19 Q 122.3 71.75 121 71.75 Q 119.89 71.75 118.98 72.18 Q 118.06 72.61 117.4 73.39 Q 116.73 74.17 116.32 75.27 Q 115.91 76.36 115.81 77.67 L 126.12 77.67 Z  M 149.07 89 L 149.07 74.92 Q 149.07 74 149 73.41 Q 148.93 72.83 148.79 72.48 Q 148.65 72.14 148.42 72.01 Q 148.2 71.88 147.87 71.88 Q 147.48 71.88 147.14 72.11 Q 146.8 72.34 146.42 72.87 Q 146.04 73.39 145.59 74.26 Q 145.13 75.12 144.51 76.41 L 144.51 89 L 141.4 89 L 141.4 75.28 Q 141.4 74.22 141.33 73.55 Q 141.26 72.89 141.11 72.52 Q 140.96 72.14 140.73 72.01 Q 140.49 71.88 140.16 71.88 Q 139.82 71.88 139.51 72.07 Q 139.2 72.27 138.81 72.77 Q 138.43 73.28 137.96 74.16 Q 137.49 75.03 136.85 76.41 L 136.85 89 L 133.73 89 L 133.73 69.39 L 136.32 69.39 L 136.48 73.12 Q 136.98 72 137.46 71.22 Q 137.95 70.44 138.45 69.96 Q 138.96 69.48 139.53 69.26 Q 140.1 69.03 140.8 69.03 Q 142.4 69.03 143.22 70.07 Q 144.04 71.11 144.04 73.28 Q 144.51 72.27 144.95 71.47 Q 145.4 70.67 145.91 70.14 Q 146.43 69.61 147.05 69.32 Q 147.68 69.03 148.51 69.03 Q 152.2 69.03 152.2 74.72 L 152.2 89 L 149.07 89 Z  M 174.52 69.39 L 167.84 86.92 Q 166.81 89.61 165.7 91.54 Q 164.59 93.47 163.29 94.71 Q 161.98 95.95 160.42 96.54 Q 158.86 97.12 156.92 97.12 Q 156.42 97.12 156.01 97.11 Q 155.59 97.09 155.11 97.05 L 155.11 93.97 Q 155.53 94.02 156.04 94.07 Q 156.55 94.12 157.12 94.12 Q 158.06 94.12 158.87 93.85 Q 159.67 93.58 160.4 92.96 Q 161.12 92.34 161.79 91.37 Q 162.45 90.39 163.08 89 L 155.25 69.39 L 159.11 69.39 L 164.08 82.36 L 165.06 85.41 L 166.2 82.28 L 170.8 69.39 L 174.52 69.39 Z  M 218.47 89 L 214.55 89 L 210.73 80.83 Q 210.3 79.89 209.85 79.28 Q 209.41 78.67 208.89 78.3 Q 208.38 77.94 207.76 77.78 Q 207.14 77.62 206.38 77.62 L 204.73 77.62 L 204.73 89 L 201.27 89 L 201.27 63.47 L 208.09 63.47 Q 210.33 63.47 211.93 63.96 Q 213.53 64.45 214.55 65.33 Q 215.58 66.2 216.05 67.45 Q 216.53 68.69 216.53 70.19 Q 216.53 71.38 216.18 72.45 Q 215.83 73.52 215.13 74.38 Q 214.44 75.25 213.41 75.88 Q 212.39 76.52 211.06 76.83 Q 212.14 77.2 212.89 78.13 Q 213.64 79.06 214.42 80.59 L 218.47 89 Z  M 212.91 70.48 Q 212.91 68.44 211.62 67.42 Q 210.34 66.41 208.02 66.41 L 204.73 66.41 L 204.73 74.84 L 207.55 74.84 Q 208.78 74.84 209.77 74.55 Q 210.75 74.27 211.45 73.71 Q 212.14 73.16 212.52 72.34 Q 212.91 71.53 212.91 70.48 Z  M 239.62 78.16 Q 239.62 78.88 239.6 79.37 Q 239.59 79.86 239.54 80.28 L 225.77 80.28 Q 225.77 83.3 227.45 84.91 Q 229.13 86.52 232.29 86.52 Q 233.15 86.52 234.01 86.45 Q 234.87 86.38 235.67 86.26 Q 236.48 86.14 237.21 86 Q 237.95 85.86 238.57 85.67 L 238.57 88.47 Q 237.18 88.86 235.43 89.11 Q 233.68 89.36 231.8 89.36 Q 229.29 89.36 227.47 88.67 Q 225.65 87.98 224.49 86.69 Q 223.34 85.39 222.77 83.5 Q 222.21 81.61 222.21 79.23 Q 222.21 77.16 222.81 75.31 Q 223.41 73.47 224.55 72.07 Q 225.7 70.67 227.35 69.85 Q 229.01 69.03 231.12 69.03 Q 233.18 69.03 234.76 69.68 Q 236.34 70.33 237.42 71.51 Q 238.51 72.69 239.06 74.38 Q 239.62 76.06 239.62 78.16 Z  M 236.09 77.67 Q 236.15 76.36 235.84 75.27 Q 235.52 74.19 234.87 73.41 Q 234.21 72.62 233.23 72.19 Q 232.26 71.75 230.96 71.75 Q 229.85 71.75 228.94 72.18 Q 228.02 72.61 227.36 73.39 Q 226.7 74.17 226.28 75.27 Q 225.87 76.36 225.77 77.67 L 236.09 77.67 Z  M 257.64 89 L 257.56 86.36 Q 255.97 87.94 254.32 88.65 Q 252.67 89.36 250.84 89.36 Q 249.17 89.36 247.98 88.92 Q 246.78 88.48 246.02 87.73 Q 245.25 86.98 244.88 85.97 Q 244.52 84.95 244.52 83.77 Q 244.52 80.81 246.72 79.14 Q 248.92 77.47 253.22 77.47 L 257.28 77.47 L 257.28 75.75 Q 257.28 74.02 256.16 72.97 Q 255.05 71.92 252.77 71.92 Q 251.11 71.92 249.49 72.3 Q 247.88 72.67 246.16 73.36 L 246.16 70.28 Q 246.81 70.05 247.6 69.83 Q 248.39 69.61 249.27 69.43 Q 250.14 69.25 251.1 69.14 Q 252.06 69.03 253.03 69.03 Q 254.81 69.03 256.24 69.42 Q 257.67 69.81 258.66 70.62 Q 259.64 71.42 260.16 72.63 Q 260.69 73.84 260.69 75.48 L 260.69 89 L 257.64 89 Z  M 257.28 80.08 L 252.95 80.08 Q 251.69 80.08 250.77 80.33 Q 249.86 80.58 249.27 81.05 Q 248.69 81.52 248.4 82.17 Q 248.11 82.83 248.11 83.64 Q 248.11 84.22 248.29 84.73 Q 248.47 85.25 248.86 85.65 Q 249.25 86.05 249.88 86.28 Q 250.5 86.52 251.39 86.52 Q 252.56 86.52 254.08 85.8 Q 255.59 85.09 257.28 83.55 L 257.28 80.08 Z  M 273.73 64.19 L 267.91 64.19 L 267.91 61.41 L 277.16 61.41 L 277.16 86.17 L 282.99 86.17 L 282.99 89 L 267.27 89 L 267.27 86.17 L 273.73 86.17 L 273.73 64.19 Z  M 295.72 64.19 L 289.91 64.19 L 289.91 61.41 L 299.16 61.41 L 299.16 86.17 L 304.98 86.17 L 304.98 89 L 289.27 89 L 289.27 86.17 L 295.72 86.17 L 295.72 64.19 Z  M 328.46 69.39 L 321.79 86.92 Q 320.76 89.61 319.65 91.54 Q 318.54 93.47 317.23 94.71 Q 315.93 95.95 314.37 96.54 Q 312.8 97.12 310.87 97.12 Q 310.37 97.12 309.95 97.11 Q 309.54 97.09 309.05 97.05 L 309.05 93.97 Q 309.48 94.02 309.98 94.07 Q 310.49 94.12 311.07 94.12 Q 312.01 94.12 312.81 93.85 Q 313.62 93.58 314.34 92.96 Q 315.07 92.34 315.73 91.37 Q 316.4 90.39 317.02 89 L 309.2 69.39 L 313.05 69.39 L 318.02 82.36 L 319.01 85.41 L 320.15 82.28 L 324.74 69.39 L 328.46 69.39 Z "/></g><rect x="22" y="102.88" width="373.87" height="46.84" style="fill: rgb(255,255,255); fill-opacity: 1.0" transform="matrix(1,0,0,1,0,0)" clip-path="url(#_2039044965508187clip-0)"/><g style="fill: rgb(0,0,0); fill-opacity: 1.0; stroke: none" transform="matrix(1,0,0,1,0,0)" clip-path="url(#_2039044965508187clip-0)"><path d="M 42.53 136 L 38.61 136 L 34.8 127.83 Q 34.36 126.89 33.91 126.28 Q 33.47 125.67 32.95 125.3 Q 32.44 124.94 31.82 124.78 Q 31.2 124.62 30.44 124.62 L 28.8 124.62 L 28.8 136 L 25.33 136 L 25.33 110.47 L 32.16 110.47 Q 34.39 110.47 35.99 110.96 Q 37.59 111.45 38.62 112.33 Q 39.64 113.2 40.12 114.45 Q 40.59 115.69 40.59 117.19 Q 40.59 118.38 40.24 119.45 Q 39.89 120.52 39.2 121.38 Q 38.5 122.25 37.48 122.88 Q 36.45 123.52 35.12 123.83 Q 36.2 124.2 36.95 125.13 Q 37.7 126.06 38.48 127.59 L 42.53 136 Z  M 36.97 117.48 Q 36.97 115.44 35.69 114.42 Q 34.41 113.41 32.08 113.41 L 28.8 113.41 L 28.8 121.84 L 31.61 121.84 Q 32.84 121.84 33.83 121.55 Q 34.81 121.27 35.51 120.71 Q 36.2 120.16 36.59 119.34 Q 36.97 118.53 36.97 117.48 Z  M 63.68 125.16 Q 63.68 125.88 63.66 126.37 Q 63.65 126.86 63.6 127.28 L 49.84 127.28 Q 49.84 130.3 51.52 131.91 Q 53.2 133.52 56.35 133.52 Q 57.21 133.52 58.07 133.45 Q 58.93 133.38 59.73 133.26 Q 60.54 133.14 61.27 133 Q 62.01 132.86 62.63 132.67 L 62.63 135.47 Q 61.24 135.86 59.49 136.11 Q 57.74 136.36 55.87 136.36 Q 53.35 136.36 51.53 135.67 Q 49.71 134.98 48.55 133.69 Q 47.4 132.39 46.84 130.5 Q 46.27 128.61 46.27 126.23 Q 46.27 124.16 46.88 122.31 Q 47.48 120.47 48.62 119.07 Q 49.76 117.67 51.41 116.85 Q 53.07 116.03 55.18 116.03 Q 57.24 116.03 58.82 116.68 Q 60.4 117.33 61.48 118.51 Q 62.57 119.69 63.12 121.38 Q 63.68 123.06 63.68 125.16 Z  M 60.15 124.67 Q 60.21 123.36 59.9 122.27 Q 59.59 121.19 58.93 120.41 Q 58.27 119.62 57.3 119.19 Q 56.32 118.75 55.02 118.75 Q 53.91 118.75 53 119.18 Q 52.09 119.61 51.42 120.39 Q 50.76 121.17 50.34 122.27 Q 49.93 123.36 49.84 124.67 L 60.15 124.67 Z  M 81.7 136 L 81.62 133.36 Q 80.03 134.94 78.38 135.65 Q 76.73 136.36 74.91 136.36 Q 73.23 136.36 72.04 135.92 Q 70.84 135.48 70.08 134.73 Q 69.31 133.98 68.95 132.97 Q 68.58 131.95 68.58 130.77 Q 68.58 127.81 70.78 126.14 Q 72.98 124.47 77.28 124.47 L 81.34 124.47 L 81.34 122.75 Q 81.34 121.02 80.23 119.97 Q 79.11 118.92 76.83 118.92 Q 75.17 118.92 73.55 119.3 Q 71.94 119.67 70.22 120.36 L 70.22 117.28 Q 70.88 117.05 71.66 116.83 Q 72.45 116.61 73.33 116.43 Q 74.2 116.25 75.16 116.14 Q 76.12 116.03 77.09 116.03 Q 78.88 116.03 80.3 116.42 Q 81.73 116.81 82.72 117.62 Q 83.7 118.42 84.23 119.63 Q 84.75 120.84 84.75 122.48 L 84.75 136 L 81.7 136 Z  M 81.34 127.08 L 77.02 127.08 Q 75.75 127.08 74.84 127.33 Q 73.92 127.58 73.34 128.05 Q 72.75 128.52 72.46 129.17 Q 72.17 129.83 72.17 130.64 Q 72.17 131.22 72.35 131.73 Q 72.53 132.25 72.92 132.65 Q 73.31 133.05 73.94 133.28 Q 74.56 133.52 75.45 133.52 Q 76.62 133.52 78.14 132.8 Q 79.66 132.09 81.34 130.55 L 81.34 127.08 Z  M 97.79 111.19 L 91.98 111.19 L 91.98 108.41 L 101.23 108.41 L 101.23 133.17 L 107.05 133.17 L 107.05 136 L 91.34 136 L 91.34 133.17 L 97.79 133.17 L 97.79 111.19 Z  M 119.78 111.19 L 113.97 111.19 L 113.97 108.41 L 123.22 108.41 L 123.22 133.17 L 129.05 133.17 L 129.05 136 L 113.33 136 L 113.33 133.17 L 119.78 133.17 L 119.78 111.19 Z  M 152.52 116.39 L 145.85 133.92 Q 144.82 136.61 143.71 138.54 Q 142.6 140.47 141.3 141.71 Q 139.99 142.95 138.43 143.54 Q 136.87 144.12 134.93 144.12 Q 134.43 144.12 134.02 144.11 Q 133.6 144.09 133.12 144.05 L 133.12 140.97 Q 133.54 141.02 134.05 141.07 Q 134.55 141.12 135.13 141.12 Q 136.07 141.12 136.88 140.85 Q 137.68 140.58 138.41 139.96 Q 139.13 139.34 139.8 138.37 Q 140.46 137.39 141.09 136 L 133.26 116.39 L 137.12 116.39 L 142.09 129.36 L 143.07 132.41 L 144.21 129.28 L 148.8 116.39 L 152.52 116.39 Z  M 195.18 136 L 180.49 136 L 180.49 110.47 L 184.04 110.47 L 184.04 133.03 L 195.18 133.03 L 195.18 136 Z  M 218.14 126.03 Q 218.14 128.33 217.49 130.23 Q 216.84 132.12 215.63 133.48 Q 214.42 134.84 212.69 135.6 Q 210.95 136.36 208.73 136.36 Q 206.62 136.36 204.96 135.7 Q 203.3 135.05 202.13 133.77 Q 200.97 132.5 200.35 130.62 Q 199.73 128.75 199.73 126.31 Q 199.73 124.03 200.38 122.14 Q 201.03 120.25 202.24 118.9 Q 203.45 117.55 205.19 116.79 Q 206.92 116.03 209.12 116.03 Q 211.23 116.03 212.91 116.69 Q 214.58 117.34 215.74 118.6 Q 216.91 119.86 217.52 121.73 Q 218.14 123.61 218.14 126.03 Z  M 214.66 126.19 Q 214.66 124.38 214.26 123.02 Q 213.86 121.66 213.12 120.75 Q 212.38 119.84 211.31 119.38 Q 210.25 118.92 208.94 118.92 Q 207.41 118.92 206.33 119.52 Q 205.25 120.12 204.55 121.12 Q 203.86 122.11 203.54 123.43 Q 203.22 124.75 203.22 126.19 Q 203.22 128.02 203.62 129.38 Q 204.02 130.75 204.76 131.66 Q 205.5 132.56 206.55 133.02 Q 207.61 133.48 208.94 133.48 Q 210.45 133.48 211.54 132.88 Q 212.62 132.28 213.32 131.29 Q 214.02 130.3 214.34 128.98 Q 214.66 127.66 214.66 126.19 Z  M 223.05 116.39 L 226.09 116.39 L 226.23 119.55 Q 227.09 118.53 227.88 117.86 Q 228.68 117.19 229.45 116.78 Q 230.23 116.38 231.02 116.2 Q 231.82 116.03 232.68 116.03 Q 235.71 116.03 237.27 117.82 Q 238.82 119.61 238.82 123.2 L 238.82 136 L 235.41 136 L 235.41 123.48 Q 235.41 121.17 234.55 120.07 Q 233.7 118.97 232.01 118.97 Q 231.38 118.97 230.78 119.16 Q 230.18 119.34 229.54 119.8 Q 228.9 120.25 228.15 121.03 Q 227.4 121.81 226.46 122.98 L 226.46 136 L 223.05 136 L 223.05 116.39 Z  M 259.17 119.16 Q 259.72 119.84 260.02 120.75 Q 260.33 121.66 260.33 122.72 Q 260.33 124.23 259.77 125.5 Q 259.2 126.77 258.19 127.66 Q 257.17 128.56 255.76 129.05 Q 254.34 129.55 252.64 129.55 Q 251.42 129.55 250.34 129.29 Q 249.27 129.03 248.64 128.64 Q 248.27 129.19 248.02 129.67 Q 247.77 130.16 247.77 130.77 Q 247.77 131.5 248.48 131.99 Q 249.19 132.48 250.36 132.52 L 255.52 132.72 Q 256.98 132.75 258.23 133.09 Q 259.47 133.42 260.35 134.05 Q 261.23 134.67 261.73 135.59 Q 262.23 136.52 262.23 137.72 Q 262.23 139.03 261.67 140.2 Q 261.11 141.38 259.92 142.27 Q 258.73 143.16 256.92 143.68 Q 255.11 144.2 252.61 144.2 Q 250.22 144.2 248.55 143.82 Q 246.89 143.44 245.81 142.77 Q 244.73 142.09 244.25 141.16 Q 243.77 140.23 243.77 139.12 Q 243.77 137.7 244.43 136.62 Q 245.09 135.55 246.47 134.55 Q 245.97 134.31 245.59 133.96 Q 245.22 133.61 244.98 133.2 Q 244.75 132.78 244.63 132.31 Q 244.52 131.84 244.52 131.39 Q 244.52 130.12 245.12 129.07 Q 245.72 128.02 246.53 127.08 Q 246.16 126.62 245.88 126.2 Q 245.59 125.77 245.39 125.27 Q 245.19 124.77 245.08 124.19 Q 244.97 123.61 244.97 122.88 Q 244.97 121.34 245.52 120.09 Q 246.08 118.83 247.09 117.93 Q 248.09 117.03 249.51 116.53 Q 250.92 116.03 252.64 116.03 Q 253.38 116.03 254.04 116.13 Q 254.7 116.23 255.2 116.39 L 262.31 116.39 L 262.31 119.16 L 259.17 119.16 Z  M 247.38 138.83 Q 247.38 140.22 248.82 140.85 Q 250.27 141.48 252.84 141.48 Q 254.47 141.48 255.57 141.2 Q 256.67 140.91 257.34 140.43 Q 258.02 139.95 258.31 139.34 Q 258.61 138.72 258.61 138.08 Q 258.61 136.88 257.63 136.31 Q 256.66 135.75 254.64 135.64 L 249.52 135.47 Q 248.88 135.91 248.45 136.31 Q 248.03 136.72 247.8 137.14 Q 247.56 137.56 247.47 137.98 Q 247.38 138.41 247.38 138.83 Z  M 248.41 122.8 Q 248.41 123.73 248.72 124.52 Q 249.03 125.3 249.6 125.84 Q 250.17 126.39 250.94 126.7 Q 251.7 127 252.64 127 Q 253.66 127 254.45 126.66 Q 255.25 126.31 255.78 125.73 Q 256.31 125.14 256.6 124.38 Q 256.89 123.61 256.89 122.8 Q 256.89 121.86 256.58 121.08 Q 256.27 120.3 255.7 119.75 Q 255.12 119.2 254.35 118.9 Q 253.58 118.59 252.64 118.59 Q 251.62 118.59 250.84 118.95 Q 250.05 119.3 249.51 119.88 Q 248.97 120.45 248.69 121.21 Q 248.41 121.97 248.41 122.8 Z  M 305.34 135.05 Q 302.28 136.31 298.92 136.31 Q 293.5 136.31 290.6 133.08 Q 287.7 129.84 287.7 123.52 Q 287.7 120.45 288.51 117.97 Q 289.31 115.48 290.8 113.76 Q 292.28 112.03 294.39 111.09 Q 296.5 110.16 299.11 110.16 Q 300.89 110.16 302.41 110.46 Q 303.94 110.77 305.34 111.39 L 305.34 114.81 Q 303.95 114.05 302.47 113.65 Q 300.98 113.25 299.23 113.25 Q 297.44 113.25 295.98 113.92 Q 294.52 114.59 293.5 115.88 Q 292.48 117.16 291.94 119 Q 291.39 120.84 291.39 123.2 Q 291.39 128.17 293.41 130.69 Q 295.42 133.2 299.31 133.2 Q 300.95 133.2 302.45 132.82 Q 303.95 132.44 305.34 131.77 L 305.34 135.05 Z  M 323.62 136 L 323.54 133.36 Q 321.95 134.94 320.3 135.65 Q 318.65 136.36 316.82 136.36 Q 315.15 136.36 313.95 135.92 Q 312.76 135.48 311.99 134.73 Q 311.23 133.98 310.86 132.97 Q 310.49 131.95 310.49 130.77 Q 310.49 127.81 312.7 126.14 Q 314.9 124.47 319.2 124.47 L 323.26 124.47 L 323.26 122.75 Q 323.26 121.02 322.14 119.97 Q 321.02 118.92 318.74 118.92 Q 317.09 118.92 315.47 119.3 Q 313.85 119.67 312.13 120.36 L 312.13 117.28 Q 312.79 117.05 313.58 116.83 Q 314.37 116.61 315.24 116.43 Q 316.12 116.25 317.08 116.14 Q 318.04 116.03 319.01 116.03 Q 320.79 116.03 322.22 116.42 Q 323.65 116.81 324.63 117.62 Q 325.62 118.42 326.14 119.63 Q 326.66 120.84 326.66 122.48 L 326.66 136 L 323.62 136 Z  M 323.26 127.08 L 318.93 127.08 Q 317.66 127.08 316.75 127.33 Q 315.84 127.58 315.25 128.05 Q 314.66 128.52 314.38 129.17 Q 314.09 129.83 314.09 130.64 Q 314.09 131.22 314.27 131.73 Q 314.45 132.25 314.84 132.65 Q 315.23 133.05 315.85 133.28 Q 316.48 133.52 317.37 133.52 Q 318.54 133.52 320.05 132.8 Q 321.57 132.09 323.26 130.55 L 323.26 127.08 Z  M 333.81 116.39 L 336.92 116.39 L 337.02 120 Q 338.77 117.91 340.45 116.97 Q 342.14 116.03 343.86 116.03 Q 346.91 116.03 348.48 118.01 Q 350.05 119.98 349.94 123.88 L 346.5 123.88 Q 346.55 121.3 345.74 120.13 Q 344.94 118.97 343.38 118.97 Q 342.69 118.97 341.99 119.21 Q 341.3 119.45 340.56 119.99 Q 339.83 120.53 339.01 121.37 Q 338.19 122.2 337.25 123.41 L 337.25 136 L 333.81 136 L 333.81 116.39 Z  M 354.01 126.61 Q 354.01 124.11 354.7 122.16 Q 355.38 120.22 356.64 118.88 Q 357.9 117.55 359.66 116.85 Q 361.43 116.16 363.6 116.16 Q 364.54 116.16 365.45 116.27 Q 366.35 116.39 367.24 116.64 L 367.24 108.41 L 370.65 108.41 L 370.65 136 L 367.6 136 L 367.49 132.28 Q 366.07 134.36 364.41 135.36 Q 362.74 136.36 360.8 136.36 Q 359.13 136.36 357.85 135.65 Q 356.57 134.94 355.72 133.66 Q 354.87 132.39 354.44 130.59 Q 354.01 128.8 354.01 126.61 Z  M 357.49 126.39 Q 357.49 129.94 358.54 131.69 Q 359.59 133.44 361.49 133.44 Q 362.79 133.44 364.22 132.29 Q 365.65 131.14 367.24 128.88 L 367.24 119.77 Q 366.4 119.38 365.38 119.17 Q 364.37 118.97 363.37 118.97 Q 360.6 118.97 359.05 120.77 Q 357.49 122.56 357.49 126.39 Z "/></g><rect x="22" y="149.88" width="87.97" height="46.84" style="fill: rgb(255,255,255); fill-opacity: 1.0" transform="matrix(1,0,0,1,0,0)" clip-path="url(#_2039044965508187clip-0)"/><g style="fill: rgb(0,0,0); fill-opacity: 1.0; stroke: none" transform="matrix(1,0,0,1,0,0)" clip-path="url(#_2039044965508187clip-0)"><path d="M 41.69 183 L 37.16 183 L 29.72 167.08 L 27.56 161.97 L 27.56 174.83 L 27.56 183 L 24.33 183 L 24.33 157.47 L 28.8 157.47 L 35.89 172.55 L 38.45 178.39 L 38.45 164.72 L 38.45 157.47 L 41.69 157.47 L 41.69 183 Z  M 59.71 183 L 59.63 180.36 Q 58.04 181.94 56.39 182.65 Q 54.74 183.36 52.91 183.36 Q 51.24 183.36 50.05 182.92 Q 48.85 182.48 48.09 181.73 Q 47.32 180.98 46.95 179.97 Q 46.59 178.95 46.59 177.77 Q 46.59 174.81 48.79 173.14 Q 50.99 171.47 55.29 171.47 L 59.35 171.47 L 59.35 169.75 Q 59.35 168.02 58.23 166.97 Q 57.12 165.92 54.84 165.92 Q 53.18 165.92 51.56 166.3 Q 49.95 166.67 48.23 167.36 L 48.23 164.28 Q 48.88 164.05 49.67 163.83 Q 50.46 163.61 51.34 163.43 Q 52.21 163.25 53.17 163.14 Q 54.13 163.03 55.1 163.03 Q 56.88 163.03 58.31 163.42 Q 59.74 163.81 60.73 164.62 Q 61.71 165.42 62.23 166.63 Q 62.76 167.84 62.76 169.48 L 62.76 183 L 59.71 183 Z  M 59.35 174.08 L 55.02 174.08 Q 53.76 174.08 52.84 174.33 Q 51.93 174.58 51.34 175.05 Q 50.76 175.52 50.47 176.17 Q 50.18 176.83 50.18 177.64 Q 50.18 178.22 50.36 178.73 Q 50.54 179.25 50.93 179.65 Q 51.32 180.05 51.95 180.28 Q 52.57 180.52 53.46 180.52 Q 54.63 180.52 56.15 179.8 Q 57.66 179.09 59.35 177.55 L 59.35 174.08 Z  M 83.09 183 L 83.09 168.92 Q 83.09 168 83.02 167.41 Q 82.95 166.83 82.81 166.48 Q 82.67 166.14 82.45 166.01 Q 82.22 165.88 81.89 165.88 Q 81.5 165.88 81.16 166.11 Q 80.83 166.34 80.45 166.87 Q 80.06 167.39 79.61 168.26 Q 79.16 169.12 78.53 170.41 L 78.53 183 L 75.42 183 L 75.42 169.28 Q 75.42 168.22 75.35 167.55 Q 75.28 166.89 75.13 166.52 Q 74.98 166.14 74.75 166.01 Q 74.52 165.88 74.19 165.88 Q 73.84 165.88 73.53 166.07 Q 73.22 166.27 72.84 166.77 Q 72.45 167.28 71.98 168.16 Q 71.52 169.03 70.88 170.41 L 70.88 183 L 67.75 183 L 67.75 163.39 L 70.34 163.39 L 70.5 167.12 Q 71 166 71.48 165.22 Q 71.97 164.44 72.48 163.96 Q 72.98 163.48 73.55 163.26 Q 74.12 163.03 74.83 163.03 Q 76.42 163.03 77.24 164.07 Q 78.06 165.11 78.06 167.28 Q 78.53 166.27 78.98 165.47 Q 79.42 164.67 79.94 164.14 Q 80.45 163.61 81.08 163.32 Q 81.7 163.03 82.53 163.03 Q 86.22 163.03 86.22 168.72 L 86.22 183 L 83.09 183 Z  M 107.66 172.16 Q 107.66 172.88 107.65 173.37 Q 107.63 173.86 107.59 174.28 L 93.82 174.28 Q 93.82 177.3 95.5 178.91 Q 97.18 180.52 100.34 180.52 Q 101.2 180.52 102.05 180.45 Q 102.91 180.38 103.72 180.26 Q 104.52 180.14 105.26 180 Q 105.99 179.86 106.62 179.67 L 106.62 182.47 Q 105.23 182.86 103.48 183.11 Q 101.73 183.36 99.85 183.36 Q 97.34 183.36 95.52 182.67 Q 93.7 181.98 92.54 180.69 Q 91.38 179.39 90.82 177.5 Q 90.26 175.61 90.26 173.23 Q 90.26 171.16 90.86 169.31 Q 91.46 167.47 92.6 166.07 Q 93.74 164.67 95.4 163.85 Q 97.05 163.03 99.16 163.03 Q 101.23 163.03 102.8 163.68 Q 104.38 164.33 105.47 165.51 Q 106.55 166.69 107.11 168.38 Q 107.66 170.06 107.66 172.16 Z  M 104.13 171.67 Q 104.2 170.36 103.88 169.27 Q 103.57 168.19 102.91 167.41 Q 102.26 166.62 101.28 166.19 Q 100.3 165.75 99.01 165.75 Q 97.9 165.75 96.98 166.18 Q 96.07 166.61 95.41 167.39 Q 94.74 168.17 94.33 169.27 Q 93.91 170.36 93.82 171.67 L 104.13 171.67 Z "/></g><g style="fill: rgb(255,255,255); fill-opacity: 1.0; stroke: none" transform="matrix(1,0,0,1,452,0)" clip-path="url(#_2039044965508187clip-1)"><path d="M 0 0 L 0 51 L 194 51 L 194 24.03 L 194 24.03 C 190.46 10.21 177.92 0 163 0 Z "/></g><g style="stroke-width: 3.0;stroke: rgb(0,0,0);stroke-opacity: 1.0;stroke-linecap: square;; fill: none" transform="matrix(1,0,0,1,452,0)" clip-path="url(#_2039044965508187clip-1)"><path d="M 0 0 L 0 51 L 194 51 L 194 24.03 L 194 24.03 C 190.46 10.21 177.92 0 163 0 Z "/></g><rect x="119" y="1.88" width="21.99" height="46.84" style="fill: rgb(255,255,255); fill-opacity: 1.0" transform="matrix(1,0,0,1,452,0)" clip-path="url(#_2039044965508187clip-1)"/><g style="fill: rgb(0,0,255); fill-opacity: 1.0; stroke: none" transform="matrix(1,0,0,1,452,0)" clip-path="url(#_2039044965508187clip-1)"><path d="M 136.94 33.16 L 134.8 35.31 L 121.67 24.36 L 134.8 13.39 L 136.94 15.56 L 126.28 24.31 L 136.94 33.16 Z "/></g><rect x="140.99" y="1.88" width="21.99" height="46.84" style="fill: rgb(255,255,255); fill-opacity: 1.0" transform="matrix(1,0,0,1,452,0)" clip-path="url(#_2039044965508187clip-1)"/><g style="fill: rgb(0,0,255); fill-opacity: 1.0; stroke: none" transform="matrix(1,0,0,1,452,0)" clip-path="url(#_2039044965508187clip-1)"><path d="M 160.2 27.25 Q 160.2 28.92 159.51 30.4 Q 158.82 31.88 157.45 32.98 Q 156.09 34.08 154.02 34.72 Q 151.95 35.36 149.2 35.36 Q 147.68 35.36 146.47 35.26 Q 145.26 35.16 144.2 35 L 144.2 31.95 Q 145.41 32.17 146.76 32.29 Q 148.1 32.41 149.51 32.41 Q 151.43 32.41 152.78 32.06 Q 154.13 31.72 154.99 31.07 Q 155.85 30.42 156.24 29.51 Q 156.63 28.59 156.63 27.44 Q 156.63 26.39 156.16 25.61 Q 155.7 24.83 154.85 24.3 Q 154.01 23.77 152.82 23.5 Q 151.63 23.23 150.23 23.23 L 147.32 23.23 L 147.32 20.45 L 150.27 20.45 Q 151.43 20.45 152.38 20.15 Q 153.32 19.84 153.99 19.27 Q 154.66 18.7 155.02 17.88 Q 155.38 17.05 155.38 16 Q 155.38 13.94 154.13 13 Q 152.88 12.06 150.46 12.06 Q 149.18 12.06 147.81 12.32 Q 146.45 12.58 144.88 13.08 L 144.88 10.11 Q 145.54 9.88 146.3 9.7 Q 147.05 9.52 147.8 9.38 Q 148.55 9.25 149.3 9.19 Q 150.04 9.12 150.73 9.12 Q 152.76 9.12 154.3 9.56 Q 155.84 10 156.88 10.82 Q 157.91 11.64 158.44 12.81 Q 158.96 13.98 158.96 15.45 Q 158.96 17.64 157.84 19.12 Q 156.71 20.61 154.76 21.48 Q 155.76 21.64 156.73 22.11 Q 157.7 22.58 158.47 23.31 Q 159.24 24.05 159.72 25.04 Q 160.2 26.03 160.2 27.25 Z "/></g><rect x="162.98" y="1.88" width="21.99" height="46.84" style="fill: rgb(255,255,255); fill-opacity: 1.0" transform="matrix(1,0,0,1,452,0)" clip-path="url(#_2039044965508187clip-1)"/><g style="fill: rgb(0,0,255); fill-opacity: 1.0; stroke: none" transform="matrix(1,0,0,1,452,0)" clip-path="url(#_2039044965508187clip-1)"><path d="M 167.06 15.56 L 169.17 13.39 L 182.3 24.36 L 169.17 35.31 L 167.06 33.16 L 177.72 24.39 L 167.06 15.56 Z "/></g></svg>