<svg xmlns="http://www.w3.org/2000/svg" xmlns:xlink="http://www.w3.org/1999/xlink" xmlns:jfreesvg="http://www.jfree.org/jfreesvg/svg" width="653px" height="404px" text-rendering="auto" shape-rendering="auto">
<defs><clipPath id="_2221283966651070clip-0"><path d="M 0 0 L 0 54 L 399 54 L 399 0 Z "/></clipPath>
<clipPath id="_2221283966651070clip-1"><path d="M 399 0 L 399 54 L 646 54 L 646 0 Z "/></clipPath>
<clipPath id="_2221283966651070clip-2"><path d="M 0 54 L 0 79 L 399 79 L 399 54 Z "/></clipPath>
<clipPath id="_2221283966651070clip-3"><path d="M 399 54 L 399 79 L 646 79 L 646 54 Z "/></clipPath>
<clipPath id="_2221283966651070clip-4"><path d="M 0 79 L 0 400 L 647 400 L 647 79 Z "/></clipPath>
</defs>
<rect x="0" y="0" width="653" height="404" style="fill: rgb(0,0,0); fill-opacity: 1.0" transform="matrix(1,0,0,1,0,0)" /><g style="fill: rgb(255,255,255); fill-opacity: 1.0; stroke: none" transform="matrix(1,0,0,1,6,4)" clip-path="url(#_2221283966651070clip-0)"><path d="M 0 0 L 0 54 L 399 54 L 399 0 Z "/></g><rect x="39" y="4.44" width="219.92" height="23.42" style="fill: rgb(255,255,255); fill-opacity: 1.0" transform="matrix(1,0,0,1,6,4)" clip-path="url(#_2221283966651070clip-0)"/><g style="fill: rgb(0,0,0); fill-opacity: 1.0; stroke: none" transform="matrix(1,0,0,1,6,4)" clip-path="url(#_2221283966651070clip-0)"><path d="M 48.92 17.19 Q 48.92 18.09 48.56 18.8 Q 48.2 19.52 47.55 20 Q 46.89 20.48 45.96 20.74 Q 45.03 21 43.89 21 L 40.55 21 L 40.55 8.23 L 44.2 8.23 Q 48.47 8.23 48.47 11.34 Q 48.47 12.38 47.98 13.12 Q 47.48 13.86 46.36 14.22 Q 46.88 14.31 47.34 14.55 Q 47.81 14.78 48.16 15.16 Q 48.52 15.53 48.72 16.04 Q 48.92 16.55 48.92 17.19 Z  M 46.66 11.58 Q 46.66 11.19 46.54 10.84 Q 46.42 10.48 46.13 10.24 Q 45.84 10 45.34 9.85 Q 44.84 9.7 44.08 9.7 L 42.28 9.7 L 42.28 13.69 L 44.02 13.69 Q 44.61 13.69 45.09 13.56 Q 45.58 13.44 45.93 13.17 Q 46.28 12.91 46.47 12.52 Q 46.66 12.12 46.66 11.58 Z  M 47.08 17.23 Q 47.08 16.75 46.88 16.36 Q 46.67 15.97 46.28 15.7 Q 45.89 15.44 45.33 15.29 Q 44.77 15.14 44.06 15.14 L 42.28 15.14 L 42.28 19.53 L 44.12 19.53 Q 45.61 19.53 46.34 18.98 Q 47.08 18.42 47.08 17.23 Z  M 54.9 8.59 L 52 8.59 L 52 7.2 L 56.62 7.2 L 56.62 19.58 L 59.54 19.58 L 59.54 21 L 51.68 21 L 51.68 19.58 L 54.9 19.58 L 54.9 8.59 Z  M 68.85 21 L 68.82 19.69 Q 68.01 20.47 67.19 20.82 Q 66.37 21.17 65.46 21.17 Q 64.62 21.17 64.02 20.96 Q 63.43 20.75 63.04 20.38 Q 62.65 20 62.47 19.49 Q 62.29 18.98 62.29 18.38 Q 62.29 16.91 63.39 16.07 Q 64.49 15.23 66.63 15.23 L 68.66 15.23 L 68.66 14.38 Q 68.66 13.52 68.11 12.99 Q 67.55 12.47 66.41 12.47 Q 65.59 12.47 64.78 12.65 Q 63.98 12.83 63.12 13.17 L 63.12 11.64 Q 63.43 11.53 63.83 11.41 Q 64.23 11.3 64.66 11.21 Q 65.1 11.12 65.58 11.07 Q 66.05 11.02 66.55 11.02 Q 67.45 11.02 68.16 11.21 Q 68.87 11.41 69.36 11.8 Q 69.85 12.2 70.12 12.81 Q 70.38 13.42 70.38 14.23 L 70.38 21 L 68.85 21 Z  M 68.66 16.53 L 66.51 16.53 Q 65.88 16.53 65.42 16.66 Q 64.96 16.8 64.66 17.03 Q 64.37 17.27 64.23 17.59 Q 64.09 17.91 64.09 18.33 Q 64.09 18.61 64.17 18.87 Q 64.26 19.12 64.45 19.33 Q 64.65 19.53 64.96 19.65 Q 65.27 19.77 65.73 19.77 Q 66.32 19.77 67.08 19.41 Q 67.84 19.05 68.66 18.28 L 68.66 16.53 Z  M 81.18 20.64 Q 80.5 20.89 79.81 21.02 Q 79.11 21.14 78.36 21.14 Q 76.04 21.14 74.79 19.88 Q 73.54 18.61 73.54 16.19 Q 73.54 15.03 73.89 14.09 Q 74.25 13.14 74.91 12.47 Q 75.57 11.8 76.47 11.43 Q 77.38 11.06 78.47 11.06 Q 79.24 11.06 79.9 11.16 Q 80.57 11.27 81.18 11.52 L 81.18 13.14 Q 80.54 12.81 79.88 12.66 Q 79.22 12.5 78.52 12.5 Q 77.86 12.5 77.28 12.75 Q 76.69 13 76.25 13.47 Q 75.82 13.94 75.57 14.61 Q 75.32 15.28 75.32 16.14 Q 75.32 17.91 76.18 18.8 Q 77.04 19.69 78.57 19.69 Q 79.27 19.69 79.92 19.53 Q 80.57 19.38 81.18 19.06 L 81.18 20.64 Z  M 93.36 21 L 91.03 21 L 86.47 15.75 L 86.47 21 L 84.77 21 L 84.77 7.2 L 86.47 7.2 L 86.47 15.67 L 90.86 11.19 L 93.11 11.19 L 88.52 15.72 L 93.36 21 Z  M 114.71 17.55 Q 114.71 18.45 114.34 19.13 Q 113.98 19.81 113.31 20.27 Q 112.65 20.72 111.71 20.95 Q 110.77 21.17 109.65 21.17 Q 109.15 21.17 108.65 21.13 Q 108.15 21.09 107.68 21.04 Q 107.21 20.98 106.8 20.91 Q 106.4 20.83 106.05 20.73 L 106.05 19.06 Q 106.79 19.33 107.7 19.48 Q 108.62 19.64 109.79 19.64 Q 110.62 19.64 111.21 19.51 Q 111.8 19.38 112.18 19.12 Q 112.55 18.86 112.73 18.49 Q 112.9 18.12 112.9 17.64 Q 112.9 17.12 112.61 16.76 Q 112.32 16.39 111.85 16.1 Q 111.38 15.81 110.78 15.57 Q 110.18 15.33 109.55 15.08 Q 108.93 14.83 108.33 14.53 Q 107.73 14.23 107.26 13.83 Q 106.79 13.42 106.5 12.88 Q 106.21 12.33 106.21 11.58 Q 106.21 10.92 106.48 10.29 Q 106.76 9.66 107.34 9.16 Q 107.91 8.67 108.82 8.37 Q 109.73 8.06 110.98 8.06 Q 111.29 8.06 111.67 8.09 Q 112.05 8.12 112.44 8.17 Q 112.82 8.22 113.2 8.29 Q 113.57 8.36 113.9 8.44 L 113.9 10 Q 113.15 9.78 112.39 9.67 Q 111.63 9.56 110.93 9.56 Q 109.45 9.56 108.74 10.06 Q 108.04 10.56 108.04 11.41 Q 108.04 11.92 108.33 12.29 Q 108.62 12.66 109.09 12.95 Q 109.55 13.25 110.15 13.48 Q 110.74 13.72 111.37 13.98 Q 111.99 14.23 112.59 14.54 Q 113.2 14.84 113.66 15.26 Q 114.13 15.67 114.42 16.23 Q 114.71 16.78 114.71 17.55 Z  M 126.07 16.02 Q 126.07 17.16 125.75 18.11 Q 125.43 19.06 124.82 19.74 Q 124.22 20.42 123.35 20.8 Q 122.47 21.17 121.38 21.17 Q 120.32 21.17 119.48 20.84 Q 118.64 20.52 118.07 19.88 Q 117.49 19.25 117.18 18.31 Q 116.88 17.38 116.88 16.16 Q 116.88 15.02 117.2 14.07 Q 117.52 13.12 118.12 12.45 Q 118.72 11.77 119.6 11.39 Q 120.47 11.02 121.57 11.02 Q 122.63 11.02 123.46 11.34 Q 124.3 11.67 124.88 12.3 Q 125.46 12.94 125.76 13.88 Q 126.07 14.81 126.07 16.02 Z  M 124.33 16.09 Q 124.33 15.19 124.13 14.51 Q 123.93 13.83 123.56 13.38 Q 123.19 12.92 122.66 12.7 Q 122.13 12.47 121.47 12.47 Q 120.71 12.47 120.17 12.77 Q 119.63 13.06 119.28 13.56 Q 118.93 14.06 118.77 14.72 Q 118.61 15.38 118.61 16.09 Q 118.61 17 118.81 17.69 Q 119 18.38 119.38 18.83 Q 119.75 19.28 120.28 19.51 Q 120.8 19.73 121.47 19.73 Q 122.24 19.73 122.78 19.44 Q 123.32 19.14 123.66 18.64 Q 124 18.14 124.17 17.48 Q 124.33 16.83 124.33 16.09 Z  M 131.88 8.59 L 128.97 8.59 L 128.97 7.2 L 133.59 7.2 L 133.59 19.58 L 136.52 19.58 L 136.52 21 L 128.66 21 L 128.66 19.58 L 131.88 19.58 L 131.88 8.59 Z  M 159.05 16.02 Q 159.05 17.16 158.73 18.11 Q 158.41 19.06 157.81 19.74 Q 157.21 20.42 156.34 20.8 Q 155.46 21.17 154.37 21.17 Q 153.3 21.17 152.47 20.84 Q 151.63 20.52 151.05 19.88 Q 150.48 19.25 150.17 18.31 Q 149.87 17.38 149.87 16.16 Q 149.87 15.02 150.19 14.07 Q 150.51 13.12 151.11 12.45 Q 151.71 11.77 152.59 11.39 Q 153.46 11.02 154.55 11.02 Q 155.62 11.02 156.45 11.34 Q 157.29 11.67 157.87 12.3 Q 158.45 12.94 158.75 13.88 Q 159.05 14.81 159.05 16.02 Z  M 157.32 16.09 Q 157.32 15.19 157.12 14.51 Q 156.91 13.83 156.55 13.38 Q 156.18 12.92 155.65 12.7 Q 155.12 12.47 154.46 12.47 Q 153.7 12.47 153.16 12.77 Q 152.62 13.06 152.27 13.56 Q 151.91 14.06 151.76 14.72 Q 151.6 15.38 151.6 16.09 Q 151.6 17 151.8 17.69 Q 151.99 18.38 152.37 18.83 Q 152.74 19.28 153.27 19.51 Q 153.79 19.73 154.46 19.73 Q 155.23 19.73 155.77 19.44 Q 156.3 19.14 156.65 18.64 Q 156.99 18.14 157.16 17.48 Q 157.32 16.83 157.32 16.09 Z  M 170.22 8.78 Q 168.88 8.5 167.91 8.5 Q 165.63 8.5 165.63 10.91 L 165.63 12.62 L 169.93 12.62 L 169.93 14.03 L 165.63 14.03 L 165.63 21 L 163.89 21 L 163.89 14.03 L 160.74 14.03 L 160.74 12.62 L 163.89 12.62 L 163.89 11 Q 163.89 7.08 167.97 7.08 Q 168.99 7.08 170.22 7.31 L 170.22 8.78 Z  M 192.86 21 L 190.95 21 L 190.06 18.22 L 184.75 18.22 L 183.86 21 L 182.04 21 L 186.29 8.23 L 188.67 8.23 L 192.86 21 Z  M 189.57 16.66 L 187.4 9.84 L 185.25 16.66 L 189.57 16.66 Z  M 197.85 8.59 L 194.95 8.59 L 194.95 7.2 L 199.57 7.2 L 199.57 19.58 L 202.49 19.58 L 202.49 21 L 194.63 21 L 194.63 19.58 L 197.85 19.58 L 197.85 8.59 Z  M 213.13 20.64 Q 212.46 20.89 211.76 21.02 Q 211.07 21.14 210.32 21.14 Q 207.99 21.14 206.74 19.88 Q 205.49 18.61 205.49 16.19 Q 205.49 15.03 205.85 14.09 Q 206.21 13.14 206.86 12.47 Q 207.52 11.8 208.43 11.43 Q 209.33 11.06 210.43 11.06 Q 211.19 11.06 211.86 11.16 Q 212.52 11.27 213.13 11.52 L 213.13 13.14 Q 212.49 12.81 211.83 12.66 Q 211.18 12.5 210.47 12.5 Q 209.82 12.5 209.23 12.75 Q 208.64 13 208.21 13.47 Q 207.77 13.94 207.52 14.61 Q 207.27 15.28 207.27 16.14 Q 207.27 17.91 208.13 18.8 Q 208.99 19.69 210.52 19.69 Q 211.22 19.69 211.87 19.53 Q 212.52 19.38 213.13 19.06 L 213.13 20.64 Z  M 224.38 21 L 222.69 21 L 222.69 14.73 Q 222.69 13.61 222.26 13.05 Q 221.83 12.48 221.05 12.48 Q 220.7 12.48 220.41 12.58 Q 220.11 12.67 219.78 12.9 Q 219.45 13.12 219.08 13.52 Q 218.7 13.91 218.2 14.5 L 218.2 21 L 216.5 21 L 216.5 7.2 L 218.2 7.2 L 218.2 11.19 L 218.14 12.73 Q 218.55 12.27 218.93 11.94 Q 219.31 11.61 219.7 11.4 Q 220.08 11.19 220.48 11.1 Q 220.89 11.02 221.31 11.02 Q 222.78 11.02 223.58 11.91 Q 224.38 12.81 224.38 14.61 L 224.38 21 Z  M 235.78 15.58 Q 235.78 15.94 235.77 16.18 Q 235.76 16.42 235.75 16.64 L 228.86 16.64 Q 228.86 18.14 229.69 18.95 Q 230.53 19.77 232.12 19.77 Q 232.54 19.77 232.97 19.73 Q 233.4 19.69 233.8 19.63 Q 234.2 19.58 234.57 19.5 Q 234.93 19.42 235.25 19.34 L 235.25 20.73 Q 234.56 20.94 233.68 21.05 Q 232.81 21.17 231.87 21.17 Q 230.61 21.17 229.7 20.83 Q 228.79 20.48 228.21 19.84 Q 227.64 19.19 227.36 18.25 Q 227.07 17.31 227.07 16.11 Q 227.07 15.08 227.37 14.16 Q 227.67 13.23 228.24 12.54 Q 228.81 11.84 229.64 11.43 Q 230.48 11.02 231.53 11.02 Q 232.56 11.02 233.35 11.34 Q 234.14 11.66 234.68 12.25 Q 235.21 12.84 235.5 13.69 Q 235.78 14.53 235.78 15.58 Z  M 234.01 15.33 Q 234.04 14.69 233.89 14.14 Q 233.73 13.59 233.4 13.2 Q 233.07 12.81 232.58 12.59 Q 232.09 12.38 231.45 12.38 Q 230.9 12.38 230.44 12.59 Q 229.98 12.81 229.64 13.2 Q 229.31 13.59 229.11 14.14 Q 228.9 14.69 228.86 15.33 L 234.01 15.33 Z  M 245.49 21 L 245.49 13.95 Q 245.49 13.5 245.45 13.2 Q 245.41 12.91 245.34 12.74 Q 245.27 12.58 245.16 12.51 Q 245.04 12.44 244.88 12.44 Q 244.68 12.44 244.52 12.55 Q 244.35 12.67 244.16 12.94 Q 243.98 13.2 243.74 13.63 Q 243.51 14.06 243.2 14.7 L 243.2 21 L 241.65 21 L 241.65 14.14 Q 241.65 13.61 241.62 13.27 Q 241.59 12.94 241.51 12.76 Q 241.43 12.58 241.31 12.51 Q 241.2 12.44 241.04 12.44 Q 240.85 12.44 240.7 12.53 Q 240.54 12.62 240.35 12.88 Q 240.16 13.14 239.93 13.58 Q 239.7 14.02 239.37 14.7 L 239.37 21 L 237.8 21 L 237.8 11.19 L 239.1 11.19 L 239.18 13.06 Q 239.45 12.5 239.68 12.11 Q 239.91 11.72 240.17 11.48 Q 240.43 11.25 240.72 11.13 Q 241.01 11.02 241.35 11.02 Q 242.15 11.02 242.55 11.53 Q 242.96 12.05 242.96 13.14 Q 243.2 12.62 243.42 12.23 Q 243.65 11.84 243.91 11.57 Q 244.16 11.3 244.48 11.16 Q 244.79 11.02 245.2 11.02 Q 247.05 11.02 247.05 13.86 L 247.05 21 L 245.49 21 Z  M 258.21 11.19 L 254.86 19.97 Q 254.35 21.3 253.8 22.27 Q 253.25 23.23 252.6 23.86 Q 251.94 24.48 251.16 24.77 Q 250.38 25.06 249.41 25.06 Q 249.16 25.06 248.96 25.05 Q 248.75 25.05 248.5 25.03 L 248.5 23.48 Q 248.72 23.52 248.97 23.54 Q 249.22 23.56 249.5 23.56 Q 249.97 23.56 250.38 23.42 Q 250.79 23.28 251.14 22.98 Q 251.5 22.67 251.84 22.18 Q 252.18 21.69 252.49 21 L 248.57 11.19 L 250.5 11.19 L 252.99 17.67 L 253.49 19.2 L 254.05 17.64 L 256.35 11.19 L 258.21 11.19 Z "/></g><g style="stroke-width: 3.0;stroke: rgb(0,0,0);stroke-opacity: 1.0;stroke-linecap: square;; fill: none" transform="matrix(1,0,0,1,6,4)" clip-path="url(#_2221283966651070clip-0)"><path d="M 0 0 L 0 54 L 399 54 L 399 0 Z "/></g><g style="fill: rgb(255,255,255); fill-opacity: 1.0; stroke: none" transform="matrix(1,0,0,1,6,4)" clip-path="url(#_2221283966651070clip-1)"><path d="M 399 0 L 399 54 L 646 54 L 646 0 Z "/></g><rect x="501" y="4.44" width="120.96" height="23.42" style="fill: rgb(255,255,255); fill-opacity: 1.0" transform="matrix(1,0,0,1,6,4)" clip-path="url(#_2221283966651070clip-1)"/><g style="fill: rgb(0,0,255); fill-opacity: 1.0; stroke: none" transform="matrix(1,0,0,1,6,4)" clip-path="url(#_2221283966651070clip-1)"><path d="M 509.19 25 L 504.38 25 L 504.38 6.86 L 509.19 6.86 L 509.19 8.22 L 505.98 8.22 L 505.98 23.64 L 509.19 23.64 L 509.19 25 Z  M 522.21 21 L 520.03 21 L 515.26 14.73 L 515.26 21 L 513.53 21 L 513.53 8.23 L 515.26 8.23 L 515.26 14.16 L 519.93 8.23 L 522 8.23 L 516.96 14.3 L 522.21 21 Z  M 532.84 21 L 530.57 21 L 526.85 13.05 L 525.77 10.48 L 525.77 16.92 L 525.77 21 L 524.15 21 L 524.15 8.23 L 526.4 8.23 L 529.93 15.78 L 531.21 18.69 L 531.21 11.86 L 531.21 8.23 L 532.84 8.23 L 532.84 21 Z  M 544.44 14.53 Q 544.44 16.25 544.04 17.5 Q 543.64 18.75 542.95 19.57 Q 542.25 20.39 541.33 20.78 Q 540.41 21.17 539.39 21.17 Q 538.16 21.17 537.25 20.73 Q 536.33 20.28 535.73 19.45 Q 535.13 18.61 534.84 17.4 Q 534.55 16.19 534.55 14.69 Q 534.55 12.98 534.95 11.73 Q 535.35 10.48 536.04 9.66 Q 536.72 8.84 537.64 8.45 Q 538.57 8.06 539.58 8.06 Q 540.82 8.06 541.73 8.51 Q 542.64 8.95 543.25 9.79 Q 543.85 10.62 544.14 11.83 Q 544.44 13.03 544.44 14.53 Z  M 542.64 14.66 Q 542.64 13.53 542.47 12.6 Q 542.3 11.67 541.92 11 Q 541.54 10.33 540.93 9.95 Q 540.33 9.58 539.49 9.58 Q 538.66 9.58 538.07 9.98 Q 537.49 10.38 537.11 11.05 Q 536.72 11.73 536.54 12.65 Q 536.35 13.56 536.35 14.58 Q 536.35 15.72 536.53 16.65 Q 536.71 17.58 537.08 18.25 Q 537.46 18.92 538.05 19.29 Q 538.64 19.66 539.49 19.66 Q 540.3 19.66 540.9 19.27 Q 541.5 18.88 541.89 18.2 Q 542.27 17.52 542.46 16.61 Q 542.64 15.7 542.64 14.66 Z  M 555.55 8.23 L 554.69 21 L 552.42 21 L 550.84 16.45 L 550.41 15 L 549.95 16.58 L 548.48 21 L 546.3 21 L 545.42 8.23 L 547.06 8.23 L 547.56 16.92 L 547.7 19.3 L 548.33 17.28 L 549.88 12.55 L 551.06 12.55 L 552.84 17.62 L 553.44 19.3 L 553.48 17.55 L 553.98 8.23 L 555.55 8.23 Z  M 565.61 21 L 558.26 21 L 558.26 8.23 L 560.03 8.23 L 560.03 19.52 L 565.61 19.52 L 565.61 21 Z  M 576.2 21 L 568.95 21 L 568.95 8.23 L 576.2 8.23 L 576.2 9.7 L 570.68 9.7 L 570.68 13.66 L 575.98 13.66 L 575.98 15.12 L 570.68 15.12 L 570.68 19.52 L 576.2 19.52 L 576.2 21 Z  M 588.25 14.47 Q 588.25 15.39 588.11 16.23 Q 587.97 17.08 587.66 17.8 Q 587.35 18.52 586.85 19.11 Q 586.35 19.7 585.63 20.12 Q 584.91 20.55 583.95 20.77 Q 582.99 21 581.77 21 L 579.04 21 L 579.04 8.23 L 582.33 8.23 Q 585.32 8.23 586.79 9.77 Q 588.25 11.31 588.25 14.47 Z  M 586.43 14.61 Q 586.43 13.25 586.18 12.31 Q 585.93 11.38 585.41 10.8 Q 584.89 10.22 584.11 9.96 Q 583.33 9.7 582.27 9.7 L 580.77 9.7 L 580.77 19.5 L 582.08 19.5 Q 586.43 19.5 586.43 14.61 Z  M 598.8 10.42 Q 598.08 10.05 597.33 9.84 Q 596.58 9.62 595.69 9.62 Q 594.67 9.62 593.88 9.98 Q 593.09 10.34 592.55 11 Q 592 11.66 591.72 12.59 Q 591.44 13.52 591.44 14.64 Q 591.44 15.81 591.67 16.74 Q 591.91 17.67 592.4 18.31 Q 592.89 18.95 593.67 19.3 Q 594.45 19.64 595.53 19.64 Q 595.72 19.64 595.93 19.62 Q 596.14 19.61 596.36 19.57 Q 596.58 19.53 596.78 19.48 Q 596.98 19.44 597.14 19.38 L 597.14 15.31 L 594.53 15.31 L 594.53 13.88 L 598.86 13.88 L 598.86 20.41 Q 598.45 20.59 598.01 20.73 Q 597.56 20.88 597.1 20.98 Q 596.64 21.08 596.18 21.12 Q 595.72 21.17 595.28 21.17 Q 593.98 21.17 592.93 20.77 Q 591.88 20.36 591.14 19.55 Q 590.41 18.75 590.01 17.55 Q 589.61 16.34 589.61 14.77 Q 589.61 13.19 590.05 11.95 Q 590.5 10.7 591.29 9.84 Q 592.08 8.97 593.2 8.52 Q 594.33 8.06 595.67 8.06 Q 596.53 8.06 597.3 8.21 Q 598.08 8.36 598.8 8.69 L 598.8 10.42 Z  M 609.18 21 L 601.93 21 L 601.93 8.23 L 609.18 8.23 L 609.18 9.7 L 603.67 9.7 L 603.67 13.66 L 608.96 13.66 L 608.96 15.12 L 603.67 15.12 L 603.67 19.52 L 609.18 19.52 L 609.18 21 Z  M 618.59 25 L 613.77 25 L 613.77 23.64 L 616.95 23.64 L 616.95 8.22 L 613.77 8.22 L 613.77 6.86 L 618.59 6.86 L 618.59 25 Z "/></g><rect x="435" y="27.44" width="186.93" height="23.42" style="fill: rgb(255,255,255); fill-opacity: 1.0" transform="matrix(1,0,0,1,6,4)" clip-path="url(#_2221283966651070clip-1)"/><g style="fill: rgb(0,0,255); fill-opacity: 1.0; stroke: none" transform="matrix(1,0,0,1,6,4)" clip-path="url(#_2221283966651070clip-1)"><path d="M 443.19 48 L 438.38 48 L 438.38 29.86 L 443.19 29.86 L 443.19 31.22 L 439.98 31.22 L 439.98 46.64 L 443.19 46.64 L 443.19 48 Z  M 455.21 44 L 447.96 44 L 447.96 31.23 L 455.21 31.23 L 455.21 32.7 L 449.7 32.7 L 449.7 36.66 L 455 36.66 L 455 38.12 L 449.7 38.12 L 449.7 42.52 L 455.21 42.52 L 455.21 44 Z  M 467.76 44 L 465.55 44 L 462.45 38.84 L 459.34 44 L 457.16 44 L 461.41 37.47 L 457.51 31.23 L 459.57 31.23 L 462.49 36.05 L 465.43 31.23 L 467.43 31.23 L 463.52 37.39 L 467.76 44 Z  M 477.71 43.52 Q 476.18 44.16 474.49 44.16 Q 471.79 44.16 470.34 42.54 Q 468.89 40.92 468.89 37.77 Q 468.89 36.22 469.29 34.98 Q 469.69 33.75 470.43 32.88 Q 471.18 32.02 472.23 31.55 Q 473.29 31.08 474.6 31.08 Q 475.47 31.08 476.24 31.23 Q 477 31.38 477.71 31.69 L 477.71 33.41 Q 477.02 33.02 476.28 32.82 Q 475.54 32.62 474.64 32.62 Q 473.75 32.62 473.03 32.96 Q 472.3 33.3 471.79 33.94 Q 471.29 34.58 471.01 35.5 Q 470.74 36.42 470.74 37.61 Q 470.74 40.08 471.74 41.34 Q 472.74 42.61 474.69 42.61 Q 475.5 42.61 476.26 42.41 Q 477.02 42.22 477.71 41.88 L 477.71 43.52 Z  M 488.91 44 L 487.17 44 L 487.17 38.14 L 481.81 38.14 L 481.81 44 L 480.06 44 L 480.06 31.23 L 481.81 31.23 L 481.81 36.64 L 487.17 36.64 L 487.17 31.23 L 488.91 31.23 L 488.91 44 Z  M 500.89 44 L 498.98 44 L 498.09 41.22 L 492.78 41.22 L 491.89 44 L 490.07 44 L 494.32 31.23 L 496.7 31.23 L 500.89 44 Z  M 497.61 39.66 L 495.43 32.84 L 493.28 39.66 L 497.61 39.66 Z  M 510.82 44 L 508.55 44 L 504.84 36.05 L 503.76 33.48 L 503.76 39.92 L 503.76 44 L 502.13 44 L 502.13 31.23 L 504.38 31.23 L 507.91 38.78 L 509.2 41.69 L 509.2 34.86 L 509.2 31.23 L 510.82 31.23 L 510.82 44 Z  M 521.8 33.42 Q 521.08 33.05 520.33 32.84 Q 519.58 32.62 518.69 32.62 Q 517.68 32.62 516.89 32.98 Q 516.1 33.34 515.55 34 Q 515 34.66 514.72 35.59 Q 514.44 36.52 514.44 37.64 Q 514.44 38.81 514.68 39.74 Q 514.91 40.67 515.4 41.31 Q 515.89 41.95 516.68 42.3 Q 517.46 42.64 518.54 42.64 Q 518.72 42.64 518.93 42.62 Q 519.14 42.61 519.36 42.57 Q 519.58 42.53 519.79 42.48 Q 519.99 42.44 520.14 42.38 L 520.14 38.31 L 517.54 38.31 L 517.54 36.88 L 521.86 36.88 L 521.86 43.41 Q 521.46 43.59 521.01 43.73 Q 520.57 43.88 520.11 43.98 Q 519.64 44.08 519.18 44.12 Q 518.72 44.17 518.29 44.17 Q 516.99 44.17 515.93 43.77 Q 514.88 43.36 514.14 42.55 Q 513.41 41.75 513.01 40.55 Q 512.61 39.34 512.61 37.77 Q 512.61 36.19 513.06 34.95 Q 513.5 33.7 514.29 32.84 Q 515.08 31.97 516.21 31.52 Q 517.33 31.06 518.68 31.06 Q 519.54 31.06 520.31 31.21 Q 521.08 31.36 521.8 31.69 L 521.8 33.42 Z  M 532.19 44 L 524.94 44 L 524.94 31.23 L 532.19 31.23 L 532.19 32.7 L 526.67 32.7 L 526.67 36.66 L 531.97 36.66 L 531.97 38.12 L 526.67 38.12 L 526.67 42.52 L 532.19 42.52 L 532.19 44 Z  M 541.59 48 L 536.78 48 L 536.78 46.64 L 539.95 46.64 L 539.95 31.22 L 536.78 31.22 L 536.78 29.86 L 541.59 29.86 L 541.59 48 Z  M 553.15 48 L 548.34 48 L 548.34 29.86 L 553.15 29.86 L 553.15 31.22 L 549.95 31.22 L 549.95 46.64 L 553.15 46.64 L 553.15 48 Z  M 565.68 43.52 Q 564.14 44.16 562.46 44.16 Q 559.75 44.16 558.31 42.54 Q 556.86 40.92 556.86 37.77 Q 556.86 36.22 557.26 34.98 Q 557.66 33.75 558.4 32.88 Q 559.14 32.02 560.2 31.55 Q 561.25 31.08 562.57 31.08 Q 563.44 31.08 564.21 31.23 Q 564.97 31.38 565.68 31.69 L 565.68 33.41 Q 564.99 33.02 564.25 32.82 Q 563.5 32.62 562.61 32.62 Q 561.72 32.62 561 32.96 Q 560.27 33.3 559.76 33.94 Q 559.25 34.58 558.98 35.5 Q 558.71 36.42 558.71 37.61 Q 558.71 40.08 559.71 41.34 Q 560.71 42.61 562.66 42.61 Q 563.47 42.61 564.23 42.41 Q 564.99 42.22 565.68 41.88 L 565.68 43.52 Z  M 576.88 44 L 575.14 44 L 575.14 38.14 L 569.78 38.14 L 569.78 44 L 568.03 44 L 568.03 31.23 L 569.78 31.23 L 569.78 36.64 L 575.14 36.64 L 575.14 31.23 L 576.88 31.23 L 576.88 44 Z  M 588.86 44 L 586.95 44 L 586.06 41.22 L 580.75 41.22 L 579.86 44 L 578.04 44 L 582.29 31.23 L 584.67 31.23 L 588.86 44 Z  M 585.57 39.66 L 583.4 32.84 L 581.25 39.66 L 585.57 39.66 Z  M 599.4 37.53 Q 599.4 39.25 599 40.5 Q 598.6 41.75 597.91 42.57 Q 597.21 43.39 596.29 43.78 Q 595.37 44.17 594.35 44.17 Q 593.12 44.17 592.2 43.73 Q 591.29 43.28 590.69 42.45 Q 590.09 41.61 589.8 40.4 Q 589.51 39.19 589.51 37.69 Q 589.51 35.98 589.91 34.73 Q 590.3 33.48 590.99 32.66 Q 591.68 31.84 592.6 31.45 Q 593.52 31.06 594.54 31.06 Q 595.77 31.06 596.69 31.51 Q 597.6 31.95 598.2 32.79 Q 598.8 33.62 599.1 34.83 Q 599.4 36.03 599.4 37.53 Z  M 597.6 37.66 Q 597.6 36.53 597.43 35.6 Q 597.26 34.67 596.88 34 Q 596.49 33.33 595.89 32.95 Q 595.29 32.58 594.45 32.58 Q 593.62 32.58 593.03 32.98 Q 592.45 33.38 592.06 34.05 Q 591.68 34.73 591.49 35.65 Q 591.3 36.56 591.3 37.58 Q 591.3 38.72 591.48 39.65 Q 591.66 40.58 592.04 41.25 Q 592.41 41.92 593.01 42.29 Q 593.6 42.66 594.45 42.66 Q 595.26 42.66 595.86 42.27 Q 596.46 41.88 596.84 41.2 Q 597.23 40.52 597.41 39.61 Q 597.6 38.7 597.6 37.66 Z  M 609.68 40.55 Q 609.68 41.45 609.31 42.13 Q 608.94 42.81 608.28 43.27 Q 607.61 43.72 606.68 43.95 Q 605.74 44.17 604.61 44.17 Q 604.11 44.17 603.61 44.13 Q 603.11 44.09 602.64 44.04 Q 602.18 43.98 601.77 43.91 Q 601.36 43.83 601.02 43.73 L 601.02 42.06 Q 601.75 42.33 602.67 42.48 Q 603.58 42.64 604.75 42.64 Q 605.58 42.64 606.18 42.51 Q 606.77 42.38 607.14 42.12 Q 607.52 41.86 607.69 41.49 Q 607.86 41.12 607.86 40.64 Q 607.86 40.12 607.57 39.76 Q 607.29 39.39 606.82 39.1 Q 606.35 38.81 605.75 38.57 Q 605.14 38.33 604.52 38.08 Q 603.89 37.83 603.29 37.53 Q 602.69 37.23 602.22 36.83 Q 601.75 36.42 601.46 35.88 Q 601.18 35.33 601.18 34.58 Q 601.18 33.92 601.45 33.29 Q 601.72 32.66 602.3 32.16 Q 602.88 31.67 603.79 31.37 Q 604.69 31.06 605.94 31.06 Q 606.25 31.06 606.64 31.09 Q 607.02 31.12 607.4 31.17 Q 607.79 31.22 608.16 31.29 Q 608.54 31.36 608.86 31.44 L 608.86 33 Q 608.11 32.78 607.36 32.67 Q 606.6 32.56 605.89 32.56 Q 604.41 32.56 603.71 33.06 Q 603 33.56 603 34.41 Q 603 34.92 603.29 35.29 Q 603.58 35.66 604.05 35.95 Q 604.52 36.25 605.11 36.48 Q 605.71 36.72 606.33 36.98 Q 606.96 37.23 607.56 37.54 Q 608.16 37.84 608.63 38.26 Q 609.1 38.67 609.39 39.23 Q 609.68 39.78 609.68 40.55 Z  M 618.56 48 L 613.75 48 L 613.75 46.64 L 616.92 46.64 L 616.92 31.22 L 613.75 31.22 L 613.75 29.86 L 618.56 29.86 L 618.56 48 Z "/></g><g style="stroke-width: 3.0;stroke: rgb(0,0,0);stroke-opacity: 1.0;stroke-linecap: square;; fill: none" transform="matrix(1,0,0,1,6,4)" clip-path="url(#_2221283966651070clip-1)"><path d="M 399 0 L 399 54 L 646 54 L 646 0 Z "/></g><g style="fill: rgb(255,255,255); fill-opacity: 1.0; stroke: none" transform="matrix(1,0,0,1,6,4)" clip-path="url(#_2221283966651070clip-2)"><path d="M 0 54 L 0 79 L 399 79 L 399 54 Z "/></g><rect x="39" y="54.44" width="142.95" height="23.42" style="fill: rgb(255,255,255); fill-opacity: 1.0" transform="matrix(1,0,0,1,6,4)" clip-path="url(#_2221283966651070clip-2)"/><g style="fill: rgb(0,0,0); fill-opacity: 1.0; stroke: none" transform="matrix(1,0,0,1,6,4)" clip-path="url(#_2221283966651070clip-2)"><path d="M 49.91 71 L 48 71 L 47.11 68.22 L 41.8 68.22 L 40.91 71 L 39.09 71 L 43.34 58.23 L 45.72 58.23 L 49.91 71 Z  M 46.62 66.66 L 44.45 59.84 L 42.3 66.66 L 46.62 66.66 Z  M 51.96 61.19 L 53.51 61.19 L 53.56 63 Q 54.43 61.95 55.28 61.48 Q 56.12 61.02 56.98 61.02 Q 58.5 61.02 59.29 62 Q 60.07 62.98 60.01 64.94 L 58.29 64.94 Q 58.32 63.64 57.92 63.06 Q 57.51 62.48 56.73 62.48 Q 56.39 62.48 56.04 62.61 Q 55.7 62.73 55.33 63 Q 54.96 63.27 54.56 63.69 Q 54.15 64.11 53.68 64.7 L 53.68 71 L 51.96 71 L 51.96 61.19 Z  M 70.46 70.86 Q 69.88 71.02 69.27 71.08 Q 68.65 71.14 68.01 71.14 Q 66.16 71.14 65.26 70.3 Q 64.35 69.47 64.35 67.73 L 64.35 62.62 L 61.6 62.62 L 61.6 61.19 L 64.35 61.19 L 64.35 58.5 L 66.05 58.06 L 66.05 61.19 L 70.46 61.19 L 70.46 62.62 L 66.05 62.62 L 66.05 67.59 Q 66.05 68.66 66.62 69.18 Q 67.18 69.7 68.27 69.7 Q 68.74 69.7 69.3 69.62 Q 69.85 69.55 70.46 69.39 L 70.46 70.86 Z  M 76.89 62.59 L 73.99 62.59 L 73.99 61.19 L 78.61 61.19 L 78.61 69.58 L 81.54 69.58 L 81.54 71 L 73.68 71 L 73.68 69.58 L 76.89 69.58 L 76.89 62.59 Z  M 77.49 57.08 Q 77.77 57.08 78.01 57.18 Q 78.25 57.28 78.43 57.47 Q 78.61 57.66 78.72 57.9 Q 78.83 58.14 78.83 58.42 Q 78.83 58.69 78.72 58.94 Q 78.61 59.19 78.43 59.37 Q 78.25 59.55 78.01 59.66 Q 77.77 59.77 77.49 59.77 Q 77.21 59.77 76.96 59.66 Q 76.72 59.55 76.54 59.37 Q 76.35 59.19 76.25 58.94 Q 76.14 58.69 76.14 58.42 Q 76.14 58.14 76.25 57.9 Q 76.35 57.66 76.54 57.47 Q 76.72 57.28 76.96 57.18 Q 77.21 57.08 77.49 57.08 Z  M 93.25 58.78 Q 91.91 58.5 90.94 58.5 Q 88.66 58.5 88.66 60.91 L 88.66 62.62 L 92.95 62.62 L 92.95 64.03 L 88.66 64.03 L 88.66 71 L 86.92 71 L 86.92 64.03 L 83.77 64.03 L 83.77 62.62 L 86.92 62.62 L 86.92 61 Q 86.92 57.08 91 57.08 Q 92.02 57.08 93.25 57.31 L 93.25 58.78 Z  M 101.84 71 L 101.81 69.69 Q 101 70.47 100.18 70.82 Q 99.36 71.17 98.45 71.17 Q 97.61 71.17 97.01 70.96 Q 96.42 70.75 96.03 70.38 Q 95.64 70 95.46 69.49 Q 95.28 68.98 95.28 68.38 Q 95.28 66.91 96.38 66.07 Q 97.48 65.23 99.62 65.23 L 101.65 65.23 L 101.65 64.38 Q 101.65 63.52 101.1 62.99 Q 100.54 62.47 99.4 62.47 Q 98.57 62.47 97.77 62.65 Q 96.96 62.83 96.11 63.17 L 96.11 61.64 Q 96.42 61.53 96.82 61.41 Q 97.21 61.3 97.65 61.21 Q 98.09 61.12 98.57 61.07 Q 99.04 61.02 99.54 61.02 Q 100.43 61.02 101.14 61.21 Q 101.86 61.41 102.35 61.8 Q 102.84 62.2 103.11 62.81 Q 103.37 63.42 103.37 64.23 L 103.37 71 L 101.84 71 Z  M 101.65 66.53 L 99.5 66.53 Q 98.87 66.53 98.41 66.66 Q 97.95 66.8 97.65 67.03 Q 97.36 67.27 97.21 67.59 Q 97.07 67.91 97.07 68.33 Q 97.07 68.61 97.16 68.87 Q 97.25 69.12 97.44 69.33 Q 97.64 69.53 97.95 69.65 Q 98.26 69.77 98.71 69.77 Q 99.31 69.77 100.07 69.41 Q 100.82 69.05 101.65 68.28 L 101.65 66.53 Z  M 114.16 70.64 Q 113.49 70.89 112.8 71.02 Q 112.1 71.14 111.35 71.14 Q 109.02 71.14 107.77 69.88 Q 106.52 68.61 106.52 66.19 Q 106.52 65.03 106.88 64.09 Q 107.24 63.14 107.9 62.47 Q 108.55 61.8 109.46 61.43 Q 110.37 61.06 111.46 61.06 Q 112.23 61.06 112.89 61.16 Q 113.55 61.27 114.16 61.52 L 114.16 63.14 Q 113.52 62.81 112.87 62.66 Q 112.21 62.5 111.51 62.5 Q 110.85 62.5 110.27 62.75 Q 109.68 63 109.24 63.47 Q 108.8 63.94 108.55 64.61 Q 108.3 65.28 108.3 66.14 Q 108.3 67.91 109.16 68.8 Q 110.02 69.69 111.55 69.69 Q 112.26 69.69 112.91 69.53 Q 113.55 69.38 114.16 69.06 L 114.16 70.64 Z  M 125.44 70.86 Q 124.86 71.02 124.25 71.08 Q 123.63 71.14 122.99 71.14 Q 121.14 71.14 120.24 70.3 Q 119.33 69.47 119.33 67.73 L 119.33 62.62 L 116.58 62.62 L 116.58 61.19 L 119.33 61.19 L 119.33 58.5 L 121.04 58.06 L 121.04 61.19 L 125.44 61.19 L 125.44 62.62 L 121.04 62.62 L 121.04 67.59 Q 121.04 68.66 121.6 69.18 Q 122.16 69.7 123.25 69.7 Q 123.72 69.7 124.28 69.62 Q 124.83 69.55 125.44 69.39 L 125.44 70.86 Z  M 142.59 59.7 L 139.65 59.7 L 139.65 58.23 L 147.28 58.23 L 147.28 59.7 L 144.34 59.7 L 144.34 69.52 L 147.28 69.52 L 147.28 71 L 139.65 71 L 139.65 69.52 L 142.59 69.52 L 142.59 59.7 Z  M 158.43 70.86 Q 157.85 71.02 157.23 71.08 Q 156.62 71.14 155.98 71.14 Q 154.13 71.14 153.23 70.3 Q 152.32 69.47 152.32 67.73 L 152.32 62.62 L 149.57 62.62 L 149.57 61.19 L 152.32 61.19 L 152.32 58.5 L 154.02 58.06 L 154.02 61.19 L 158.43 61.19 L 158.43 62.62 L 154.02 62.62 L 154.02 67.59 Q 154.02 68.66 154.59 69.18 Q 155.15 69.7 156.24 69.7 Q 156.71 69.7 157.27 69.62 Q 157.82 69.55 158.43 69.39 L 158.43 70.86 Z  M 169.8 65.58 Q 169.8 65.94 169.79 66.18 Q 169.79 66.42 169.77 66.64 L 162.88 66.64 Q 162.88 68.14 163.71 68.95 Q 164.55 69.77 166.14 69.77 Q 166.57 69.77 167 69.73 Q 167.43 69.69 167.82 69.63 Q 168.22 69.58 168.59 69.5 Q 168.96 69.42 169.27 69.34 L 169.27 70.73 Q 168.58 70.94 167.71 71.05 Q 166.83 71.17 165.89 71.17 Q 164.63 71.17 163.72 70.83 Q 162.82 70.48 162.24 69.84 Q 161.66 69.19 161.38 68.25 Q 161.1 67.31 161.1 66.11 Q 161.1 65.08 161.39 64.16 Q 161.69 63.23 162.26 62.54 Q 162.83 61.84 163.67 61.43 Q 164.5 61.02 165.55 61.02 Q 166.58 61.02 167.37 61.34 Q 168.16 61.66 168.7 62.25 Q 169.24 62.84 169.52 63.69 Q 169.8 64.53 169.8 65.58 Z  M 168.04 65.33 Q 168.07 64.69 167.91 64.14 Q 167.75 63.59 167.43 63.2 Q 167.1 62.81 166.61 62.59 Q 166.11 62.38 165.47 62.38 Q 164.93 62.38 164.46 62.59 Q 164 62.81 163.67 63.2 Q 163.33 63.59 163.13 64.14 Q 162.93 64.69 162.88 65.33 L 168.04 65.33 Z  M 179.52 71 L 179.52 63.95 Q 179.52 63.5 179.48 63.2 Q 179.44 62.91 179.37 62.74 Q 179.3 62.58 179.18 62.51 Q 179.06 62.44 178.91 62.44 Q 178.7 62.44 178.54 62.55 Q 178.38 62.67 178.19 62.94 Q 178 63.2 177.77 63.63 Q 177.53 64.06 177.22 64.7 L 177.22 71 L 175.67 71 L 175.67 64.14 Q 175.67 63.61 175.64 63.27 Q 175.61 62.94 175.53 62.76 Q 175.45 62.58 175.34 62.51 Q 175.22 62.44 175.06 62.44 Q 174.88 62.44 174.72 62.53 Q 174.56 62.62 174.38 62.88 Q 174.19 63.14 173.95 63.58 Q 173.72 64.02 173.39 64.7 L 173.39 71 L 171.83 71 L 171.83 61.19 L 173.12 61.19 L 173.2 63.06 Q 173.47 62.5 173.7 62.11 Q 173.94 61.72 174.2 61.48 Q 174.45 61.25 174.74 61.13 Q 175.03 61.02 175.38 61.02 Q 176.17 61.02 176.58 61.53 Q 176.98 62.05 176.98 63.14 Q 177.22 62.62 177.45 62.23 Q 177.67 61.84 177.93 61.57 Q 178.19 61.3 178.5 61.16 Q 178.81 61.02 179.22 61.02 Q 181.08 61.02 181.08 63.86 L 181.08 71 L 179.52 71 Z "/></g><g style="stroke-width: 3.0;stroke: rgb(0,0,0);stroke-opacity: 1.0;stroke-linecap: square;; fill: none" transform="matrix(1,0,0,1,6,4)" clip-path="url(#_2221283966651070clip-2)"><path d="M 0 54 L 0 79 L 399 79 L 399 54 Z "/></g><g style="fill: rgb(255,255,255); fill-opacity: 1.0; stroke: none" transform="matrix(1,0,0,1,6,4)" clip-path="url(#_2221283966651070clip-3)"><path d="M 399 54 L 399 79 L 646 79 L 646 54 Z "/></g><rect x="589" y="54.44" width="32.99" height="23.42" style="fill: rgb(255,255,255); fill-opacity: 1.0" transform="matrix(1,0,0,1,6,4)" clip-path="url(#_2221283966651070clip-3)"/><g style="fill: rgb(0,0,0); fill-opacity: 1.0; stroke: none" transform="matrix(1,0,0,1,6,4)" clip-path="url(#_2221283966651070clip-3)"><path d="M 599.27 71 L 597.3 71 L 595.39 66.92 Q 595.19 66.45 594.96 66.14 Q 594.73 65.83 594.48 65.65 Q 594.22 65.47 593.91 65.39 Q 593.59 65.31 593.22 65.31 L 592.41 65.31 L 592.41 71 L 590.66 71 L 590.66 58.23 L 594.08 58.23 Q 595.19 58.23 595.99 58.48 Q 596.8 58.72 597.3 59.16 Q 597.81 59.61 598.05 60.23 Q 598.3 60.84 598.3 61.59 Q 598.3 62.19 598.12 62.72 Q 597.95 63.25 597.6 63.69 Q 597.25 64.12 596.74 64.45 Q 596.23 64.77 595.56 64.92 Q 596.09 65.09 596.48 65.56 Q 596.86 66.03 597.25 66.8 L 599.27 71 Z  M 596.48 61.73 Q 596.48 60.72 595.84 60.21 Q 595.2 59.7 594.05 59.7 L 592.41 59.7 L 592.41 63.92 L 593.81 63.92 Q 594.42 63.92 594.91 63.78 Q 595.41 63.64 595.75 63.36 Q 596.09 63.08 596.29 62.67 Q 596.48 62.27 596.48 61.73 Z  M 609.7 64.69 L 601.29 64.69 L 601.29 63.25 L 609.7 63.25 L 609.7 64.69 Z  M 609.7 68.09 L 601.29 68.09 L 601.29 66.66 L 609.7 66.66 L 609.7 68.09 Z  M 620.84 71 L 612.43 71 L 612.43 69.47 L 615.73 66.19 Q 616.54 65.39 617.05 64.8 Q 617.55 64.22 617.84 63.73 Q 618.12 63.25 618.22 62.82 Q 618.32 62.39 618.32 61.89 Q 618.32 61.42 618.2 61 Q 618.07 60.58 617.8 60.26 Q 617.54 59.94 617.12 59.75 Q 616.7 59.56 616.12 59.56 Q 615.3 59.56 614.64 59.92 Q 613.98 60.28 613.41 60.86 L 612.48 59.73 Q 613.2 58.98 614.14 58.52 Q 615.09 58.06 616.34 58.06 Q 617.18 58.06 617.88 58.31 Q 618.59 58.56 619.09 59.05 Q 619.6 59.53 619.88 60.22 Q 620.15 60.91 620.15 61.78 Q 620.15 62.52 619.95 63.14 Q 619.76 63.77 619.37 64.38 Q 618.98 65 618.38 65.66 Q 617.77 66.33 616.95 67.12 L 614.63 69.38 L 620.84 69.38 L 620.84 71 Z "/></g><g style="stroke-width: 3.0;stroke: rgb(0,0,0);stroke-opacity: 1.0;stroke-linecap: square;; fill: none" transform="matrix(1,0,0,1,6,4)" clip-path="url(#_2221283966651070clip-3)"><path d="M 399 54 L 399 79 L 646 79 L 646 54 Z "/></g><g style="fill: rgb(255,255,255); fill-opacity: 1.0; stroke: none" transform="matrix(1,0,0,1,6,4)" clip-path="url(#_2221283966651070clip-4)"><path d="M 0 79 L 0 400 L 647 400 L 647 79 Z "/></g><g style="stroke-width: 3.0;stroke: rgb(0,0,0);stroke-opacity: 1.0;stroke-linecap: square;; fill: none" transform="matrix(1,0,0,1,6,4)" clip-path="url(#_2221283966651070clip-4)"><path d="M 0 79 L 0 400 L 647 400 L 647 79 Z "/></g></svg>