<svg xmlns="http://www.w3.org/2000/svg" xmlns:xlink="http://www.w3.org/1999/xlink" xmlns:jfreesvg="http://www.jfree.org/jfreesvg/svg" width="1000px" height="1000px" text-rendering="auto" shape-rendering="auto">
<defs><clipPath id="_2116970298550390clip-0"><path d="M 0 0 L 0 400 L 647 400 L 647 0 Z "/></clipPath>
<clipPath id="_2116970298550390clip-1"><path d="M -399 0 L -399 400 L 248 400 L 248 0 Z "/></clipPath>
<clipPath id="_2116970298550390clip-2"><path d="M 0 -102 L 0 298 L 647 298 L 647 -102 Z "/></clipPath>
</defs>
<rect x="0" y="0" width="653" height="404" style="fill: rgb(0,0,0); fill-opacity: 1.0" transform="matrix(1,0,0,1,0,0)" /><g style="fill: rgb(255,255,255); fill-opacity: 1.0; stroke: none" transform="matrix(1,0,0,1,6,4)" ><path d="M 0 0 L 0 102 L 399 102 L 399 0 Z "/></g><rect x="39" y="9.3" width="274.9" height="29.27" style="fill: rgb(255,255,255); fill-opacity: 1.0" transform="matrix(1,0,0,1,6,4)" clip-path="url(#_2116970298550390clip-0)"/><g style="fill: rgb(0,0,0); fill-opacity: 1.0; stroke: none" transform="matrix(1,0,0,1,6,4)" clip-path="url(#_2116970298550390clip-0)"><path d="M 51.41 25.23 Q 51.41 26.38 50.96 27.26 Q 50.52 28.14 49.69 28.75 Q 48.86 29.36 47.7 29.68 Q 46.53 30 45.11 30 L 40.92 30 L 40.92 14.05 L 45.5 14.05 Q 50.83 14.05 50.83 17.92 Q 50.83 19.22 50.21 20.15 Q 49.59 21.08 48.2 21.53 Q 48.84 21.66 49.43 21.95 Q 50.02 22.23 50.45 22.7 Q 50.89 23.16 51.15 23.8 Q 51.41 24.44 51.41 25.23 Z  M 48.58 18.22 Q 48.58 17.73 48.43 17.3 Q 48.28 16.86 47.91 16.55 Q 47.55 16.25 46.92 16.06 Q 46.3 15.88 45.34 15.88 L 43.11 15.88 L 43.11 20.88 L 45.28 20.88 Q 46.02 20.88 46.62 20.71 Q 47.23 20.55 47.66 20.22 Q 48.09 19.89 48.34 19.4 Q 48.58 18.91 48.58 18.22 Z  M 49.09 25.3 Q 49.09 24.69 48.84 24.2 Q 48.58 23.72 48.09 23.38 Q 47.61 23.05 46.91 22.86 Q 46.2 22.67 45.33 22.67 L 43.11 22.67 L 43.11 28.17 L 45.39 28.17 Q 47.27 28.17 48.18 27.48 Q 49.09 26.78 49.09 25.3 Z  M 58.87 14.5 L 55.25 14.5 L 55.25 12.75 L 61.03 12.75 L 61.03 28.23 L 64.67 28.23 L 64.67 30 L 54.84 30 L 54.84 28.23 L 58.87 28.23 L 58.87 14.5 Z  M 76.32 30 L 76.27 28.36 Q 75.27 29.34 74.24 29.78 Q 73.21 30.22 72.07 30.22 Q 71.02 30.22 70.28 29.95 Q 69.54 29.69 69.05 29.22 Q 68.57 28.75 68.34 28.11 Q 68.12 27.47 68.12 26.73 Q 68.12 24.89 69.49 23.84 Q 70.87 22.8 73.55 22.8 L 76.08 22.8 L 76.08 21.72 Q 76.08 20.64 75.39 19.98 Q 74.69 19.33 73.27 19.33 Q 72.22 19.33 71.22 19.56 Q 70.21 19.8 69.15 20.22 L 69.15 18.31 Q 69.54 18.16 70.04 18.02 Q 70.54 17.88 71.08 17.77 Q 71.63 17.66 72.22 17.59 Q 72.82 17.53 73.44 17.53 Q 74.55 17.53 75.44 17.77 Q 76.33 18.02 76.95 18.52 Q 77.57 19.02 77.9 19.77 Q 78.22 20.53 78.22 21.55 L 78.22 30 L 76.32 30 Z  M 76.08 24.42 L 73.38 24.42 Q 72.6 24.42 72.02 24.58 Q 71.44 24.73 71.08 25.03 Q 70.71 25.33 70.54 25.73 Q 70.37 26.14 70.37 26.66 Q 70.37 27.02 70.47 27.34 Q 70.58 27.66 70.83 27.91 Q 71.07 28.16 71.46 28.3 Q 71.85 28.45 72.41 28.45 Q 73.15 28.45 74.09 28.01 Q 75.04 27.56 76.08 26.59 L 76.08 24.42 Z  M 91.7 29.55 Q 90.88 29.86 90.01 30.02 Q 89.14 30.17 88.2 30.17 Q 85.3 30.17 83.73 28.59 Q 82.16 27.02 82.16 24 Q 82.16 22.55 82.61 21.36 Q 83.06 20.17 83.88 19.33 Q 84.7 18.48 85.84 18.03 Q 86.97 17.58 88.34 17.58 Q 89.3 17.58 90.13 17.71 Q 90.95 17.84 91.7 18.14 L 91.7 20.17 Q 90.92 19.77 90.09 19.57 Q 89.27 19.38 88.39 19.38 Q 87.58 19.38 86.85 19.69 Q 86.13 20 85.57 20.59 Q 85.02 21.17 84.7 22.02 Q 84.39 22.86 84.39 23.92 Q 84.39 26.14 85.47 27.25 Q 86.55 28.36 88.47 28.36 Q 89.33 28.36 90.14 28.16 Q 90.95 27.97 91.7 27.58 L 91.7 29.55 Z  M 106.95 30 L 104.04 30 L 98.32 23.44 L 98.32 30 L 96.2 30 L 96.2 12.75 L 98.32 12.75 L 98.32 23.34 L 103.82 17.75 L 106.64 17.75 L 100.89 23.39 L 106.95 30 Z  M 133.64 25.67 Q 133.64 26.81 133.18 27.66 Q 132.72 28.52 131.88 29.09 Q 131.05 29.66 129.88 29.94 Q 128.72 30.22 127.31 30.22 Q 126.69 30.22 126.06 30.17 Q 125.42 30.12 124.85 30.05 Q 124.27 29.97 123.75 29.88 Q 123.24 29.78 122.83 29.67 L 122.83 27.58 Q 123.74 27.91 124.88 28.1 Q 126.02 28.3 127.47 28.3 Q 128.53 28.3 129.27 28.13 Q 130 27.97 130.47 27.65 Q 130.94 27.33 131.16 26.87 Q 131.38 26.41 131.38 25.8 Q 131.38 25.16 131.02 24.7 Q 130.66 24.23 130.07 23.88 Q 129.49 23.52 128.73 23.22 Q 127.97 22.92 127.19 22.6 Q 126.41 22.28 125.66 21.91 Q 124.91 21.55 124.32 21.04 Q 123.74 20.53 123.38 19.84 Q 123.02 19.16 123.02 18.22 Q 123.02 17.41 123.36 16.61 Q 123.71 15.81 124.42 15.2 Q 125.14 14.58 126.28 14.2 Q 127.41 13.83 128.97 13.83 Q 129.36 13.83 129.84 13.87 Q 130.31 13.91 130.79 13.97 Q 131.27 14.03 131.74 14.12 Q 132.22 14.2 132.61 14.3 L 132.61 16.25 Q 131.67 15.98 130.74 15.84 Q 129.8 15.7 128.92 15.7 Q 127.05 15.7 126.17 16.33 Q 125.3 16.95 125.3 18 Q 125.3 18.64 125.66 19.11 Q 126.02 19.58 126.6 19.95 Q 127.19 20.31 127.94 20.61 Q 128.69 20.91 129.47 21.23 Q 130.25 21.55 131 21.92 Q 131.75 22.3 132.34 22.81 Q 132.92 23.33 133.28 24.02 Q 133.64 24.72 133.64 25.67 Z  M 147.84 23.78 Q 147.84 25.2 147.43 26.39 Q 147.03 27.58 146.27 28.43 Q 145.51 29.28 144.43 29.75 Q 143.34 30.22 141.97 30.22 Q 140.65 30.22 139.61 29.81 Q 138.56 29.41 137.83 28.61 Q 137.11 27.81 136.72 26.64 Q 136.34 25.47 136.34 23.94 Q 136.34 22.52 136.74 21.34 Q 137.14 20.16 137.9 19.31 Q 138.65 18.47 139.74 18 Q 140.83 17.53 142.22 17.53 Q 143.53 17.53 144.58 17.94 Q 145.62 18.34 146.35 19.13 Q 147.08 19.92 147.46 21.09 Q 147.84 22.27 147.84 23.78 Z  M 145.67 23.88 Q 145.67 22.73 145.42 21.89 Q 145.17 21.05 144.7 20.48 Q 144.23 19.91 143.57 19.62 Q 142.9 19.33 142.09 19.33 Q 141.14 19.33 140.46 19.7 Q 139.78 20.08 139.35 20.7 Q 138.92 21.33 138.72 22.15 Q 138.51 22.97 138.51 23.88 Q 138.51 25 138.76 25.86 Q 139.01 26.72 139.47 27.28 Q 139.93 27.84 140.6 28.13 Q 141.26 28.42 142.09 28.42 Q 143.04 28.42 143.72 28.05 Q 144.4 27.69 144.83 27.06 Q 145.26 26.44 145.47 25.61 Q 145.67 24.78 145.67 23.88 Z  M 155.09 14.5 L 151.46 14.5 L 151.46 12.75 L 157.24 12.75 L 157.24 28.23 L 160.88 28.23 L 160.88 30 L 151.05 30 L 151.05 28.23 L 155.09 28.23 L 155.09 14.5 Z  M 189.08 23.78 Q 189.08 25.2 188.67 26.39 Q 188.26 27.58 187.51 28.43 Q 186.75 29.28 185.66 29.75 Q 184.58 30.22 183.2 30.22 Q 181.89 30.22 180.84 29.81 Q 179.79 29.41 179.07 28.61 Q 178.34 27.81 177.96 26.64 Q 177.58 25.47 177.58 23.94 Q 177.58 22.52 177.97 21.34 Q 178.37 20.16 179.13 19.31 Q 179.89 18.47 180.97 18 Q 182.06 17.53 183.45 17.53 Q 184.76 17.53 185.81 17.94 Q 186.86 18.34 187.58 19.13 Q 188.31 19.92 188.69 21.09 Q 189.08 22.27 189.08 23.78 Z  M 186.9 23.88 Q 186.9 22.73 186.65 21.89 Q 186.4 21.05 185.94 20.48 Q 185.47 19.91 184.8 19.62 Q 184.14 19.33 183.33 19.33 Q 182.37 19.33 181.69 19.7 Q 181.01 20.08 180.58 20.7 Q 180.15 21.33 179.95 22.15 Q 179.75 22.97 179.75 23.88 Q 179.75 25 180 25.86 Q 180.25 26.72 180.71 27.28 Q 181.17 27.84 181.83 28.13 Q 182.5 28.42 183.33 28.42 Q 184.28 28.42 184.96 28.05 Q 185.64 27.69 186.07 27.06 Q 186.5 26.44 186.7 25.61 Q 186.9 24.78 186.9 23.88 Z  M 203.02 14.73 Q 201.35 14.38 200.15 14.38 Q 197.27 14.38 197.27 17.38 L 197.27 19.53 L 202.65 19.53 L 202.65 21.3 L 197.27 21.3 L 197.27 30 L 195.12 30 L 195.12 21.3 L 191.18 21.3 L 191.18 19.53 L 195.12 19.53 L 195.12 17.5 Q 195.12 12.61 200.21 12.61 Q 201.49 12.61 203.02 12.89 L 203.02 14.73 Z  M 231.31 30 L 228.94 30 L 227.83 26.52 L 221.19 26.52 L 220.06 30 L 217.81 30 L 223.11 14.05 L 226.09 14.05 L 231.31 30 Z  M 227.2 24.58 L 224.51 16.05 L 221.81 24.58 L 227.2 24.58 Z  M 237.56 14.5 L 233.93 14.5 L 233.93 12.75 L 239.71 12.75 L 239.71 28.23 L 243.35 28.23 L 243.35 30 L 233.53 30 L 233.53 28.23 L 237.56 28.23 L 237.56 14.5 Z  M 256.65 29.55 Q 255.82 29.86 254.95 30.02 Q 254.08 30.17 253.15 30.17 Q 250.24 30.17 248.67 28.59 Q 247.1 27.02 247.1 24 Q 247.1 22.55 247.55 21.36 Q 248 20.17 248.83 19.33 Q 249.65 18.48 250.78 18.03 Q 251.91 17.58 253.29 17.58 Q 254.24 17.58 255.07 17.71 Q 255.9 17.84 256.65 18.14 L 256.65 20.17 Q 255.86 19.77 255.04 19.57 Q 254.21 19.38 253.33 19.38 Q 252.52 19.38 251.79 19.69 Q 251.07 20 250.51 20.59 Q 249.96 21.17 249.65 22.02 Q 249.33 22.86 249.33 23.92 Q 249.33 26.14 250.41 27.25 Q 251.49 28.36 253.41 28.36 Q 254.27 28.36 255.08 28.16 Q 255.9 27.97 256.65 27.58 L 256.65 29.55 Z  M 270.72 30 L 268.61 30 L 268.61 22.17 Q 268.61 20.77 268.08 20.06 Q 267.55 19.36 266.55 19.36 Q 266.12 19.36 265.75 19.48 Q 265.38 19.59 264.98 19.88 Q 264.58 20.16 264.1 20.65 Q 263.62 21.14 263 21.88 L 263 30 L 260.88 30 L 260.88 12.75 L 263 12.75 L 263 17.75 L 262.92 19.67 Q 263.42 19.08 263.91 18.66 Q 264.39 18.25 264.88 18 Q 265.36 17.75 265.86 17.64 Q 266.36 17.53 266.89 17.53 Q 268.72 17.53 269.72 18.65 Q 270.72 19.77 270.72 22 L 270.72 30 Z  M 284.98 23.22 Q 284.98 23.67 284.96 23.98 Q 284.95 24.28 284.92 24.56 L 276.32 24.56 Q 276.32 26.44 277.37 27.45 Q 278.42 28.45 280.4 28.45 Q 280.93 28.45 281.47 28.41 Q 282.01 28.36 282.51 28.29 Q 283.01 28.22 283.46 28.12 Q 283.92 28.03 284.31 27.92 L 284.31 29.67 Q 283.45 29.92 282.35 30.07 Q 281.26 30.22 280.09 30.22 Q 278.51 30.22 277.38 29.79 Q 276.25 29.36 275.52 28.55 Q 274.79 27.73 274.44 26.56 Q 274.09 25.39 274.09 23.89 Q 274.09 22.61 274.46 21.45 Q 274.84 20.3 275.55 19.42 Q 276.26 18.55 277.3 18.04 Q 278.34 17.53 279.67 17.53 Q 280.95 17.53 281.93 17.93 Q 282.92 18.33 283.6 19.07 Q 284.28 19.81 284.63 20.87 Q 284.98 21.92 284.98 23.22 Z  M 282.76 22.92 Q 282.79 22.11 282.6 21.43 Q 282.4 20.75 282 20.26 Q 281.59 19.77 280.98 19.49 Q 280.37 19.22 279.56 19.22 Q 278.87 19.22 278.29 19.49 Q 277.71 19.77 277.3 20.25 Q 276.89 20.73 276.64 21.42 Q 276.39 22.11 276.32 22.92 L 282.76 22.92 Z  M 297.1 30 L 297.1 21.2 Q 297.1 20.62 297.06 20.26 Q 297.02 19.89 296.93 19.68 Q 296.83 19.47 296.69 19.38 Q 296.55 19.3 296.35 19.3 Q 296.1 19.3 295.9 19.45 Q 295.69 19.59 295.45 19.92 Q 295.21 20.25 294.93 20.79 Q 294.65 21.33 294.26 22.12 L 294.26 30 L 292.3 30 L 292.3 21.44 Q 292.3 20.77 292.26 20.34 Q 292.22 19.92 292.13 19.7 Q 292.04 19.47 291.89 19.38 Q 291.74 19.3 291.54 19.3 Q 291.32 19.3 291.12 19.41 Q 290.93 19.53 290.69 19.85 Q 290.46 20.17 290.16 20.72 Q 289.87 21.27 289.46 22.12 L 289.46 30 L 287.51 30 L 287.51 17.75 L 289.13 17.75 L 289.22 20.08 Q 289.55 19.38 289.85 18.89 Q 290.15 18.41 290.47 18.11 Q 290.79 17.81 291.15 17.67 Q 291.51 17.53 291.94 17.53 Q 292.93 17.53 293.44 18.17 Q 293.96 18.81 293.96 20.17 Q 294.26 19.53 294.54 19.04 Q 294.82 18.55 295.14 18.21 Q 295.46 17.88 295.85 17.7 Q 296.24 17.53 296.76 17.53 Q 299.05 17.53 299.05 21.08 L 299.05 30 L 297.1 30 Z  M 313.02 17.75 L 308.83 28.7 Q 308.19 30.38 307.5 31.59 Q 306.81 32.8 305.99 33.57 Q 305.17 34.34 304.2 34.71 Q 303.22 35.08 302.02 35.08 Q 301.69 35.08 301.44 35.06 Q 301.19 35.05 300.88 35.03 L 300.88 33.09 Q 301.14 33.14 301.46 33.17 Q 301.78 33.2 302.14 33.2 Q 302.72 33.2 303.23 33.03 Q 303.74 32.86 304.19 32.48 Q 304.64 32.09 305.06 31.48 Q 305.47 30.86 305.86 30 L 300.97 17.75 L 303.38 17.75 L 306.49 25.84 L 307.11 27.75 L 307.81 25.8 L 310.67 17.75 L 313.02 17.75 Z "/></g><g style="stroke-width: 3.0;stroke: rgb(0,0,0);stroke-opacity: 1.0;stroke-linecap: square;; fill: none" transform="matrix(1,0,0,1,6,4)" clip-path="url(#_2116970298550390clip-0)"><path d="M 0 0 L 0 102 L 399 102 L 399 0 Z "/></g><g style="fill: rgb(255,255,255); fill-opacity: 1.0; stroke: none" transform="matrix(1,0,0,1,405,4)" clip-path="url(#_2116970298550390clip-1)"><path d="M 0 0 L 0 102 L 247 102 L 247 0 Z "/></g><rect x="71" y="9.3" width="151.2" height="29.27" style="fill: rgb(255,255,255); fill-opacity: 1.0" transform="matrix(1,0,0,1,405,4)" clip-path="url(#_2116970298550390clip-1)"/><g style="fill: rgb(0,0,255); fill-opacity: 1.0; stroke: none" transform="matrix(1,0,0,1,405,4)" clip-path="url(#_2116970298550390clip-1)"><path d="M 81.23 35 L 75.22 35 L 75.22 12.33 L 81.23 12.33 L 81.23 14.03 L 77.23 14.03 L 77.23 33.3 L 81.23 33.3 L 81.23 35 Z  M 97.53 30 L 94.79 30 L 88.82 22.17 L 88.82 30 L 86.65 30 L 86.65 14.05 L 88.82 14.05 L 88.82 21.45 L 94.67 14.05 L 97.25 14.05 L 90.95 21.62 L 97.53 30 Z  M 110.8 30 L 107.96 30 L 103.32 20.05 L 101.97 16.86 L 101.97 24.89 L 101.97 30 L 99.94 30 L 99.94 14.05 L 102.74 14.05 L 107.16 23.47 L 108.77 27.12 L 108.77 18.58 L 108.77 14.05 L 110.8 14.05 L 110.8 30 Z  M 125.31 21.92 Q 125.31 24.06 124.81 25.62 Q 124.3 27.19 123.44 28.21 Q 122.58 29.23 121.42 29.73 Q 120.27 30.22 118.99 30.22 Q 117.45 30.22 116.31 29.66 Q 115.17 29.11 114.42 28.06 Q 113.66 27.02 113.3 25.51 Q 112.94 24 112.94 22.11 Q 112.94 19.98 113.44 18.42 Q 113.94 16.86 114.8 15.84 Q 115.66 14.81 116.81 14.32 Q 117.95 13.83 119.24 13.83 Q 120.77 13.83 121.91 14.39 Q 123.05 14.95 123.81 15.99 Q 124.56 17.03 124.94 18.53 Q 125.31 20.03 125.31 21.92 Z  M 123.05 22.08 Q 123.05 20.67 122.84 19.51 Q 122.63 18.34 122.15 17.5 Q 121.67 16.66 120.92 16.2 Q 120.17 15.73 119.11 15.73 Q 118.08 15.73 117.34 16.23 Q 116.61 16.72 116.13 17.57 Q 115.66 18.42 115.42 19.56 Q 115.19 20.7 115.19 21.98 Q 115.19 23.39 115.41 24.56 Q 115.63 25.73 116.09 26.57 Q 116.56 27.41 117.31 27.87 Q 118.06 28.33 119.11 28.33 Q 120.13 28.33 120.88 27.84 Q 121.63 27.34 122.11 26.49 Q 122.59 25.64 122.82 24.51 Q 123.05 23.38 123.05 22.08 Z  M 139.18 14.05 L 138.11 30 L 135.28 30 L 133.31 24.33 L 132.76 22.5 L 132.18 24.47 L 130.36 30 L 127.62 30 L 126.53 14.05 L 128.57 14.05 L 129.2 24.89 L 129.39 27.88 L 130.15 25.34 L 132.09 19.42 L 133.59 19.42 L 135.81 25.78 L 136.56 27.88 L 136.61 25.67 L 137.23 14.05 L 139.18 14.05 Z  M 151.76 30 L 142.57 30 L 142.57 14.05 L 144.77 14.05 L 144.77 28.14 L 151.76 28.14 L 151.76 30 Z  M 165 30 L 155.92 30 L 155.92 14.05 L 165 14.05 L 165 15.88 L 158.1 15.88 L 158.1 20.81 L 164.72 20.81 L 164.72 22.66 L 158.1 22.66 L 158.1 28.14 L 165 28.14 L 165 30 Z  M 180.08 21.84 Q 180.08 23 179.9 24.05 Q 179.72 25.09 179.33 26 Q 178.93 26.91 178.31 27.64 Q 177.68 28.38 176.79 28.9 Q 175.89 29.42 174.69 29.71 Q 173.5 30 171.97 30 L 168.54 30 L 168.54 14.05 L 172.65 14.05 Q 176.4 14.05 178.24 15.97 Q 180.08 17.89 180.08 21.84 Z  M 177.79 22 Q 177.79 20.31 177.47 19.14 Q 177.15 17.97 176.5 17.24 Q 175.86 16.52 174.88 16.2 Q 173.9 15.88 172.59 15.88 L 170.72 15.88 L 170.72 28.12 L 172.34 28.12 Q 177.79 28.12 177.79 22 Z  M 193.24 16.78 Q 192.35 16.3 191.41 16.04 Q 190.48 15.78 189.37 15.78 Q 188.09 15.78 187.1 16.23 Q 186.12 16.69 185.44 17.51 Q 184.76 18.33 184.4 19.49 Q 184.04 20.66 184.04 22.05 Q 184.04 23.52 184.33 24.68 Q 184.62 25.84 185.24 26.65 Q 185.87 27.45 186.84 27.88 Q 187.8 28.3 189.16 28.3 Q 189.4 28.3 189.66 28.27 Q 189.93 28.25 190.2 28.21 Q 190.48 28.17 190.73 28.11 Q 190.98 28.05 191.16 27.97 L 191.16 22.89 L 187.91 22.89 L 187.91 21.09 L 193.32 21.09 L 193.32 29.25 Q 192.82 29.48 192.27 29.67 Q 191.71 29.86 191.12 29.98 Q 190.54 30.09 189.97 30.16 Q 189.4 30.22 188.85 30.22 Q 187.23 30.22 185.91 29.7 Q 184.6 29.19 183.68 28.19 Q 182.76 27.19 182.27 25.68 Q 181.77 24.17 181.77 22.2 Q 181.77 20.23 182.32 18.68 Q 182.87 17.12 183.86 16.04 Q 184.85 14.95 186.25 14.39 Q 187.65 13.83 189.34 13.83 Q 190.41 13.83 191.38 14.02 Q 192.35 14.2 193.24 14.62 L 193.24 16.78 Z  M 206.24 30 L 197.16 30 L 197.16 14.05 L 206.24 14.05 L 206.24 15.88 L 199.33 15.88 L 199.33 20.81 L 205.96 20.81 L 205.96 22.66 L 199.33 22.66 L 199.33 28.14 L 206.24 28.14 L 206.24 30 Z  M 217.98 35 L 211.97 35 L 211.97 33.3 L 215.94 33.3 L 215.94 14.03 L 211.97 14.03 L 211.97 12.33 L 217.98 12.33 L 217.98 35 Z "/></g><rect x="85" y="38.3" width="137.45" height="29.27" style="fill: rgb(255,255,255); fill-opacity: 1.0" transform="matrix(1,0,0,1,405,4)" clip-path="url(#_2116970298550390clip-1)"/><g style="fill: rgb(0,0,255); fill-opacity: 1.0; stroke: none" transform="matrix(1,0,0,1,405,4)" clip-path="url(#_2116970298550390clip-1)"><path d="M 95.23 64 L 89.22 64 L 89.22 41.33 L 95.23 41.33 L 95.23 43.03 L 91.23 43.03 L 91.23 62.3 L 95.23 62.3 L 95.23 64 Z  M 110.28 59 L 101.2 59 L 101.2 43.05 L 110.28 43.05 L 110.28 44.88 L 103.37 44.88 L 103.37 49.81 L 110 49.81 L 110 51.66 L 103.37 51.66 L 103.37 57.14 L 110.28 57.14 L 110.28 59 Z  M 125.94 59 L 123.19 59 L 119.32 52.55 L 115.43 59 L 112.71 59 L 118.02 50.84 L 113.13 43.05 L 115.71 43.05 L 119.37 49.05 L 123.04 43.05 L 125.54 43.05 L 120.65 50.75 L 125.94 59 Z  M 138.38 58.41 Q 136.47 59.2 134.36 59.2 Q 130.99 59.2 129.17 57.18 Q 127.36 55.16 127.36 51.2 Q 127.36 49.28 127.86 47.73 Q 128.36 46.19 129.29 45.1 Q 130.22 44.02 131.53 43.43 Q 132.84 42.84 134.49 42.84 Q 135.59 42.84 136.55 43.04 Q 137.5 43.23 138.38 43.62 L 138.38 45.75 Q 137.52 45.28 136.59 45.03 Q 135.66 44.78 134.56 44.78 Q 133.44 44.78 132.53 45.2 Q 131.63 45.62 130.99 46.42 Q 130.34 47.22 130.01 48.38 Q 129.67 49.53 129.67 51 Q 129.67 54.11 130.92 55.68 Q 132.17 57.25 134.61 57.25 Q 135.64 57.25 136.58 57.02 Q 137.52 56.78 138.38 56.34 L 138.38 58.41 Z  M 152.39 59 L 150.21 59 L 150.21 51.67 L 143.51 51.67 L 143.51 59 L 141.34 59 L 141.34 43.05 L 143.51 43.05 L 143.51 49.8 L 150.21 49.8 L 150.21 43.05 L 152.39 43.05 L 152.39 59 Z  M 167.35 59 L 164.98 59 L 163.87 55.52 L 157.23 55.52 L 156.1 59 L 153.85 59 L 159.15 43.05 L 162.13 43.05 L 167.35 59 Z  M 163.24 53.58 L 160.55 45.05 L 157.85 53.58 L 163.24 53.58 Z  M 179.78 59 L 176.94 59 L 172.3 49.05 L 170.96 45.86 L 170.96 53.89 L 170.96 59 L 168.92 59 L 168.92 43.05 L 171.72 43.05 L 176.14 52.47 L 177.75 56.12 L 177.75 47.58 L 177.75 43.05 L 179.78 43.05 L 179.78 59 Z  M 193.5 45.78 Q 192.61 45.3 191.67 45.04 Q 190.73 44.78 189.62 44.78 Q 188.34 44.78 187.36 45.23 Q 186.37 45.69 185.69 46.51 Q 185.01 47.33 184.65 48.49 Q 184.29 49.66 184.29 51.05 Q 184.29 52.52 184.58 53.68 Q 184.87 54.84 185.5 55.65 Q 186.12 56.45 187.09 56.88 Q 188.06 57.3 189.42 57.3 Q 189.65 57.3 189.92 57.27 Q 190.18 57.25 190.46 57.21 Q 190.73 57.17 190.98 57.11 Q 191.23 57.05 191.42 56.97 L 191.42 51.89 L 188.17 51.89 L 188.17 50.09 L 193.58 50.09 L 193.58 58.25 Q 193.08 58.48 192.52 58.67 Q 191.97 58.86 191.38 58.98 Q 190.79 59.09 190.22 59.16 Q 189.65 59.22 189.11 59.22 Q 187.48 59.22 186.17 58.7 Q 184.86 58.19 183.93 57.19 Q 183.01 56.19 182.52 54.68 Q 182.03 53.17 182.03 51.2 Q 182.03 49.23 182.58 47.68 Q 183.12 46.12 184.11 45.04 Q 185.11 43.95 186.5 43.39 Q 187.9 42.83 189.59 42.83 Q 190.67 42.83 191.64 43.02 Q 192.61 43.2 193.5 43.62 L 193.5 45.78 Z  M 206.49 59 L 197.41 59 L 197.41 43.05 L 206.49 43.05 L 206.49 44.88 L 199.59 44.88 L 199.59 49.81 L 206.21 49.81 L 206.21 51.66 L 199.59 51.66 L 199.59 57.14 L 206.49 57.14 L 206.49 59 Z  M 218.24 64 L 212.22 64 L 212.22 62.3 L 216.19 62.3 L 216.19 43.03 L 212.22 43.03 L 212.22 41.33 L 218.24 41.33 L 218.24 64 Z "/></g><rect x="71" y="68.3" width="151.2" height="29.27" style="fill: rgb(255,255,255); fill-opacity: 1.0" transform="matrix(1,0,0,1,405,4)" clip-path="url(#_2116970298550390clip-1)"/><g style="fill: rgb(0,0,255); fill-opacity: 1.0; stroke: none" transform="matrix(1,0,0,1,405,4)" clip-path="url(#_2116970298550390clip-1)"><path d="M 81.23 94 L 75.22 94 L 75.22 71.33 L 81.23 71.33 L 81.23 73.03 L 77.23 73.03 L 77.23 92.3 L 81.23 92.3 L 81.23 94 Z  M 96.89 88.41 Q 94.98 89.2 92.87 89.2 Q 89.5 89.2 87.68 87.18 Q 85.87 85.16 85.87 81.2 Q 85.87 79.28 86.37 77.73 Q 86.87 76.19 87.8 75.1 Q 88.73 74.02 90.04 73.43 Q 91.35 72.84 93 72.84 Q 94.1 72.84 95.06 73.04 Q 96.01 73.23 96.89 73.62 L 96.89 75.75 Q 96.03 75.28 95.1 75.03 Q 94.17 74.78 93.07 74.78 Q 91.95 74.78 91.04 75.2 Q 90.14 75.62 89.5 76.42 Q 88.85 77.22 88.52 78.38 Q 88.18 79.53 88.18 81 Q 88.18 84.11 89.43 85.68 Q 90.68 87.25 93.12 87.25 Q 94.15 87.25 95.09 87.02 Q 96.03 86.78 96.89 86.34 L 96.89 88.41 Z  M 110.9 89 L 108.72 89 L 108.72 81.67 L 102.02 81.67 L 102.02 89 L 99.85 89 L 99.85 73.05 L 102.02 73.05 L 102.02 79.8 L 108.72 79.8 L 108.72 73.05 L 110.9 73.05 L 110.9 89 Z  M 125.86 89 L 123.49 89 L 122.38 85.52 L 115.74 85.52 L 114.61 89 L 112.36 89 L 117.66 73.05 L 120.64 73.05 L 125.86 89 Z  M 121.75 83.58 L 119.06 75.05 L 116.36 83.58 L 121.75 83.58 Z  M 139.06 80.92 Q 139.06 83.06 138.55 84.62 Q 138.04 86.19 137.18 87.21 Q 136.32 88.23 135.17 88.73 Q 134.01 89.22 132.73 89.22 Q 131.2 89.22 130.06 88.66 Q 128.92 88.11 128.16 87.06 Q 127.4 86.02 127.04 84.51 Q 126.68 83 126.68 81.11 Q 126.68 78.98 127.18 77.42 Q 127.68 75.86 128.54 74.84 Q 129.4 73.81 130.55 73.32 Q 131.7 72.83 132.98 72.83 Q 134.51 72.83 135.65 73.39 Q 136.79 73.95 137.55 74.99 Q 138.31 76.03 138.68 77.53 Q 139.06 79.03 139.06 80.92 Z  M 136.79 81.08 Q 136.79 79.67 136.58 78.51 Q 136.37 77.34 135.89 76.5 Q 135.42 75.66 134.67 75.2 Q 133.92 74.73 132.86 74.73 Q 131.82 74.73 131.09 75.23 Q 130.36 75.72 129.88 76.57 Q 129.4 77.42 129.17 78.56 Q 128.93 79.7 128.93 80.98 Q 128.93 82.39 129.15 83.56 Q 129.37 84.73 129.84 85.57 Q 130.31 86.41 131.06 86.87 Q 131.81 87.33 132.86 87.33 Q 133.87 87.33 134.62 86.84 Q 135.37 86.34 135.86 85.49 Q 136.34 84.64 136.57 83.51 Q 136.79 82.38 136.79 81.08 Z  M 151.9 84.67 Q 151.9 85.81 151.44 86.66 Q 150.98 87.52 150.14 88.09 Q 149.3 88.66 148.14 88.94 Q 146.98 89.22 145.57 89.22 Q 144.94 89.22 144.31 89.17 Q 143.68 89.12 143.1 89.05 Q 142.52 88.97 142.01 88.88 Q 141.49 88.78 141.08 88.67 L 141.08 86.58 Q 141.99 86.91 143.13 87.1 Q 144.27 87.3 145.73 87.3 Q 146.79 87.3 147.52 87.13 Q 148.26 86.97 148.73 86.65 Q 149.19 86.33 149.41 85.87 Q 149.63 85.41 149.63 84.8 Q 149.63 84.16 149.27 83.7 Q 148.91 83.23 148.33 82.88 Q 147.74 82.52 146.98 82.22 Q 146.23 81.92 145.44 81.6 Q 144.66 81.28 143.91 80.91 Q 143.16 80.55 142.58 80.04 Q 141.99 79.53 141.63 78.84 Q 141.27 78.16 141.27 77.22 Q 141.27 76.41 141.62 75.61 Q 141.96 74.81 142.68 74.2 Q 143.4 73.58 144.53 73.2 Q 145.66 72.83 147.23 72.83 Q 147.62 72.83 148.09 72.87 Q 148.57 72.91 149.05 72.97 Q 149.52 73.03 150 73.12 Q 150.48 73.2 150.87 73.3 L 150.87 75.25 Q 149.93 74.98 148.99 74.84 Q 148.05 74.7 147.18 74.7 Q 145.3 74.7 144.43 75.33 Q 143.55 75.95 143.55 77 Q 143.55 77.64 143.91 78.11 Q 144.27 78.58 144.86 78.95 Q 145.44 79.31 146.19 79.61 Q 146.94 79.91 147.73 80.23 Q 148.51 80.55 149.26 80.92 Q 150.01 81.3 150.59 81.81 Q 151.18 82.33 151.54 83.02 Q 151.9 83.72 151.9 84.67 Z  M 163 94 L 156.99 94 L 156.99 92.3 L 160.96 92.3 L 160.96 73.03 L 156.99 73.03 L 156.99 71.33 L 163 71.33 L 163 94 Z  M 169.17 76.75 L 171.06 76.75 L 171.15 78.72 Q 171.68 78.09 172.18 77.67 Q 172.68 77.25 173.17 76.99 Q 173.65 76.73 174.15 76.63 Q 174.65 76.53 175.18 76.53 Q 177.08 76.53 178.04 77.65 Q 179.01 78.77 179.01 81 L 179.01 89 L 176.9 89 L 176.9 81.17 Q 176.9 79.73 176.36 79.05 Q 175.83 78.36 174.76 78.36 Q 174.37 78.36 174 78.48 Q 173.62 78.59 173.22 78.88 Q 172.83 79.16 172.35 79.65 Q 171.87 80.14 171.29 80.88 L 171.29 89 L 169.17 89 L 169.17 76.75 Z  M 192.76 89 L 190.87 89 L 190.79 87.02 Q 190.24 87.66 189.74 88.08 Q 189.24 88.5 188.76 88.76 Q 188.27 89.02 187.78 89.12 Q 187.29 89.22 186.74 89.22 Q 184.84 89.22 183.88 88.11 Q 182.91 87 182.91 84.75 L 182.91 76.75 L 185.04 76.75 L 185.04 84.58 Q 185.04 87.41 187.16 87.41 Q 187.55 87.41 187.93 87.29 Q 188.3 87.17 188.71 86.88 Q 189.12 86.59 189.59 86.11 Q 190.05 85.62 190.65 84.88 L 190.65 76.75 L 192.76 76.75 L 192.76 89 Z  M 200.83 73.5 L 197.21 73.5 L 197.21 71.75 L 202.99 71.75 L 202.99 87.23 L 206.63 87.23 L 206.63 89 L 196.8 89 L 196.8 87.23 L 200.83 87.23 L 200.83 73.5 Z  M 214.58 73.5 L 210.95 73.5 L 210.95 71.75 L 216.73 71.75 L 216.73 87.23 L 220.37 87.23 L 220.37 89 L 210.54 89 L 210.54 87.23 L 214.58 87.23 L 214.58 73.5 Z "/></g><g style="stroke-width: 3.0;stroke: rgb(0,0,0);stroke-opacity: 1.0;stroke-linecap: square;; fill: none" transform="matrix(1,0,0,1,405,4)" clip-path="url(#_2116970298550390clip-1)"><path d="M 0 0 L 0 102 L 247 102 L 247 0 Z "/></g><g style="fill: rgb(255,255,255); fill-opacity: 1.0; stroke: none" transform="matrix(1,0,0,1,6,106)" clip-path="url(#_2116970298550390clip-2)"><path d="M 0 0 L 0 25 L 399 25 L 399 0 Z "/></g><rect x="39" y="0.44" width="142.95" height="23.42" style="fill: rgb(255,255,255); fill-opacity: 1.0" transform="matrix(1,0,0,1,6,106)" /><g style="fill: rgb(0,0,0); fill-opacity: 1.0; stroke: none" transform="matrix(1,0,0,1,6,106)" ><path d="M 49.91 17 L 48 17 L 47.11 14.22 L 41.8 14.22 L 40.91 17 L 39.09 17 L 43.34 4.23 L 45.72 4.23 L 49.91 17 Z  M 46.62 12.66 L 44.45 5.84 L 42.3 12.66 L 46.62 12.66 Z  M 51.96 7.19 L 53.51 7.19 L 53.56 9 Q 54.43 7.95 55.28 7.48 Q 56.12 7.02 56.98 7.02 Q 58.5 7.02 59.29 8 Q 60.07 8.98 60.01 10.94 L 58.29 10.94 Q 58.32 9.64 57.92 9.06 Q 57.51 8.48 56.73 8.48 Q 56.39 8.48 56.04 8.61 Q 55.7 8.73 55.33 9 Q 54.96 9.27 54.56 9.69 Q 54.15 10.11 53.68 10.7 L 53.68 17 L 51.96 17 L 51.96 7.19 Z  M 70.46 16.86 Q 69.88 17.02 69.27 17.08 Q 68.65 17.14 68.01 17.14 Q 66.16 17.14 65.26 16.3 Q 64.35 15.47 64.35 13.73 L 64.35 8.62 L 61.6 8.62 L 61.6 7.19 L 64.35 7.19 L 64.35 4.5 L 66.05 4.06 L 66.05 7.19 L 70.46 7.19 L 70.46 8.62 L 66.05 8.62 L 66.05 13.59 Q 66.05 14.66 66.62 15.18 Q 67.18 15.7 68.27 15.7 Q 68.74 15.7 69.3 15.62 Q 69.85 15.55 70.46 15.39 L 70.46 16.86 Z  M 76.89 8.59 L 73.99 8.59 L 73.99 7.19 L 78.61 7.19 L 78.61 15.58 L 81.54 15.58 L 81.54 17 L 73.68 17 L 73.68 15.58 L 76.89 15.58 L 76.89 8.59 Z  M 77.49 3.08 Q 77.77 3.08 78.01 3.18 Q 78.25 3.28 78.43 3.47 Q 78.61 3.66 78.72 3.9 Q 78.83 4.14 78.83 4.42 Q 78.83 4.69 78.72 4.94 Q 78.61 5.19 78.43 5.37 Q 78.25 5.55 78.01 5.66 Q 77.77 5.77 77.49 5.77 Q 77.21 5.77 76.96 5.66 Q 76.72 5.55 76.54 5.37 Q 76.35 5.19 76.25 4.94 Q 76.14 4.69 76.14 4.42 Q 76.14 4.14 76.25 3.9 Q 76.35 3.66 76.54 3.47 Q 76.72 3.28 76.96 3.18 Q 77.21 3.08 77.49 3.08 Z  M 93.25 4.78 Q 91.91 4.5 90.94 4.5 Q 88.66 4.5 88.66 6.91 L 88.66 8.62 L 92.95 8.62 L 92.95 10.03 L 88.66 10.03 L 88.66 17 L 86.92 17 L 86.92 10.03 L 83.77 10.03 L 83.77 8.62 L 86.92 8.62 L 86.92 7 Q 86.92 3.08 91 3.08 Q 92.02 3.08 93.25 3.31 L 93.25 4.78 Z  M 101.84 17 L 101.81 15.69 Q 101 16.47 100.18 16.82 Q 99.36 17.17 98.45 17.17 Q 97.61 17.17 97.01 16.96 Q 96.42 16.75 96.03 16.38 Q 95.64 16 95.46 15.49 Q 95.28 14.98 95.28 14.38 Q 95.28 12.91 96.38 12.07 Q 97.48 11.23 99.62 11.23 L 101.65 11.23 L 101.65 10.38 Q 101.65 9.52 101.1 8.99 Q 100.54 8.47 99.4 8.47 Q 98.57 8.47 97.77 8.65 Q 96.96 8.83 96.11 9.17 L 96.11 7.64 Q 96.42 7.53 96.82 7.41 Q 97.21 7.3 97.65 7.21 Q 98.09 7.12 98.57 7.07 Q 99.04 7.02 99.54 7.02 Q 100.43 7.02 101.14 7.21 Q 101.86 7.41 102.35 7.8 Q 102.84 8.2 103.11 8.81 Q 103.37 9.42 103.37 10.23 L 103.37 17 L 101.84 17 Z  M 101.65 12.53 L 99.5 12.53 Q 98.87 12.53 98.41 12.66 Q 97.95 12.8 97.65 13.03 Q 97.36 13.27 97.21 13.59 Q 97.07 13.91 97.07 14.33 Q 97.07 14.61 97.16 14.87 Q 97.25 15.12 97.44 15.33 Q 97.64 15.53 97.95 15.65 Q 98.26 15.77 98.71 15.77 Q 99.31 15.77 100.07 15.41 Q 100.82 15.05 101.65 14.28 L 101.65 12.53 Z  M 114.16 16.64 Q 113.49 16.89 112.8 17.02 Q 112.1 17.14 111.35 17.14 Q 109.02 17.14 107.77 15.88 Q 106.52 14.61 106.52 12.19 Q 106.52 11.03 106.88 10.09 Q 107.24 9.14 107.9 8.47 Q 108.55 7.8 109.46 7.43 Q 110.37 7.06 111.46 7.06 Q 112.23 7.06 112.89 7.16 Q 113.55 7.27 114.16 7.52 L 114.16 9.14 Q 113.52 8.81 112.87 8.66 Q 112.21 8.5 111.51 8.5 Q 110.85 8.5 110.27 8.75 Q 109.68 9 109.24 9.47 Q 108.8 9.94 108.55 10.61 Q 108.3 11.28 108.3 12.14 Q 108.3 13.91 109.16 14.8 Q 110.02 15.69 111.55 15.69 Q 112.26 15.69 112.91 15.53 Q 113.55 15.38 114.16 15.06 L 114.16 16.64 Z  M 125.44 16.86 Q 124.86 17.02 124.25 17.08 Q 123.63 17.14 122.99 17.14 Q 121.14 17.14 120.24 16.3 Q 119.33 15.47 119.33 13.73 L 119.33 8.62 L 116.58 8.62 L 116.58 7.19 L 119.33 7.19 L 119.33 4.5 L 121.04 4.06 L 121.04 7.19 L 125.44 7.19 L 125.44 8.62 L 121.04 8.62 L 121.04 13.59 Q 121.04 14.66 121.6 15.18 Q 122.16 15.7 123.25 15.7 Q 123.72 15.7 124.28 15.62 Q 124.83 15.55 125.44 15.39 L 125.44 16.86 Z  M 142.59 5.7 L 139.65 5.7 L 139.65 4.23 L 147.28 4.23 L 147.28 5.7 L 144.34 5.7 L 144.34 15.52 L 147.28 15.52 L 147.28 17 L 139.65 17 L 139.65 15.52 L 142.59 15.52 L 142.59 5.7 Z  M 158.43 16.86 Q 157.85 17.02 157.23 17.08 Q 156.62 17.14 155.98 17.14 Q 154.13 17.14 153.23 16.3 Q 152.32 15.47 152.32 13.73 L 152.32 8.62 L 149.57 8.62 L 149.57 7.19 L 152.32 7.19 L 152.32 4.5 L 154.02 4.06 L 154.02 7.19 L 158.43 7.19 L 158.43 8.62 L 154.02 8.62 L 154.02 13.59 Q 154.02 14.66 154.59 15.18 Q 155.15 15.7 156.24 15.7 Q 156.71 15.7 157.27 15.62 Q 157.82 15.55 158.43 15.39 L 158.43 16.86 Z  M 169.8 11.58 Q 169.8 11.94 169.79 12.18 Q 169.79 12.42 169.77 12.64 L 162.88 12.64 Q 162.88 14.14 163.71 14.95 Q 164.55 15.77 166.14 15.77 Q 166.57 15.77 167 15.73 Q 167.43 15.69 167.82 15.63 Q 168.22 15.58 168.59 15.5 Q 168.96 15.42 169.27 15.34 L 169.27 16.73 Q 168.58 16.94 167.71 17.05 Q 166.83 17.17 165.89 17.17 Q 164.63 17.17 163.72 16.83 Q 162.82 16.48 162.24 15.84 Q 161.66 15.19 161.38 14.25 Q 161.1 13.31 161.1 12.11 Q 161.1 11.08 161.39 10.16 Q 161.69 9.23 162.26 8.54 Q 162.83 7.84 163.67 7.43 Q 164.5 7.02 165.55 7.02 Q 166.58 7.02 167.37 7.34 Q 168.16 7.66 168.7 8.25 Q 169.24 8.84 169.52 9.69 Q 169.8 10.53 169.8 11.58 Z  M 168.04 11.33 Q 168.07 10.69 167.91 10.14 Q 167.75 9.59 167.43 9.2 Q 167.1 8.81 166.61 8.59 Q 166.11 8.38 165.47 8.38 Q 164.93 8.38 164.46 8.59 Q 164 8.81 163.67 9.2 Q 163.33 9.59 163.13 10.14 Q 162.93 10.69 162.88 11.33 L 168.04 11.33 Z  M 179.52 17 L 179.52 9.95 Q 179.52 9.5 179.48 9.2 Q 179.44 8.91 179.37 8.74 Q 179.3 8.58 179.18 8.51 Q 179.06 8.44 178.91 8.44 Q 178.7 8.44 178.54 8.55 Q 178.38 8.67 178.19 8.94 Q 178 9.2 177.77 9.63 Q 177.53 10.06 177.22 10.7 L 177.22 17 L 175.67 17 L 175.67 10.14 Q 175.67 9.61 175.64 9.27 Q 175.61 8.94 175.53 8.76 Q 175.45 8.58 175.34 8.51 Q 175.22 8.44 175.06 8.44 Q 174.88 8.44 174.72 8.53 Q 174.56 8.62 174.38 8.88 Q 174.19 9.14 173.95 9.58 Q 173.72 10.02 173.39 10.7 L 173.39 17 L 171.83 17 L 171.83 7.19 L 173.12 7.19 L 173.2 9.06 Q 173.47 8.5 173.7 8.11 Q 173.94 7.72 174.2 7.48 Q 174.45 7.25 174.74 7.13 Q 175.03 7.02 175.38 7.02 Q 176.17 7.02 176.58 7.53 Q 176.98 8.05 176.98 9.14 Q 177.22 8.62 177.45 8.23 Q 177.67 7.84 177.93 7.57 Q 178.19 7.3 178.5 7.16 Q 178.81 7.02 179.22 7.02 Q 181.08 7.02 181.08 9.86 L 181.08 17 L 179.52 17 Z "/></g><g style="stroke-width: 3.0;stroke: rgb(0,0,0);stroke-opacity: 1.0;stroke-linecap: square;; fill: none" transform="matrix(1,0,0,1,6,106)" ><path d="M 0 0 L 0 25 L 399 25 L 399 0 Z "/></g><g style="fill: rgb(255,255,255); fill-opacity: 1.0; stroke: none" transform="matrix(1,0,0,1,405,106)" ><path d="M 0 0 L 0 25 L 247 25 L 247 0 Z "/></g><rect x="190" y="0.44" width="32.99" height="23.42" style="fill: rgb(255,255,255); fill-opacity: 1.0" transform="matrix(1,0,0,1,405,106)" /><g style="fill: rgb(0,0,0); fill-opacity: 1.0; stroke: none" transform="matrix(1,0,0,1,405,106)" ><path d="M 200.27 17 L 198.3 17 L 196.39 12.92 Q 196.19 12.45 195.96 12.14 Q 195.73 11.83 195.48 11.65 Q 195.22 11.47 194.91 11.39 Q 194.59 11.31 194.22 11.31 L 193.41 11.31 L 193.41 17 L 191.66 17 L 191.66 4.23 L 195.08 4.23 Q 196.19 4.23 196.99 4.48 Q 197.8 4.72 198.3 5.16 Q 198.81 5.61 199.05 6.23 Q 199.3 6.84 199.3 7.59 Q 199.3 8.19 199.12 8.72 Q 198.95 9.25 198.6 9.69 Q 198.25 10.12 197.74 10.45 Q 197.23 10.77 196.56 10.92 Q 197.09 11.09 197.48 11.56 Q 197.86 12.03 198.25 12.8 L 200.27 17 Z  M 197.48 7.73 Q 197.48 6.72 196.84 6.21 Q 196.2 5.7 195.05 5.7 L 193.41 5.7 L 193.41 9.92 L 194.81 9.92 Q 195.42 9.92 195.91 9.78 Q 196.41 9.64 196.75 9.36 Q 197.09 9.08 197.29 8.67 Q 197.48 8.27 197.48 7.73 Z  M 210.7 10.69 L 202.29 10.69 L 202.29 9.25 L 210.7 9.25 L 210.7 10.69 Z  M 210.7 14.09 L 202.29 14.09 L 202.29 12.66 L 210.7 12.66 L 210.7 14.09 Z  M 221.84 17 L 213.43 17 L 213.43 15.47 L 216.73 12.19 Q 217.54 11.39 218.05 10.8 Q 218.55 10.22 218.84 9.73 Q 219.12 9.25 219.22 8.82 Q 219.32 8.39 219.32 7.89 Q 219.32 7.42 219.2 7 Q 219.07 6.58 218.8 6.26 Q 218.54 5.94 218.12 5.75 Q 217.7 5.56 217.12 5.56 Q 216.3 5.56 215.64 5.92 Q 214.98 6.28 214.41 6.86 L 213.48 5.73 Q 214.2 4.98 215.14 4.52 Q 216.09 4.06 217.34 4.06 Q 218.18 4.06 218.88 4.31 Q 219.59 4.56 220.09 5.05 Q 220.6 5.53 220.88 6.22 Q 221.15 6.91 221.15 7.78 Q 221.15 8.52 220.95 9.14 Q 220.76 9.77 220.37 10.38 Q 219.98 11 219.38 11.66 Q 218.77 12.33 217.95 13.12 L 215.63 15.38 L 221.84 15.38 L 221.84 17 Z "/></g><g style="stroke-width: 3.0;stroke: rgb(0,0,0);stroke-opacity: 1.0;stroke-linecap: square;; fill: none" transform="matrix(1,0,0,1,405,106)" ><path d="M 0 0 L 0 25 L 247 25 L 247 0 Z "/></g></svg>