<svg xmlns="http://www.w3.org/2000/svg" xmlns:xlink="http://www.w3.org/1999/xlink" xmlns:jfreesvg="http://www.jfree.org/jfreesvg/svg" width="653px" height="404px" text-rendering="auto" shape-rendering="auto">
<defs><clipPath id="_2221284133373106clip-0"><path d="M 0 0 L 0 27 L 399 27 L 399 0 Z "/></clipPath>
<clipPath id="_2221284133373106clip-1"><path d="M 399 0 L 399 27 L 646 27 L 646 0 Z "/></clipPath>
<clipPath id="_2221284133373106clip-2"><path d="M 0 0 L 0 400 L 647 400 L 647 0 Z "/></clipPath>
<clipPath id="_2221284133373106clip-3"><path d="M 0 52 L 0 400 L 647 400 L 647 52 Z "/></clipPath>
</defs>
<rect x="0" y="0" width="653" height="404" style="fill: rgb(0,0,0); fill-opacity: 1.0" transform="matrix(1,0,0,1,0,0)" /><g style="fill: rgb(255,255,255); fill-opacity: 1.0; stroke: none" transform="matrix(1,0,0,1,6,4)" clip-path="url(#_2221284133373106clip-0)"><path d="M 0 0 L 0 27 L 399 27 L 399 0 Z "/></g><rect x="39" y="1.44" width="109.96" height="23.42" style="fill: rgb(255,255,255); fill-opacity: 1.0" transform="matrix(1,0,0,1,6,4)" clip-path="url(#_2221284133373106clip-0)"/><g style="fill: rgb(0,0,0); fill-opacity: 1.0; stroke: none" transform="matrix(1,0,0,1,6,4)" clip-path="url(#_2221284133373106clip-0)"><path d="M 48.62 18 L 41.28 18 L 41.28 5.23 L 43.05 5.23 L 43.05 16.52 L 48.62 16.52 L 48.62 18 Z  M 59.43 18 L 57.92 18 L 57.86 16.42 Q 57.42 16.92 57.02 17.26 Q 56.62 17.59 56.23 17.8 Q 55.84 18.02 55.45 18.09 Q 55.06 18.17 54.62 18.17 Q 53.11 18.17 52.33 17.28 Q 51.56 16.39 51.56 14.59 L 51.56 8.19 L 53.26 8.19 L 53.26 14.47 Q 53.26 16.72 54.96 16.72 Q 55.28 16.72 55.57 16.62 Q 55.87 16.53 56.2 16.3 Q 56.53 16.08 56.9 15.69 Q 57.28 15.3 57.75 14.7 L 57.75 8.19 L 59.43 8.19 L 59.43 18 Z  M 69.55 18 L 69.55 10.95 Q 69.55 10.5 69.52 10.2 Q 69.48 9.91 69.41 9.74 Q 69.34 9.58 69.22 9.51 Q 69.1 9.44 68.95 9.44 Q 68.74 9.44 68.58 9.55 Q 68.41 9.67 68.23 9.94 Q 68.04 10.2 67.8 10.63 Q 67.57 11.06 67.26 11.7 L 67.26 18 L 65.71 18 L 65.71 11.14 Q 65.71 10.61 65.68 10.27 Q 65.65 9.94 65.57 9.76 Q 65.49 9.58 65.38 9.51 Q 65.26 9.44 65.1 9.44 Q 64.91 9.44 64.76 9.53 Q 64.6 9.62 64.41 9.88 Q 64.23 10.14 63.99 10.58 Q 63.76 11.02 63.43 11.7 L 63.43 18 L 61.87 18 L 61.87 8.19 L 63.16 8.19 L 63.24 10.06 Q 63.51 9.5 63.74 9.11 Q 63.98 8.72 64.23 8.48 Q 64.49 8.25 64.78 8.13 Q 65.07 8.02 65.41 8.02 Q 66.21 8.02 66.62 8.53 Q 67.02 9.05 67.02 10.14 Q 67.26 9.62 67.48 9.23 Q 67.71 8.84 67.97 8.57 Q 68.23 8.3 68.54 8.16 Q 68.85 8.02 69.26 8.02 Q 71.12 8.02 71.12 10.86 L 71.12 18 L 69.55 18 Z  M 81.93 12.92 Q 81.93 14.14 81.59 15.1 Q 81.25 16.06 80.64 16.73 Q 80.02 17.41 79.13 17.77 Q 78.24 18.12 77.13 18.12 Q 76.25 18.12 75.35 17.95 Q 74.44 17.78 73.55 17.42 L 73.55 4.2 L 75.25 4.2 L 75.25 8 L 75.18 9.81 Q 75.91 8.83 76.75 8.42 Q 77.58 8.02 78.54 8.02 Q 79.38 8.02 80.01 8.37 Q 80.64 8.72 81.07 9.36 Q 81.5 10 81.71 10.91 Q 81.93 11.81 81.93 12.92 Z  M 80.19 13 Q 80.19 12.23 80.08 11.59 Q 79.97 10.94 79.72 10.48 Q 79.47 10.02 79.1 9.76 Q 78.72 9.5 78.19 9.5 Q 77.86 9.5 77.54 9.6 Q 77.21 9.7 76.85 9.95 Q 76.49 10.19 76.1 10.59 Q 75.71 10.98 75.25 11.56 L 75.25 16.31 Q 75.75 16.52 76.27 16.62 Q 76.79 16.73 77.25 16.73 Q 77.83 16.73 78.37 16.55 Q 78.91 16.38 79.31 15.94 Q 79.71 15.5 79.95 14.78 Q 80.19 14.06 80.19 13 Z  M 92.83 12.58 Q 92.83 12.94 92.82 13.18 Q 92.81 13.42 92.8 13.64 L 85.91 13.64 Q 85.91 15.14 86.74 15.95 Q 87.58 16.77 89.17 16.77 Q 89.59 16.77 90.02 16.73 Q 90.45 16.69 90.85 16.63 Q 91.25 16.58 91.62 16.5 Q 91.98 16.42 92.3 16.34 L 92.3 17.73 Q 91.61 17.94 90.73 18.05 Q 89.86 18.17 88.92 18.17 Q 87.66 18.17 86.75 17.83 Q 85.84 17.48 85.27 16.84 Q 84.69 16.19 84.41 15.25 Q 84.12 14.31 84.12 13.11 Q 84.12 12.08 84.42 11.16 Q 84.72 10.23 85.29 9.54 Q 85.86 8.84 86.7 8.43 Q 87.53 8.02 88.58 8.02 Q 89.61 8.02 90.4 8.34 Q 91.19 8.66 91.73 9.25 Q 92.27 9.84 92.55 10.69 Q 92.83 11.53 92.83 12.58 Z  M 91.06 12.33 Q 91.09 11.69 90.94 11.14 Q 90.78 10.59 90.45 10.2 Q 90.12 9.81 89.63 9.59 Q 89.14 9.38 88.5 9.38 Q 87.95 9.38 87.49 9.59 Q 87.03 9.81 86.7 10.2 Q 86.36 10.59 86.16 11.14 Q 85.95 11.69 85.91 12.33 L 91.06 12.33 Z  M 95.95 8.19 L 97.5 8.19 L 97.54 10 Q 98.42 8.95 99.26 8.48 Q 100.11 8.02 100.96 8.02 Q 102.48 8.02 103.27 9 Q 104.06 9.98 104 11.94 L 102.28 11.94 Q 102.31 10.64 101.9 10.06 Q 101.5 9.48 100.71 9.48 Q 100.37 9.48 100.03 9.61 Q 99.68 9.73 99.32 10 Q 98.95 10.27 98.54 10.69 Q 98.14 11.11 97.67 11.7 L 97.67 18 L 95.95 18 L 95.95 8.19 Z  M 114.91 12.92 Q 114.91 14.23 114.55 15.21 Q 114.18 16.19 113.54 16.83 Q 112.9 17.47 112.02 17.8 Q 111.13 18.12 110.12 18.12 Q 109.65 18.12 109.18 18.07 Q 108.71 18.02 108.24 17.91 L 108.24 22 L 106.54 22 L 106.54 8.19 L 108.05 8.19 L 108.16 9.83 Q 108.9 8.83 109.73 8.42 Q 110.55 8.02 111.52 8.02 Q 112.37 8.02 113 8.37 Q 113.63 8.72 114.06 9.36 Q 114.49 10 114.7 10.91 Q 114.91 11.81 114.91 12.92 Z  M 113.18 13 Q 113.18 12.23 113.07 11.59 Q 112.96 10.94 112.71 10.48 Q 112.46 10.02 112.09 9.76 Q 111.71 9.5 111.18 9.5 Q 110.85 9.5 110.52 9.6 Q 110.2 9.7 109.84 9.95 Q 109.48 10.19 109.09 10.59 Q 108.7 10.98 108.24 11.56 L 108.24 16.31 Q 108.71 16.52 109.23 16.62 Q 109.74 16.73 110.24 16.73 Q 111.62 16.73 112.4 15.8 Q 113.18 14.88 113.18 13 Z  M 120.88 9.59 L 117.97 9.59 L 117.97 8.19 L 122.6 8.19 L 122.6 16.58 L 125.52 16.58 L 125.52 18 L 117.66 18 L 117.66 16.58 L 120.88 16.58 L 120.88 9.59 Z  M 121.47 4.08 Q 121.75 4.08 122 4.18 Q 122.24 4.28 122.42 4.47 Q 122.6 4.66 122.71 4.9 Q 122.82 5.14 122.82 5.42 Q 122.82 5.69 122.71 5.94 Q 122.6 6.19 122.42 6.37 Q 122.24 6.55 122 6.66 Q 121.75 6.77 121.47 6.77 Q 121.19 6.77 120.95 6.66 Q 120.71 6.55 120.52 6.37 Q 120.33 6.19 120.23 5.94 Q 120.13 5.69 120.13 5.42 Q 120.13 5.14 120.23 4.9 Q 120.33 4.66 120.52 4.47 Q 120.71 4.28 120.95 4.18 Q 121.19 4.08 121.47 4.08 Z  M 131.88 5.59 L 128.97 5.59 L 128.97 4.2 L 133.59 4.2 L 133.59 16.58 L 136.52 16.58 L 136.52 18 L 128.66 18 L 128.66 16.58 L 131.88 16.58 L 131.88 5.59 Z  M 147.81 12.58 Q 147.81 12.94 147.8 13.18 Q 147.79 13.42 147.78 13.64 L 140.89 13.64 Q 140.89 15.14 141.72 15.95 Q 142.56 16.77 144.15 16.77 Q 144.57 16.77 145 16.73 Q 145.43 16.69 145.83 16.63 Q 146.23 16.58 146.6 16.5 Q 146.96 16.42 147.28 16.34 L 147.28 17.73 Q 146.59 17.94 145.71 18.05 Q 144.84 18.17 143.9 18.17 Q 142.64 18.17 141.73 17.83 Q 140.82 17.48 140.25 16.84 Q 139.67 16.19 139.39 15.25 Q 139.11 14.31 139.11 13.11 Q 139.11 12.08 139.4 11.16 Q 139.7 10.23 140.27 9.54 Q 140.84 8.84 141.68 8.43 Q 142.51 8.02 143.56 8.02 Q 144.59 8.02 145.38 8.34 Q 146.17 8.66 146.71 9.25 Q 147.25 9.84 147.53 10.69 Q 147.81 11.53 147.81 12.58 Z  M 146.04 12.33 Q 146.07 11.69 145.92 11.14 Q 145.76 10.59 145.43 10.2 Q 145.11 9.81 144.61 9.59 Q 144.12 9.38 143.48 9.38 Q 142.93 9.38 142.47 9.59 Q 142.01 9.81 141.68 10.2 Q 141.34 10.59 141.14 11.14 Q 140.93 11.69 140.89 12.33 L 146.04 12.33 Z "/></g><g style="stroke-width: 3.0;stroke: rgb(0,0,0);stroke-opacity: 1.0;stroke-linecap: square;; fill: none" transform="matrix(1,0,0,1,6,4)" clip-path="url(#_2221284133373106clip-0)"><path d="M 0 0 L 0 27 L 399 27 L 399 0 Z "/></g><g style="fill: rgb(255,255,255); fill-opacity: 1.0; stroke: none" transform="matrix(1,0,0,1,6,4)" clip-path="url(#_2221284133373106clip-1)"><path d="M 399 0 L 399 27 L 646 27 L 646 0 Z "/></g><rect x="545" y="1.44" width="76.97" height="23.42" style="fill: rgb(255,255,255); fill-opacity: 1.0" transform="matrix(1,0,0,1,6,4)" clip-path="url(#_2221284133373106clip-1)"/><g style="fill: rgb(0,0,255); fill-opacity: 1.0; stroke: none" transform="matrix(1,0,0,1,6,4)" clip-path="url(#_2221284133373106clip-1)"><path d="M 553.19 22 L 548.38 22 L 548.38 3.86 L 553.19 3.86 L 553.19 5.22 L 549.98 5.22 L 549.98 20.64 L 553.19 20.64 L 553.19 22 Z  M 565.21 18 L 557.96 18 L 557.96 5.23 L 565.21 5.23 L 565.21 6.7 L 559.7 6.7 L 559.7 10.66 L 565 10.66 L 565 12.12 L 559.7 12.12 L 559.7 16.52 L 565.21 16.52 L 565.21 18 Z  M 577.9 18 L 575.99 18 L 575.1 15.22 L 569.79 15.22 L 568.9 18 L 567.09 18 L 571.34 5.23 L 573.71 5.23 L 577.9 18 Z  M 574.62 13.66 L 572.45 6.84 L 570.29 13.66 L 574.62 13.66 Z  M 588.25 18 L 586.29 18 L 584.38 13.92 Q 584.18 13.45 583.95 13.14 Q 583.72 12.83 583.46 12.65 Q 583.21 12.47 582.89 12.39 Q 582.58 12.31 582.21 12.31 L 581.39 12.31 L 581.39 18 L 579.64 18 L 579.64 5.23 L 583.07 5.23 Q 584.18 5.23 584.98 5.48 Q 585.79 5.72 586.29 6.16 Q 586.8 6.61 587.04 7.23 Q 587.29 7.84 587.29 8.59 Q 587.29 9.19 587.11 9.72 Q 586.94 10.25 586.59 10.69 Q 586.24 11.12 585.73 11.45 Q 585.22 11.77 584.55 11.92 Q 585.08 12.09 585.46 12.56 Q 585.85 13.03 586.24 13.8 L 588.25 18 Z  M 585.47 8.73 Q 585.47 7.72 584.83 7.21 Q 584.19 6.7 583.04 6.7 L 581.39 6.7 L 581.39 10.92 L 582.8 10.92 Q 583.41 10.92 583.9 10.78 Q 584.39 10.64 584.74 10.36 Q 585.08 10.08 585.28 9.67 Q 585.47 9.27 585.47 8.73 Z  M 599.14 6.72 L 595.36 6.72 L 595.36 18 L 593.61 18 L 593.61 6.72 L 589.83 6.72 L 589.83 5.23 L 599.14 5.23 L 599.14 6.72 Z  M 609.9 18 L 608.17 18 L 608.17 12.14 L 602.81 12.14 L 602.81 18 L 601.06 18 L 601.06 5.23 L 602.81 5.23 L 602.81 10.64 L 608.17 10.64 L 608.17 5.23 L 609.9 5.23 L 609.9 18 Z  M 618.6 22 L 613.79 22 L 613.79 20.64 L 616.96 20.64 L 616.96 5.22 L 613.79 5.22 L 613.79 3.86 L 618.6 3.86 L 618.6 22 Z "/></g><g style="stroke-width: 3.0;stroke: rgb(0,0,0);stroke-opacity: 1.0;stroke-linecap: square;; fill: none" transform="matrix(1,0,0,1,6,4)" clip-path="url(#_2221284133373106clip-1)"><path d="M 399 0 L 399 27 L 646 27 L 646 0 Z "/></g><g style="fill: rgb(255,255,255); fill-opacity: 1.0; stroke: none" transform="matrix(1,0,0,1,6,4)" ><path d="M 0 27 L 0 52 L 647 52 L 647 27 Z "/></g><rect x="64" y="27.44" width="142.95" height="23.42" style="fill: rgb(255,255,255); fill-opacity: 1.0" transform="matrix(1,0,0,1,6,4)" clip-path="url(#_2221284133373106clip-2)"/><g style="fill: rgb(0,0,0); fill-opacity: 1.0; stroke: none" transform="matrix(1,0,0,1,6,4)" clip-path="url(#_2221284133373106clip-2)"><path d="M 74.27 44 L 72.3 44 L 70.39 39.92 Q 70.19 39.45 69.96 39.14 Q 69.73 38.83 69.48 38.65 Q 69.22 38.47 68.91 38.39 Q 68.59 38.31 68.22 38.31 L 67.41 38.31 L 67.41 44 L 65.66 44 L 65.66 31.23 L 69.08 31.23 Q 70.19 31.23 70.99 31.48 Q 71.8 31.72 72.3 32.16 Q 72.81 32.61 73.05 33.23 Q 73.3 33.84 73.3 34.59 Q 73.3 35.19 73.12 35.72 Q 72.95 36.25 72.6 36.69 Q 72.25 37.12 71.74 37.45 Q 71.23 37.77 70.56 37.92 Q 71.09 38.09 71.48 38.56 Q 71.86 39.03 72.25 39.8 L 74.27 44 Z  M 71.48 34.73 Q 71.48 33.72 70.84 33.21 Q 70.2 32.7 69.05 32.7 L 67.41 32.7 L 67.41 36.92 L 68.81 36.92 Q 69.42 36.92 69.91 36.78 Q 70.41 36.64 70.75 36.36 Q 71.09 36.08 71.29 35.67 Q 71.48 35.27 71.48 34.73 Z  M 84.84 38.58 Q 84.84 38.94 84.83 39.18 Q 84.82 39.42 84.81 39.64 L 77.92 39.64 Q 77.92 41.14 78.75 41.95 Q 79.59 42.77 81.18 42.77 Q 81.61 42.77 82.04 42.73 Q 82.46 42.69 82.86 42.63 Q 83.26 42.58 83.63 42.5 Q 84 42.42 84.31 42.34 L 84.31 43.73 Q 83.62 43.94 82.75 44.05 Q 81.87 44.17 80.93 44.17 Q 79.67 44.17 78.76 43.83 Q 77.86 43.48 77.28 42.84 Q 76.7 42.19 76.42 41.25 Q 76.14 40.31 76.14 39.11 Q 76.14 38.08 76.43 37.16 Q 76.73 36.23 77.3 35.54 Q 77.87 34.84 78.71 34.43 Q 79.54 34.02 80.59 34.02 Q 81.62 34.02 82.41 34.34 Q 83.2 34.66 83.74 35.25 Q 84.28 35.84 84.56 36.69 Q 84.84 37.53 84.84 38.58 Z  M 83.07 38.33 Q 83.11 37.69 82.95 37.14 Q 82.79 36.59 82.46 36.2 Q 82.14 35.81 81.64 35.59 Q 81.15 35.38 80.51 35.38 Q 79.96 35.38 79.5 35.59 Q 79.04 35.81 78.71 36.2 Q 78.37 36.59 78.17 37.14 Q 77.96 37.69 77.92 38.33 L 83.07 38.33 Z  M 95.32 41.33 Q 95.32 41.84 95.14 42.25 Q 94.96 42.66 94.66 42.98 Q 94.37 43.3 93.96 43.52 Q 93.55 43.75 93.1 43.9 Q 92.65 44.05 92.17 44.11 Q 91.7 44.17 91.24 44.17 Q 90.24 44.17 89.41 44.09 Q 88.57 44 87.77 43.8 L 87.77 42.23 Q 88.63 42.48 89.48 42.61 Q 90.34 42.73 91.16 42.73 Q 92.38 42.73 92.97 42.41 Q 93.55 42.08 93.55 41.45 Q 93.55 41.2 93.47 40.99 Q 93.38 40.78 93.13 40.59 Q 92.88 40.39 92.38 40.19 Q 91.87 39.98 90.98 39.72 Q 90.3 39.53 89.74 39.28 Q 89.18 39.03 88.77 38.69 Q 88.37 38.34 88.13 37.88 Q 87.9 37.42 87.9 36.8 Q 87.9 36.39 88.09 35.91 Q 88.27 35.42 88.73 35 Q 89.2 34.58 89.98 34.3 Q 90.76 34.02 91.93 34.02 Q 92.51 34.02 93.21 34.08 Q 93.91 34.14 94.68 34.3 L 94.68 35.81 Q 93.87 35.62 93.16 35.53 Q 92.45 35.44 91.91 35.44 Q 91.27 35.44 90.84 35.53 Q 90.41 35.62 90.14 35.8 Q 89.87 35.97 89.75 36.2 Q 89.63 36.44 89.63 36.69 Q 89.63 36.95 89.73 37.17 Q 89.84 37.39 90.12 37.59 Q 90.4 37.78 90.9 37.98 Q 91.4 38.19 92.2 38.42 Q 93.07 38.67 93.66 38.95 Q 94.26 39.23 94.62 39.58 Q 94.99 39.92 95.16 40.35 Q 95.32 40.78 95.32 41.33 Z  M 107.08 39.02 Q 107.08 40.16 106.76 41.11 Q 106.44 42.06 105.84 42.74 Q 105.24 43.42 104.36 43.8 Q 103.49 44.17 102.39 44.17 Q 101.33 44.17 100.5 43.84 Q 99.66 43.52 99.08 42.88 Q 98.5 42.25 98.2 41.31 Q 97.89 40.38 97.89 39.16 Q 97.89 38.02 98.21 37.07 Q 98.54 36.12 99.14 35.45 Q 99.74 34.77 100.61 34.39 Q 101.49 34.02 102.58 34.02 Q 103.64 34.02 104.48 34.34 Q 105.32 34.67 105.89 35.3 Q 106.47 35.94 106.78 36.88 Q 107.08 37.81 107.08 39.02 Z  M 105.35 39.09 Q 105.35 38.19 105.14 37.51 Q 104.94 36.83 104.57 36.38 Q 104.21 35.92 103.68 35.7 Q 103.14 35.47 102.49 35.47 Q 101.72 35.47 101.18 35.77 Q 100.64 36.06 100.29 36.56 Q 99.94 37.06 99.79 37.72 Q 99.63 38.38 99.63 39.09 Q 99.63 40 99.82 40.69 Q 100.02 41.38 100.39 41.83 Q 100.77 42.28 101.29 42.51 Q 101.82 42.73 102.49 42.73 Q 103.25 42.73 103.79 42.44 Q 104.33 42.14 104.68 41.64 Q 105.02 41.14 105.18 40.48 Q 105.35 39.83 105.35 39.09 Z  M 117.42 44 L 115.91 44 L 115.84 42.42 Q 115.41 42.92 115.01 43.26 Q 114.61 43.59 114.22 43.8 Q 113.83 44.02 113.44 44.09 Q 113.05 44.17 112.61 44.17 Q 111.09 44.17 110.32 43.28 Q 109.55 42.39 109.55 40.59 L 109.55 34.19 L 111.25 34.19 L 111.25 40.47 Q 111.25 42.72 112.95 42.72 Q 113.27 42.72 113.56 42.62 Q 113.86 42.53 114.19 42.3 Q 114.52 42.08 114.89 41.69 Q 115.27 41.3 115.73 40.7 L 115.73 34.19 L 117.42 34.19 L 117.42 44 Z  M 120.95 34.19 L 122.5 34.19 L 122.54 36 Q 123.42 34.95 124.26 34.48 Q 125.11 34.02 125.96 34.02 Q 127.48 34.02 128.27 35 Q 129.06 35.98 129 37.94 L 127.28 37.94 Q 127.31 36.64 126.9 36.06 Q 126.5 35.48 125.71 35.48 Q 125.37 35.48 125.03 35.61 Q 124.68 35.73 124.32 36 Q 123.95 36.27 123.54 36.69 Q 123.14 37.11 122.67 37.7 L 122.67 44 L 120.95 44 L 120.95 34.19 Z  M 139.16 43.64 Q 138.49 43.89 137.8 44.02 Q 137.1 44.14 136.35 44.14 Q 134.02 44.14 132.77 42.88 Q 131.52 41.61 131.52 39.19 Q 131.52 38.03 131.88 37.09 Q 132.24 36.14 132.9 35.47 Q 133.55 34.8 134.46 34.43 Q 135.37 34.06 136.46 34.06 Q 137.23 34.06 137.89 34.16 Q 138.55 34.27 139.16 34.52 L 139.16 36.14 Q 138.52 35.81 137.87 35.66 Q 137.21 35.5 136.51 35.5 Q 135.85 35.5 135.27 35.75 Q 134.68 36 134.24 36.47 Q 133.8 36.94 133.55 37.61 Q 133.3 38.28 133.3 39.14 Q 133.3 40.91 134.16 41.8 Q 135.02 42.69 136.55 42.69 Q 137.26 42.69 137.91 42.53 Q 138.55 42.38 139.16 42.06 L 139.16 43.64 Z  M 150.82 38.58 Q 150.82 38.94 150.81 39.18 Q 150.8 39.42 150.79 39.64 L 143.89 39.64 Q 143.89 41.14 144.73 41.95 Q 145.57 42.77 147.16 42.77 Q 147.58 42.77 148.01 42.73 Q 148.44 42.69 148.84 42.63 Q 149.24 42.58 149.61 42.5 Q 149.97 42.42 150.29 42.34 L 150.29 43.73 Q 149.6 43.94 148.72 44.05 Q 147.85 44.17 146.91 44.17 Q 145.64 44.17 144.74 43.83 Q 143.83 43.48 143.25 42.84 Q 142.68 42.19 142.39 41.25 Q 142.11 40.31 142.11 39.11 Q 142.11 38.08 142.41 37.16 Q 142.71 36.23 143.28 35.54 Q 143.85 34.84 144.68 34.43 Q 145.52 34.02 146.57 34.02 Q 147.6 34.02 148.39 34.34 Q 149.18 34.66 149.71 35.25 Q 150.25 35.84 150.54 36.69 Q 150.82 37.53 150.82 38.58 Z  M 149.05 38.33 Q 149.08 37.69 148.93 37.14 Q 148.77 36.59 148.44 36.2 Q 148.11 35.81 147.62 35.59 Q 147.13 35.38 146.49 35.38 Q 145.94 35.38 145.48 35.59 Q 145.02 35.81 144.68 36.2 Q 144.35 36.59 144.14 37.14 Q 143.94 37.69 143.89 38.33 L 149.05 38.33 Z  M 167.59 32.7 L 164.65 32.7 L 164.65 31.23 L 172.28 31.23 L 172.28 32.7 L 169.34 32.7 L 169.34 42.52 L 172.28 42.52 L 172.28 44 L 164.65 44 L 164.65 42.52 L 167.59 42.52 L 167.59 32.7 Z  M 183.43 43.86 Q 182.85 44.02 182.23 44.08 Q 181.62 44.14 180.98 44.14 Q 179.13 44.14 178.23 43.3 Q 177.32 42.47 177.32 40.73 L 177.32 35.62 L 174.57 35.62 L 174.57 34.19 L 177.32 34.19 L 177.32 31.5 L 179.02 31.06 L 179.02 34.19 L 183.43 34.19 L 183.43 35.62 L 179.02 35.62 L 179.02 40.59 Q 179.02 41.66 179.59 42.18 Q 180.15 42.7 181.24 42.7 Q 181.71 42.7 182.27 42.62 Q 182.82 42.55 183.43 42.39 L 183.43 43.86 Z  M 194.8 38.58 Q 194.8 38.94 194.79 39.18 Q 194.79 39.42 194.77 39.64 L 187.88 39.64 Q 187.88 41.14 188.71 41.95 Q 189.55 42.77 191.14 42.77 Q 191.57 42.77 192 42.73 Q 192.43 42.69 192.82 42.63 Q 193.22 42.58 193.59 42.5 Q 193.96 42.42 194.27 42.34 L 194.27 43.73 Q 193.58 43.94 192.71 44.05 Q 191.83 44.17 190.89 44.17 Q 189.63 44.17 188.72 43.83 Q 187.82 43.48 187.24 42.84 Q 186.66 42.19 186.38 41.25 Q 186.1 40.31 186.1 39.11 Q 186.1 38.08 186.39 37.16 Q 186.69 36.23 187.26 35.54 Q 187.83 34.84 188.67 34.43 Q 189.5 34.02 190.55 34.02 Q 191.58 34.02 192.37 34.34 Q 193.16 34.66 193.7 35.25 Q 194.24 35.84 194.52 36.69 Q 194.8 37.53 194.8 38.58 Z  M 193.04 38.33 Q 193.07 37.69 192.91 37.14 Q 192.75 36.59 192.43 36.2 Q 192.1 35.81 191.61 35.59 Q 191.11 35.38 190.47 35.38 Q 189.93 35.38 189.46 35.59 Q 189 35.81 188.67 36.2 Q 188.33 36.59 188.13 37.14 Q 187.93 37.69 187.88 38.33 L 193.04 38.33 Z  M 204.52 44 L 204.52 36.95 Q 204.52 36.5 204.48 36.2 Q 204.44 35.91 204.37 35.74 Q 204.3 35.58 204.18 35.51 Q 204.06 35.44 203.91 35.44 Q 203.7 35.44 203.54 35.55 Q 203.38 35.67 203.19 35.94 Q 203 36.2 202.77 36.63 Q 202.53 37.06 202.22 37.7 L 202.22 44 L 200.67 44 L 200.67 37.14 Q 200.67 36.61 200.64 36.27 Q 200.61 35.94 200.53 35.76 Q 200.45 35.58 200.34 35.51 Q 200.22 35.44 200.06 35.44 Q 199.88 35.44 199.72 35.53 Q 199.56 35.62 199.38 35.88 Q 199.19 36.14 198.95 36.58 Q 198.72 37.02 198.39 37.7 L 198.39 44 L 196.83 44 L 196.83 34.19 L 198.12 34.19 L 198.2 36.06 Q 198.47 35.5 198.7 35.11 Q 198.94 34.72 199.2 34.48 Q 199.45 34.25 199.74 34.13 Q 200.03 34.02 200.38 34.02 Q 201.17 34.02 201.58 34.53 Q 201.98 35.05 201.98 36.14 Q 202.22 35.62 202.45 35.23 Q 202.67 34.84 202.93 34.57 Q 203.19 34.3 203.5 34.16 Q 203.81 34.02 204.22 34.02 Q 206.08 34.02 206.08 36.86 L 206.08 44 L 204.52 44 Z "/></g><g style="stroke-width: 3.0;stroke: rgb(0,0,0);stroke-opacity: 1.0;stroke-linecap: square;; fill: none" transform="matrix(1,0,0,1,6,4)" clip-path="url(#_2221284133373106clip-2)"><path d="M 0 27 L 0 52 L 647 52 L 647 27 Z "/></g><g style="fill: rgb(255,255,255); fill-opacity: 1.0; stroke: none" transform="matrix(1,0,0,1,6,4)" clip-path="url(#_2221284133373106clip-3)"><path d="M 0 52 L 0 400 L 647 400 L 647 52 Z "/></g><g style="stroke-width: 3.0;stroke: rgb(0,0,0);stroke-opacity: 1.0;stroke-linecap: square;; fill: none" transform="matrix(1,0,0,1,6,4)" clip-path="url(#_2221284133373106clip-3)"><path d="M 0 52 L 0 400 L 647 400 L 647 52 Z "/></g></svg>