<svg xmlns="http://www.w3.org/2000/svg" xmlns:xlink="http://www.w3.org/1999/xlink" xmlns:jfreesvg="http://www.jfree.org/jfreesvg/svg" width="653px" height="404px" text-rendering="auto" shape-rendering="auto">
<defs><clipPath id="_2194414949801745clip-0"><path d="M 0 0 L 0 34 L 399 34 L 399 0 Z "/></clipPath>
<clipPath id="_2194414949801745clip-1"><path d="M 399 0 L 399 34 L 646 34 L 646 0 Z "/></clipPath>
<clipPath id="_2194414949801745clip-2"><path d="M 0 0 L 0 400 L 647 400 L 647 0 Z "/></clipPath>
</defs>
<rect x="0" y="0" width="653" height="404" style="fill: rgb(0,0,0); fill-opacity: 1.0" transform="matrix(1,0,0,1,0,0)" /><g style="fill: rgb(255,255,255); fill-opacity: 1.0; stroke: none" transform="matrix(1,0,0,1,6,4)" clip-path="url(#_2194414949801745clip-0)"><path d="M 0 0 L 0 34 L 399 34 L 399 0 Z "/></g><rect x="39" y="2.3" width="137.45" height="29.27" style="fill: rgb(255,255,255); fill-opacity: 1.0" transform="matrix(1,0,0,1,6,4)" clip-path="url(#_2194414949801745clip-0)"/><g style="fill: rgb(0,0,0); fill-opacity: 1.0; stroke: none" transform="matrix(1,0,0,1,6,4)" clip-path="url(#_2194414949801745clip-0)"><path d="M 51.03 23 L 41.84 23 L 41.84 7.05 L 44.05 7.05 L 44.05 21.14 L 51.03 21.14 L 51.03 23 Z  M 64.54 23 L 62.65 23 L 62.57 21.02 Q 62.03 21.66 61.53 22.08 Q 61.03 22.5 60.54 22.76 Q 60.06 23.02 59.57 23.12 Q 59.07 23.22 58.53 23.22 Q 56.62 23.22 55.66 22.11 Q 54.7 21 54.7 18.75 L 54.7 10.75 L 56.82 10.75 L 56.82 18.58 Q 56.82 21.41 58.95 21.41 Q 59.34 21.41 59.71 21.29 Q 60.09 21.17 60.5 20.88 Q 60.9 20.59 61.37 20.11 Q 61.84 19.62 62.43 18.88 L 62.43 10.75 L 64.54 10.75 L 64.54 23 Z  M 77.18 23 L 77.18 14.2 Q 77.18 13.62 77.14 13.26 Q 77.1 12.89 77.01 12.68 Q 76.91 12.47 76.77 12.38 Q 76.63 12.3 76.43 12.3 Q 76.18 12.3 75.97 12.45 Q 75.77 12.59 75.53 12.92 Q 75.29 13.25 75.01 13.79 Q 74.72 14.33 74.33 15.12 L 74.33 23 L 72.38 23 L 72.38 14.44 Q 72.38 13.77 72.34 13.34 Q 72.3 12.92 72.21 12.7 Q 72.12 12.47 71.97 12.38 Q 71.82 12.3 71.62 12.3 Q 71.4 12.3 71.2 12.41 Q 71.01 12.53 70.77 12.85 Q 70.54 13.17 70.24 13.72 Q 69.94 14.27 69.54 15.12 L 69.54 23 L 67.58 23 L 67.58 10.75 L 69.21 10.75 L 69.3 13.08 Q 69.63 12.38 69.93 11.89 Q 70.22 11.41 70.54 11.11 Q 70.87 10.81 71.22 10.67 Q 71.58 10.53 72.02 10.53 Q 73.01 10.53 73.52 11.17 Q 74.04 11.81 74.04 13.17 Q 74.33 12.53 74.62 12.04 Q 74.9 11.55 75.22 11.21 Q 75.54 10.88 75.93 10.7 Q 76.32 10.53 76.83 10.53 Q 79.13 10.53 79.13 14.08 L 79.13 23 L 77.18 23 Z  M 92.66 16.66 Q 92.66 18.17 92.24 19.38 Q 91.81 20.58 91.04 21.41 Q 90.27 22.25 89.16 22.7 Q 88.05 23.14 86.66 23.14 Q 85.56 23.14 84.43 22.94 Q 83.3 22.73 82.19 22.28 L 82.19 5.75 L 84.31 5.75 L 84.31 10.5 L 84.22 12.77 Q 85.13 11.53 86.17 11.03 Q 87.22 10.53 88.41 10.53 Q 89.47 10.53 90.26 10.97 Q 91.05 11.41 91.59 12.2 Q 92.13 13 92.39 14.13 Q 92.66 15.27 92.66 16.66 Z  M 90.49 16.75 Q 90.49 15.78 90.34 14.98 Q 90.2 14.17 89.9 13.6 Q 89.59 13.03 89.12 12.7 Q 88.64 12.38 87.99 12.38 Q 87.58 12.38 87.17 12.51 Q 86.75 12.64 86.31 12.94 Q 85.86 13.23 85.37 13.73 Q 84.88 14.22 84.31 14.95 L 84.31 20.91 Q 84.94 21.14 85.59 21.28 Q 86.24 21.42 86.81 21.42 Q 87.55 21.42 88.21 21.2 Q 88.88 20.97 89.38 20.42 Q 89.89 19.88 90.19 18.98 Q 90.49 18.08 90.49 16.75 Z  M 106.29 16.22 Q 106.29 16.67 106.28 16.98 Q 106.26 17.28 106.23 17.56 L 97.64 17.56 Q 97.64 19.44 98.68 20.45 Q 99.73 21.45 101.71 21.45 Q 102.25 21.45 102.79 21.41 Q 103.32 21.36 103.82 21.29 Q 104.32 21.22 104.78 21.12 Q 105.23 21.03 105.62 20.92 L 105.62 22.67 Q 104.76 22.92 103.67 23.07 Q 102.57 23.22 101.4 23.22 Q 99.82 23.22 98.69 22.79 Q 97.56 22.36 96.83 21.55 Q 96.11 20.73 95.75 19.56 Q 95.4 18.39 95.4 16.89 Q 95.4 15.61 95.78 14.45 Q 96.15 13.3 96.86 12.42 Q 97.57 11.55 98.61 11.04 Q 99.65 10.53 100.98 10.53 Q 102.26 10.53 103.25 10.93 Q 104.23 11.33 104.91 12.07 Q 105.59 12.81 105.94 13.87 Q 106.29 14.92 106.29 16.22 Z  M 104.07 15.92 Q 104.11 15.11 103.91 14.43 Q 103.71 13.75 103.31 13.26 Q 102.9 12.77 102.29 12.49 Q 101.68 12.22 100.87 12.22 Q 100.18 12.22 99.61 12.49 Q 99.03 12.77 98.61 13.25 Q 98.2 13.73 97.95 14.42 Q 97.7 15.11 97.64 15.92 L 104.07 15.92 Z  M 110.18 10.75 L 112.12 10.75 L 112.18 13 Q 113.27 11.7 114.33 11.12 Q 115.38 10.53 116.46 10.53 Q 118.35 10.53 119.33 11.76 Q 120.32 12.98 120.26 15.42 L 118.1 15.42 Q 118.13 13.81 117.63 13.09 Q 117.13 12.36 116.15 12.36 Q 115.73 12.36 115.29 12.51 Q 114.85 12.66 114.4 12.99 Q 113.94 13.33 113.43 13.85 Q 112.91 14.38 112.33 15.12 L 112.33 23 L 110.18 23 L 110.18 10.75 Z  M 133.89 16.66 Q 133.89 18.28 133.44 19.51 Q 132.99 20.73 132.18 21.54 Q 131.38 22.34 130.28 22.74 Q 129.17 23.14 127.89 23.14 Q 127.3 23.14 126.72 23.09 Q 126.14 23.03 125.55 22.88 L 125.55 28 L 123.42 28 L 123.42 10.75 L 125.31 10.75 L 125.46 12.8 Q 126.36 11.53 127.4 11.03 Q 128.44 10.53 129.64 10.53 Q 130.71 10.53 131.49 10.97 Q 132.28 11.41 132.82 12.2 Q 133.36 13 133.63 14.13 Q 133.89 15.27 133.89 16.66 Z  M 131.72 16.75 Q 131.72 15.78 131.58 14.98 Q 131.44 14.17 131.13 13.6 Q 130.83 13.03 130.35 12.7 Q 129.88 12.38 129.22 12.38 Q 128.81 12.38 128.4 12.51 Q 127.99 12.64 127.54 12.94 Q 127.1 13.23 126.6 13.73 Q 126.11 14.22 125.55 14.95 L 125.55 20.91 Q 126.13 21.14 126.78 21.28 Q 127.42 21.42 128.05 21.42 Q 129.77 21.42 130.74 20.26 Q 131.72 19.09 131.72 16.75 Z  M 141.34 12.5 L 137.72 12.5 L 137.72 10.75 L 143.5 10.75 L 143.5 21.23 L 147.14 21.23 L 147.14 23 L 137.31 23 L 137.31 21.23 L 141.34 21.23 L 141.34 12.5 Z  M 142.09 5.61 Q 142.45 5.61 142.75 5.73 Q 143.06 5.86 143.28 6.09 Q 143.5 6.33 143.63 6.62 Q 143.76 6.92 143.76 7.28 Q 143.76 7.62 143.63 7.93 Q 143.5 8.23 143.28 8.46 Q 143.06 8.69 142.75 8.82 Q 142.45 8.95 142.09 8.95 Q 141.73 8.95 141.43 8.82 Q 141.12 8.69 140.9 8.46 Q 140.67 8.23 140.54 7.93 Q 140.42 7.62 140.42 7.28 Q 140.42 6.92 140.54 6.62 Q 140.67 6.33 140.9 6.09 Q 141.12 5.86 141.43 5.73 Q 141.73 5.61 142.09 5.61 Z  M 155.09 7.5 L 151.46 7.5 L 151.46 5.75 L 157.24 5.75 L 157.24 21.23 L 160.88 21.23 L 160.88 23 L 151.05 23 L 151.05 21.23 L 155.09 21.23 L 155.09 7.5 Z  M 175.02 16.22 Q 175.02 16.67 175 16.98 Q 174.99 17.28 174.96 17.56 L 166.36 17.56 Q 166.36 19.44 167.41 20.45 Q 168.46 21.45 170.44 21.45 Q 170.97 21.45 171.51 21.41 Q 172.05 21.36 172.55 21.29 Q 173.05 21.22 173.5 21.12 Q 173.96 21.03 174.35 20.92 L 174.35 22.67 Q 173.49 22.92 172.39 23.07 Q 171.3 23.22 170.13 23.22 Q 168.55 23.22 167.42 22.79 Q 166.28 22.36 165.56 21.55 Q 164.83 20.73 164.48 19.56 Q 164.13 18.39 164.13 16.89 Q 164.13 15.61 164.5 14.45 Q 164.88 13.3 165.59 12.42 Q 166.3 11.55 167.34 11.04 Q 168.38 10.53 169.71 10.53 Q 170.99 10.53 171.97 10.93 Q 172.96 11.33 173.64 12.07 Q 174.32 12.81 174.67 13.87 Q 175.02 14.92 175.02 16.22 Z  M 172.8 15.92 Q 172.83 15.11 172.64 14.43 Q 172.44 13.75 172.03 13.26 Q 171.63 12.77 171.02 12.49 Q 170.41 12.22 169.6 12.22 Q 168.91 12.22 168.33 12.49 Q 167.75 12.77 167.34 13.25 Q 166.92 13.73 166.67 14.42 Q 166.42 15.11 166.36 15.92 L 172.8 15.92 Z "/></g><g style="stroke-width: 3.0;stroke: rgb(0,0,0);stroke-opacity: 1.0;stroke-linecap: square;; fill: none" transform="matrix(1,0,0,1,6,4)" clip-path="url(#_2194414949801745clip-0)"><path d="M 0 0 L 0 34 L 399 34 L 399 0 Z "/></g><g style="fill: rgb(255,255,255); fill-opacity: 1.0; stroke: none" transform="matrix(1,0,0,1,6,4)" clip-path="url(#_2194414949801745clip-1)"><path d="M 399 0 L 399 34 L 646 34 L 646 0 Z "/></g><rect x="470" y="2.3" width="151.2" height="29.27" style="fill: rgb(255,255,255); fill-opacity: 1.0" transform="matrix(1,0,0,1,6,4)" clip-path="url(#_2194414949801745clip-1)"/><g style="fill: rgb(0,0,255); fill-opacity: 1.0; stroke: none" transform="matrix(1,0,0,1,6,4)" clip-path="url(#_2194414949801745clip-1)"><path d="M 480.23 28 L 474.22 28 L 474.22 5.33 L 480.23 5.33 L 480.23 7.03 L 476.23 7.03 L 476.23 26.3 L 480.23 26.3 L 480.23 28 Z  M 495.28 23 L 486.2 23 L 486.2 7.05 L 495.28 7.05 L 495.28 8.88 L 488.37 8.88 L 488.37 13.81 L 495 13.81 L 495 15.66 L 488.37 15.66 L 488.37 21.14 L 495.28 21.14 L 495.28 23 Z  M 511.12 23 L 508.74 23 L 507.63 19.52 L 500.99 19.52 L 499.87 23 L 497.62 23 L 502.91 7.05 L 505.9 7.05 L 511.12 23 Z  M 507.01 17.58 L 504.32 9.05 L 501.62 17.58 L 507.01 17.58 Z  M 524.06 23 L 521.61 23 L 519.24 17.89 Q 518.97 17.31 518.69 16.93 Q 518.41 16.55 518.08 16.32 Q 517.75 16.09 517.37 15.99 Q 516.99 15.89 516.52 15.89 L 515.49 15.89 L 515.49 23 L 513.31 23 L 513.31 7.05 L 517.58 7.05 Q 518.97 7.05 519.97 7.35 Q 520.97 7.66 521.61 8.2 Q 522.25 8.75 522.56 9.52 Q 522.86 10.3 522.86 11.25 Q 522.86 11.98 522.64 12.65 Q 522.42 13.31 521.99 13.86 Q 521.55 14.41 520.91 14.8 Q 520.27 15.2 519.44 15.39 Q 520.11 15.62 520.58 16.2 Q 521.05 16.78 521.53 17.75 L 524.06 23 Z  M 520.58 11.42 Q 520.58 10.14 519.78 9.51 Q 518.99 8.88 517.53 8.88 L 515.49 8.88 L 515.49 14.16 L 517.24 14.16 Q 518.02 14.16 518.63 13.98 Q 519.25 13.8 519.68 13.45 Q 520.11 13.09 520.34 12.59 Q 520.58 12.09 520.58 11.42 Z  M 537.68 8.91 L 532.95 8.91 L 532.95 23 L 530.76 23 L 530.76 8.91 L 526.03 8.91 L 526.03 7.05 L 537.68 7.05 L 537.68 8.91 Z  M 551.13 23 L 548.96 23 L 548.96 15.67 L 542.26 15.67 L 542.26 23 L 540.08 23 L 540.08 7.05 L 542.26 7.05 L 542.26 13.8 L 548.96 13.8 L 548.96 7.05 L 551.13 7.05 L 551.13 23 Z  M 562 28 L 555.99 28 L 555.99 26.3 L 559.96 26.3 L 559.96 7.03 L 555.99 7.03 L 555.99 5.33 L 562 5.33 L 562 28 Z  M 568.17 10.75 L 570.06 10.75 L 570.15 12.72 Q 570.68 12.09 571.18 11.67 Q 571.68 11.25 572.17 10.99 Q 572.65 10.73 573.15 10.63 Q 573.65 10.53 574.18 10.53 Q 576.08 10.53 577.04 11.65 Q 578.01 12.77 578.01 15 L 578.01 23 L 575.9 23 L 575.9 15.17 Q 575.9 13.73 575.36 13.05 Q 574.83 12.36 573.76 12.36 Q 573.37 12.36 573 12.48 Q 572.62 12.59 572.22 12.88 Q 571.83 13.16 571.35 13.65 Q 570.87 14.14 570.29 14.88 L 570.29 23 L 568.17 23 L 568.17 10.75 Z  M 591.76 23 L 589.87 23 L 589.79 21.02 Q 589.24 21.66 588.74 22.08 Q 588.24 22.5 587.76 22.76 Q 587.27 23.02 586.78 23.12 Q 586.29 23.22 585.74 23.22 Q 583.84 23.22 582.88 22.11 Q 581.91 21 581.91 18.75 L 581.91 10.75 L 584.04 10.75 L 584.04 18.58 Q 584.04 21.41 586.16 21.41 Q 586.55 21.41 586.93 21.29 Q 587.3 21.17 587.71 20.88 Q 588.12 20.59 588.59 20.11 Q 589.05 19.62 589.65 18.88 L 589.65 10.75 L 591.76 10.75 L 591.76 23 Z  M 599.83 7.5 L 596.21 7.5 L 596.21 5.75 L 601.99 5.75 L 601.99 21.23 L 605.63 21.23 L 605.63 23 L 595.8 23 L 595.8 21.23 L 599.83 21.23 L 599.83 7.5 Z  M 613.58 7.5 L 609.95 7.5 L 609.95 5.75 L 615.73 5.75 L 615.73 21.23 L 619.37 21.23 L 619.37 23 L 609.54 23 L 609.54 21.23 L 613.58 21.23 L 613.58 7.5 Z "/></g><g style="stroke-width: 3.0;stroke: rgb(0,0,0);stroke-opacity: 1.0;stroke-linecap: square;; fill: none" transform="matrix(1,0,0,1,6,4)" clip-path="url(#_2194414949801745clip-1)"><path d="M 399 0 L 399 34 L 646 34 L 646 0 Z "/></g><g style="fill: rgb(255,255,255); fill-opacity: 1.0; stroke: none" transform="matrix(1,0,0,1,6,4)" ><path d="M 0 34 L 0 59 L 647 59 L 647 34 Z "/></g><rect x="64" y="34.44" width="142.95" height="23.42" style="fill: rgb(255,255,255); fill-opacity: 1.0" transform="matrix(1,0,0,1,6,4)" clip-path="url(#_2194414949801745clip-2)"/><g style="fill: rgb(0,0,0); fill-opacity: 1.0; stroke: none" transform="matrix(1,0,0,1,6,4)" clip-path="url(#_2194414949801745clip-2)"><path d="M 74.27 51 L 72.3 51 L 70.39 46.92 Q 70.19 46.45 69.96 46.14 Q 69.73 45.83 69.48 45.65 Q 69.22 45.47 68.91 45.39 Q 68.59 45.31 68.22 45.31 L 67.41 45.31 L 67.41 51 L 65.66 51 L 65.66 38.23 L 69.08 38.23 Q 70.19 38.23 70.99 38.48 Q 71.8 38.72 72.3 39.16 Q 72.81 39.61 73.05 40.23 Q 73.3 40.84 73.3 41.59 Q 73.3 42.19 73.12 42.72 Q 72.95 43.25 72.6 43.69 Q 72.25 44.12 71.74 44.45 Q 71.23 44.77 70.56 44.92 Q 71.09 45.09 71.48 45.56 Q 71.86 46.03 72.25 46.8 L 74.27 51 Z  M 71.48 41.73 Q 71.48 40.72 70.84 40.21 Q 70.2 39.7 69.05 39.7 L 67.41 39.7 L 67.41 43.92 L 68.81 43.92 Q 69.42 43.92 69.91 43.78 Q 70.41 43.64 70.75 43.36 Q 71.09 43.08 71.29 42.67 Q 71.48 42.27 71.48 41.73 Z  M 84.84 45.58 Q 84.84 45.94 84.83 46.18 Q 84.82 46.42 84.81 46.64 L 77.92 46.64 Q 77.92 48.14 78.75 48.95 Q 79.59 49.77 81.18 49.77 Q 81.61 49.77 82.04 49.73 Q 82.46 49.69 82.86 49.63 Q 83.26 49.58 83.63 49.5 Q 84 49.42 84.31 49.34 L 84.31 50.73 Q 83.62 50.94 82.75 51.05 Q 81.87 51.17 80.93 51.17 Q 79.67 51.17 78.76 50.83 Q 77.86 50.48 77.28 49.84 Q 76.7 49.19 76.42 48.25 Q 76.14 47.31 76.14 46.11 Q 76.14 45.08 76.43 44.16 Q 76.73 43.23 77.3 42.54 Q 77.87 41.84 78.71 41.43 Q 79.54 41.02 80.59 41.02 Q 81.62 41.02 82.41 41.34 Q 83.2 41.66 83.74 42.25 Q 84.28 42.84 84.56 43.69 Q 84.84 44.53 84.84 45.58 Z  M 83.07 45.33 Q 83.11 44.69 82.95 44.14 Q 82.79 43.59 82.46 43.2 Q 82.14 42.81 81.64 42.59 Q 81.15 42.38 80.51 42.38 Q 79.96 42.38 79.5 42.59 Q 79.04 42.81 78.71 43.2 Q 78.37 43.59 78.17 44.14 Q 77.96 44.69 77.92 45.33 L 83.07 45.33 Z  M 95.32 48.33 Q 95.32 48.84 95.14 49.25 Q 94.96 49.66 94.66 49.98 Q 94.37 50.3 93.96 50.52 Q 93.55 50.75 93.1 50.9 Q 92.65 51.05 92.17 51.11 Q 91.7 51.17 91.24 51.17 Q 90.24 51.17 89.41 51.09 Q 88.57 51 87.77 50.8 L 87.77 49.23 Q 88.63 49.48 89.48 49.61 Q 90.34 49.73 91.16 49.73 Q 92.38 49.73 92.97 49.41 Q 93.55 49.08 93.55 48.45 Q 93.55 48.2 93.47 47.99 Q 93.38 47.78 93.13 47.59 Q 92.88 47.39 92.38 47.19 Q 91.87 46.98 90.98 46.72 Q 90.3 46.53 89.74 46.28 Q 89.18 46.03 88.77 45.69 Q 88.37 45.34 88.13 44.88 Q 87.9 44.42 87.9 43.8 Q 87.9 43.39 88.09 42.91 Q 88.27 42.42 88.73 42 Q 89.2 41.58 89.98 41.3 Q 90.76 41.02 91.93 41.02 Q 92.51 41.02 93.21 41.08 Q 93.91 41.14 94.68 41.3 L 94.68 42.81 Q 93.87 42.62 93.16 42.53 Q 92.45 42.44 91.91 42.44 Q 91.27 42.44 90.84 42.53 Q 90.41 42.62 90.14 42.8 Q 89.87 42.97 89.75 43.2 Q 89.63 43.44 89.63 43.69 Q 89.63 43.95 89.73 44.17 Q 89.84 44.39 90.12 44.59 Q 90.4 44.78 90.9 44.98 Q 91.4 45.19 92.2 45.42 Q 93.07 45.67 93.66 45.95 Q 94.26 46.23 94.62 46.58 Q 94.99 46.92 95.16 47.35 Q 95.32 47.78 95.32 48.33 Z  M 107.08 46.02 Q 107.08 47.16 106.76 48.11 Q 106.44 49.06 105.84 49.74 Q 105.24 50.42 104.36 50.8 Q 103.49 51.17 102.39 51.17 Q 101.33 51.17 100.5 50.84 Q 99.66 50.52 99.08 49.88 Q 98.5 49.25 98.2 48.31 Q 97.89 47.38 97.89 46.16 Q 97.89 45.02 98.21 44.07 Q 98.54 43.12 99.14 42.45 Q 99.74 41.77 100.61 41.39 Q 101.49 41.02 102.58 41.02 Q 103.64 41.02 104.48 41.34 Q 105.32 41.67 105.89 42.3 Q 106.47 42.94 106.78 43.88 Q 107.08 44.81 107.08 46.02 Z  M 105.35 46.09 Q 105.35 45.19 105.14 44.51 Q 104.94 43.83 104.57 43.38 Q 104.21 42.92 103.68 42.7 Q 103.14 42.47 102.49 42.47 Q 101.72 42.47 101.18 42.77 Q 100.64 43.06 100.29 43.56 Q 99.94 44.06 99.79 44.72 Q 99.63 45.38 99.63 46.09 Q 99.63 47 99.82 47.69 Q 100.02 48.38 100.39 48.83 Q 100.77 49.28 101.29 49.51 Q 101.82 49.73 102.49 49.73 Q 103.25 49.73 103.79 49.44 Q 104.33 49.14 104.68 48.64 Q 105.02 48.14 105.18 47.48 Q 105.35 46.83 105.35 46.09 Z  M 117.42 51 L 115.91 51 L 115.84 49.42 Q 115.41 49.92 115.01 50.26 Q 114.61 50.59 114.22 50.8 Q 113.83 51.02 113.44 51.09 Q 113.05 51.17 112.61 51.17 Q 111.09 51.17 110.32 50.28 Q 109.55 49.39 109.55 47.59 L 109.55 41.19 L 111.25 41.19 L 111.25 47.47 Q 111.25 49.72 112.95 49.72 Q 113.27 49.72 113.56 49.62 Q 113.86 49.53 114.19 49.3 Q 114.52 49.08 114.89 48.69 Q 115.27 48.3 115.73 47.7 L 115.73 41.19 L 117.42 41.19 L 117.42 51 Z  M 120.95 41.19 L 122.5 41.19 L 122.54 43 Q 123.42 41.95 124.26 41.48 Q 125.11 41.02 125.96 41.02 Q 127.48 41.02 128.27 42 Q 129.06 42.98 129 44.94 L 127.28 44.94 Q 127.31 43.64 126.9 43.06 Q 126.5 42.48 125.71 42.48 Q 125.37 42.48 125.03 42.61 Q 124.68 42.73 124.32 43 Q 123.95 43.27 123.54 43.69 Q 123.14 44.11 122.67 44.7 L 122.67 51 L 120.95 51 L 120.95 41.19 Z  M 139.16 50.64 Q 138.49 50.89 137.8 51.02 Q 137.1 51.14 136.35 51.14 Q 134.02 51.14 132.77 49.88 Q 131.52 48.61 131.52 46.19 Q 131.52 45.03 131.88 44.09 Q 132.24 43.14 132.9 42.47 Q 133.55 41.8 134.46 41.43 Q 135.37 41.06 136.46 41.06 Q 137.23 41.06 137.89 41.16 Q 138.55 41.27 139.16 41.52 L 139.16 43.14 Q 138.52 42.81 137.87 42.66 Q 137.21 42.5 136.51 42.5 Q 135.85 42.5 135.27 42.75 Q 134.68 43 134.24 43.47 Q 133.8 43.94 133.55 44.61 Q 133.3 45.28 133.3 46.14 Q 133.3 47.91 134.16 48.8 Q 135.02 49.69 136.55 49.69 Q 137.26 49.69 137.91 49.53 Q 138.55 49.38 139.16 49.06 L 139.16 50.64 Z  M 150.82 45.58 Q 150.82 45.94 150.81 46.18 Q 150.8 46.42 150.79 46.64 L 143.89 46.64 Q 143.89 48.14 144.73 48.95 Q 145.57 49.77 147.16 49.77 Q 147.58 49.77 148.01 49.73 Q 148.44 49.69 148.84 49.63 Q 149.24 49.58 149.61 49.5 Q 149.97 49.42 150.29 49.34 L 150.29 50.73 Q 149.6 50.94 148.72 51.05 Q 147.85 51.17 146.91 51.17 Q 145.64 51.17 144.74 50.83 Q 143.83 50.48 143.25 49.84 Q 142.68 49.19 142.39 48.25 Q 142.11 47.31 142.11 46.11 Q 142.11 45.08 142.41 44.16 Q 142.71 43.23 143.28 42.54 Q 143.85 41.84 144.68 41.43 Q 145.52 41.02 146.57 41.02 Q 147.6 41.02 148.39 41.34 Q 149.18 41.66 149.71 42.25 Q 150.25 42.84 150.54 43.69 Q 150.82 44.53 150.82 45.58 Z  M 149.05 45.33 Q 149.08 44.69 148.93 44.14 Q 148.77 43.59 148.44 43.2 Q 148.11 42.81 147.62 42.59 Q 147.13 42.38 146.49 42.38 Q 145.94 42.38 145.48 42.59 Q 145.02 42.81 144.68 43.2 Q 144.35 43.59 144.14 44.14 Q 143.94 44.69 143.89 45.33 L 149.05 45.33 Z  M 167.59 39.7 L 164.65 39.7 L 164.65 38.23 L 172.28 38.23 L 172.28 39.7 L 169.34 39.7 L 169.34 49.52 L 172.28 49.52 L 172.28 51 L 164.65 51 L 164.65 49.52 L 167.59 49.52 L 167.59 39.7 Z  M 183.43 50.86 Q 182.85 51.02 182.23 51.08 Q 181.62 51.14 180.98 51.14 Q 179.13 51.14 178.23 50.3 Q 177.32 49.47 177.32 47.73 L 177.32 42.62 L 174.57 42.62 L 174.57 41.19 L 177.32 41.19 L 177.32 38.5 L 179.02 38.06 L 179.02 41.19 L 183.43 41.19 L 183.43 42.62 L 179.02 42.62 L 179.02 47.59 Q 179.02 48.66 179.59 49.18 Q 180.15 49.7 181.24 49.7 Q 181.71 49.7 182.27 49.62 Q 182.82 49.55 183.43 49.39 L 183.43 50.86 Z  M 194.8 45.58 Q 194.8 45.94 194.79 46.18 Q 194.79 46.42 194.77 46.64 L 187.88 46.64 Q 187.88 48.14 188.71 48.95 Q 189.55 49.77 191.14 49.77 Q 191.57 49.77 192 49.73 Q 192.43 49.69 192.82 49.63 Q 193.22 49.58 193.59 49.5 Q 193.96 49.42 194.27 49.34 L 194.27 50.73 Q 193.58 50.94 192.71 51.05 Q 191.83 51.17 190.89 51.17 Q 189.63 51.17 188.72 50.83 Q 187.82 50.48 187.24 49.84 Q 186.66 49.19 186.38 48.25 Q 186.1 47.31 186.1 46.11 Q 186.1 45.08 186.39 44.16 Q 186.69 43.23 187.26 42.54 Q 187.83 41.84 188.67 41.43 Q 189.5 41.02 190.55 41.02 Q 191.58 41.02 192.37 41.34 Q 193.16 41.66 193.7 42.25 Q 194.24 42.84 194.52 43.69 Q 194.8 44.53 194.8 45.58 Z  M 193.04 45.33 Q 193.07 44.69 192.91 44.14 Q 192.75 43.59 192.43 43.2 Q 192.1 42.81 191.61 42.59 Q 191.11 42.38 190.47 42.38 Q 189.93 42.38 189.46 42.59 Q 189 42.81 188.67 43.2 Q 188.33 43.59 188.13 44.14 Q 187.93 44.69 187.88 45.33 L 193.04 45.33 Z  M 204.52 51 L 204.52 43.95 Q 204.52 43.5 204.48 43.2 Q 204.44 42.91 204.37 42.74 Q 204.3 42.58 204.18 42.51 Q 204.06 42.44 203.91 42.44 Q 203.7 42.44 203.54 42.55 Q 203.38 42.67 203.19 42.94 Q 203 43.2 202.77 43.63 Q 202.53 44.06 202.22 44.7 L 202.22 51 L 200.67 51 L 200.67 44.14 Q 200.67 43.61 200.64 43.27 Q 200.61 42.94 200.53 42.76 Q 200.45 42.58 200.34 42.51 Q 200.22 42.44 200.06 42.44 Q 199.88 42.44 199.72 42.53 Q 199.56 42.62 199.38 42.88 Q 199.19 43.14 198.95 43.58 Q 198.72 44.02 198.39 44.7 L 198.39 51 L 196.83 51 L 196.83 41.19 L 198.12 41.19 L 198.2 43.06 Q 198.47 42.5 198.7 42.11 Q 198.94 41.72 199.2 41.48 Q 199.45 41.25 199.74 41.13 Q 200.03 41.02 200.38 41.02 Q 201.17 41.02 201.58 41.53 Q 201.98 42.05 201.98 43.14 Q 202.22 42.62 202.45 42.23 Q 202.67 41.84 202.93 41.57 Q 203.19 41.3 203.5 41.16 Q 203.81 41.02 204.22 41.02 Q 206.08 41.02 206.08 43.86 L 206.08 51 L 204.52 51 Z "/></g><g style="stroke-width: 3.0;stroke: rgb(0,0,0);stroke-opacity: 1.0;stroke-linecap: square;; fill: none" transform="matrix(1,0,0,1,6,4)" clip-path="url(#_2194414949801745clip-2)"><path d="M 0 34 L 0 59 L 647 59 L 647 34 Z "/></g></svg>