<svg xmlns="http://www.w3.org/2000/svg" xmlns:xlink="http://www.w3.org/1999/xlink" xmlns:jfreesvg="http://www.jfree.org/jfreesvg/svg" width="653px" height="404px" text-rendering="auto" shape-rendering="auto">
<defs><clipPath id="_2154435721992336clip-0"><path d="M 0 0 L 0 34 L 399 34 L 399 0 Z "/></clipPath>
<clipPath id="_2154435721992336clip-1"><path d=""/></clipPath>
</defs>
<rect x="0" y="0" width="653" height="404" style="fill: rgb(0,0,0); fill-opacity: 1.0" transform="matrix(1,0,0,1,0,0)" /><g style="fill: rgb(255,255,255); fill-opacity: 1.0; stroke: none" transform="matrix(1,0,0,1,6,4)" ><path d="M 0 0 L 0 34 L 399 34 L 399 0 Z "/></g><rect x="39" y="2.3" width="137.45" height="29.27" style="fill: rgb(255,255,255); fill-opacity: 1.0" transform="matrix(1,0,0,1,6,4)" clip-path="url(#_2154435721992336clip-0)"/><g style="fill: rgb(0,0,0); fill-opacity: 1.0; stroke: none" transform="matrix(1,0,0,1,6,4)" clip-path="url(#_2154435721992336clip-0)"><path d="M 51.03 23 L 41.84 23 L 41.84 7.05 L 44.05 7.05 L 44.05 21.14 L 51.03 21.14 L 51.03 23 Z  M 64.54 23 L 62.65 23 L 62.57 21.02 Q 62.03 21.66 61.53 22.08 Q 61.03 22.5 60.54 22.76 Q 60.06 23.02 59.57 23.12 Q 59.07 23.22 58.53 23.22 Q 56.62 23.22 55.66 22.11 Q 54.7 21 54.7 18.75 L 54.7 10.75 L 56.82 10.75 L 56.82 18.58 Q 56.82 21.41 58.95 21.41 Q 59.34 21.41 59.71 21.29 Q 60.09 21.17 60.5 20.88 Q 60.9 20.59 61.37 20.11 Q 61.84 19.62 62.43 18.88 L 62.43 10.75 L 64.54 10.75 L 64.54 23 Z  M 77.18 23 L 77.18 14.2 Q 77.18 13.62 77.14 13.26 Q 77.1 12.89 77.01 12.68 Q 76.91 12.47 76.77 12.38 Q 76.63 12.3 76.43 12.3 Q 76.18 12.3 75.97 12.45 Q 75.77 12.59 75.53 12.92 Q 75.29 13.25 75.01 13.79 Q 74.72 14.33 74.33 15.12 L 74.33 23 L 72.38 23 L 72.38 14.44 Q 72.38 13.77 72.34 13.34 Q 72.3 12.92 72.21 12.7 Q 72.12 12.47 71.97 12.38 Q 71.82 12.3 71.62 12.3 Q 71.4 12.3 71.2 12.41 Q 71.01 12.53 70.77 12.85 Q 70.54 13.17 70.24 13.72 Q 69.94 14.27 69.54 15.12 L 69.54 23 L 67.58 23 L 67.58 10.75 L 69.21 10.75 L 69.3 13.08 Q 69.63 12.38 69.93 11.89 Q 70.22 11.41 70.54 11.11 Q 70.87 10.81 71.22 10.67 Q 71.58 10.53 72.02 10.53 Q 73.01 10.53 73.52 11.17 Q 74.04 11.81 74.04 13.17 Q 74.33 12.53 74.62 12.04 Q 74.9 11.55 75.22 11.21 Q 75.54 10.88 75.93 10.7 Q 76.32 10.53 76.83 10.53 Q 79.13 10.53 79.13 14.08 L 79.13 23 L 77.18 23 Z  M 92.66 16.66 Q 92.66 18.17 92.24 19.38 Q 91.81 20.58 91.04 21.41 Q 90.27 22.25 89.16 22.7 Q 88.05 23.14 86.66 23.14 Q 85.56 23.14 84.43 22.94 Q 83.3 22.73 82.19 22.28 L 82.19 5.75 L 84.31 5.75 L 84.31 10.5 L 84.22 12.77 Q 85.13 11.53 86.17 11.03 Q 87.22 10.53 88.41 10.53 Q 89.47 10.53 90.26 10.97 Q 91.05 11.41 91.59 12.2 Q 92.13 13 92.39 14.13 Q 92.66 15.27 92.66 16.66 Z  M 90.49 16.75 Q 90.49 15.78 90.34 14.98 Q 90.2 14.17 89.9 13.6 Q 89.59 13.03 89.12 12.7 Q 88.64 12.38 87.99 12.38 Q 87.58 12.38 87.17 12.51 Q 86.75 12.64 86.31 12.94 Q 85.86 13.23 85.37 13.73 Q 84.88 14.22 84.31 14.95 L 84.31 20.91 Q 84.94 21.14 85.59 21.28 Q 86.24 21.42 86.81 21.42 Q 87.55 21.42 88.21 21.2 Q 88.88 20.97 89.38 20.42 Q 89.89 19.88 90.19 18.98 Q 90.49 18.08 90.49 16.75 Z  M 106.29 16.22 Q 106.29 16.67 106.28 16.98 Q 106.26 17.28 106.23 17.56 L 97.64 17.56 Q 97.64 19.44 98.68 20.45 Q 99.73 21.45 101.71 21.45 Q 102.25 21.45 102.79 21.41 Q 103.32 21.36 103.82 21.29 Q 104.32 21.22 104.78 21.12 Q 105.23 21.03 105.62 20.92 L 105.62 22.67 Q 104.76 22.92 103.67 23.07 Q 102.57 23.22 101.4 23.22 Q 99.82 23.22 98.69 22.79 Q 97.56 22.36 96.83 21.55 Q 96.11 20.73 95.75 19.56 Q 95.4 18.39 95.4 16.89 Q 95.4 15.61 95.78 14.45 Q 96.15 13.3 96.86 12.42 Q 97.57 11.55 98.61 11.04 Q 99.65 10.53 100.98 10.53 Q 102.26 10.53 103.25 10.93 Q 104.23 11.33 104.91 12.07 Q 105.59 12.81 105.94 13.87 Q 106.29 14.92 106.29 16.22 Z  M 104.07 15.92 Q 104.11 15.11 103.91 14.43 Q 103.71 13.75 103.31 13.26 Q 102.9 12.77 102.29 12.49 Q 101.68 12.22 100.87 12.22 Q 100.18 12.22 99.61 12.49 Q 99.03 12.77 98.61 13.25 Q 98.2 13.73 97.95 14.42 Q 97.7 15.11 97.64 15.92 L 104.07 15.92 Z  M 110.18 10.75 L 112.12 10.75 L 112.18 13 Q 113.27 11.7 114.33 11.12 Q 115.38 10.53 116.46 10.53 Q 118.35 10.53 119.33 11.76 Q 120.32 12.98 120.26 15.42 L 118.1 15.42 Q 118.13 13.81 117.63 13.09 Q 117.13 12.36 116.15 12.36 Q 115.73 12.36 115.29 12.51 Q 114.85 12.66 114.4 12.99 Q 113.94 13.33 113.43 13.85 Q 112.91 14.38 112.33 15.12 L 112.33 23 L 110.18 23 L 110.18 10.75 Z  M 133.89 16.66 Q 133.89 18.28 133.44 19.51 Q 132.99 20.73 132.18 21.54 Q 131.38 22.34 130.28 22.74 Q 129.17 23.14 127.89 23.14 Q 127.3 23.14 126.72 23.09 Q 126.14 23.03 125.55 22.88 L 125.55 28 L 123.42 28 L 123.42 10.75 L 125.31 10.75 L 125.46 12.8 Q 126.36 11.53 127.4 11.03 Q 128.44 10.53 129.64 10.53 Q 130.71 10.53 131.49 10.97 Q 132.28 11.41 132.82 12.2 Q 133.36 13 133.63 14.13 Q 133.89 15.27 133.89 16.66 Z  M 131.72 16.75 Q 131.72 15.78 131.58 14.98 Q 131.44 14.17 131.13 13.6 Q 130.83 13.03 130.35 12.7 Q 129.88 12.38 129.22 12.38 Q 128.81 12.38 128.4 12.51 Q 127.99 12.64 127.54 12.94 Q 127.1 13.23 126.6 13.73 Q 126.11 14.22 125.55 14.95 L 125.55 20.91 Q 126.13 21.14 126.78 21.28 Q 127.42 21.42 128.05 21.42 Q 129.77 21.42 130.74 20.26 Q 131.72 19.09 131.72 16.75 Z  M 141.34 12.5 L 137.72 12.5 L 137.72 10.75 L 143.5 10.75 L 143.5 21.23 L 147.14 21.23 L 147.14 23 L 137.31 23 L 137.31 21.23 L 141.34 21.23 L 141.34 12.5 Z  M 142.09 5.61 Q 142.45 5.61 142.75 5.73 Q 143.06 5.86 143.28 6.09 Q 143.5 6.33 143.63 6.62 Q 143.76 6.92 143.76 7.28 Q 143.76 7.62 143.63 7.93 Q 143.5 8.23 143.28 8.46 Q 143.06 8.69 142.75 8.82 Q 142.45 8.95 142.09 8.95 Q 141.73 8.95 141.43 8.82 Q 141.12 8.69 140.9 8.46 Q 140.67 8.23 140.54 7.93 Q 140.42 7.62 140.42 7.28 Q 140.42 6.92 140.54 6.62 Q 140.67 6.33 140.9 6.09 Q 141.12 5.86 141.43 5.73 Q 141.73 5.61 142.09 5.61 Z  M 155.09 7.5 L 151.46 7.5 L 151.46 5.75 L 157.24 5.75 L 157.24 21.23 L 160.88 21.23 L 160.88 23 L 151.05 23 L 151.05 21.23 L 155.09 21.23 L 155.09 7.5 Z  M 175.02 16.22 Q 175.02 16.67 175 16.98 Q 174.99 17.28 174.96 17.56 L 166.36 17.56 Q 166.36 19.44 167.41 20.45 Q 168.46 21.45 170.44 21.45 Q 170.97 21.45 171.51 21.41 Q 172.05 21.36 172.55 21.29 Q 173.05 21.22 173.5 21.12 Q 173.96 21.03 174.35 20.92 L 174.35 22.67 Q 173.49 22.92 172.39 23.07 Q 171.3 23.22 170.13 23.22 Q 168.55 23.22 167.42 22.79 Q 166.28 22.36 165.56 21.55 Q 164.83 20.73 164.48 19.56 Q 164.13 18.39 164.13 16.89 Q 164.13 15.61 164.5 14.45 Q 164.88 13.3 165.59 12.42 Q 166.3 11.55 167.34 11.04 Q 168.38 10.53 169.71 10.53 Q 170.99 10.53 171.97 10.93 Q 172.96 11.33 173.64 12.07 Q 174.32 12.81 174.67 13.87 Q 175.02 14.92 175.02 16.22 Z  M 172.8 15.92 Q 172.83 15.11 172.64 14.43 Q 172.44 13.75 172.03 13.26 Q 171.63 12.77 171.02 12.49 Q 170.41 12.22 169.6 12.22 Q 168.91 12.22 168.33 12.49 Q 167.75 12.77 167.34 13.25 Q 166.92 13.73 166.67 14.42 Q 166.42 15.11 166.36 15.92 L 172.8 15.92 Z "/></g><g style="stroke-width: 3.0;stroke: rgb(0,0,0);stroke-opacity: 1.0;stroke-linecap: square;; fill: none" transform="matrix(1,0,0,1,6,4)" clip-path="url(#_2154435721992336clip-0)"><path d="M 0 0 L 0 34 L 399 34 L 399 0 Z "/></g><g style="fill: rgb(255,255,255); fill-opacity: 1.0; stroke: none" transform="matrix(1,0,0,1,6,4)" ><path d=""/></g><rect x="470" y="2.3" width="151.2" height="29.27" style="fill: rgb(255,255,255); fill-opacity: 1.0" transform="matrix(1,0,0,1,6,4)" clip-path="url(#_2154435721992336clip-1)"/><g style="fill: rgb(0,0,255); fill-opacity: 1.0; stroke: none" transform="matrix(1,0,0,1,6,4)" clip-path="url(#_2154435721992336clip-1)"><path d="M 480.23 28 L 474.22 28 L 474.22 5.33 L 480.23 5.33 L 480.23 7.03 L 476.23 7.03 L 476.23 26.3 L 480.23 26.3 L 480.23 28 Z  M 495.28 23 L 486.2 23 L 486.2 7.05 L 495.28 7.05 L 495.28 8.88 L 488.37 8.88 L 488.37 13.81 L 495 13.81 L 495 15.66 L 488.37 15.66 L 488.37 21.14 L 495.28 21.14 L 495.28 23 Z  M 511.12 23 L 508.74 23 L 507.63 19.52 L 500.99 19.52 L 499.87 23 L 497.62 23 L 502.91 7.05 L 505.9 7.05 L 511.12 23 Z  M 507.01 17.58 L 504.32 9.05 L 501.62 17.58 L 507.01 17.58 Z  M 524.06 23 L 521.61 23 L 519.24 17.89 Q 518.97 17.31 518.69 16.93 Q 518.41 16.55 518.08 16.32 Q 517.75 16.09 517.37 15.99 Q 516.99 15.89 516.52 15.89 L 515.49 15.89 L 515.49 23 L 513.31 23 L 513.31 7.05 L 517.58 7.05 Q 518.97 7.05 519.97 7.35 Q 520.97 7.66 521.61 8.2 Q 522.25 8.75 522.56 9.52 Q 522.86 10.3 522.86 11.25 Q 522.86 11.98 522.64 12.65 Q 522.42 13.31 521.99 13.86 Q 521.55 14.41 520.91 14.8 Q 520.27 15.2 519.44 15.39 Q 520.11 15.62 520.58 16.2 Q 521.05 16.78 521.53 17.75 L 524.06 23 Z  M 520.58 11.42 Q 520.58 10.14 519.78 9.51 Q 518.99 8.88 517.53 8.88 L 515.49 8.88 L 515.49 14.16 L 517.24 14.16 Q 518.02 14.16 518.63 13.98 Q 519.25 13.8 519.68 13.45 Q 520.11 13.09 520.34 12.59 Q 520.58 12.09 520.58 11.42 Z  M 537.68 8.91 L 532.95 8.91 L 532.95 23 L 530.76 23 L 530.76 8.91 L 526.03 8.91 L 526.03 7.05 L 537.68 7.05 L 537.68 8.91 Z  M 551.13 23 L 548.96 23 L 548.96 15.67 L 542.26 15.67 L 542.26 23 L 540.08 23 L 540.08 7.05 L 542.26 7.05 L 542.26 13.8 L 548.96 13.8 L 548.96 7.05 L 551.13 7.05 L 551.13 23 Z  M 562 28 L 555.99 28 L 555.99 26.3 L 559.96 26.3 L 559.96 7.03 L 555.99 7.03 L 555.99 5.33 L 562 5.33 L 562 28 Z  M 568.17 10.75 L 570.06 10.75 L 570.15 12.72 Q 570.68 12.09 571.18 11.67 Q 571.68 11.25 572.17 10.99 Q 572.65 10.73 573.15 10.63 Q 573.65 10.53 574.18 10.53 Q 576.08 10.53 577.04 11.65 Q 578.01 12.77 578.01 15 L 578.01 23 L 575.9 23 L 575.9 15.17 Q 575.9 13.73 575.36 13.05 Q 574.83 12.36 573.76 12.36 Q 573.37 12.36 573 12.48 Q 572.62 12.59 572.22 12.88 Q 571.83 13.16 571.35 13.65 Q 570.87 14.14 570.29 14.88 L 570.29 23 L 568.17 23 L 568.17 10.75 Z  M 591.76 23 L 589.87 23 L 589.79 21.02 Q 589.24 21.66 588.74 22.08 Q 588.24 22.5 587.76 22.76 Q 587.27 23.02 586.78 23.12 Q 586.29 23.22 585.74 23.22 Q 583.84 23.22 582.88 22.11 Q 581.91 21 581.91 18.75 L 581.91 10.75 L 584.04 10.75 L 584.04 18.58 Q 584.04 21.41 586.16 21.41 Q 586.55 21.41 586.93 21.29 Q 587.3 21.17 587.71 20.88 Q 588.12 20.59 588.59 20.11 Q 589.05 19.62 589.65 18.88 L 589.65 10.75 L 591.76 10.75 L 591.76 23 Z  M 599.83 7.5 L 596.21 7.5 L 596.21 5.75 L 601.99 5.75 L 601.99 21.23 L 605.63 21.23 L 605.63 23 L 595.8 23 L 595.8 21.23 L 599.83 21.23 L 599.83 7.5 Z  M 613.58 7.5 L 609.95 7.5 L 609.95 5.75 L 615.73 5.75 L 615.73 21.23 L 619.37 21.23 L 619.37 23 L 609.54 23 L 609.54 21.23 L 613.58 21.23 L 613.58 7.5 Z "/></g><g style="stroke-width: 3.0;stroke: rgb(0,0,0);stroke-opacity: 1.0;stroke-linecap: square;; fill: none" transform="matrix(1,0,0,1,6,4)" clip-path="url(#_2154435721992336clip-1)"><path d=""/></g><g style="fill: rgb(255,255,255); fill-opacity: 1.0; stroke: none" transform="matrix(1,0,0,1,6,38)" ><path d="M 0 0 L 0 25 L 647 25 L 647 0 Z "/></g><rect x="64" y="0.44" width="142.95" height="23.42" style="fill: rgb(255,255,255); fill-opacity: 1.0" transform="matrix(1,0,0,1,6,38)" /><g style="fill: rgb(0,0,0); fill-opacity: 1.0; stroke: none" transform="matrix(1,0,0,1,6,38)" ><path d="M 74.27 17 L 72.3 17 L 70.39 12.92 Q 70.19 12.45 69.96 12.14 Q 69.73 11.83 69.48 11.65 Q 69.22 11.47 68.91 11.39 Q 68.59 11.31 68.22 11.31 L 67.41 11.31 L 67.41 17 L 65.66 17 L 65.66 4.23 L 69.08 4.23 Q 70.19 4.23 70.99 4.48 Q 71.8 4.72 72.3 5.16 Q 72.81 5.61 73.05 6.23 Q 73.3 6.84 73.3 7.59 Q 73.3 8.19 73.12 8.72 Q 72.95 9.25 72.6 9.69 Q 72.25 10.12 71.74 10.45 Q 71.23 10.77 70.56 10.92 Q 71.09 11.09 71.48 11.56 Q 71.86 12.03 72.25 12.8 L 74.27 17 Z  M 71.48 7.73 Q 71.48 6.72 70.84 6.21 Q 70.2 5.7 69.05 5.7 L 67.41 5.7 L 67.41 9.92 L 68.81 9.92 Q 69.42 9.92 69.91 9.78 Q 70.41 9.64 70.75 9.36 Q 71.09 9.08 71.29 8.67 Q 71.48 8.27 71.48 7.73 Z  M 84.84 11.58 Q 84.84 11.94 84.83 12.18 Q 84.82 12.42 84.81 12.64 L 77.92 12.64 Q 77.92 14.14 78.75 14.95 Q 79.59 15.77 81.18 15.77 Q 81.61 15.77 82.04 15.73 Q 82.46 15.69 82.86 15.63 Q 83.26 15.58 83.63 15.5 Q 84 15.42 84.31 15.34 L 84.31 16.73 Q 83.62 16.94 82.75 17.05 Q 81.87 17.17 80.93 17.17 Q 79.67 17.17 78.76 16.83 Q 77.86 16.48 77.28 15.84 Q 76.7 15.19 76.42 14.25 Q 76.14 13.31 76.14 12.11 Q 76.14 11.08 76.43 10.16 Q 76.73 9.23 77.3 8.54 Q 77.87 7.84 78.71 7.43 Q 79.54 7.02 80.59 7.02 Q 81.62 7.02 82.41 7.34 Q 83.2 7.66 83.74 8.25 Q 84.28 8.84 84.56 9.69 Q 84.84 10.53 84.84 11.58 Z  M 83.07 11.33 Q 83.11 10.69 82.95 10.14 Q 82.79 9.59 82.46 9.2 Q 82.14 8.81 81.64 8.59 Q 81.15 8.38 80.51 8.38 Q 79.96 8.38 79.5 8.59 Q 79.04 8.81 78.71 9.2 Q 78.37 9.59 78.17 10.14 Q 77.96 10.69 77.92 11.33 L 83.07 11.33 Z  M 95.32 14.33 Q 95.32 14.84 95.14 15.25 Q 94.96 15.66 94.66 15.98 Q 94.37 16.3 93.96 16.52 Q 93.55 16.75 93.1 16.9 Q 92.65 17.05 92.17 17.11 Q 91.7 17.17 91.24 17.17 Q 90.24 17.17 89.41 17.09 Q 88.57 17 87.77 16.8 L 87.77 15.23 Q 88.63 15.48 89.48 15.61 Q 90.34 15.73 91.16 15.73 Q 92.38 15.73 92.97 15.41 Q 93.55 15.08 93.55 14.45 Q 93.55 14.2 93.47 13.99 Q 93.38 13.78 93.13 13.59 Q 92.88 13.39 92.38 13.19 Q 91.87 12.98 90.98 12.72 Q 90.3 12.53 89.74 12.28 Q 89.18 12.03 88.77 11.69 Q 88.37 11.34 88.13 10.88 Q 87.9 10.42 87.9 9.8 Q 87.9 9.39 88.09 8.91 Q 88.27 8.42 88.73 8 Q 89.2 7.58 89.98 7.3 Q 90.76 7.02 91.93 7.02 Q 92.51 7.02 93.21 7.08 Q 93.91 7.14 94.68 7.3 L 94.68 8.81 Q 93.87 8.62 93.16 8.53 Q 92.45 8.44 91.91 8.44 Q 91.27 8.44 90.84 8.53 Q 90.41 8.62 90.14 8.8 Q 89.87 8.97 89.75 9.2 Q 89.63 9.44 89.63 9.69 Q 89.63 9.95 89.73 10.17 Q 89.84 10.39 90.12 10.59 Q 90.4 10.78 90.9 10.98 Q 91.4 11.19 92.2 11.42 Q 93.07 11.67 93.66 11.95 Q 94.26 12.23 94.62 12.58 Q 94.99 12.92 95.16 13.35 Q 95.32 13.78 95.32 14.33 Z  M 107.08 12.02 Q 107.08 13.16 106.76 14.11 Q 106.44 15.06 105.84 15.74 Q 105.24 16.42 104.36 16.8 Q 103.49 17.17 102.39 17.17 Q 101.33 17.17 100.5 16.84 Q 99.66 16.52 99.08 15.88 Q 98.5 15.25 98.2 14.31 Q 97.89 13.38 97.89 12.16 Q 97.89 11.02 98.21 10.07 Q 98.54 9.12 99.14 8.45 Q 99.74 7.77 100.61 7.39 Q 101.49 7.02 102.58 7.02 Q 103.64 7.02 104.48 7.34 Q 105.32 7.67 105.89 8.3 Q 106.47 8.94 106.78 9.88 Q 107.08 10.81 107.08 12.02 Z  M 105.35 12.09 Q 105.35 11.19 105.14 10.51 Q 104.94 9.83 104.57 9.38 Q 104.21 8.92 103.68 8.7 Q 103.14 8.47 102.49 8.47 Q 101.72 8.47 101.18 8.77 Q 100.64 9.06 100.29 9.56 Q 99.94 10.06 99.79 10.72 Q 99.63 11.38 99.63 12.09 Q 99.63 13 99.82 13.69 Q 100.02 14.38 100.39 14.83 Q 100.77 15.28 101.29 15.51 Q 101.82 15.73 102.49 15.73 Q 103.25 15.73 103.79 15.44 Q 104.33 15.14 104.68 14.64 Q 105.02 14.14 105.18 13.48 Q 105.35 12.83 105.35 12.09 Z  M 117.42 17 L 115.91 17 L 115.84 15.42 Q 115.41 15.92 115.01 16.26 Q 114.61 16.59 114.22 16.8 Q 113.83 17.02 113.44 17.09 Q 113.05 17.17 112.61 17.17 Q 111.09 17.17 110.32 16.28 Q 109.55 15.39 109.55 13.59 L 109.55 7.19 L 111.25 7.19 L 111.25 13.47 Q 111.25 15.72 112.95 15.72 Q 113.27 15.72 113.56 15.62 Q 113.86 15.53 114.19 15.3 Q 114.52 15.08 114.89 14.69 Q 115.27 14.3 115.73 13.7 L 115.73 7.19 L 117.42 7.19 L 117.42 17 Z  M 120.95 7.19 L 122.5 7.19 L 122.54 9 Q 123.42 7.95 124.26 7.48 Q 125.11 7.02 125.96 7.02 Q 127.48 7.02 128.27 8 Q 129.06 8.98 129 10.94 L 127.28 10.94 Q 127.31 9.64 126.9 9.06 Q 126.5 8.48 125.71 8.48 Q 125.37 8.48 125.03 8.61 Q 124.68 8.73 124.32 9 Q 123.95 9.27 123.54 9.69 Q 123.14 10.11 122.67 10.7 L 122.67 17 L 120.95 17 L 120.95 7.19 Z  M 139.16 16.64 Q 138.49 16.89 137.8 17.02 Q 137.1 17.14 136.35 17.14 Q 134.02 17.14 132.77 15.88 Q 131.52 14.61 131.52 12.19 Q 131.52 11.03 131.88 10.09 Q 132.24 9.14 132.9 8.47 Q 133.55 7.8 134.46 7.43 Q 135.37 7.06 136.46 7.06 Q 137.23 7.06 137.89 7.16 Q 138.55 7.27 139.16 7.52 L 139.16 9.14 Q 138.52 8.81 137.87 8.66 Q 137.21 8.5 136.51 8.5 Q 135.85 8.5 135.27 8.75 Q 134.68 9 134.24 9.47 Q 133.8 9.94 133.55 10.61 Q 133.3 11.28 133.3 12.14 Q 133.3 13.91 134.16 14.8 Q 135.02 15.69 136.55 15.69 Q 137.26 15.69 137.91 15.53 Q 138.55 15.38 139.16 15.06 L 139.16 16.64 Z  M 150.82 11.58 Q 150.82 11.94 150.81 12.18 Q 150.8 12.42 150.79 12.64 L 143.89 12.64 Q 143.89 14.14 144.73 14.95 Q 145.57 15.77 147.16 15.77 Q 147.58 15.77 148.01 15.73 Q 148.44 15.69 148.84 15.63 Q 149.24 15.58 149.61 15.5 Q 149.97 15.42 150.29 15.34 L 150.29 16.73 Q 149.6 16.94 148.72 17.05 Q 147.85 17.17 146.91 17.17 Q 145.64 17.17 144.74 16.83 Q 143.83 16.48 143.25 15.84 Q 142.68 15.19 142.39 14.25 Q 142.11 13.31 142.11 12.11 Q 142.11 11.08 142.41 10.16 Q 142.71 9.23 143.28 8.54 Q 143.85 7.84 144.68 7.43 Q 145.52 7.02 146.57 7.02 Q 147.6 7.02 148.39 7.34 Q 149.18 7.66 149.71 8.25 Q 150.25 8.84 150.54 9.69 Q 150.82 10.53 150.82 11.58 Z  M 149.05 11.33 Q 149.08 10.69 148.93 10.14 Q 148.77 9.59 148.44 9.2 Q 148.11 8.81 147.62 8.59 Q 147.13 8.38 146.49 8.38 Q 145.94 8.38 145.48 8.59 Q 145.02 8.81 144.68 9.2 Q 144.35 9.59 144.14 10.14 Q 143.94 10.69 143.89 11.33 L 149.05 11.33 Z  M 167.59 5.7 L 164.65 5.7 L 164.65 4.23 L 172.28 4.23 L 172.28 5.7 L 169.34 5.7 L 169.34 15.52 L 172.28 15.52 L 172.28 17 L 164.65 17 L 164.65 15.52 L 167.59 15.52 L 167.59 5.7 Z  M 183.43 16.86 Q 182.85 17.02 182.23 17.08 Q 181.62 17.14 180.98 17.14 Q 179.13 17.14 178.23 16.3 Q 177.32 15.47 177.32 13.73 L 177.32 8.62 L 174.57 8.62 L 174.57 7.19 L 177.32 7.19 L 177.32 4.5 L 179.02 4.06 L 179.02 7.19 L 183.43 7.19 L 183.43 8.62 L 179.02 8.62 L 179.02 13.59 Q 179.02 14.66 179.59 15.18 Q 180.15 15.7 181.24 15.7 Q 181.71 15.7 182.27 15.62 Q 182.82 15.55 183.43 15.39 L 183.43 16.86 Z  M 194.8 11.58 Q 194.8 11.94 194.79 12.18 Q 194.79 12.42 194.77 12.64 L 187.88 12.64 Q 187.88 14.14 188.71 14.95 Q 189.55 15.77 191.14 15.77 Q 191.57 15.77 192 15.73 Q 192.43 15.69 192.82 15.63 Q 193.22 15.58 193.59 15.5 Q 193.96 15.42 194.27 15.34 L 194.27 16.73 Q 193.58 16.94 192.71 17.05 Q 191.83 17.17 190.89 17.17 Q 189.63 17.17 188.72 16.83 Q 187.82 16.48 187.24 15.84 Q 186.66 15.19 186.38 14.25 Q 186.1 13.31 186.1 12.11 Q 186.1 11.08 186.39 10.16 Q 186.69 9.23 187.26 8.54 Q 187.83 7.84 188.67 7.43 Q 189.5 7.02 190.55 7.02 Q 191.58 7.02 192.37 7.34 Q 193.16 7.66 193.7 8.25 Q 194.24 8.84 194.52 9.69 Q 194.8 10.53 194.8 11.58 Z  M 193.04 11.33 Q 193.07 10.69 192.91 10.14 Q 192.75 9.59 192.43 9.2 Q 192.1 8.81 191.61 8.59 Q 191.11 8.38 190.47 8.38 Q 189.93 8.38 189.46 8.59 Q 189 8.81 188.67 9.2 Q 188.33 9.59 188.13 10.14 Q 187.93 10.69 187.88 11.33 L 193.04 11.33 Z  M 204.52 17 L 204.52 9.95 Q 204.52 9.5 204.48 9.2 Q 204.44 8.91 204.37 8.74 Q 204.3 8.58 204.18 8.51 Q 204.06 8.44 203.91 8.44 Q 203.7 8.44 203.54 8.55 Q 203.38 8.67 203.19 8.94 Q 203 9.2 202.77 9.63 Q 202.53 10.06 202.22 10.7 L 202.22 17 L 200.67 17 L 200.67 10.14 Q 200.67 9.61 200.64 9.27 Q 200.61 8.94 200.53 8.76 Q 200.45 8.58 200.34 8.51 Q 200.22 8.44 200.06 8.44 Q 199.88 8.44 199.72 8.53 Q 199.56 8.62 199.38 8.88 Q 199.19 9.14 198.95 9.58 Q 198.72 10.02 198.39 10.7 L 198.39 17 L 196.83 17 L 196.83 7.19 L 198.12 7.19 L 198.2 9.06 Q 198.47 8.5 198.7 8.11 Q 198.94 7.72 199.2 7.48 Q 199.45 7.25 199.74 7.13 Q 200.03 7.02 200.38 7.02 Q 201.17 7.02 201.58 7.53 Q 201.98 8.05 201.98 9.14 Q 202.22 8.62 202.45 8.23 Q 202.67 7.84 202.93 7.57 Q 203.19 7.3 203.5 7.16 Q 203.81 7.02 204.22 7.02 Q 206.08 7.02 206.08 9.86 L 206.08 17 L 204.52 17 Z "/></g><g style="stroke-width: 3.0;stroke: rgb(0,0,0);stroke-opacity: 1.0;stroke-linecap: square;; fill: none" transform="matrix(1,0,0,1,6,38)" ><path d="M 0 0 L 0 25 L 647 25 L 647 0 Z "/></g></svg>