<svg xmlns="http://www.w3.org/2000/svg" xmlns:xlink="http://www.w3.org/1999/xlink" xmlns:jfreesvg="http://www.jfree.org/jfreesvg/svg" width="653px" height="404px" text-rendering="auto" shape-rendering="auto">
<defs><clipPath id="_5953143282611clip-0"><path d="M 0 0 L 0 27 L 399 27 L 399 0 Z "/></clipPath>
<clipPath id="_5953143282611clip-1"><path d="M 399 0 L 399 27 L 646 27 L 646 0 Z "/></clipPath>
<clipPath id="_5953143282611clip-2"><path d="M 0 0 L 0 400 L 647 400 L 647 0 Z "/></clipPath>
<clipPath id="_5953143282611clip-3"><path d="M 0 52 L 0 400 L 647 400 L 647 52 Z "/></clipPath>
<clipPath id="_5953143282611clip-4"><path d="M 247 50 L 247 257 L 582 257 L 582 50 Z "/></clipPath>
<clipPath id="_5953143282611clip-5"><path d="M 247 62 L 247 257 L 582 257 L 582 62 Z "/></clipPath>
</defs>
<rect x="0" y="0" width="653" height="404" style="fill: rgb(0,0,0); fill-opacity: 1.0" transform="matrix(1,0,0,1,0,0)" /><g style="fill: rgb(255,255,230); fill-opacity: 1.0; stroke: none" transform="matrix(1,0,0,1,6,4)" clip-path="url(#_5953143282611clip-0)"><path d="M 0 0 L 0 27 L 399 27 L 399 0 Z "/></g><rect x="39" y="1.44" width="109.96" height="23.42" style="fill: rgb(255,255,230); fill-opacity: 1.0" transform="matrix(1,0,0,1,6,4)" clip-path="url(#_5953143282611clip-0)"/><g style="fill: rgb(0,0,0); fill-opacity: 1.0; stroke: none" transform="matrix(1,0,0,1,6,4)" clip-path="url(#_5953143282611clip-0)"><path d="M 48.62 18 L 41.28 18 L 41.28 5.23 L 43.05 5.23 L 43.05 16.52 L 48.62 16.52 L 48.62 18 Z  M 59.43 18 L 57.92 18 L 57.86 16.42 Q 57.42 16.92 57.02 17.26 Q 56.62 17.59 56.23 17.8 Q 55.84 18.02 55.45 18.09 Q 55.06 18.17 54.62 18.17 Q 53.11 18.17 52.33 17.28 Q 51.56 16.39 51.56 14.59 L 51.56 8.19 L 53.26 8.19 L 53.26 14.47 Q 53.26 16.72 54.96 16.72 Q 55.28 16.72 55.57 16.62 Q 55.87 16.53 56.2 16.3 Q 56.53 16.08 56.9 15.69 Q 57.28 15.3 57.75 14.7 L 57.75 8.19 L 59.43 8.19 L 59.43 18 Z  M 69.55 18 L 69.55 10.95 Q 69.55 10.5 69.52 10.2 Q 69.48 9.91 69.41 9.74 Q 69.34 9.58 69.22 9.51 Q 69.1 9.44 68.95 9.44 Q 68.74 9.44 68.58 9.55 Q 68.41 9.67 68.23 9.94 Q 68.04 10.2 67.8 10.63 Q 67.57 11.06 67.26 11.7 L 67.26 18 L 65.71 18 L 65.71 11.14 Q 65.71 10.61 65.68 10.27 Q 65.65 9.94 65.57 9.76 Q 65.49 9.58 65.38 9.51 Q 65.26 9.44 65.1 9.44 Q 64.91 9.44 64.76 9.53 Q 64.6 9.62 64.41 9.88 Q 64.23 10.14 63.99 10.58 Q 63.76 11.02 63.43 11.7 L 63.43 18 L 61.87 18 L 61.87 8.19 L 63.16 8.19 L 63.24 10.06 Q 63.51 9.5 63.74 9.11 Q 63.98 8.72 64.23 8.48 Q 64.49 8.25 64.78 8.13 Q 65.07 8.02 65.41 8.02 Q 66.21 8.02 66.62 8.53 Q 67.02 9.05 67.02 10.14 Q 67.26 9.62 67.48 9.23 Q 67.71 8.84 67.97 8.57 Q 68.23 8.3 68.54 8.16 Q 68.85 8.02 69.26 8.02 Q 71.12 8.02 71.12 10.86 L 71.12 18 L 69.55 18 Z  M 81.93 12.92 Q 81.93 14.14 81.59 15.1 Q 81.25 16.06 80.64 16.73 Q 80.02 17.41 79.13 17.77 Q 78.24 18.12 77.13 18.12 Q 76.25 18.12 75.35 17.95 Q 74.44 17.78 73.55 17.42 L 73.55 4.2 L 75.25 4.2 L 75.25 8 L 75.18 9.81 Q 75.91 8.83 76.75 8.42 Q 77.58 8.02 78.54 8.02 Q 79.38 8.02 80.01 8.37 Q 80.64 8.72 81.07 9.36 Q 81.5 10 81.71 10.91 Q 81.93 11.81 81.93 12.92 Z  M 80.19 13 Q 80.19 12.23 80.08 11.59 Q 79.97 10.94 79.72 10.48 Q 79.47 10.02 79.1 9.76 Q 78.72 9.5 78.19 9.5 Q 77.86 9.5 77.54 9.6 Q 77.21 9.7 76.85 9.95 Q 76.49 10.19 76.1 10.59 Q 75.71 10.98 75.25 11.56 L 75.25 16.31 Q 75.75 16.52 76.27 16.62 Q 76.79 16.73 77.25 16.73 Q 77.83 16.73 78.37 16.55 Q 78.91 16.38 79.31 15.94 Q 79.71 15.5 79.95 14.78 Q 80.19 14.06 80.19 13 Z  M 92.83 12.58 Q 92.83 12.94 92.82 13.18 Q 92.81 13.42 92.8 13.64 L 85.91 13.64 Q 85.91 15.14 86.74 15.95 Q 87.58 16.77 89.17 16.77 Q 89.59 16.77 90.02 16.73 Q 90.45 16.69 90.85 16.63 Q 91.25 16.58 91.62 16.5 Q 91.98 16.42 92.3 16.34 L 92.3 17.73 Q 91.61 17.94 90.73 18.05 Q 89.86 18.17 88.92 18.17 Q 87.66 18.17 86.75 17.83 Q 85.84 17.48 85.27 16.84 Q 84.69 16.19 84.41 15.25 Q 84.12 14.31 84.12 13.11 Q 84.12 12.08 84.42 11.16 Q 84.72 10.23 85.29 9.54 Q 85.86 8.84 86.7 8.43 Q 87.53 8.02 88.58 8.02 Q 89.61 8.02 90.4 8.34 Q 91.19 8.66 91.73 9.25 Q 92.27 9.84 92.55 10.69 Q 92.83 11.53 92.83 12.58 Z  M 91.06 12.33 Q 91.09 11.69 90.94 11.14 Q 90.78 10.59 90.45 10.2 Q 90.12 9.81 89.63 9.59 Q 89.14 9.38 88.5 9.38 Q 87.95 9.38 87.49 9.59 Q 87.03 9.81 86.7 10.2 Q 86.36 10.59 86.16 11.14 Q 85.95 11.69 85.91 12.33 L 91.06 12.33 Z  M 95.95 8.19 L 97.5 8.19 L 97.54 10 Q 98.42 8.95 99.26 8.48 Q 100.11 8.02 100.96 8.02 Q 102.48 8.02 103.27 9 Q 104.06 9.98 104 11.94 L 102.28 11.94 Q 102.31 10.64 101.9 10.06 Q 101.5 9.48 100.71 9.48 Q 100.37 9.48 100.03 9.61 Q 99.68 9.73 99.32 10 Q 98.95 10.27 98.54 10.69 Q 98.14 11.11 97.67 11.7 L 97.67 18 L 95.95 18 L 95.95 8.19 Z  M 114.91 12.92 Q 114.91 14.23 114.55 15.21 Q 114.18 16.19 113.54 16.83 Q 112.9 17.47 112.02 17.8 Q 111.13 18.12 110.12 18.12 Q 109.65 18.12 109.18 18.07 Q 108.71 18.02 108.24 17.91 L 108.24 22 L 106.54 22 L 106.54 8.19 L 108.05 8.19 L 108.16 9.83 Q 108.9 8.83 109.73 8.42 Q 110.55 8.02 111.52 8.02 Q 112.37 8.02 113 8.37 Q 113.63 8.72 114.06 9.36 Q 114.49 10 114.7 10.91 Q 114.91 11.81 114.91 12.92 Z  M 113.18 13 Q 113.18 12.23 113.07 11.59 Q 112.96 10.94 112.71 10.48 Q 112.46 10.02 112.09 9.76 Q 111.71 9.5 111.18 9.5 Q 110.85 9.5 110.52 9.6 Q 110.2 9.7 109.84 9.95 Q 109.48 10.19 109.09 10.59 Q 108.7 10.98 108.24 11.56 L 108.24 16.31 Q 108.71 16.52 109.23 16.62 Q 109.74 16.73 110.24 16.73 Q 111.62 16.73 112.4 15.8 Q 113.18 14.88 113.18 13 Z  M 120.88 9.59 L 117.97 9.59 L 117.97 8.19 L 122.6 8.19 L 122.6 16.58 L 125.52 16.58 L 125.52 18 L 117.66 18 L 117.66 16.58 L 120.88 16.58 L 120.88 9.59 Z  M 121.47 4.08 Q 121.75 4.08 122 4.18 Q 122.24 4.28 122.42 4.47 Q 122.6 4.66 122.71 4.9 Q 122.82 5.14 122.82 5.42 Q 122.82 5.69 122.71 5.94 Q 122.6 6.19 122.42 6.37 Q 122.24 6.55 122 6.66 Q 121.75 6.77 121.47 6.77 Q 121.19 6.77 120.95 6.66 Q 120.71 6.55 120.52 6.37 Q 120.33 6.19 120.23 5.94 Q 120.13 5.69 120.13 5.42 Q 120.13 5.14 120.23 4.9 Q 120.33 4.66 120.52 4.47 Q 120.71 4.28 120.95 4.18 Q 121.19 4.08 121.47 4.08 Z  M 131.88 5.59 L 128.97 5.59 L 128.97 4.2 L 133.59 4.2 L 133.59 16.58 L 136.52 16.58 L 136.52 18 L 128.66 18 L 128.66 16.58 L 131.88 16.58 L 131.88 5.59 Z  M 147.81 12.58 Q 147.81 12.94 147.8 13.18 Q 147.79 13.42 147.78 13.64 L 140.89 13.64 Q 140.89 15.14 141.72 15.95 Q 142.56 16.77 144.15 16.77 Q 144.57 16.77 145 16.73 Q 145.43 16.69 145.83 16.63 Q 146.23 16.58 146.6 16.5 Q 146.96 16.42 147.28 16.34 L 147.28 17.73 Q 146.59 17.94 145.71 18.05 Q 144.84 18.17 143.9 18.17 Q 142.64 18.17 141.73 17.83 Q 140.82 17.48 140.25 16.84 Q 139.67 16.19 139.39 15.25 Q 139.11 14.31 139.11 13.11 Q 139.11 12.08 139.4 11.16 Q 139.7 10.23 140.27 9.54 Q 140.84 8.84 141.68 8.43 Q 142.51 8.02 143.56 8.02 Q 144.59 8.02 145.38 8.34 Q 146.17 8.66 146.71 9.25 Q 147.25 9.84 147.53 10.69 Q 147.81 11.53 147.81 12.58 Z  M 146.04 12.33 Q 146.07 11.69 145.92 11.14 Q 145.76 10.59 145.43 10.2 Q 145.11 9.81 144.61 9.59 Q 144.12 9.38 143.48 9.38 Q 142.93 9.38 142.47 9.59 Q 142.01 9.81 141.68 10.2 Q 141.34 10.59 141.14 11.14 Q 140.93 11.69 140.89 12.33 L 146.04 12.33 Z "/></g><g style="stroke-width: 3.0;stroke: rgb(0,0,0);stroke-opacity: 1.0;stroke-linecap: square;; fill: none" transform="matrix(1,0,0,1,6,4)" clip-path="url(#_5953143282611clip-0)"><path d="M 0 0 L 0 27 L 399 27 L 399 0 Z "/></g><g style="fill: rgb(255,255,230); fill-opacity: 1.0; stroke: none" transform="matrix(1,0,0,1,6,4)" clip-path="url(#_5953143282611clip-1)"><path d="M 399 0 L 399 27 L 646 27 L 646 0 Z "/></g><rect x="545" y="1.44" width="76.97" height="23.42" style="fill: rgb(255,255,230); fill-opacity: 1.0" transform="matrix(1,0,0,1,6,4)" clip-path="url(#_5953143282611clip-1)"/><g style="fill: rgb(0,0,255); fill-opacity: 1.0; stroke: none" transform="matrix(1,0,0,1,6,4)" clip-path="url(#_5953143282611clip-1)"><path d="M 553.19 22 L 548.38 22 L 548.38 3.86 L 553.19 3.86 L 553.19 5.22 L 549.98 5.22 L 549.98 20.64 L 553.19 20.64 L 553.19 22 Z  M 565.21 18 L 557.96 18 L 557.96 5.23 L 565.21 5.23 L 565.21 6.7 L 559.7 6.7 L 559.7 10.66 L 565 10.66 L 565 12.12 L 559.7 12.12 L 559.7 16.52 L 565.21 16.52 L 565.21 18 Z  M 577.9 18 L 575.99 18 L 575.1 15.22 L 569.79 15.22 L 568.9 18 L 567.09 18 L 571.34 5.23 L 573.71 5.23 L 577.9 18 Z  M 574.62 13.66 L 572.45 6.84 L 570.29 13.66 L 574.62 13.66 Z  M 588.25 18 L 586.29 18 L 584.38 13.92 Q 584.18 13.45 583.95 13.14 Q 583.72 12.83 583.46 12.65 Q 583.21 12.47 582.89 12.39 Q 582.58 12.31 582.21 12.31 L 581.39 12.31 L 581.39 18 L 579.64 18 L 579.64 5.23 L 583.07 5.23 Q 584.18 5.23 584.98 5.48 Q 585.79 5.72 586.29 6.16 Q 586.8 6.61 587.04 7.23 Q 587.29 7.84 587.29 8.59 Q 587.29 9.19 587.11 9.72 Q 586.94 10.25 586.59 10.69 Q 586.24 11.12 585.73 11.45 Q 585.22 11.77 584.55 11.92 Q 585.08 12.09 585.46 12.56 Q 585.85 13.03 586.24 13.8 L 588.25 18 Z  M 585.47 8.73 Q 585.47 7.72 584.83 7.21 Q 584.19 6.7 583.04 6.7 L 581.39 6.7 L 581.39 10.92 L 582.8 10.92 Q 583.41 10.92 583.9 10.78 Q 584.39 10.64 584.74 10.36 Q 585.08 10.08 585.28 9.67 Q 585.47 9.27 585.47 8.73 Z  M 599.14 6.72 L 595.36 6.72 L 595.36 18 L 593.61 18 L 593.61 6.72 L 589.83 6.72 L 589.83 5.23 L 599.14 5.23 L 599.14 6.72 Z  M 609.9 18 L 608.17 18 L 608.17 12.14 L 602.81 12.14 L 602.81 18 L 601.06 18 L 601.06 5.23 L 602.81 5.23 L 602.81 10.64 L 608.17 10.64 L 608.17 5.23 L 609.9 5.23 L 609.9 18 Z  M 618.6 22 L 613.79 22 L 613.79 20.64 L 616.96 20.64 L 616.96 5.22 L 613.79 5.22 L 613.79 3.86 L 618.6 3.86 L 618.6 22 Z "/></g><g style="stroke-width: 3.0;stroke: rgb(0,0,0);stroke-opacity: 1.0;stroke-linecap: square;; fill: none" transform="matrix(1,0,0,1,6,4)" clip-path="url(#_5953143282611clip-1)"><path d="M 399 0 L 399 27 L 646 27 L 646 0 Z "/></g><g style="fill: rgb(255,255,230); fill-opacity: 1.0; stroke: none" transform="matrix(1,0,0,1,6,4)" ><path d="M 0 27 L 0 52 L 647 52 L 647 27 Z "/></g><rect x="64" y="27.44" width="142.95" height="23.42" style="fill: rgb(255,255,230); fill-opacity: 1.0" transform="matrix(1,0,0,1,6,4)" clip-path="url(#_5953143282611clip-2)"/><g style="fill: rgb(0,0,0); fill-opacity: 1.0; stroke: none" transform="matrix(1,0,0,1,6,4)" clip-path="url(#_5953143282611clip-2)"><path d="M 74.27 44 L 72.3 44 L 70.39 39.92 Q 70.19 39.45 69.96 39.14 Q 69.73 38.83 69.48 38.65 Q 69.22 38.47 68.91 38.39 Q 68.59 38.31 68.22 38.31 L 67.41 38.31 L 67.41 44 L 65.66 44 L 65.66 31.23 L 69.08 31.23 Q 70.19 31.23 70.99 31.48 Q 71.8 31.72 72.3 32.16 Q 72.81 32.61 73.05 33.23 Q 73.3 33.84 73.3 34.59 Q 73.3 35.19 73.12 35.72 Q 72.95 36.25 72.6 36.69 Q 72.25 37.12 71.74 37.45 Q 71.23 37.77 70.56 37.92 Q 71.09 38.09 71.48 38.56 Q 71.86 39.03 72.25 39.8 L 74.27 44 Z  M 71.48 34.73 Q 71.48 33.72 70.84 33.21 Q 70.2 32.7 69.05 32.7 L 67.41 32.7 L 67.41 36.92 L 68.81 36.92 Q 69.42 36.92 69.91 36.78 Q 70.41 36.64 70.75 36.36 Q 71.09 36.08 71.29 35.67 Q 71.48 35.27 71.48 34.73 Z  M 84.84 38.58 Q 84.84 38.94 84.83 39.18 Q 84.82 39.42 84.81 39.64 L 77.92 39.64 Q 77.92 41.14 78.75 41.95 Q 79.59 42.77 81.18 42.77 Q 81.61 42.77 82.04 42.73 Q 82.46 42.69 82.86 42.63 Q 83.26 42.58 83.63 42.5 Q 84 42.42 84.31 42.34 L 84.31 43.73 Q 83.62 43.94 82.75 44.05 Q 81.87 44.17 80.93 44.17 Q 79.67 44.17 78.76 43.83 Q 77.86 43.48 77.28 42.84 Q 76.7 42.19 76.42 41.25 Q 76.14 40.31 76.14 39.11 Q 76.14 38.08 76.43 37.16 Q 76.73 36.23 77.3 35.54 Q 77.87 34.84 78.71 34.43 Q 79.54 34.02 80.59 34.02 Q 81.62 34.02 82.41 34.34 Q 83.2 34.66 83.74 35.25 Q 84.28 35.84 84.56 36.69 Q 84.84 37.53 84.84 38.58 Z  M 83.07 38.33 Q 83.11 37.69 82.95 37.14 Q 82.79 36.59 82.46 36.2 Q 82.14 35.81 81.64 35.59 Q 81.15 35.38 80.51 35.38 Q 79.96 35.38 79.5 35.59 Q 79.04 35.81 78.71 36.2 Q 78.37 36.59 78.17 37.14 Q 77.96 37.69 77.92 38.33 L 83.07 38.33 Z  M 95.32 41.33 Q 95.32 41.84 95.14 42.25 Q 94.96 42.66 94.66 42.98 Q 94.37 43.3 93.96 43.52 Q 93.55 43.75 93.1 43.9 Q 92.65 44.05 92.17 44.11 Q 91.7 44.17 91.24 44.17 Q 90.24 44.17 89.41 44.09 Q 88.57 44 87.77 43.8 L 87.77 42.23 Q 88.63 42.48 89.48 42.61 Q 90.34 42.73 91.16 42.73 Q 92.38 42.73 92.97 42.41 Q 93.55 42.08 93.55 41.45 Q 93.55 41.2 93.47 40.99 Q 93.38 40.78 93.13 40.59 Q 92.88 40.39 92.38 40.19 Q 91.87 39.98 90.98 39.72 Q 90.3 39.53 89.74 39.28 Q 89.18 39.03 88.77 38.69 Q 88.37 38.34 88.13 37.88 Q 87.9 37.42 87.9 36.8 Q 87.9 36.39 88.09 35.91 Q 88.27 35.42 88.73 35 Q 89.2 34.58 89.98 34.3 Q 90.76 34.02 91.93 34.02 Q 92.51 34.02 93.21 34.08 Q 93.91 34.14 94.68 34.3 L 94.68 35.81 Q 93.87 35.62 93.16 35.53 Q 92.45 35.44 91.91 35.44 Q 91.27 35.44 90.84 35.53 Q 90.41 35.62 90.14 35.8 Q 89.87 35.97 89.75 36.2 Q 89.63 36.44 89.63 36.69 Q 89.63 36.95 89.73 37.17 Q 89.84 37.39 90.12 37.59 Q 90.4 37.78 90.9 37.98 Q 91.4 38.19 92.2 38.42 Q 93.07 38.67 93.66 38.95 Q 94.26 39.23 94.62 39.58 Q 94.99 39.92 95.16 40.35 Q 95.32 40.78 95.32 41.33 Z  M 107.08 39.02 Q 107.08 40.16 106.76 41.11 Q 106.44 42.06 105.84 42.74 Q 105.24 43.42 104.36 43.8 Q 103.49 44.17 102.39 44.17 Q 101.33 44.17 100.5 43.84 Q 99.66 43.52 99.08 42.88 Q 98.5 42.25 98.2 41.31 Q 97.89 40.38 97.89 39.16 Q 97.89 38.02 98.21 37.07 Q 98.54 36.12 99.14 35.45 Q 99.74 34.77 100.61 34.39 Q 101.49 34.02 102.58 34.02 Q 103.64 34.02 104.48 34.34 Q 105.32 34.67 105.89 35.3 Q 106.47 35.94 106.78 36.88 Q 107.08 37.81 107.08 39.02 Z  M 105.35 39.09 Q 105.35 38.19 105.14 37.51 Q 104.94 36.83 104.57 36.38 Q 104.21 35.92 103.68 35.7 Q 103.14 35.47 102.49 35.47 Q 101.72 35.47 101.18 35.77 Q 100.64 36.06 100.29 36.56 Q 99.94 37.06 99.79 37.72 Q 99.63 38.38 99.63 39.09 Q 99.63 40 99.82 40.69 Q 100.02 41.38 100.39 41.83 Q 100.77 42.28 101.29 42.51 Q 101.82 42.73 102.49 42.73 Q 103.25 42.73 103.79 42.44 Q 104.33 42.14 104.68 41.64 Q 105.02 41.14 105.18 40.48 Q 105.35 39.83 105.35 39.09 Z  M 117.42 44 L 115.91 44 L 115.84 42.42 Q 115.41 42.92 115.01 43.26 Q 114.61 43.59 114.22 43.8 Q 113.83 44.02 113.44 44.09 Q 113.05 44.17 112.61 44.17 Q 111.09 44.17 110.32 43.28 Q 109.55 42.39 109.55 40.59 L 109.55 34.19 L 111.25 34.19 L 111.25 40.47 Q 111.25 42.72 112.95 42.72 Q 113.27 42.72 113.56 42.62 Q 113.86 42.53 114.19 42.3 Q 114.52 42.08 114.89 41.69 Q 115.27 41.3 115.73 40.7 L 115.73 34.19 L 117.42 34.19 L 117.42 44 Z  M 120.95 34.19 L 122.5 34.19 L 122.54 36 Q 123.42 34.95 124.26 34.48 Q 125.11 34.02 125.96 34.02 Q 127.48 34.02 128.27 35 Q 129.06 35.98 129 37.94 L 127.28 37.94 Q 127.31 36.64 126.9 36.06 Q 126.5 35.48 125.71 35.48 Q 125.37 35.48 125.03 35.61 Q 124.68 35.73 124.32 36 Q 123.95 36.27 123.54 36.69 Q 123.14 37.11 122.67 37.7 L 122.67 44 L 120.95 44 L 120.95 34.19 Z  M 139.16 43.64 Q 138.49 43.89 137.8 44.02 Q 137.1 44.14 136.35 44.14 Q 134.02 44.14 132.77 42.88 Q 131.52 41.61 131.52 39.19 Q 131.52 38.03 131.88 37.09 Q 132.24 36.14 132.9 35.47 Q 133.55 34.8 134.46 34.43 Q 135.37 34.06 136.46 34.06 Q 137.23 34.06 137.89 34.16 Q 138.55 34.27 139.16 34.52 L 139.16 36.14 Q 138.52 35.81 137.87 35.66 Q 137.21 35.5 136.51 35.5 Q 135.85 35.5 135.27 35.75 Q 134.68 36 134.24 36.47 Q 133.8 36.94 133.55 37.61 Q 133.3 38.28 133.3 39.14 Q 133.3 40.91 134.16 41.8 Q 135.02 42.69 136.55 42.69 Q 137.26 42.69 137.91 42.53 Q 138.55 42.38 139.16 42.06 L 139.16 43.64 Z  M 150.82 38.58 Q 150.82 38.94 150.81 39.18 Q 150.8 39.42 150.79 39.64 L 143.89 39.64 Q 143.89 41.14 144.73 41.95 Q 145.57 42.77 147.16 42.77 Q 147.58 42.77 148.01 42.73 Q 148.44 42.69 148.84 42.63 Q 149.24 42.58 149.61 42.5 Q 149.97 42.42 150.29 42.34 L 150.29 43.73 Q 149.6 43.94 148.72 44.05 Q 147.85 44.17 146.91 44.17 Q 145.64 44.17 144.74 43.83 Q 143.83 43.48 143.25 42.84 Q 142.68 42.19 142.39 41.25 Q 142.11 40.31 142.11 39.11 Q 142.11 38.08 142.41 37.16 Q 142.71 36.23 143.28 35.54 Q 143.85 34.84 144.68 34.43 Q 145.52 34.02 146.57 34.02 Q 147.6 34.02 148.39 34.34 Q 149.18 34.66 149.71 35.25 Q 150.25 35.84 150.54 36.69 Q 150.82 37.53 150.82 38.58 Z  M 149.05 38.33 Q 149.08 37.69 148.93 37.14 Q 148.77 36.59 148.44 36.2 Q 148.11 35.81 147.62 35.59 Q 147.13 35.38 146.49 35.38 Q 145.94 35.38 145.48 35.59 Q 145.02 35.81 144.68 36.2 Q 144.35 36.59 144.14 37.14 Q 143.94 37.69 143.89 38.33 L 149.05 38.33 Z  M 167.59 32.7 L 164.65 32.7 L 164.65 31.23 L 172.28 31.23 L 172.28 32.7 L 169.34 32.7 L 169.34 42.52 L 172.28 42.52 L 172.28 44 L 164.65 44 L 164.65 42.52 L 167.59 42.52 L 167.59 32.7 Z  M 183.43 43.86 Q 182.85 44.02 182.23 44.08 Q 181.62 44.14 180.98 44.14 Q 179.13 44.14 178.23 43.3 Q 177.32 42.47 177.32 40.73 L 177.32 35.62 L 174.57 35.62 L 174.57 34.19 L 177.32 34.19 L 177.32 31.5 L 179.02 31.06 L 179.02 34.19 L 183.43 34.19 L 183.43 35.62 L 179.02 35.62 L 179.02 40.59 Q 179.02 41.66 179.59 42.18 Q 180.15 42.7 181.24 42.7 Q 181.71 42.7 182.27 42.62 Q 182.82 42.55 183.43 42.39 L 183.43 43.86 Z  M 194.8 38.58 Q 194.8 38.94 194.79 39.18 Q 194.79 39.42 194.77 39.64 L 187.88 39.64 Q 187.88 41.14 188.71 41.95 Q 189.55 42.77 191.14 42.77 Q 191.57 42.77 192 42.73 Q 192.43 42.69 192.82 42.63 Q 193.22 42.58 193.59 42.5 Q 193.96 42.42 194.27 42.34 L 194.27 43.73 Q 193.58 43.94 192.71 44.05 Q 191.83 44.17 190.89 44.17 Q 189.63 44.17 188.72 43.83 Q 187.82 43.48 187.24 42.84 Q 186.66 42.19 186.38 41.25 Q 186.1 40.31 186.1 39.11 Q 186.1 38.08 186.39 37.16 Q 186.69 36.23 187.26 35.54 Q 187.83 34.84 188.67 34.43 Q 189.5 34.02 190.55 34.02 Q 191.58 34.02 192.37 34.34 Q 193.16 34.66 193.7 35.25 Q 194.24 35.84 194.52 36.69 Q 194.8 37.53 194.8 38.58 Z  M 193.04 38.33 Q 193.07 37.69 192.91 37.14 Q 192.75 36.59 192.43 36.2 Q 192.1 35.81 191.61 35.59 Q 191.11 35.38 190.47 35.38 Q 189.93 35.38 189.46 35.59 Q 189 35.81 188.67 36.2 Q 188.33 36.59 188.13 37.14 Q 187.93 37.69 187.88 38.33 L 193.04 38.33 Z  M 204.52 44 L 204.52 36.95 Q 204.52 36.5 204.48 36.2 Q 204.44 35.91 204.37 35.74 Q 204.3 35.58 204.18 35.51 Q 204.06 35.44 203.91 35.44 Q 203.7 35.44 203.54 35.55 Q 203.38 35.67 203.19 35.94 Q 203 36.2 202.77 36.63 Q 202.53 37.06 202.22 37.7 L 202.22 44 L 200.67 44 L 200.67 37.14 Q 200.67 36.61 200.64 36.27 Q 200.61 35.94 200.53 35.76 Q 200.45 35.58 200.34 35.51 Q 200.22 35.44 200.06 35.44 Q 199.88 35.44 199.72 35.53 Q 199.56 35.62 199.38 35.88 Q 199.19 36.14 198.95 36.58 Q 198.72 37.02 198.39 37.7 L 198.39 44 L 196.83 44 L 196.83 34.19 L 198.12 34.19 L 198.2 36.06 Q 198.47 35.5 198.7 35.11 Q 198.94 34.72 199.2 34.48 Q 199.45 34.25 199.74 34.13 Q 200.03 34.02 200.38 34.02 Q 201.17 34.02 201.58 34.53 Q 201.98 35.05 201.98 36.14 Q 202.22 35.62 202.45 35.23 Q 202.67 34.84 202.93 34.57 Q 203.19 34.3 203.5 34.16 Q 203.81 34.02 204.22 34.02 Q 206.08 34.02 206.08 36.86 L 206.08 44 L 204.52 44 Z "/></g><g style="stroke-width: 3.0;stroke: rgb(0,0,0);stroke-opacity: 1.0;stroke-linecap: square;; fill: none" transform="matrix(1,0,0,1,6,4)" clip-path="url(#_5953143282611clip-2)"><path d="M 0 27 L 0 52 L 647 52 L 647 27 Z "/></g><g style="fill: rgb(255,255,230); fill-opacity: 1.0; stroke: none" transform="matrix(1,0,0,1,6,4)" clip-path="url(#_5953143282611clip-3)"><path d="M 0 52 L 0 400 L 647 400 L 647 52 Z "/></g><g style="stroke-width: 3.0;stroke: rgb(0,0,0);stroke-opacity: 1.0;stroke-linecap: square;; fill: none" transform="matrix(1,0,0,1,6,4)" clip-path="url(#_5953143282611clip-3)"><path d="M 0 52 L 0 400 L 647 400 L 647 52 Z "/></g><rect x="247" y="50" width="338" height="209" style="fill: rgb(0,0,0); fill-opacity: 1.0" transform="matrix(1,0,0,1,6,4)" /><g style="fill: rgb(255,255,230); fill-opacity: 1.0; stroke: none" transform="matrix(1,0,0,1,9,6)" ><path d="M 247 50 L 247 62 L 582 62 L 582 50 Z "/></g><rect x="280" y="50.72" width="93.47" height="11.71" style="fill: rgb(255,255,230); fill-opacity: 1.0" transform="matrix(1,0,0,1,9,6)" clip-path="url(#_5953143282611clip-4)"/><g style="fill: rgb(0,0,0); fill-opacity: 1.0; stroke: none" transform="matrix(1,0,0,1,9,6)" clip-path="url(#_5953143282611clip-4)"><path d="M 284.59 53.36 L 281.89 53.36 L 281.89 55.44 L 284.45 55.44 L 284.45 56.16 L 281.89 56.16 L 281.89 59 L 281 59 L 281 52.62 L 284.59 52.62 L 284.59 53.36 Z  M 290.54 56.52 Q 290.54 57.08 290.39 57.55 Q 290.23 58.03 289.93 58.38 Q 289.62 58.72 289.19 58.91 Q 288.75 59.09 288.2 59.09 Q 287.67 59.09 287.26 58.93 Q 286.84 58.77 286.54 58.45 Q 286.25 58.12 286.1 57.66 Q 285.95 57.19 285.95 56.58 Q 285.95 56 286.11 55.53 Q 286.26 55.06 286.57 54.73 Q 286.87 54.39 287.31 54.2 Q 287.75 54.02 288.29 54.02 Q 288.83 54.02 289.24 54.18 Q 289.65 54.34 289.94 54.66 Q 290.23 54.97 290.39 55.44 Q 290.54 55.91 290.54 56.52 Z  M 289.69 56.55 Q 289.69 56.09 289.58 55.76 Q 289.48 55.42 289.29 55.2 Q 289.11 54.97 288.84 54.85 Q 288.58 54.73 288.25 54.73 Q 287.87 54.73 287.6 54.88 Q 287.33 55.03 287.15 55.28 Q 286.98 55.53 286.9 55.86 Q 286.81 56.19 286.81 56.55 Q 286.81 57 286.91 57.34 Q 287.01 57.69 287.2 57.91 Q 287.39 58.14 287.65 58.26 Q 287.92 58.38 288.25 58.38 Q 288.62 58.38 288.9 58.23 Q 289.17 58.08 289.34 57.83 Q 289.51 57.58 289.6 57.25 Q 289.69 56.92 289.69 56.55 Z  M 291.98 54.09 L 292.76 54.09 L 292.78 55 Q 293.21 54.48 293.64 54.25 Q 294.06 54.02 294.48 54.02 Q 295.25 54.02 295.64 54.51 Q 296.04 55 296.01 55.97 L 295.15 55.97 Q 295.17 55.33 294.96 55.03 Q 294.76 54.73 294.37 54.73 Q 294.2 54.73 294.03 54.8 Q 293.86 54.86 293.67 54.99 Q 293.48 55.12 293.28 55.34 Q 293.07 55.55 292.84 55.84 L 292.84 59 L 291.98 59 L 291.98 54.09 Z  M 301.42 56.3 Q 301.42 56.47 301.41 56.59 Q 301.4 56.72 301.4 56.83 L 297.95 56.83 Q 297.95 57.58 298.37 57.98 Q 298.79 58.38 299.59 58.38 Q 299.81 58.38 300.02 58.36 Q 300.23 58.34 300.43 58.31 Q 300.63 58.28 300.81 58.25 Q 300.99 58.22 301.15 58.17 L 301.15 58.88 Q 300.81 58.97 300.37 59.03 Q 299.93 59.09 299.46 59.09 Q 298.84 59.09 298.38 58.92 Q 297.93 58.75 297.63 58.42 Q 297.34 58.09 297.21 57.62 Q 297.07 57.16 297.07 56.56 Q 297.07 56.05 297.22 55.59 Q 297.37 55.12 297.65 54.77 Q 297.93 54.42 298.35 54.22 Q 298.76 54.02 299.29 54.02 Q 299.81 54.02 300.21 54.17 Q 300.6 54.33 300.87 54.62 Q 301.13 54.92 301.28 55.34 Q 301.42 55.77 301.42 56.3 Z  M 300.53 56.17 Q 300.54 55.84 300.46 55.57 Q 300.38 55.3 300.22 55.1 Q 300.06 54.91 299.81 54.8 Q 299.57 54.69 299.26 54.69 Q 298.98 54.69 298.74 54.8 Q 298.51 54.91 298.35 55.1 Q 298.18 55.3 298.08 55.57 Q 297.98 55.84 297.95 56.17 L 300.53 56.17 Z  M 306.65 57.66 Q 306.65 57.92 306.56 58.12 Q 306.48 58.33 306.33 58.48 Q 306.18 58.64 305.98 58.76 Q 305.77 58.88 305.55 58.95 Q 305.32 59.02 305.09 59.05 Q 304.85 59.09 304.62 59.09 Q 304.12 59.09 303.7 59.05 Q 303.29 59 302.88 58.91 L 302.88 58.12 Q 303.3 58.25 303.73 58.31 Q 304.16 58.38 304.59 58.38 Q 305.2 58.38 305.48 58.2 Q 305.77 58.03 305.77 57.73 Q 305.77 57.59 305.73 57.49 Q 305.68 57.39 305.56 57.3 Q 305.45 57.2 305.19 57.1 Q 304.93 57 304.48 56.86 Q 304.15 56.77 303.87 56.64 Q 303.59 56.52 303.38 56.34 Q 303.18 56.17 303.06 55.95 Q 302.95 55.72 302.95 55.41 Q 302.95 55.2 303.04 54.95 Q 303.13 54.7 303.37 54.49 Q 303.6 54.28 303.99 54.15 Q 304.38 54.02 304.96 54.02 Q 305.24 54.02 305.59 54.05 Q 305.95 54.08 306.34 54.16 L 306.34 54.91 Q 305.93 54.81 305.57 54.77 Q 305.21 54.72 304.95 54.72 Q 304.63 54.72 304.41 54.77 Q 304.2 54.81 304.06 54.9 Q 303.93 54.98 303.88 55.1 Q 303.82 55.22 303.82 55.34 Q 303.82 55.48 303.87 55.59 Q 303.91 55.69 304.05 55.79 Q 304.2 55.89 304.45 55.99 Q 304.7 56.09 305.09 56.22 Q 305.52 56.34 305.82 56.48 Q 306.12 56.61 306.3 56.78 Q 306.49 56.95 306.57 57.17 Q 306.65 57.39 306.65 57.66 Z  M 312.22 58.94 Q 311.93 59 311.62 59.03 Q 311.32 59.06 311.01 59.06 Q 310.08 59.06 309.63 58.65 Q 309.18 58.23 309.18 57.38 L 309.18 54.81 L 307.8 54.81 L 307.8 54.09 L 309.18 54.09 L 309.18 52.75 L 310.02 52.53 L 310.02 54.09 L 312.22 54.09 L 312.22 54.81 L 310.02 54.81 L 310.02 57.3 Q 310.02 57.83 310.3 58.09 Q 310.58 58.34 311.13 58.34 Q 311.37 58.34 311.64 58.31 Q 311.91 58.28 312.22 58.2 L 312.22 58.94 Z  M 323.94 59 L 322.99 59 L 322.55 57.61 L 319.89 57.61 L 319.44 59 L 318.53 59 L 320.66 52.62 L 321.85 52.62 L 323.94 59 Z  M 322.3 56.83 L 321.22 53.42 L 320.14 56.83 L 322.3 56.83 Z  M 326.44 52.8 L 324.98 52.8 L 324.98 52.09 L 327.3 52.09 L 327.3 58.3 L 328.75 58.3 L 328.75 59 L 324.83 59 L 324.83 58.3 L 326.44 58.3 L 326.44 52.8 Z  M 331.94 52.8 L 330.48 52.8 L 330.48 52.09 L 332.79 52.09 L 332.79 58.3 L 334.25 58.3 L 334.25 59 L 330.33 59 L 330.33 58.3 L 331.94 58.3 L 331.94 52.8 Z  M 339.9 56.3 Q 339.9 56.47 339.89 56.59 Q 339.89 56.72 339.89 56.83 L 336.43 56.83 Q 336.43 57.58 336.86 57.98 Q 337.28 58.38 338.07 58.38 Q 338.29 58.38 338.5 58.36 Q 338.71 58.34 338.92 58.31 Q 339.12 58.28 339.3 58.25 Q 339.48 58.22 339.64 58.17 L 339.64 58.88 Q 339.29 58.97 338.86 59.03 Q 338.42 59.09 337.95 59.09 Q 337.32 59.09 336.87 58.92 Q 336.42 58.75 336.12 58.42 Q 335.82 58.09 335.69 57.62 Q 335.56 57.16 335.56 56.56 Q 335.56 56.05 335.71 55.59 Q 335.86 55.12 336.14 54.77 Q 336.42 54.42 336.83 54.22 Q 337.25 54.02 337.78 54.02 Q 338.29 54.02 338.69 54.17 Q 339.09 54.33 339.36 54.62 Q 339.62 54.92 339.76 55.34 Q 339.9 55.77 339.9 56.3 Z  M 339.01 56.17 Q 339.03 55.84 338.95 55.57 Q 338.87 55.3 338.71 55.1 Q 338.54 54.91 338.3 54.8 Q 338.06 54.69 337.75 54.69 Q 337.46 54.69 337.23 54.8 Q 337 54.91 336.83 55.1 Q 336.67 55.3 336.57 55.57 Q 336.46 55.84 336.43 56.17 L 339.01 56.17 Z  M 344.79 54.8 Q 344.93 54.97 345 55.2 Q 345.07 55.42 345.07 55.67 Q 345.07 56.06 344.94 56.38 Q 344.81 56.69 344.55 56.91 Q 344.29 57.14 343.94 57.27 Q 343.59 57.39 343.17 57.39 Q 342.85 57.39 342.59 57.32 Q 342.32 57.25 342.17 57.16 Q 342.07 57.3 342 57.42 Q 341.93 57.55 341.93 57.69 Q 341.93 57.88 342.11 58 Q 342.29 58.12 342.59 58.12 L 343.88 58.17 Q 344.24 58.19 344.56 58.27 Q 344.87 58.36 345.09 58.52 Q 345.31 58.67 345.43 58.9 Q 345.56 59.12 345.56 59.44 Q 345.56 59.75 345.42 60.05 Q 345.28 60.34 344.98 60.56 Q 344.68 60.78 344.23 60.91 Q 343.78 61.05 343.15 61.05 Q 342.56 61.05 342.13 60.95 Q 341.71 60.86 341.45 60.7 Q 341.18 60.53 341.06 60.3 Q 340.93 60.06 340.93 59.78 Q 340.93 59.42 341.1 59.16 Q 341.28 58.89 341.62 58.64 Q 341.49 58.58 341.4 58.49 Q 341.31 58.41 341.24 58.3 Q 341.18 58.19 341.16 58.07 Q 341.13 57.95 341.13 57.84 Q 341.13 57.53 341.28 57.27 Q 341.43 57 341.63 56.77 Q 341.54 56.66 341.47 56.55 Q 341.4 56.44 341.35 56.31 Q 341.29 56.19 341.27 56.05 Q 341.24 55.91 341.24 55.72 Q 341.24 55.34 341.38 55.02 Q 341.53 54.7 341.78 54.48 Q 342.03 54.27 342.38 54.14 Q 342.73 54.02 343.17 54.02 Q 343.34 54.02 343.5 54.04 Q 343.67 54.06 343.81 54.09 L 345.57 54.09 L 345.57 54.8 L 344.79 54.8 Z  M 341.84 59.7 Q 341.84 60.06 342.2 60.22 Q 342.56 60.38 343.21 60.38 Q 343.62 60.38 343.89 60.3 Q 344.17 60.22 344.34 60.1 Q 344.51 59.98 344.58 59.83 Q 344.65 59.67 344.65 59.52 Q 344.65 59.22 344.41 59.08 Q 344.17 58.94 343.65 58.91 L 342.38 58.88 Q 342.21 58.97 342.11 59.08 Q 342.01 59.19 341.95 59.29 Q 341.88 59.39 341.86 59.49 Q 341.84 59.59 341.84 59.7 Z  M 342.1 55.7 Q 342.1 55.94 342.18 56.13 Q 342.26 56.33 342.4 56.46 Q 342.54 56.59 342.74 56.67 Q 342.93 56.75 343.17 56.75 Q 343.42 56.75 343.61 56.66 Q 343.81 56.58 343.94 56.43 Q 344.07 56.28 344.14 56.09 Q 344.21 55.91 344.21 55.7 Q 344.21 55.47 344.13 55.27 Q 344.06 55.08 343.92 54.94 Q 343.78 54.8 343.59 54.73 Q 343.4 54.66 343.17 54.66 Q 342.9 54.66 342.71 54.74 Q 342.51 54.83 342.38 54.97 Q 342.24 55.11 342.17 55.3 Q 342.1 55.5 342.1 55.7 Z  M 348.43 54.8 L 346.98 54.8 L 346.98 54.09 L 349.29 54.09 L 349.29 58.3 L 350.74 58.3 L 350.74 59 L 346.82 59 L 346.82 58.3 L 348.43 58.3 L 348.43 54.8 Z  M 348.73 52.05 Q 348.87 52.05 348.99 52.09 Q 349.12 52.14 349.2 52.23 Q 349.29 52.33 349.34 52.45 Q 349.4 52.56 349.4 52.7 Q 349.4 52.84 349.34 52.97 Q 349.29 53.09 349.2 53.19 Q 349.12 53.28 348.99 53.33 Q 348.87 53.38 348.73 53.38 Q 348.59 53.38 348.46 53.33 Q 348.34 53.28 348.25 53.19 Q 348.16 53.09 348.11 52.97 Q 348.05 52.84 348.05 52.7 Q 348.05 52.56 348.11 52.45 Q 348.16 52.33 348.25 52.23 Q 348.34 52.14 348.46 52.09 Q 348.59 52.05 348.73 52.05 Z  M 355.41 59 L 355.38 58.34 Q 354.99 58.73 354.58 58.91 Q 354.16 59.09 353.71 59.09 Q 353.29 59.09 352.99 58.98 Q 352.69 58.88 352.5 58.69 Q 352.3 58.5 352.22 58.24 Q 352.13 57.98 352.13 57.69 Q 352.13 56.95 352.68 56.54 Q 353.22 56.12 354.3 56.12 L 355.32 56.12 L 355.32 55.69 Q 355.32 55.25 355.04 54.99 Q 354.76 54.73 354.18 54.73 Q 353.77 54.73 353.37 54.83 Q 352.96 54.92 352.54 55.09 L 352.54 54.33 Q 352.69 54.27 352.89 54.21 Q 353.08 54.16 353.31 54.11 Q 353.54 54.06 353.77 54.04 Q 354.01 54.02 354.26 54.02 Q 354.69 54.02 355.05 54.11 Q 355.41 54.2 355.65 54.41 Q 355.9 54.61 356.03 54.91 Q 356.16 55.2 356.16 55.62 L 356.16 59 L 355.41 59 Z  M 355.32 56.77 L 354.24 56.77 Q 353.91 56.77 353.69 56.83 Q 353.46 56.89 353.31 57.01 Q 353.16 57.12 353.09 57.29 Q 353.02 57.45 353.02 57.66 Q 353.02 57.8 353.07 57.93 Q 353.12 58.06 353.21 58.16 Q 353.3 58.27 353.46 58.32 Q 353.62 58.38 353.85 58.38 Q 354.13 58.38 354.51 58.2 Q 354.9 58.02 355.32 57.64 L 355.32 56.77 Z  M 357.75 54.09 L 358.5 54.09 L 358.55 54.89 Q 358.75 54.64 358.96 54.47 Q 359.16 54.3 359.36 54.2 Q 359.55 54.09 359.75 54.05 Q 359.94 54.02 360.16 54.02 Q 360.93 54.02 361.31 54.46 Q 361.69 54.91 361.69 55.8 L 361.69 59 L 360.85 59 L 360.85 55.88 Q 360.85 55.3 360.63 55.02 Q 360.41 54.73 359.99 54.73 Q 359.83 54.73 359.68 54.78 Q 359.54 54.83 359.37 54.95 Q 359.21 55.06 359.02 55.26 Q 358.83 55.45 358.6 55.75 L 358.6 59 L 357.75 59 L 357.75 54.09 Z  M 367.06 58.81 Q 366.74 58.95 366.38 59.01 Q 366.03 59.06 365.66 59.06 Q 364.5 59.06 363.87 58.44 Q 363.24 57.81 363.24 56.59 Q 363.24 56.02 363.42 55.54 Q 363.61 55.06 363.93 54.73 Q 364.25 54.39 364.71 54.21 Q 365.17 54.03 365.72 54.03 Q 366.1 54.03 366.42 54.09 Q 366.75 54.14 367.06 54.27 L 367.06 55.06 Q 366.74 54.91 366.41 54.83 Q 366.08 54.75 365.74 54.75 Q 365.41 54.75 365.12 54.88 Q 364.83 55 364.61 55.23 Q 364.39 55.47 364.26 55.8 Q 364.13 56.14 364.13 56.56 Q 364.13 57.45 364.56 57.9 Q 365 58.34 365.77 58.34 Q 366.11 58.34 366.43 58.27 Q 366.75 58.19 367.06 58.03 L 367.06 58.81 Z  M 372.89 56.3 Q 372.89 56.47 372.88 56.59 Q 372.88 56.72 372.88 56.83 L 369.42 56.83 Q 369.42 57.58 369.84 57.98 Q 370.27 58.38 371.06 58.38 Q 371.28 58.38 371.49 58.36 Q 371.7 58.34 371.91 58.31 Q 372.11 58.28 372.29 58.25 Q 372.47 58.22 372.62 58.17 L 372.62 58.88 Q 372.28 58.97 371.84 59.03 Q 371.41 59.09 370.94 59.09 Q 370.31 59.09 369.86 58.92 Q 369.41 58.75 369.11 58.42 Q 368.81 58.09 368.68 57.62 Q 368.55 57.16 368.55 56.56 Q 368.55 56.05 368.7 55.59 Q 368.84 55.12 369.12 54.77 Q 369.41 54.42 369.82 54.22 Q 370.23 54.02 370.77 54.02 Q 371.28 54.02 371.68 54.17 Q 372.08 54.33 372.34 54.62 Q 372.61 54.92 372.75 55.34 Q 372.89 55.77 372.89 56.3 Z  M 372 56.17 Q 372.02 55.84 371.94 55.57 Q 371.86 55.3 371.7 55.1 Q 371.53 54.91 371.29 54.8 Q 371.05 54.69 370.73 54.69 Q 370.45 54.69 370.22 54.8 Q 369.98 54.91 369.82 55.1 Q 369.66 55.3 369.55 55.57 Q 369.45 55.84 369.42 56.17 L 372 56.17 Z "/></g><g style="stroke-width: 1.0;stroke: rgb(0,0,0);stroke-opacity: 1.0;stroke-linecap: square;; fill: none" transform="matrix(1,0,0,1,9,6)" clip-path="url(#_5953143282611clip-4)"><path d="M 247 50 L 247 62 L 582 62 L 582 50 Z "/></g><g style="fill: rgb(255,255,230); fill-opacity: 1.0; stroke: none" transform="matrix(1,0,0,1,9,6)" ><path d=""/></g><g style="stroke-width: 1.0;stroke: rgb(0,0,0);stroke-opacity: 1.0;stroke-linecap: square;; fill: none" transform="matrix(1,0,0,1,9,6)" ><path d=""/></g><g style="fill: rgb(255,255,230); fill-opacity: 1.0; stroke: none" transform="matrix(1,0,0,1,9,6)" clip-path="url(#_5953143282611clip-5)"><path d="M 247 62 L 247 257 L 582 257 L 582 62 Z "/></g><rect x="285" y="70.72" width="263.91" height="11.71" style="fill: rgb(255,255,230); fill-opacity: 1.0" transform="matrix(1,0,0,1,9,6)" clip-path="url(#_5953143282611clip-5)"/><g style="fill: rgb(0,0,0); fill-opacity: 1.0; stroke: none" transform="matrix(1,0,0,1,9,6)" clip-path="url(#_5953143282611clip-5)"><path d="M 290.28 72.62 L 289.84 79 L 288.72 79 L 287.94 76.73 L 287.7 76 L 287.48 76.78 L 286.75 79 L 285.66 79 L 285.22 72.62 L 286.05 72.62 L 286.3 76.95 L 286.36 78.16 L 286.67 77.14 L 287.44 74.77 L 288.05 74.77 L 288.94 77.31 L 289.23 78.16 L 289.25 77.27 L 289.5 72.62 L 290.28 72.62 Z  M 295.22 79 L 294.37 79 L 294.37 75.88 Q 294.37 75.3 294.16 75.02 Q 293.95 74.73 293.54 74.73 Q 293.37 74.73 293.22 74.78 Q 293.08 74.83 292.92 74.95 Q 292.76 75.06 292.57 75.26 Q 292.37 75.45 292.12 75.75 L 292.12 79 L 291.28 79 L 291.28 72.09 L 292.12 72.09 L 292.12 74.09 L 292.11 74.88 Q 292.29 74.62 292.49 74.46 Q 292.69 74.3 292.88 74.2 Q 293.08 74.09 293.27 74.05 Q 293.47 74.02 293.69 74.02 Q 294.42 74.02 294.82 74.46 Q 295.22 74.91 295.22 75.8 L 295.22 79 Z  M 300.92 76.3 Q 300.92 76.47 300.91 76.59 Q 300.9 76.72 300.9 76.83 L 297.45 76.83 Q 297.45 77.58 297.87 77.98 Q 298.29 78.38 299.09 78.38 Q 299.31 78.38 299.52 78.36 Q 299.73 78.34 299.93 78.31 Q 300.14 78.28 300.32 78.25 Q 300.5 78.22 300.65 78.17 L 300.65 78.88 Q 300.31 78.97 299.87 79.03 Q 299.43 79.09 298.96 79.09 Q 298.34 79.09 297.89 78.92 Q 297.43 78.75 297.14 78.42 Q 296.84 78.09 296.71 77.62 Q 296.57 77.16 296.57 76.56 Q 296.57 76.05 296.72 75.59 Q 296.87 75.12 297.15 74.77 Q 297.43 74.42 297.85 74.22 Q 298.26 74.02 298.79 74.02 Q 299.31 74.02 299.71 74.17 Q 300.11 74.33 300.37 74.62 Q 300.64 74.92 300.78 75.34 Q 300.92 75.77 300.92 76.3 Z  M 300.03 76.17 Q 300.04 75.84 299.96 75.57 Q 299.89 75.3 299.72 75.1 Q 299.56 74.91 299.32 74.8 Q 299.07 74.69 298.76 74.69 Q 298.48 74.69 298.25 74.8 Q 298.01 74.91 297.85 75.1 Q 297.68 75.3 297.58 75.57 Q 297.48 75.84 297.45 76.17 L 300.03 76.17 Z  M 302.28 74.09 L 303.03 74.09 L 303.07 74.89 Q 303.28 74.64 303.48 74.47 Q 303.68 74.3 303.88 74.2 Q 304.07 74.09 304.27 74.05 Q 304.46 74.02 304.68 74.02 Q 305.45 74.02 305.83 74.46 Q 306.21 74.91 306.21 75.8 L 306.21 79 L 305.37 79 L 305.37 75.88 Q 305.37 75.3 305.15 75.02 Q 304.93 74.73 304.51 74.73 Q 304.35 74.73 304.21 74.78 Q 304.06 74.83 303.89 74.95 Q 303.73 75.06 303.54 75.26 Q 303.35 75.45 303.12 75.75 L 303.12 79 L 302.28 79 L 302.28 74.09 Z  M 317.22 78.94 Q 316.93 79 316.62 79.03 Q 316.32 79.06 316.01 79.06 Q 315.08 79.06 314.63 78.65 Q 314.18 78.23 314.18 77.38 L 314.18 74.81 L 312.8 74.81 L 312.8 74.09 L 314.18 74.09 L 314.18 72.75 L 315.02 72.53 L 315.02 74.09 L 317.22 74.09 L 317.22 74.81 L 315.02 74.81 L 315.02 77.3 Q 315.02 77.83 315.3 78.09 Q 315.58 78.34 316.13 78.34 Q 316.37 78.34 316.64 78.31 Q 316.91 78.28 317.22 78.2 L 317.22 78.94 Z  M 322.71 79 L 321.86 79 L 321.86 75.88 Q 321.86 75.3 321.65 75.02 Q 321.44 74.73 321.04 74.73 Q 320.86 74.73 320.71 74.78 Q 320.57 74.83 320.41 74.95 Q 320.25 75.06 320.06 75.26 Q 319.86 75.45 319.61 75.75 L 319.61 79 L 318.77 79 L 318.77 72.09 L 319.61 72.09 L 319.61 74.09 L 319.6 74.88 Q 319.79 74.62 319.98 74.46 Q 320.18 74.3 320.37 74.2 Q 320.57 74.09 320.76 74.05 Q 320.96 74.02 321.18 74.02 Q 321.91 74.02 322.31 74.46 Q 322.71 74.91 322.71 75.8 L 322.71 79 Z  M 325.94 74.8 L 324.49 74.8 L 324.49 74.09 L 326.8 74.09 L 326.8 78.3 L 328.25 78.3 L 328.25 79 L 324.33 79 L 324.33 78.3 L 325.94 78.3 L 325.94 74.8 Z  M 326.24 72.05 Q 326.38 72.05 326.5 72.09 Q 326.63 72.14 326.71 72.23 Q 326.8 72.33 326.85 72.45 Q 326.91 72.56 326.91 72.7 Q 326.91 72.84 326.85 72.97 Q 326.8 73.09 326.71 73.19 Q 326.63 73.28 326.5 73.33 Q 326.38 73.38 326.24 73.38 Q 326.1 73.38 325.97 73.33 Q 325.85 73.28 325.76 73.19 Q 325.67 73.09 325.62 72.97 Q 325.56 72.84 325.56 72.7 Q 325.56 72.56 325.62 72.45 Q 325.67 72.33 325.76 72.23 Q 325.85 72.14 325.97 72.09 Q 326.1 72.05 326.24 72.05 Z  M 333.64 77.66 Q 333.64 77.92 333.55 78.12 Q 333.47 78.33 333.32 78.48 Q 333.17 78.64 332.97 78.76 Q 332.77 78.88 332.54 78.95 Q 332.31 79.02 332.08 79.05 Q 331.84 79.09 331.61 79.09 Q 331.11 79.09 330.7 79.05 Q 330.28 79 329.88 78.91 L 329.88 78.12 Q 330.3 78.25 330.73 78.31 Q 331.16 78.38 331.58 78.38 Q 332.19 78.38 332.48 78.2 Q 332.77 78.03 332.77 77.73 Q 332.77 77.59 332.72 77.49 Q 332.67 77.39 332.55 77.3 Q 332.44 77.2 332.18 77.1 Q 331.92 77 331.47 76.86 Q 331.14 76.77 330.86 76.64 Q 330.58 76.52 330.38 76.34 Q 330.17 76.17 330.05 75.95 Q 329.94 75.72 329.94 75.41 Q 329.94 75.2 330.03 74.95 Q 330.12 74.7 330.36 74.49 Q 330.59 74.28 330.98 74.15 Q 331.38 74.02 331.95 74.02 Q 332.23 74.02 332.59 74.05 Q 332.94 74.08 333.33 74.16 L 333.33 74.91 Q 332.92 74.81 332.56 74.77 Q 332.2 74.72 331.94 74.72 Q 331.62 74.72 331.41 74.77 Q 331.19 74.81 331.05 74.9 Q 330.92 74.98 330.87 75.1 Q 330.81 75.22 330.81 75.34 Q 330.81 75.48 330.86 75.59 Q 330.91 75.69 331.05 75.79 Q 331.19 75.89 331.44 75.99 Q 331.69 76.09 332.08 76.22 Q 332.52 76.34 332.81 76.48 Q 333.11 76.61 333.3 76.78 Q 333.48 76.95 333.56 77.17 Q 333.64 77.39 333.64 77.66 Z  M 342.43 74.8 L 340.98 74.8 L 340.98 74.09 L 343.29 74.09 L 343.29 78.3 L 344.75 78.3 L 344.75 79 L 340.82 79 L 340.82 78.3 L 342.43 78.3 L 342.43 74.8 Z  M 342.73 72.05 Q 342.87 72.05 343 72.09 Q 343.12 72.14 343.21 72.23 Q 343.29 72.33 343.35 72.45 Q 343.4 72.56 343.4 72.7 Q 343.4 72.84 343.35 72.97 Q 343.29 73.09 343.21 73.19 Q 343.12 73.28 343 73.33 Q 342.87 73.38 342.73 73.38 Q 342.59 73.38 342.46 73.33 Q 342.34 73.28 342.25 73.19 Q 342.17 73.09 342.11 72.97 Q 342.06 72.84 342.06 72.7 Q 342.06 72.56 342.11 72.45 Q 342.17 72.33 342.25 72.23 Q 342.34 72.14 342.46 72.09 Q 342.59 72.05 342.73 72.05 Z  M 350.21 78.94 Q 349.92 79 349.61 79.03 Q 349.31 79.06 348.99 79.06 Q 348.07 79.06 347.62 78.65 Q 347.17 78.23 347.17 77.38 L 347.17 74.81 L 345.79 74.81 L 345.79 74.09 L 347.17 74.09 L 347.17 72.75 L 348.01 72.53 L 348.01 74.09 L 350.21 74.09 L 350.21 74.81 L 348.01 74.81 L 348.01 77.3 Q 348.01 77.83 348.29 78.09 Q 348.57 78.34 349.12 78.34 Q 349.35 78.34 349.63 78.31 Q 349.9 78.28 350.21 78.2 L 350.21 78.94 Z  M 355.9 76.3 Q 355.9 76.47 355.89 76.59 Q 355.88 76.72 355.88 76.83 L 352.43 76.83 Q 352.43 77.58 352.85 77.98 Q 353.27 78.38 354.07 78.38 Q 354.29 78.38 354.5 78.36 Q 354.71 78.34 354.91 78.31 Q 355.12 78.28 355.3 78.25 Q 355.48 78.22 355.63 78.17 L 355.63 78.88 Q 355.29 78.97 354.85 79.03 Q 354.41 79.09 353.95 79.09 Q 353.32 79.09 352.87 78.92 Q 352.41 78.75 352.12 78.42 Q 351.82 78.09 351.69 77.62 Q 351.55 77.16 351.55 76.56 Q 351.55 76.05 351.7 75.59 Q 351.85 75.12 352.13 74.77 Q 352.41 74.42 352.83 74.22 Q 353.24 74.02 353.77 74.02 Q 354.29 74.02 354.69 74.17 Q 355.09 74.33 355.35 74.62 Q 355.62 74.92 355.76 75.34 Q 355.9 75.77 355.9 76.3 Z  M 355.01 76.17 Q 355.02 75.84 354.95 75.57 Q 354.87 75.3 354.7 75.1 Q 354.54 74.91 354.3 74.8 Q 354.05 74.69 353.74 74.69 Q 353.46 74.69 353.23 74.8 Q 352.99 74.91 352.83 75.1 Q 352.66 75.3 352.56 75.57 Q 352.46 75.84 352.43 76.17 L 355.01 76.17 Z  M 360.76 79 L 360.76 75.48 Q 360.76 75.25 360.74 75.1 Q 360.72 74.95 360.69 74.87 Q 360.65 74.78 360.59 74.75 Q 360.54 74.72 360.44 74.72 Q 360.35 74.72 360.27 74.77 Q 360.19 74.83 360.09 74.96 Q 359.99 75.09 359.88 75.31 Q 359.77 75.53 359.62 75.84 L 359.62 79 L 358.83 79 L 358.83 75.58 Q 358.83 75.3 358.82 75.13 Q 358.8 74.97 358.76 74.88 Q 358.72 74.78 358.67 74.75 Q 358.62 74.72 358.52 74.72 Q 358.44 74.72 358.37 74.77 Q 358.29 74.81 358.19 74.94 Q 358.08 75.06 357.97 75.29 Q 357.85 75.52 357.69 75.84 L 357.69 79 L 356.91 79 L 356.91 74.09 L 357.57 74.09 L 357.6 75.03 Q 357.72 74.75 357.85 74.55 Q 357.97 74.36 358.1 74.24 Q 358.22 74.12 358.37 74.07 Q 358.51 74.02 358.69 74.02 Q 359.08 74.02 359.29 74.27 Q 359.49 74.53 359.49 75.06 Q 359.62 74.81 359.72 74.62 Q 359.83 74.42 359.97 74.29 Q 360.1 74.16 360.26 74.09 Q 360.41 74.02 360.62 74.02 Q 361.54 74.02 361.54 75.44 L 361.54 79 L 360.76 79 Z  M 369.92 74.8 L 368.47 74.8 L 368.47 74.09 L 370.78 74.09 L 370.78 78.3 L 372.24 78.3 L 372.24 79 L 368.31 79 L 368.31 78.3 L 369.92 78.3 L 369.92 74.8 Z  M 370.22 72.05 Q 370.36 72.05 370.49 72.09 Q 370.61 72.14 370.7 72.23 Q 370.78 72.33 370.84 72.45 Q 370.89 72.56 370.89 72.7 Q 370.89 72.84 370.84 72.97 Q 370.78 73.09 370.7 73.19 Q 370.61 73.28 370.49 73.33 Q 370.36 73.38 370.22 73.38 Q 370.08 73.38 369.96 73.33 Q 369.83 73.28 369.74 73.19 Q 369.66 73.09 369.6 72.97 Q 369.55 72.84 369.55 72.7 Q 369.55 72.56 369.6 72.45 Q 369.66 72.33 369.74 72.23 Q 369.83 72.14 369.96 72.09 Q 370.08 72.05 370.22 72.05 Z  M 377.62 77.66 Q 377.62 77.92 377.54 78.12 Q 377.45 78.33 377.3 78.48 Q 377.16 78.64 376.95 78.76 Q 376.75 78.88 376.52 78.95 Q 376.3 79.02 376.06 79.05 Q 375.83 79.09 375.59 79.09 Q 375.09 79.09 374.68 79.05 Q 374.27 79 373.86 78.91 L 373.86 78.12 Q 374.28 78.25 374.71 78.31 Q 375.14 78.38 375.56 78.38 Q 376.17 78.38 376.46 78.2 Q 376.75 78.03 376.75 77.73 Q 376.75 77.59 376.7 77.49 Q 376.66 77.39 376.54 77.3 Q 376.42 77.2 376.16 77.1 Q 375.91 77 375.45 76.86 Q 375.12 76.77 374.84 76.64 Q 374.56 76.52 374.36 76.34 Q 374.16 76.17 374.04 75.95 Q 373.92 75.72 373.92 75.41 Q 373.92 75.2 374.02 74.95 Q 374.11 74.7 374.34 74.49 Q 374.58 74.28 374.97 74.15 Q 375.36 74.02 375.94 74.02 Q 376.22 74.02 376.57 74.05 Q 376.92 74.08 377.31 74.16 L 377.31 74.91 Q 376.91 74.81 376.55 74.77 Q 376.19 74.72 375.92 74.72 Q 375.61 74.72 375.39 74.77 Q 375.17 74.81 375.04 74.9 Q 374.91 74.98 374.85 75.1 Q 374.8 75.22 374.8 75.34 Q 374.8 75.48 374.84 75.59 Q 374.89 75.69 375.03 75.79 Q 375.17 75.89 375.42 75.99 Q 375.67 76.09 376.06 76.22 Q 376.5 76.34 376.8 76.48 Q 377.09 76.61 377.28 76.78 Q 377.47 76.95 377.55 77.17 Q 377.62 77.39 377.62 77.66 Z  M 384.5 76.66 Q 384.5 76.03 384.67 75.54 Q 384.84 75.05 385.15 74.72 Q 385.46 74.39 385.91 74.21 Q 386.36 74.03 386.9 74.03 Q 387.14 74.03 387.36 74.06 Q 387.59 74.09 387.81 74.16 L 387.81 72.09 L 388.65 72.09 L 388.65 79 L 387.9 79 L 387.87 78.08 Q 387.51 78.59 387.1 78.84 Q 386.68 79.09 386.2 79.09 Q 385.78 79.09 385.46 78.91 Q 385.14 78.73 384.93 78.41 Q 384.71 78.09 384.61 77.65 Q 384.5 77.2 384.5 76.66 Z  M 385.37 76.59 Q 385.37 77.48 385.63 77.92 Q 385.89 78.36 386.37 78.36 Q 386.68 78.36 387.04 78.07 Q 387.4 77.78 387.81 77.22 L 387.81 74.94 Q 387.59 74.84 387.34 74.79 Q 387.09 74.73 386.84 74.73 Q 386.14 74.73 385.75 75.19 Q 385.37 75.64 385.37 76.59 Z  M 394.38 76.3 Q 394.38 76.47 394.38 76.59 Q 394.37 76.72 394.37 76.83 L 390.92 76.83 Q 390.92 77.58 391.34 77.98 Q 391.76 78.38 392.56 78.38 Q 392.78 78.38 392.99 78.36 Q 393.2 78.34 393.4 78.31 Q 393.6 78.28 393.78 78.25 Q 393.96 78.22 394.12 78.17 L 394.12 78.88 Q 393.78 78.97 393.34 79.03 Q 392.9 79.09 392.43 79.09 Q 391.81 79.09 391.35 78.92 Q 390.9 78.75 390.6 78.42 Q 390.31 78.09 390.17 77.62 Q 390.04 77.16 390.04 76.56 Q 390.04 76.05 390.19 75.59 Q 390.34 75.12 390.62 74.77 Q 390.9 74.42 391.31 74.22 Q 391.73 74.02 392.26 74.02 Q 392.78 74.02 393.17 74.17 Q 393.57 74.33 393.84 74.62 Q 394.1 74.92 394.24 75.34 Q 394.38 75.77 394.38 76.3 Z  M 393.49 76.17 Q 393.51 75.84 393.43 75.57 Q 393.35 75.3 393.19 75.1 Q 393.03 74.91 392.78 74.8 Q 392.54 74.69 392.23 74.69 Q 391.95 74.69 391.71 74.8 Q 391.48 74.91 391.31 75.1 Q 391.15 75.3 391.05 75.57 Q 390.95 75.84 390.92 76.17 L 393.49 76.17 Z  M 399.62 77.66 Q 399.62 77.92 399.53 78.12 Q 399.45 78.33 399.3 78.48 Q 399.15 78.64 398.95 78.76 Q 398.74 78.88 398.52 78.95 Q 398.29 79.02 398.05 79.05 Q 397.82 79.09 397.59 79.09 Q 397.09 79.09 396.67 79.05 Q 396.26 79 395.85 78.91 L 395.85 78.12 Q 396.27 78.25 396.7 78.31 Q 397.13 78.38 397.55 78.38 Q 398.16 78.38 398.45 78.2 Q 398.74 78.03 398.74 77.73 Q 398.74 77.59 398.7 77.49 Q 398.65 77.39 398.53 77.3 Q 398.41 77.2 398.16 77.1 Q 397.9 77 397.45 76.86 Q 397.12 76.77 396.84 76.64 Q 396.55 76.52 396.35 76.34 Q 396.15 76.17 396.03 75.95 Q 395.91 75.72 395.91 75.41 Q 395.91 75.2 396.01 74.95 Q 396.1 74.7 396.34 74.49 Q 396.57 74.28 396.96 74.15 Q 397.35 74.02 397.93 74.02 Q 398.21 74.02 398.56 74.05 Q 398.91 74.08 399.3 74.16 L 399.3 74.91 Q 398.9 74.81 398.54 74.77 Q 398.18 74.72 397.91 74.72 Q 397.6 74.72 397.38 74.77 Q 397.16 74.81 397.03 74.9 Q 396.9 74.98 396.84 75.1 Q 396.79 75.22 396.79 75.34 Q 396.79 75.48 396.84 75.59 Q 396.88 75.69 397.02 75.79 Q 397.16 75.89 397.41 75.99 Q 397.66 76.09 398.05 76.22 Q 398.49 76.34 398.79 76.48 Q 399.09 76.61 399.27 76.78 Q 399.46 76.95 399.54 77.17 Q 399.62 77.39 399.62 77.66 Z  M 405.19 78.94 Q 404.9 79 404.59 79.03 Q 404.29 79.06 403.97 79.06 Q 403.05 79.06 402.6 78.65 Q 402.15 78.23 402.15 77.38 L 402.15 74.81 L 400.77 74.81 L 400.77 74.09 L 402.15 74.09 L 402.15 72.75 L 402.99 72.53 L 402.99 74.09 L 405.19 74.09 L 405.19 74.81 L 402.99 74.81 L 402.99 77.3 Q 402.99 77.83 403.27 78.09 Q 403.55 78.34 404.1 78.34 Q 404.33 78.34 404.61 78.31 Q 404.88 78.28 405.19 78.2 L 405.19 78.94 Z  M 406.94 74.09 L 407.72 74.09 L 407.74 75 Q 408.18 74.48 408.6 74.25 Q 409.02 74.02 409.44 74.02 Q 410.21 74.02 410.61 74.51 Q 411 75 410.97 75.97 L 410.11 75.97 Q 410.13 75.33 409.93 75.03 Q 409.72 74.73 409.33 74.73 Q 409.16 74.73 408.99 74.8 Q 408.82 74.86 408.63 74.99 Q 408.44 75.12 408.24 75.34 Q 408.04 75.55 407.8 75.84 L 407.8 79 L 406.94 79 L 406.94 74.09 Z  M 416.5 76.52 Q 416.5 77.08 416.35 77.55 Q 416.19 78.03 415.88 78.38 Q 415.58 78.72 415.14 78.91 Q 414.71 79.09 414.16 79.09 Q 413.63 79.09 413.21 78.93 Q 412.8 78.77 412.5 78.45 Q 412.21 78.12 412.06 77.66 Q 411.91 77.19 411.91 76.58 Q 411.91 76 412.06 75.53 Q 412.22 75.06 412.53 74.73 Q 412.83 74.39 413.27 74.2 Q 413.71 74.02 414.25 74.02 Q 414.78 74.02 415.2 74.18 Q 415.61 74.34 415.9 74.66 Q 416.19 74.97 416.35 75.44 Q 416.5 75.91 416.5 76.52 Z  M 415.64 76.55 Q 415.64 76.09 415.54 75.76 Q 415.44 75.42 415.25 75.2 Q 415.06 74.97 414.8 74.85 Q 414.53 74.73 414.21 74.73 Q 413.83 74.73 413.56 74.88 Q 413.28 75.03 413.11 75.28 Q 412.94 75.53 412.85 75.86 Q 412.77 76.19 412.77 76.55 Q 412.77 77 412.87 77.34 Q 412.97 77.69 413.16 77.91 Q 413.35 78.14 413.61 78.26 Q 413.88 78.38 414.21 78.38 Q 414.58 78.38 414.85 78.23 Q 415.13 78.08 415.3 77.83 Q 415.47 77.58 415.56 77.25 Q 415.64 76.92 415.64 76.55 Z  M 422.09 74.09 L 420.42 78.48 Q 420.17 79.16 419.89 79.64 Q 419.61 80.12 419.28 80.43 Q 418.95 80.73 418.56 80.88 Q 418.17 81.03 417.7 81.03 Q 417.56 81.03 417.46 81.02 Q 417.36 81.02 417.23 81.02 L 417.23 80.23 Q 417.34 80.25 417.48 80.27 Q 417.61 80.28 417.75 80.28 Q 417.98 80.28 418.19 80.21 Q 418.39 80.14 418.57 79.98 Q 418.75 79.83 418.91 79.59 Q 419.08 79.34 419.23 79 L 417.28 74.09 L 418.25 74.09 L 419.48 77.34 L 419.73 78.09 L 420.02 77.31 L 421.16 74.09 L 422.09 74.09 Z  M 427.37 76.3 Q 427.37 76.47 427.37 76.59 Q 427.36 76.72 427.36 76.83 L 423.9 76.83 Q 423.9 77.58 424.33 77.98 Q 424.75 78.38 425.54 78.38 Q 425.76 78.38 425.97 78.36 Q 426.19 78.34 426.39 78.31 Q 426.59 78.28 426.77 78.25 Q 426.95 78.22 427.11 78.17 L 427.11 78.88 Q 426.76 78.97 426.33 79.03 Q 425.89 79.09 425.42 79.09 Q 424.79 79.09 424.34 78.92 Q 423.89 78.75 423.59 78.42 Q 423.29 78.09 423.16 77.62 Q 423.03 77.16 423.03 76.56 Q 423.03 76.05 423.18 75.59 Q 423.33 75.12 423.61 74.77 Q 423.89 74.42 424.3 74.22 Q 424.72 74.02 425.25 74.02 Q 425.76 74.02 426.16 74.17 Q 426.56 74.33 426.83 74.62 Q 427.09 74.92 427.23 75.34 Q 427.37 75.77 427.37 76.3 Z  M 426.48 76.17 Q 426.5 75.84 426.42 75.57 Q 426.34 75.3 426.18 75.1 Q 426.01 74.91 425.77 74.8 Q 425.53 74.69 425.22 74.69 Q 424.94 74.69 424.7 74.8 Q 424.47 74.91 424.3 75.1 Q 424.14 75.3 424.04 75.57 Q 423.94 75.84 423.9 76.17 L 426.48 76.17 Z  M 428.48 76.66 Q 428.48 76.03 428.65 75.54 Q 428.82 75.05 429.14 74.72 Q 429.45 74.39 429.89 74.21 Q 430.34 74.03 430.89 74.03 Q 431.12 74.03 431.35 74.06 Q 431.57 74.09 431.79 74.16 L 431.79 72.09 L 432.64 72.09 L 432.64 79 L 431.89 79 L 431.86 78.08 Q 431.5 78.59 431.08 78.84 Q 430.67 79.09 430.18 79.09 Q 429.76 79.09 429.44 78.91 Q 429.12 78.73 428.91 78.41 Q 428.7 78.09 428.59 77.65 Q 428.48 77.2 428.48 76.66 Z  M 429.36 76.59 Q 429.36 77.48 429.61 77.92 Q 429.87 78.36 430.36 78.36 Q 430.67 78.36 431.03 78.07 Q 431.39 77.78 431.79 77.22 L 431.79 74.94 Q 431.57 74.84 431.32 74.79 Q 431.07 74.73 430.82 74.73 Q 430.12 74.73 429.74 75.19 Q 429.36 75.64 429.36 76.59 Z  M 434.6 80 Q 434.85 80.02 435.09 79.96 Q 435.32 79.91 435.5 79.8 Q 435.68 79.69 435.79 79.53 Q 435.9 79.38 435.9 79.19 Q 435.9 78.97 435.83 78.84 Q 435.76 78.72 435.67 78.61 Q 435.59 78.5 435.52 78.38 Q 435.45 78.27 435.45 78.06 Q 435.45 77.95 435.49 77.84 Q 435.53 77.73 435.6 77.64 Q 435.68 77.55 435.81 77.48 Q 435.93 77.42 436.1 77.42 Q 436.28 77.42 436.43 77.49 Q 436.59 77.56 436.71 77.71 Q 436.82 77.86 436.89 78.08 Q 436.96 78.3 436.96 78.59 Q 436.96 79 436.81 79.38 Q 436.67 79.75 436.37 80.04 Q 436.07 80.33 435.63 80.5 Q 435.2 80.67 434.6 80.67 L 434.6 80 Z  M 448.76 74.8 Q 448.9 74.97 448.97 75.2 Q 449.04 75.42 449.04 75.67 Q 449.04 76.06 448.9 76.38 Q 448.77 76.69 448.51 76.91 Q 448.26 77.14 447.9 77.27 Q 447.55 77.39 447.13 77.39 Q 446.82 77.39 446.55 77.32 Q 446.29 77.25 446.13 77.16 Q 446.04 77.3 445.97 77.42 Q 445.9 77.55 445.9 77.69 Q 445.9 77.88 446.08 78 Q 446.26 78.12 446.55 78.12 L 447.85 78.17 Q 448.21 78.19 448.52 78.27 Q 448.83 78.36 449.05 78.52 Q 449.27 78.67 449.4 78.9 Q 449.52 79.12 449.52 79.44 Q 449.52 79.75 449.38 80.05 Q 449.24 80.34 448.94 80.56 Q 448.65 80.78 448.19 80.91 Q 447.74 81.05 447.12 81.05 Q 446.52 81.05 446.1 80.95 Q 445.68 80.86 445.41 80.7 Q 445.15 80.53 445.02 80.3 Q 444.9 80.06 444.9 79.78 Q 444.9 79.42 445.07 79.16 Q 445.24 78.89 445.58 78.64 Q 445.46 78.58 445.37 78.49 Q 445.27 78.41 445.21 78.3 Q 445.15 78.19 445.12 78.07 Q 445.1 77.95 445.1 77.84 Q 445.1 77.53 445.25 77.27 Q 445.4 77 445.6 76.77 Q 445.51 76.66 445.44 76.55 Q 445.37 76.44 445.31 76.31 Q 445.26 76.19 445.23 76.05 Q 445.21 75.91 445.21 75.72 Q 445.21 75.34 445.35 75.02 Q 445.49 74.7 445.74 74.48 Q 445.99 74.27 446.34 74.14 Q 446.69 74.02 447.13 74.02 Q 447.3 74.02 447.47 74.04 Q 447.63 74.06 447.77 74.09 L 449.54 74.09 L 449.54 74.8 L 448.76 74.8 Z  M 445.8 79.7 Q 445.8 80.06 446.16 80.22 Q 446.52 80.38 447.18 80.38 Q 447.58 80.38 447.86 80.3 Q 448.13 80.22 448.3 80.1 Q 448.47 79.98 448.54 79.83 Q 448.62 79.67 448.62 79.52 Q 448.62 79.22 448.37 79.08 Q 448.13 78.94 447.62 78.91 L 446.35 78.88 Q 446.18 78.97 446.08 79.08 Q 445.97 79.19 445.91 79.29 Q 445.85 79.39 445.83 79.49 Q 445.8 79.59 445.8 79.7 Z  M 446.07 75.7 Q 446.07 75.94 446.15 76.13 Q 446.22 76.33 446.37 76.46 Q 446.51 76.59 446.7 76.67 Q 446.9 76.75 447.13 76.75 Q 447.38 76.75 447.58 76.66 Q 447.77 76.58 447.9 76.43 Q 448.04 76.28 448.11 76.09 Q 448.18 75.91 448.18 75.7 Q 448.18 75.47 448.1 75.27 Q 448.02 75.08 447.88 74.94 Q 447.74 74.8 447.55 74.73 Q 447.37 74.66 447.13 74.66 Q 446.87 74.66 446.67 74.74 Q 446.47 74.83 446.34 74.97 Q 446.21 75.11 446.14 75.3 Q 446.07 75.5 446.07 75.7 Z  M 453.88 79 L 453.85 78.34 Q 453.46 78.73 453.04 78.91 Q 452.63 79.09 452.18 79.09 Q 451.75 79.09 451.46 78.98 Q 451.16 78.88 450.96 78.69 Q 450.77 78.5 450.68 78.24 Q 450.6 77.98 450.6 77.69 Q 450.6 76.95 451.14 76.54 Q 451.69 76.12 452.77 76.12 L 453.79 76.12 L 453.79 75.69 Q 453.79 75.25 453.5 74.99 Q 453.22 74.73 452.64 74.73 Q 452.24 74.73 451.83 74.83 Q 451.43 74.92 451 75.09 L 451 74.33 Q 451.16 74.27 451.36 74.21 Q 451.55 74.16 451.78 74.11 Q 452 74.06 452.24 74.04 Q 452.47 74.02 452.72 74.02 Q 453.16 74.02 453.52 74.11 Q 453.88 74.2 454.12 74.41 Q 454.36 74.61 454.5 74.91 Q 454.63 75.2 454.63 75.62 L 454.63 79 L 453.88 79 Z  M 453.79 76.77 L 452.71 76.77 Q 452.38 76.77 452.15 76.83 Q 451.93 76.89 451.78 77.01 Q 451.63 77.12 451.56 77.29 Q 451.49 77.45 451.49 77.66 Q 451.49 77.8 451.54 77.93 Q 451.58 78.06 451.68 78.16 Q 451.77 78.27 451.93 78.32 Q 452.08 78.38 452.32 78.38 Q 452.6 78.38 452.98 78.2 Q 453.36 78.02 453.79 77.64 L 453.79 76.77 Z  M 457.89 74.8 L 456.44 74.8 L 456.44 74.09 L 458.75 74.09 L 458.75 78.3 L 460.21 78.3 L 460.21 79 L 456.28 79 L 456.28 78.3 L 457.89 78.3 L 457.89 74.8 Z  M 458.19 72.05 Q 458.33 72.05 458.46 72.09 Q 458.58 72.14 458.67 72.23 Q 458.75 72.33 458.81 72.45 Q 458.86 72.56 458.86 72.7 Q 458.86 72.84 458.81 72.97 Q 458.75 73.09 458.67 73.19 Q 458.58 73.28 458.46 73.33 Q 458.33 73.38 458.19 73.38 Q 458.05 73.38 457.92 73.33 Q 457.8 73.28 457.71 73.19 Q 457.63 73.09 457.57 72.97 Q 457.52 72.84 457.52 72.7 Q 457.52 72.56 457.57 72.45 Q 457.63 72.33 457.71 72.23 Q 457.8 72.14 457.92 72.09 Q 458.05 72.05 458.19 72.05 Z  M 461.72 74.09 L 462.47 74.09 L 462.52 74.89 Q 462.72 74.64 462.92 74.47 Q 463.12 74.3 463.32 74.2 Q 463.52 74.09 463.71 74.05 Q 463.91 74.02 464.12 74.02 Q 464.89 74.02 465.27 74.46 Q 465.66 74.91 465.66 75.8 L 465.66 79 L 464.81 79 L 464.81 75.88 Q 464.81 75.3 464.59 75.02 Q 464.38 74.73 463.95 74.73 Q 463.8 74.73 463.65 74.78 Q 463.5 74.83 463.34 74.95 Q 463.17 75.06 462.98 75.26 Q 462.8 75.45 462.56 75.75 L 462.56 79 L 461.72 79 L 461.72 74.09 Z  M 476.54 79 L 472.92 79 L 472.92 72.62 L 476.54 72.62 L 476.54 73.34 L 473.78 73.34 L 473.78 75.33 L 476.43 75.33 L 476.43 76.06 L 473.78 76.06 L 473.78 78.25 L 476.54 78.25 L 476.54 79 Z  M 482.88 79 L 481.93 79 L 481.49 77.61 L 478.84 77.61 L 478.38 79 L 477.48 79 L 479.6 72.62 L 480.79 72.62 L 482.88 79 Z  M 481.24 76.83 L 480.17 73.42 L 479.09 76.83 L 481.24 76.83 Z  M 488.05 79 L 487.09 79 L 486.13 76.95 Q 486.02 76.72 485.91 76.57 Q 485.79 76.42 485.66 76.33 Q 485.54 76.23 485.38 76.2 Q 485.23 76.16 485.04 76.16 L 484.63 76.16 L 484.63 79 L 483.76 79 L 483.76 72.62 L 485.48 72.62 Q 486.02 72.62 486.42 72.74 Q 486.82 72.86 487.08 73.08 Q 487.34 73.3 487.46 73.61 Q 487.59 73.92 487.59 74.3 Q 487.59 74.59 487.49 74.86 Q 487.4 75.12 487.23 75.34 Q 487.05 75.56 486.8 75.72 Q 486.54 75.88 486.21 75.95 Q 486.48 76.05 486.66 76.28 Q 486.85 76.52 487.05 76.91 L 488.05 79 Z  M 486.66 74.38 Q 486.66 73.86 486.34 73.6 Q 486.02 73.34 485.45 73.34 L 484.63 73.34 L 484.63 75.45 L 485.34 75.45 Q 485.63 75.45 485.88 75.38 Q 486.13 75.31 486.3 75.18 Q 486.48 75.05 486.57 74.84 Q 486.66 74.64 486.66 74.38 Z  M 493.51 73.36 L 491.62 73.36 L 491.62 79 L 490.74 79 L 490.74 73.36 L 488.85 73.36 L 488.85 72.62 L 493.51 72.62 L 493.51 73.36 Z  M 498.89 79 L 498.02 79 L 498.02 76.06 L 495.33 76.06 L 495.33 79 L 494.47 79 L 494.47 72.62 L 495.33 72.62 L 495.33 75.31 L 498.02 75.31 L 498.02 72.62 L 498.89 72.62 L 498.89 79 Z  M 507.38 74.8 L 505.92 74.8 L 505.92 74.09 L 508.23 74.09 L 508.23 78.3 L 509.69 78.3 L 509.69 79 L 505.77 79 L 505.77 78.3 L 507.38 78.3 L 507.38 74.8 Z  M 507.67 72.05 Q 507.81 72.05 507.94 72.09 Q 508.06 72.14 508.15 72.23 Q 508.23 72.33 508.29 72.45 Q 508.34 72.56 508.34 72.7 Q 508.34 72.84 508.29 72.97 Q 508.23 73.09 508.15 73.19 Q 508.06 73.28 507.94 73.33 Q 507.81 73.38 507.67 73.38 Q 507.53 73.38 507.41 73.33 Q 507.28 73.28 507.2 73.19 Q 507.11 73.09 507.05 72.97 Q 507 72.84 507 72.7 Q 507 72.56 507.05 72.45 Q 507.11 72.33 507.2 72.23 Q 507.28 72.14 507.41 72.09 Q 507.53 72.05 507.67 72.05 Z  M 511.2 74.09 L 511.95 74.09 L 512 74.89 Q 512.2 74.64 512.4 74.47 Q 512.61 74.3 512.8 74.2 Q 513 74.09 513.19 74.05 Q 513.39 74.02 513.61 74.02 Q 514.37 74.02 514.76 74.46 Q 515.14 74.91 515.14 75.8 L 515.14 79 L 514.29 79 L 514.29 75.88 Q 514.29 75.3 514.08 75.02 Q 513.86 74.73 513.44 74.73 Q 513.28 74.73 513.13 74.78 Q 512.98 74.83 512.82 74.95 Q 512.65 75.06 512.47 75.26 Q 512.28 75.45 512.04 75.75 L 512.04 79 L 511.2 79 L 511.2 74.09 Z  M 526.56 74.09 L 524.88 78.48 Q 524.63 79.16 524.35 79.64 Q 524.07 80.12 523.74 80.43 Q 523.42 80.73 523.03 80.88 Q 522.63 81.03 522.17 81.03 Q 522.03 81.03 521.92 81.02 Q 521.82 81.02 521.7 81.02 L 521.7 80.23 Q 521.81 80.25 521.94 80.27 Q 522.07 80.28 522.21 80.28 Q 522.45 80.28 522.65 80.21 Q 522.85 80.14 523.03 79.98 Q 523.21 79.83 523.38 79.59 Q 523.54 79.34 523.7 79 L 521.74 74.09 L 522.71 74.09 L 523.95 77.34 L 524.2 78.09 L 524.48 77.31 L 525.62 74.09 L 526.56 74.09 Z  M 531.96 76.52 Q 531.96 77.08 531.8 77.55 Q 531.65 78.03 531.34 78.38 Q 531.04 78.72 530.6 78.91 Q 530.16 79.09 529.62 79.09 Q 529.09 79.09 528.67 78.93 Q 528.26 78.77 527.96 78.45 Q 527.66 78.12 527.52 77.66 Q 527.37 77.19 527.37 76.58 Q 527.37 76 527.52 75.53 Q 527.68 75.06 527.98 74.73 Q 528.29 74.39 528.73 74.2 Q 529.16 74.02 529.71 74.02 Q 530.24 74.02 530.66 74.18 Q 531.07 74.34 531.36 74.66 Q 531.65 74.97 531.8 75.44 Q 531.96 75.91 531.96 76.52 Z  M 531.1 76.55 Q 531.1 76.09 531 75.76 Q 530.9 75.42 530.71 75.2 Q 530.52 74.97 530.26 74.85 Q 529.99 74.73 529.66 74.73 Q 529.29 74.73 529.02 74.88 Q 528.74 75.03 528.57 75.28 Q 528.4 75.53 528.31 75.86 Q 528.23 76.19 528.23 76.55 Q 528.23 77 528.33 77.34 Q 528.43 77.69 528.62 77.91 Q 528.8 78.14 529.07 78.26 Q 529.34 78.38 529.66 78.38 Q 530.04 78.38 530.31 78.23 Q 530.59 78.08 530.76 77.83 Q 530.93 77.58 531.02 77.25 Q 531.1 76.92 531.1 76.55 Z  M 537.13 79 L 536.37 79 L 536.35 78.2 Q 536.13 78.47 535.93 78.63 Q 535.72 78.8 535.53 78.9 Q 535.33 79 535.14 79.05 Q 534.94 79.09 534.72 79.09 Q 533.96 79.09 533.58 78.65 Q 533.19 78.2 533.19 77.3 L 533.19 74.09 L 534.04 74.09 L 534.04 77.23 Q 534.04 78.36 534.9 78.36 Q 535.05 78.36 535.2 78.31 Q 535.35 78.27 535.51 78.15 Q 535.68 78.03 535.87 77.84 Q 536.05 77.64 536.29 77.34 L 536.29 74.09 L 537.13 74.09 L 537.13 79 Z  M 538.89 74.09 L 539.68 74.09 L 539.69 75 Q 540.13 74.48 540.55 74.25 Q 540.97 74.02 541.39 74.02 Q 542.16 74.02 542.56 74.51 Q 542.96 75 542.93 75.97 L 542.07 75.97 Q 542.08 75.33 541.88 75.03 Q 541.68 74.73 541.29 74.73 Q 541.11 74.73 540.94 74.8 Q 540.77 74.86 540.58 74.99 Q 540.39 75.12 540.19 75.34 Q 539.99 75.55 539.75 75.84 L 539.75 79 L 538.89 79 L 538.89 74.09 Z "/></g><rect x="356" y="81.72" width="192.43" height="11.71" style="fill: rgb(255,255,230); fill-opacity: 1.0" transform="matrix(1,0,0,1,9,6)" clip-path="url(#_5953143282611clip-5)"/><g style="fill: rgb(0,0,0); fill-opacity: 1.0; stroke: none" transform="matrix(1,0,0,1,9,6)" clip-path="url(#_5953143282611clip-5)"><path d="M 356.53 87.66 Q 356.53 87.03 356.7 86.54 Q 356.88 86.05 357.19 85.72 Q 357.5 85.39 357.95 85.21 Q 358.39 85.03 358.94 85.03 Q 359.17 85.03 359.4 85.06 Q 359.62 85.09 359.84 85.16 L 359.84 83.09 L 360.69 83.09 L 360.69 90 L 359.94 90 L 359.91 89.08 Q 359.55 89.59 359.13 89.84 Q 358.72 90.09 358.23 90.09 Q 357.81 90.09 357.49 89.91 Q 357.17 89.73 356.96 89.41 Q 356.75 89.09 356.64 88.65 Q 356.53 88.2 356.53 87.66 Z  M 357.41 87.59 Q 357.41 88.48 357.66 88.92 Q 357.92 89.36 358.41 89.36 Q 358.72 89.36 359.08 89.07 Q 359.44 88.78 359.84 88.22 L 359.84 85.94 Q 359.62 85.84 359.38 85.79 Q 359.12 85.73 358.88 85.73 Q 358.17 85.73 357.79 86.19 Q 357.41 86.64 357.41 87.59 Z  M 366.54 87.52 Q 366.54 88.08 366.39 88.55 Q 366.23 89.03 365.93 89.38 Q 365.62 89.72 365.19 89.91 Q 364.75 90.09 364.2 90.09 Q 363.67 90.09 363.26 89.93 Q 362.84 89.77 362.54 89.45 Q 362.25 89.12 362.1 88.66 Q 361.95 88.19 361.95 87.58 Q 361.95 87 362.11 86.53 Q 362.26 86.06 362.57 85.73 Q 362.87 85.39 363.31 85.2 Q 363.75 85.02 364.29 85.02 Q 364.83 85.02 365.24 85.18 Q 365.65 85.34 365.94 85.66 Q 366.23 85.97 366.39 86.44 Q 366.54 86.91 366.54 87.52 Z  M 365.69 87.55 Q 365.69 87.09 365.58 86.76 Q 365.48 86.42 365.29 86.2 Q 365.11 85.97 364.84 85.85 Q 364.58 85.73 364.25 85.73 Q 363.87 85.73 363.6 85.88 Q 363.33 86.03 363.15 86.28 Q 362.98 86.53 362.9 86.86 Q 362.81 87.19 362.81 87.55 Q 362.81 88 362.91 88.34 Q 363.01 88.69 363.2 88.91 Q 363.39 89.14 363.65 89.26 Q 363.92 89.38 364.25 89.38 Q 364.62 89.38 364.9 89.23 Q 365.17 89.08 365.34 88.83 Q 365.51 88.58 365.6 88.25 Q 365.69 87.92 365.69 87.55 Z  M 371.28 90 L 371.28 86.48 Q 371.28 86.25 371.26 86.1 Q 371.25 85.95 371.21 85.87 Q 371.17 85.78 371.11 85.75 Q 371.06 85.72 370.96 85.72 Q 370.87 85.72 370.79 85.77 Q 370.71 85.83 370.61 85.96 Q 370.51 86.09 370.4 86.31 Q 370.29 86.53 370.14 86.84 L 370.14 90 L 369.36 90 L 369.36 86.58 Q 369.36 86.3 369.34 86.13 Q 369.32 85.97 369.29 85.88 Q 369.25 85.78 369.19 85.75 Q 369.14 85.72 369.04 85.72 Q 368.96 85.72 368.89 85.77 Q 368.81 85.81 368.71 85.94 Q 368.61 86.06 368.49 86.29 Q 368.37 86.52 368.21 86.84 L 368.21 90 L 367.43 90 L 367.43 85.09 L 368.09 85.09 L 368.12 86.03 Q 368.25 85.75 368.37 85.55 Q 368.5 85.36 368.62 85.24 Q 368.75 85.12 368.89 85.07 Q 369.03 85.02 369.21 85.02 Q 369.61 85.02 369.81 85.27 Q 370.01 85.53 370.01 86.06 Q 370.14 85.81 370.25 85.62 Q 370.36 85.42 370.49 85.29 Q 370.62 85.16 370.78 85.09 Q 370.93 85.02 371.14 85.02 Q 372.06 85.02 372.06 86.44 L 372.06 90 L 371.28 90 Z  M 376.43 90 L 376.4 89.34 Q 376.01 89.73 375.6 89.91 Q 375.18 90.09 374.73 90.09 Q 374.31 90.09 374.01 89.98 Q 373.71 89.88 373.52 89.69 Q 373.32 89.5 373.24 89.24 Q 373.15 88.98 373.15 88.69 Q 373.15 87.95 373.7 87.54 Q 374.24 87.12 375.32 87.12 L 376.34 87.12 L 376.34 86.69 Q 376.34 86.25 376.06 85.99 Q 375.78 85.73 375.2 85.73 Q 374.79 85.73 374.38 85.83 Q 373.98 85.92 373.56 86.09 L 373.56 85.33 Q 373.71 85.27 373.91 85.21 Q 374.1 85.16 374.33 85.11 Q 374.56 85.06 374.79 85.04 Q 375.03 85.02 375.28 85.02 Q 375.71 85.02 376.07 85.11 Q 376.43 85.2 376.67 85.41 Q 376.92 85.61 377.05 85.91 Q 377.18 86.2 377.18 86.62 L 377.18 90 L 376.43 90 Z  M 376.34 87.77 L 375.26 87.77 Q 374.93 87.77 374.71 87.83 Q 374.48 87.89 374.33 88.01 Q 374.18 88.12 374.11 88.29 Q 374.04 88.45 374.04 88.66 Q 374.04 88.8 374.09 88.93 Q 374.13 89.06 374.23 89.16 Q 374.32 89.27 374.48 89.32 Q 374.63 89.38 374.87 89.38 Q 375.15 89.38 375.53 89.2 Q 375.92 89.02 376.34 88.64 L 376.34 87.77 Z  M 380.45 85.8 L 378.99 85.8 L 378.99 85.09 L 381.3 85.09 L 381.3 89.3 L 382.76 89.3 L 382.76 90 L 378.84 90 L 378.84 89.3 L 380.45 89.3 L 380.45 85.8 Z  M 380.74 83.05 Q 380.88 83.05 381.01 83.09 Q 381.13 83.14 381.22 83.23 Q 381.3 83.33 381.36 83.45 Q 381.41 83.56 381.41 83.7 Q 381.41 83.84 381.36 83.97 Q 381.3 84.09 381.22 84.19 Q 381.13 84.28 381.01 84.33 Q 380.88 84.38 380.74 84.38 Q 380.6 84.38 380.48 84.33 Q 380.35 84.28 380.27 84.19 Q 380.18 84.09 380.12 83.97 Q 380.07 83.84 380.07 83.7 Q 380.07 83.56 380.12 83.45 Q 380.18 83.33 380.27 83.23 Q 380.35 83.14 380.48 83.09 Q 380.6 83.05 380.74 83.05 Z  M 384.27 85.09 L 385.02 85.09 L 385.07 85.89 Q 385.27 85.64 385.47 85.47 Q 385.68 85.3 385.87 85.2 Q 386.07 85.09 386.26 85.05 Q 386.46 85.02 386.68 85.02 Q 387.44 85.02 387.83 85.46 Q 388.21 85.91 388.21 86.8 L 388.21 90 L 387.37 90 L 387.37 86.88 Q 387.37 86.3 387.15 86.02 Q 386.93 85.73 386.51 85.73 Q 386.35 85.73 386.2 85.78 Q 386.05 85.83 385.89 85.95 Q 385.72 86.06 385.54 86.26 Q 385.35 86.45 385.12 86.75 L 385.12 90 L 384.27 90 L 384.27 85.09 Z  M 399.21 90 L 398.44 90 L 398.42 89.2 Q 398.21 89.47 398 89.63 Q 397.8 89.8 397.6 89.9 Q 397.41 90 397.21 90.05 Q 397.02 90.09 396.8 90.09 Q 396.03 90.09 395.65 89.65 Q 395.27 89.2 395.27 88.3 L 395.27 85.09 L 396.11 85.09 L 396.11 88.23 Q 396.11 89.36 396.97 89.36 Q 397.13 89.36 397.28 89.31 Q 397.42 89.27 397.59 89.15 Q 397.75 89.03 397.94 88.84 Q 398.13 88.64 398.36 88.34 L 398.36 85.09 L 399.21 85.09 L 399.21 90 Z  M 400.77 85.09 L 401.52 85.09 L 401.56 85.89 Q 401.77 85.64 401.97 85.47 Q 402.17 85.3 402.37 85.2 Q 402.56 85.09 402.76 85.05 Q 402.95 85.02 403.17 85.02 Q 403.94 85.02 404.32 85.46 Q 404.7 85.91 404.7 86.8 L 404.7 90 L 403.86 90 L 403.86 86.88 Q 403.86 86.3 403.64 86.02 Q 403.42 85.73 403 85.73 Q 402.84 85.73 402.7 85.78 Q 402.55 85.83 402.38 85.95 Q 402.22 86.06 402.03 86.26 Q 401.84 86.45 401.61 86.75 L 401.61 90 L 400.77 90 L 400.77 85.09 Z  M 410.22 89.94 Q 409.92 90 409.62 90.03 Q 409.31 90.06 409 90.06 Q 408.08 90.06 407.62 89.65 Q 407.17 89.23 407.17 88.38 L 407.17 85.81 L 405.79 85.81 L 405.79 85.09 L 407.17 85.09 L 407.17 83.75 L 408.01 83.53 L 408.01 85.09 L 410.22 85.09 L 410.22 85.81 L 408.01 85.81 L 408.01 88.3 Q 408.01 88.83 408.29 89.09 Q 408.58 89.34 409.12 89.34 Q 409.36 89.34 409.63 89.31 Q 409.9 89.28 410.22 89.2 L 410.22 89.94 Z  M 413.43 85.8 L 411.98 85.8 L 411.98 85.09 L 414.29 85.09 L 414.29 89.3 L 415.75 89.3 L 415.75 90 L 411.82 90 L 411.82 89.3 L 413.43 89.3 L 413.43 85.8 Z  M 413.73 83.05 Q 413.87 83.05 414 83.09 Q 414.12 83.14 414.21 83.23 Q 414.29 83.33 414.35 83.45 Q 414.4 83.56 414.4 83.7 Q 414.4 83.84 414.35 83.97 Q 414.29 84.09 414.21 84.19 Q 414.12 84.28 414 84.33 Q 413.87 84.38 413.73 84.38 Q 413.59 84.38 413.46 84.33 Q 413.34 84.28 413.25 84.19 Q 413.17 84.09 413.11 83.97 Q 413.06 83.84 413.06 83.7 Q 413.06 83.56 413.11 83.45 Q 413.17 83.33 413.25 83.23 Q 413.34 83.14 413.46 83.09 Q 413.59 83.05 413.73 83.05 Z  M 418.93 83.8 L 417.48 83.8 L 417.48 83.09 L 419.79 83.09 L 419.79 89.3 L 421.24 89.3 L 421.24 90 L 417.32 90 L 417.32 89.3 L 418.93 89.3 L 418.93 83.8 Z  M 432.62 85.09 L 430.94 89.48 Q 430.69 90.16 430.41 90.64 Q 430.13 91.12 429.8 91.43 Q 429.47 91.73 429.08 91.88 Q 428.69 92.03 428.22 92.03 Q 428.08 92.03 427.98 92.02 Q 427.88 92.02 427.76 92.02 L 427.76 91.23 Q 427.87 91.25 428 91.27 Q 428.13 91.28 428.27 91.28 Q 428.51 91.28 428.71 91.21 Q 428.91 91.14 429.09 90.98 Q 429.27 90.83 429.44 90.59 Q 429.6 90.34 429.76 90 L 427.8 85.09 L 428.77 85.09 L 430.01 88.34 L 430.26 89.09 L 430.54 88.31 L 431.68 85.09 L 432.62 85.09 Z  M 438.02 87.52 Q 438.02 88.08 437.86 88.55 Q 437.71 89.03 437.4 89.38 Q 437.1 89.72 436.66 89.91 Q 436.22 90.09 435.68 90.09 Q 435.14 90.09 434.73 89.93 Q 434.32 89.77 434.02 89.45 Q 433.72 89.12 433.57 88.66 Q 433.43 88.19 433.43 87.58 Q 433.43 87 433.58 86.53 Q 433.74 86.06 434.04 85.73 Q 434.35 85.39 434.79 85.2 Q 435.22 85.02 435.77 85.02 Q 436.3 85.02 436.71 85.18 Q 437.13 85.34 437.42 85.66 Q 437.71 85.97 437.86 86.44 Q 438.02 86.91 438.02 87.52 Z  M 437.16 87.55 Q 437.16 87.09 437.06 86.76 Q 436.96 86.42 436.77 86.2 Q 436.58 85.97 436.32 85.85 Q 436.05 85.73 435.72 85.73 Q 435.35 85.73 435.07 85.88 Q 434.8 86.03 434.63 86.28 Q 434.46 86.53 434.37 86.86 Q 434.29 87.19 434.29 87.55 Q 434.29 88 434.39 88.34 Q 434.49 88.69 434.68 88.91 Q 434.86 89.14 435.13 89.26 Q 435.39 89.38 435.72 89.38 Q 436.1 89.38 436.37 89.23 Q 436.64 89.08 436.82 88.83 Q 436.99 88.58 437.07 88.25 Q 437.16 87.92 437.16 87.55 Z  M 443.19 90 L 442.42 90 L 442.41 89.2 Q 442.19 89.47 441.99 89.63 Q 441.78 89.8 441.59 89.9 Q 441.39 90 441.2 90.05 Q 441 90.09 440.78 90.09 Q 440.02 90.09 439.63 89.65 Q 439.25 89.2 439.25 88.3 L 439.25 85.09 L 440.1 85.09 L 440.1 88.23 Q 440.1 89.36 440.96 89.36 Q 441.11 89.36 441.26 89.31 Q 441.41 89.27 441.57 89.15 Q 441.74 89.03 441.92 88.84 Q 442.11 88.64 442.35 88.34 L 442.35 85.09 L 443.19 85.09 L 443.19 90 Z  M 444.95 85.09 L 445.73 85.09 L 445.75 86 Q 446.19 85.48 446.61 85.25 Q 447.03 85.02 447.45 85.02 Q 448.22 85.02 448.62 85.51 Q 449.02 86 448.98 86.97 L 448.12 86.97 Q 448.14 86.33 447.94 86.03 Q 447.73 85.73 447.34 85.73 Q 447.17 85.73 447 85.8 Q 446.83 85.86 446.64 85.99 Q 446.45 86.12 446.25 86.34 Q 446.05 86.55 445.81 86.84 L 445.81 90 L 444.95 90 L 444.95 85.09 Z  M 455.75 85.09 L 456.5 85.09 L 456.54 85.89 Q 456.75 85.64 456.95 85.47 Q 457.15 85.3 457.35 85.2 Q 457.54 85.09 457.74 85.05 Q 457.93 85.02 458.15 85.02 Q 458.92 85.02 459.3 85.46 Q 459.68 85.91 459.68 86.8 L 459.68 90 L 458.84 90 L 458.84 86.88 Q 458.84 86.3 458.62 86.02 Q 458.4 85.73 457.98 85.73 Q 457.82 85.73 457.68 85.78 Q 457.53 85.83 457.36 85.95 Q 457.2 86.06 457.01 86.26 Q 456.82 86.45 456.59 86.75 L 456.59 90 L 455.75 90 L 455.75 85.09 Z  M 465.38 87.3 Q 465.38 87.47 465.38 87.59 Q 465.37 87.72 465.37 87.83 L 461.92 87.83 Q 461.92 88.58 462.34 88.98 Q 462.76 89.38 463.56 89.38 Q 463.78 89.38 463.99 89.36 Q 464.2 89.34 464.4 89.31 Q 464.6 89.28 464.78 89.25 Q 464.96 89.22 465.12 89.17 L 465.12 89.88 Q 464.78 89.97 464.34 90.03 Q 463.9 90.09 463.43 90.09 Q 462.81 90.09 462.35 89.92 Q 461.9 89.75 461.6 89.42 Q 461.31 89.09 461.17 88.62 Q 461.04 88.16 461.04 87.56 Q 461.04 87.05 461.19 86.59 Q 461.34 86.12 461.62 85.77 Q 461.9 85.42 462.31 85.22 Q 462.73 85.02 463.26 85.02 Q 463.78 85.02 464.17 85.17 Q 464.57 85.33 464.84 85.62 Q 465.1 85.92 465.24 86.34 Q 465.38 86.77 465.38 87.3 Z  M 464.49 87.17 Q 464.51 86.84 464.43 86.57 Q 464.35 86.3 464.19 86.1 Q 464.03 85.91 463.78 85.8 Q 463.54 85.69 463.23 85.69 Q 462.95 85.69 462.71 85.8 Q 462.48 85.91 462.31 86.1 Q 462.15 86.3 462.05 86.57 Q 461.95 86.84 461.92 87.17 L 464.49 87.17 Z  M 471.16 90 L 470.04 90 L 468.71 88.12 L 467.4 90 L 466.3 90 L 468.2 87.53 L 466.4 85.09 L 467.48 85.09 L 468.77 86.98 L 470.04 85.09 L 471.09 85.09 L 469.24 87.56 L 471.16 90 Z  M 476.19 89.94 Q 475.9 90 475.59 90.03 Q 475.29 90.06 474.97 90.06 Q 474.05 90.06 473.6 89.65 Q 473.15 89.23 473.15 88.38 L 473.15 85.81 L 471.77 85.81 L 471.77 85.09 L 473.15 85.09 L 473.15 83.75 L 473.99 83.53 L 473.99 85.09 L 476.19 85.09 L 476.19 85.81 L 473.99 85.81 L 473.99 88.3 Q 473.99 88.83 474.27 89.09 Q 474.55 89.34 475.1 89.34 Q 475.33 89.34 475.61 89.31 Q 475.88 89.28 476.19 89.2 L 476.19 89.94 Z  M 487.38 87.3 Q 487.38 87.47 487.37 87.59 Q 487.36 87.72 487.36 87.83 L 483.91 87.83 Q 483.91 88.58 484.33 88.98 Q 484.75 89.38 485.55 89.38 Q 485.77 89.38 485.98 89.36 Q 486.19 89.34 486.39 89.31 Q 486.6 89.28 486.78 89.25 Q 486.96 89.22 487.11 89.17 L 487.11 89.88 Q 486.77 89.97 486.33 90.03 Q 485.89 90.09 485.42 90.09 Q 484.8 90.09 484.35 89.92 Q 483.89 89.75 483.6 89.42 Q 483.3 89.09 483.17 88.62 Q 483.03 88.16 483.03 87.56 Q 483.03 87.05 483.18 86.59 Q 483.33 86.12 483.61 85.77 Q 483.89 85.42 484.31 85.22 Q 484.72 85.02 485.25 85.02 Q 485.77 85.02 486.17 85.17 Q 486.56 85.33 486.83 85.62 Q 487.1 85.92 487.24 86.34 Q 487.38 86.77 487.38 87.3 Z  M 486.49 87.17 Q 486.5 86.84 486.42 86.57 Q 486.35 86.3 486.18 86.1 Q 486.02 85.91 485.78 85.8 Q 485.53 85.69 485.22 85.69 Q 484.94 85.69 484.71 85.8 Q 484.47 85.91 484.31 86.1 Q 484.14 86.3 484.04 86.57 Q 483.94 86.84 483.91 87.17 L 486.49 87.17 Z  M 488.73 85.09 L 489.48 85.09 L 489.53 85.89 Q 489.73 85.64 489.94 85.47 Q 490.14 85.3 490.34 85.2 Q 490.53 85.09 490.73 85.05 Q 490.92 85.02 491.14 85.02 Q 491.91 85.02 492.29 85.46 Q 492.67 85.91 492.67 86.8 L 492.67 90 L 491.83 90 L 491.83 86.88 Q 491.83 86.3 491.61 86.02 Q 491.39 85.73 490.97 85.73 Q 490.81 85.73 490.66 85.78 Q 490.52 85.83 490.35 85.95 Q 490.19 86.06 490 86.26 Q 489.81 86.45 489.58 86.75 L 489.58 90 L 488.73 90 L 488.73 85.09 Z  M 493.98 87.66 Q 493.98 87.03 494.15 86.54 Q 494.33 86.05 494.64 85.72 Q 494.95 85.39 495.4 85.21 Q 495.84 85.03 496.39 85.03 Q 496.62 85.03 496.85 85.06 Q 497.08 85.09 497.29 85.16 L 497.29 83.09 L 498.14 83.09 L 498.14 90 L 497.39 90 L 497.36 89.08 Q 497 89.59 496.58 89.84 Q 496.17 90.09 495.69 90.09 Q 495.26 90.09 494.94 89.91 Q 494.62 89.73 494.41 89.41 Q 494.2 89.09 494.09 88.65 Q 493.98 88.2 493.98 87.66 Z  M 494.86 87.59 Q 494.86 88.48 495.12 88.92 Q 495.37 89.36 495.86 89.36 Q 496.17 89.36 496.53 89.07 Q 496.89 88.78 497.29 88.22 L 497.29 85.94 Q 497.08 85.84 496.83 85.79 Q 496.58 85.73 496.33 85.73 Q 495.62 85.73 495.24 86.19 Q 494.86 86.64 494.86 87.59 Z  M 503.15 87.73 L 500.25 87.73 L 500.25 86.94 L 503.15 86.94 L 503.15 87.73 Z  M 509.49 87.52 Q 509.49 88.08 509.34 88.55 Q 509.18 89.03 508.88 89.38 Q 508.57 89.72 508.13 89.91 Q 507.7 90.09 507.15 90.09 Q 506.62 90.09 506.21 89.93 Q 505.79 89.77 505.49 89.45 Q 505.2 89.12 505.05 88.66 Q 504.9 88.19 504.9 87.58 Q 504.9 87 505.06 86.53 Q 505.21 86.06 505.52 85.73 Q 505.82 85.39 506.26 85.2 Q 506.7 85.02 507.24 85.02 Q 507.78 85.02 508.19 85.18 Q 508.6 85.34 508.89 85.66 Q 509.18 85.97 509.34 86.44 Q 509.49 86.91 509.49 87.52 Z  M 508.63 87.55 Q 508.63 87.09 508.53 86.76 Q 508.43 86.42 508.24 86.2 Q 508.06 85.97 507.79 85.85 Q 507.53 85.73 507.2 85.73 Q 506.82 85.73 506.55 85.88 Q 506.28 86.03 506.1 86.28 Q 505.93 86.53 505.85 86.86 Q 505.76 87.19 505.76 87.55 Q 505.76 88 505.86 88.34 Q 505.96 88.69 506.15 88.91 Q 506.34 89.14 506.6 89.26 Q 506.87 89.38 507.2 89.38 Q 507.57 89.38 507.85 89.23 Q 508.12 89.08 508.29 88.83 Q 508.46 88.58 508.55 88.25 Q 508.63 87.92 508.63 87.55 Z  M 515.07 83.89 Q 514.41 83.75 513.93 83.75 Q 512.77 83.75 512.77 84.95 L 512.77 85.81 L 514.93 85.81 L 514.93 86.52 L 512.77 86.52 L 512.77 90 L 511.91 90 L 511.91 86.52 L 510.34 86.52 L 510.34 85.81 L 511.91 85.81 L 511.91 85 Q 511.91 83.05 513.96 83.05 Q 514.46 83.05 515.07 83.16 L 515.07 83.89 Z  M 519.65 87.73 L 516.74 87.73 L 516.74 86.94 L 519.65 86.94 L 519.65 87.73 Z  M 525.68 89.94 Q 525.38 90 525.07 90.03 Q 524.77 90.06 524.46 90.06 Q 523.54 90.06 523.08 89.65 Q 522.63 89.23 522.63 88.38 L 522.63 85.81 L 521.25 85.81 L 521.25 85.09 L 522.63 85.09 L 522.63 83.75 L 523.47 83.53 L 523.47 85.09 L 525.68 85.09 L 525.68 85.81 L 523.47 85.81 L 523.47 88.3 Q 523.47 88.83 523.75 89.09 Q 524.04 89.34 524.58 89.34 Q 524.82 89.34 525.09 89.31 Q 525.36 89.28 525.68 89.2 L 525.68 89.94 Z  M 531.16 90 L 530.39 90 L 530.38 89.2 Q 530.16 89.47 529.96 89.63 Q 529.75 89.8 529.56 89.9 Q 529.36 90 529.17 90.05 Q 528.97 90.09 528.75 90.09 Q 527.99 90.09 527.6 89.65 Q 527.22 89.2 527.22 88.3 L 527.22 85.09 L 528.06 85.09 L 528.06 88.23 Q 528.06 89.36 528.92 89.36 Q 529.08 89.36 529.23 89.31 Q 529.38 89.27 529.54 89.15 Q 529.71 89.03 529.89 88.84 Q 530.08 88.64 530.31 88.34 L 530.31 85.09 L 531.16 85.09 L 531.16 90 Z  M 532.92 85.09 L 533.7 85.09 L 533.72 86 Q 534.16 85.48 534.58 85.25 Q 535 85.02 535.42 85.02 Q 536.19 85.02 536.59 85.51 Q 536.98 86 536.95 86.97 L 536.09 86.97 Q 536.11 86.33 535.91 86.03 Q 535.7 85.73 535.31 85.73 Q 535.14 85.73 534.97 85.8 Q 534.8 85.86 534.61 85.99 Q 534.42 86.12 534.22 86.34 Q 534.02 86.55 533.78 86.84 L 533.78 90 L 532.92 90 L 532.92 85.09 Z  M 538.22 85.09 L 538.97 85.09 L 539.01 85.89 Q 539.22 85.64 539.42 85.47 Q 539.62 85.3 539.82 85.2 Q 540.01 85.09 540.21 85.05 Q 540.4 85.02 540.62 85.02 Q 541.39 85.02 541.77 85.46 Q 542.15 85.91 542.15 86.8 L 542.15 90 L 541.31 90 L 541.31 86.88 Q 541.31 86.3 541.09 86.02 Q 540.87 85.73 540.45 85.73 Q 540.29 85.73 540.15 85.78 Q 540 85.83 539.83 85.95 Q 539.67 86.06 539.48 86.26 Q 539.29 86.45 539.06 86.75 L 539.06 90 L 538.22 90 L 538.22 85.09 Z  M 545.64 88.47 Q 545.81 88.47 545.96 88.53 Q 546.11 88.59 546.21 88.7 Q 546.32 88.81 546.39 88.96 Q 546.45 89.11 546.45 89.28 Q 546.45 89.45 546.39 89.59 Q 546.32 89.73 546.21 89.84 Q 546.11 89.95 545.96 90.02 Q 545.81 90.09 545.64 90.09 Q 545.48 90.09 545.33 90.02 Q 545.18 89.95 545.07 89.84 Q 544.96 89.73 544.9 89.59 Q 544.84 89.45 544.84 89.28 Q 544.84 89.11 544.9 88.96 Q 544.96 88.81 545.07 88.7 Q 545.18 88.59 545.33 88.53 Q 545.48 88.47 545.64 88.47 Z "/></g><g style="stroke-width: 1.0;stroke: rgb(0,0,0);stroke-opacity: 1.0;stroke-linecap: square;; fill: none" transform="matrix(1,0,0,1,9,6)" clip-path="url(#_5953143282611clip-5)"><path d="M 247 62 L 247 257 L 582 257 L 582 62 Z "/></g></svg>